<?xml version="1.0" encoding="UTF-8" standalone="no"?>
<!-- Created with Inkscape (http://www.inkscape.org/) -->

<svg
   version="1.1"
   id="svg112016"
   width="1056"
   height="533.33331"
   viewBox="0 0 1056 533.33331"
   sodipodi:docname="bukbs-nature.svg"
   inkscape:version="1.2.1 (9c6d41e, 2022-07-14)"
   inkscape:export-filename="bulbs-nature.png"
   inkscape:export-xdpi="96"
   inkscape:export-ydpi="96"
   xmlns:inkscape="http://www.inkscape.org/namespaces/inkscape"
   xmlns:sodipodi="http://sodipodi.sourceforge.net/DTD/sodipodi-0.dtd"
   xmlns="http://www.w3.org/2000/svg"
   xmlns:svg="http://www.w3.org/2000/svg">
  <defs
     id="defs112020">
    <clipPath
       clipPathUnits="userSpaceOnUse"
       id="clipPath112032">
      <path
         d="M 0,399.96 H 791.051 V 0 H 0 Z"
         id="path112030" />
    </clipPath>
  </defs>
  <sodipodi:namedview
     id="namedview112018"
     pagecolor="#ffffff"
     bordercolor="#000000"
     borderopacity="0.25"
     inkscape:showpageshadow="2"
     inkscape:pageopacity="0.0"
     inkscape:pagecheckerboard="0"
     inkscape:deskcolor="#d1d1d1"
     showgrid="false"
     inkscape:zoom="1.0889932"
     inkscape:cx="559.69126"
     inkscape:cy="325.98917"
     inkscape:window-width="1440"
     inkscape:window-height="872"
     inkscape:window-x="0"
     inkscape:window-y="0"
     inkscape:window-maximized="1"
     inkscape:current-layer="g112024">
    <inkscape:page
       x="0"
       y="0"
       id="page112022"
       width="1056"
       height="533.33331" />
  </sodipodi:namedview>
  <g
     id="g30978"
     transform="matrix(4.2445501,0,0,4.2445501,89.657975,-284.38754)"
     inkscape:label="sun">
    <path
       d="m 135.75327,115.74092 c 12.66983,0 22.941,10.27118 22.941,22.94117 0,12.67033 -10.27117,22.94085 -22.941,22.94085 -12.67016,0 -22.94134,-10.27052 -22.94134,-22.94085 0,-12.66999 10.27118,-22.94117 22.94134,-22.94117"
       style="fill:#ebb763;fill-opacity:1;fill-rule:evenodd;stroke:none;stroke-width:0.016314"
       id="path407-1" />
    <path
       d="m 114.47401,121.31022 c 1.6115,0 3.02821,0.83463 3.84164,2.09489 0.23084,-0.0679 0.4749,-0.10425 0.7276,-0.10425 1.42438,0 2.57893,1.15455 2.57893,2.57877 0,0.36592 -0.0764,0.71374 -0.21372,1.02892 h -14.54611 c -0.1093,-0.32302 -0.16852,-0.66904 -0.16852,-1.02892 0,-1.77318 1.4376,-3.21094 3.21093,-3.21094 0.39725,0 0.77753,0.0723 1.12878,0.20442 0.83756,-0.9578 2.06829,-1.56289 3.44047,-1.56289"
       style="fill:#ffffff;fill-opacity:1;fill-rule:evenodd;stroke:none;stroke-width:0.016314"
       id="path409-4" />
    <path
       d="m 149.38106,116.64358 c 1.08195,0 2.0329,0.56006 2.57909,1.40611 0.15499,-0.0455 0.31862,-0.07 0.48828,-0.07 0.95601,0 1.73125,0.77509 1.73125,1.73109 0,0.24569 -0.0512,0.47931 -0.14356,0.6909 h -9.7643 c -0.0737,-0.21681 -0.11338,-0.44929 -0.11338,-0.6909 0,-1.19028 0.96498,-2.15541 2.15557,-2.15541 0.26658,0 0.52173,0.0486 0.75763,0.13719 0.56235,-0.64293 1.38849,-1.04899 2.30942,-1.04899"
       style="fill:#ffffff;fill-opacity:1;fill-rule:evenodd;stroke:none;stroke-width:0.016314"
       id="path413-9" />
    <path
       d="m 156.51928,126.86761 c 2.15819,0 4.05519,1.11751 5.14464,2.80504 0.30916,-0.0905 0.63609,-0.13949 0.97445,-0.13949 1.90727,0 3.45368,1.54625 3.45368,3.45353 0,0.49007 -0.10228,0.956 -0.28631,1.37805 h -19.47981 c -0.1465,-0.43265 -0.22579,-0.89613 -0.22579,-1.37805 0,-2.37484 1.92522,-4.2999 4.2999,-4.2999 0.53217,0 1.04132,0.0967 1.51166,0.27359 1.12176,-1.28262 2.7698,-2.09277 4.60758,-2.09277"
       style="fill:#ffffff;fill-opacity:1;fill-rule:evenodd;stroke:none;stroke-width:0.016314"
       id="path417-5" />
  </g>
  <path
     d="M 418.35608,457.32541 H 839.55377 C 823.80608,399.80204 763.27872,350.66411 704.03506,348.49232 652.28461,327.34721 587.01782,328.52178 553.47165,342.07996 c -21.42358,0.30948 -39.13824,3.15441 -55.87404,-0.54203 -79.74024,-26.03847 -226.58235,18.86099 -261.25493,115.78748"
     style="fill:#b2d7bd;fill-opacity:1;fill-rule:evenodd;stroke:none;stroke-width:0.0734409"
     id="path786"
     inkscape:label="land" />
  <path
     d="m 548.70163,400.1441 c 2.02136,-16.09157 7.79969,-19.23429 10.22216,-28.12661 2.42249,-8.89232 -7.91172,-12.87056 -8.2008,-34.10987 -0.28797,-21.23809 12.1337,-28.91075 19.12439,-38.28751 6.9907,-9.37799 -2.65666,-52.31413 20.50709,-52.12818 18.81066,0.15047 15.8369,31.5409 16.12598,39.81667 0.28909,8.27455 10.11124,17.54977 10.11124,17.54977 0,0 23.86181,10.48387 23.33182,30.70537 -0.52999,20.2215 -3.95195,31.11028 0,37.08376 3.95194,5.97348 12.99872,25.63225 2.29475,44.10197 -12.53484,21.6271 -47.06589,5.16609 -59.5716,8.93881 -22.96766,6.92889 -35.9675,-9.45261 -33.94503,-25.54418"
     style="fill:#97b783;fill-opacity:1;fill-rule:nonzero;stroke:none;stroke-width:1.17077"
     id="path54758" />
  <path
     d="m 588.73425,463.51582 c -0.23979,0 -0.43363,-0.21163 -0.43363,-0.47342 l -0.0336,-158.74799 c 0,-0.26179 0.19383,-0.47219 0.43362,-0.47219 0.23867,0 0.43363,0.2104 0.43363,0.47219 l 0.0336,158.74799 c 0,0.26179 -0.19384,0.47342 -0.43362,0.47342"
     style="fill:#5e7c4a;fill-opacity:1;fill-rule:nonzero;stroke:none;stroke-width:1.17077"
     id="path54760" />
  <path
     d="m 588.70063,394.94376 c -0.0863,0 -0.17256,-0.0282 -0.24874,-0.0844 -0.19497,-0.15047 -0.24315,-0.44529 -0.10645,-0.6606 l 24.97332,-39.03985 c 0.13782,-0.21286 0.40562,-0.26546 0.60394,-0.11622 0.19608,0.15047 0.24427,0.44407 0.10645,0.65938 l -24.97333,39.03985 c -0.084,0.1309 -0.21849,0.20185 -0.35519,0.20185"
     style="fill:#5e7c4a;fill-opacity:1;fill-rule:nonzero;stroke:none;stroke-width:1.17077"
     id="path54764" />
  <path
     d="m 588.70175,343.5667 c -0.15015,0 -0.29469,-0.0844 -0.37536,-0.23609 l -7.92966,-14.86336 c -0.12101,-0.22632 -0.0504,-0.51502 0.15575,-0.64592 0.20953,-0.13456 0.47284,-0.055 0.59273,0.17004 l 7.92966,14.86459 c 0.12101,0.22509 0.0504,0.51501 -0.15574,0.64591 -0.0695,0.044 -0.14454,0.0649 -0.21738,0.0649"
     style="fill:#5e7c4a;fill-opacity:1;fill-rule:nonzero;stroke:none;stroke-width:1.17077"
     id="path54766" />
  <path
     d="m 655.43211,292.81966 c -15.10859,0.005 -22.24495,25.37291 -23.69037,35.64147 -1.21573,8.64522 -19.64319,3.49259 -22.62591,24.4175 -2.19167,15.3698 11.88833,27.9847 4.88418,33.97897 -7.00301,5.99428 -22.39397,17.2941 -8.29269,42.17891 14.1024,24.88481 38.66002,4.82111 46.75551,6.0848 8.09548,1.26247 8.26692,11.24232 20.00174,12.48767 11.73481,1.24412 26.29885,-12.69564 20.98104,-30.75064 -5.31669,-18.05378 -8.84621,-18.95169 -9.47144,-24.79184 -0.62523,-5.83891 10.78352,-16.19065 7.91845,-31.6779 -2.86395,-15.48725 -11.07709,-12.99045 -14.56516,-15.98147 -3.48806,-2.99103 1.7939,-51.59604 -21.89535,-51.58747"
     style="fill:#abcc96;fill-opacity:1;fill-rule:nonzero;stroke:none;stroke-width:1.17077"
     id="path54770" />
  <path
     d="m 652.83147,475.85792 c -0.23642,0 -0.43027,-0.20674 -0.43363,-0.46487 l -1.4443,-105.92129 c -0.003,-0.26179 0.18824,-0.47709 0.4269,-0.48076 0.20057,-0.022 0.43699,0.20429 0.44035,0.46608 l 1.44431,105.92129 c 0.003,0.2618 -0.18824,0.4771 -0.42691,0.47955 -0.003,0 -0.004,0 -0.007,0"
     style="fill:#5e7c4a;fill-opacity:1;fill-rule:nonzero;stroke:none;stroke-width:1.17077"
     id="path54772" />
  <path
     d="m 652.03817,417.74892 c -0.0829,0 -0.16807,-0.0257 -0.24203,-0.0807 -0.19832,-0.1468 -0.24986,-0.4404 -0.1154,-0.65693 l 22.07462,-35.51546 c 0.13446,-0.21653 0.4045,-0.2728 0.6017,-0.12723 0.19833,0.1468 0.24988,0.44162 0.11429,0.65692 l -22.07351,35.5167 c -0.084,0.13457 -0.22073,0.20674 -0.35967,0.20674"
     style="fill:#5e7c4a;fill-opacity:1;fill-rule:nonzero;stroke:none;stroke-width:1.17077"
     id="path54774" />
  <path
     d="m 652.10876,431.7584 c -0.10981,0 -0.21961,-0.0452 -0.30478,-0.13702 l -29.99644,-32.40333 c -0.17031,-0.1835 -0.17143,-0.48322 -0.003,-0.67039 0.16807,-0.1835 0.44371,-0.18717 0.6129,-0.004 l 29.99645,32.40457 c 0.17031,0.1835 0.17255,0.48321 0.003,0.66915 -0.084,0.0942 -0.19609,0.14069 -0.30813,0.14069"
     style="fill:#5e7c4a;fill-opacity:1;fill-rule:nonzero;stroke:none;stroke-width:1.17077"
     id="path54776" />
  <path
     d="m 686.87734,369.8828 c 0,0 -11.0065,-15.98025 -4.84385,-31.50787 6.16266,-15.52762 16.17641,-14.86458 16.17641,-14.86458 -0.44258,-15.07989 0.17816,-30.87174 12.03959,-35.29038 21.08862,-7.8574 24.5565,24.13613 24.5565,24.13613 l 29.90794,89.69761 c 0,0 -5.35255,29.01841 -24.36266,41.22593 -19.01011,12.2063 -51.58704,11.86989 -62.53751,-13.78439 -7.19127,-16.84635 0.95352,-41.84615 9.06358,-59.61245"
     style="fill:#87a56f;fill-opacity:1;fill-rule:nonzero;stroke:none;stroke-width:1.17077"
     id="path54778" />
  <path
     d="m 716.33708,470.63923 c -0.23867,0 -0.43363,-0.21164 -0.43363,-0.47343 l -0.0246,-122.96338 c 0,-0.26057 0.19272,-0.47221 0.4325,-0.47221 0.23979,0 0.43363,0.21164 0.43363,0.47221 l 0.0258,122.96338 c 0,0.26179 -0.19384,0.47343 -0.43362,0.47343"
     style="fill:#5e7c4a;fill-opacity:1;fill-rule:nonzero;stroke:none;stroke-width:1.17077"
     id="path54784" />
  <path
     d="m 716.31243,429.23224 c -0.15351,0 -0.30366,-0.0893 -0.38209,-0.24711 l -16.55849,-33.33429 c -0.11429,-0.22876 -0.0359,-0.51747 0.17367,-0.64102 0.21177,-0.126 0.47509,-0.0392 0.58826,0.18961 l 16.55849,33.33429 c 0.11429,0.22876 0.0359,0.51747 -0.17367,0.64103 -0.0661,0.0404 -0.13671,0.0575 -0.20617,0.0575"
     style="fill:#5e7c4a;fill-opacity:1;fill-rule:nonzero;stroke:none;stroke-width:1.17077"
     id="path54790" />
  <g
     id="g112024"
     inkscape:groupmode="layer"
     inkscape:label="Page 1"
     transform="matrix(1.3333333,0,0,-1.3333333,0,533.33333)">
    <path
       d="m 640.60411,38.005 c 0,-3.155 -105.6924,-5.713 -236.07011,-5.713 -130.37771,0 -236.07011,2.558 -236.07011,5.713 0,3.156 105.6924,5.714 236.07011,5.714 130.37771,0 236.07011,-2.558 236.07011,-5.714"
       style="fill:#ddc7c7;fill-opacity:1;fill-rule:nonzero;stroke:none;stroke-width:0.849957"
       id="path112036" />
    <path
       d="m 510.624,187.039 c -0.156,0 -0.307,0.088 -0.379,0.238 -0.1,0.209 -0.013,0.461 0.196,0.562 14.585,7.021 26.017,1.292 26.13,1.233 0.207,-0.106 0.288,-0.36 0.182,-0.566 -0.107,-0.205 -0.359,-0.287 -0.566,-0.182 -0.111,0.057 -11.189,5.589 -25.38,-1.243 -0.059,-0.028 -0.121,-0.042 -0.183,-0.042"
       style="fill:#ffdd92;fill-opacity:1;fill-rule:nonzero;stroke:none"
       id="path112124" />
    <path
       d="m 295.98,191.615 c 0,0 -3.641,-16.69 -15.012,-21.197 -9.303,-3.688 -18.343,1.936 -18.343,1.936 l 6.929,17.748 c 0,0 6.026,-1.181 11.42,1.643 4.93,2.58 6.236,7.348 6.236,7.348 l 8.77,-7.478"
       style="fill:#f48462;fill-opacity:1;fill-rule:nonzero;stroke:none"
       id="path112132" />
    <path
       d="m 268.063,190.632 9.972,0.725 3.652,-22.143 c 0,0 -8.622,-2.034 -11.764,-0.078 -3.142,1.956 -4.427,17.731 -1.86,21.496"
       style="fill:#5c69a5;fill-opacity:1;fill-rule:nonzero;stroke:none"
       id="path112134" />
    <path
       d="m 258.724,206.26 c 0,0 4.909,4.6 2.25,7.884 -2.659,3.282 -7.494,-0.651 -7.494,-0.651 0,0 -2.149,1.836 -4.84,0.001 -2.691,-1.834 -2.703,-5.792 -2.703,-5.792 0,0 -2.876,-0.161 -2.766,-3.667 0.111,-3.506 4.116,-6.321 4.116,-6.321 l 11.437,8.546"
       style="fill:#000000;fill-opacity:1;fill-rule:nonzero;stroke:none"
       id="path112136" />
    <path
       d="m 221.138,175.882 c 0,0 -3.179,-3.417 -5.635,-10.127 -2.977,-8.138 -1.959,-21.267 -1.959,-21.267 l 11.521,-0.319 c 0,0 4.383,17.619 7.999,17.896 3.618,0.278 -11.926,13.817 -11.926,13.817"
       style="fill:#f48462;fill-opacity:1;fill-rule:nonzero;stroke:none"
       id="path112138" />
    <path
       d="m 217.125,112.926 9.29,-9.148 9.191,14.663 -5.251,5.351 -13.23,-10.866"
       style="fill:#f48462;fill-opacity:1;fill-rule:nonzero;stroke:none"
       id="path112140" />
    <path
       d="m 221.868,137.517 c -0.947,0.323 -4.968,-4.264 -5.456,-4.507 -0.489,-0.243 0.683,-3.83 -0.402,-4.094 -1.091,-0.262 -3.072,0.164 -4.659,-0.238 -1.489,-0.371 -18.24,-15.21 -21.111,-18.5 -0.242,-0.278 -0.19,-0.706 0.11,-0.946 0.666,-0.543 1.959,-1.526 3.504,-2.372 1.681,-0.923 3.677,-1.675 5.509,-1.538 4.325,0.333 10.47,4.343 13.596,4.782 3.132,0.438 8.116,-0.759 8.778,0.879 0.66,1.632 0.495,6.335 4.065,8.773 3.57,2.438 5.745,2.963 5.933,4.507 0.126,1.044 -4.002,6.591 -6.981,10.167 -1.423,1.716 -2.582,2.984 -2.886,3.087"
       style="fill:#f7b369;fill-opacity:1;fill-rule:nonzero;stroke:none"
       id="path112142" />
    <path
       d="m 221.868,137.517 c -0.947,0.323 -4.968,-4.264 -5.456,-4.507 -0.489,-0.243 0.683,-3.83 -0.402,-4.094 -1.091,-0.262 -3.072,0.164 -4.659,-0.238 -1.489,-0.371 -18.24,-15.21 -21.111,-18.5 -0.242,-0.278 -0.19,-0.706 0.11,-0.946 0.666,-0.543 1.959,-1.526 3.504,-2.372 l 30.9,27.57 c -1.423,1.716 -2.582,2.984 -2.886,3.087"
       style="fill:#ffffff;fill-opacity:1;fill-rule:nonzero;stroke:none"
       id="path112144" />
    <path
       d="m 260.48,61.69 0.27,-5.807 -9.816,-3.863 -5.179,0.45 0.099,11.993 14.626,-2.773"
       style="fill:#f48462;fill-opacity:1;fill-rule:nonzero;stroke:none"
       id="path112146" />
    <path
       d="m 239.074,148.049 c 0,0 -1.908,-9.854 -2.785,-18.225 -0.877,-8.371 -2.305,-19.61 -2.305,-19.61 0,0 -6.714,-25.784 9.801,-27.96 20.476,-2.697 19.288,21.555 19.288,21.555 l -6.459,50.733 -17.54,-6.493"
       style="fill:#a37b90;fill-opacity:1;fill-rule:nonzero;stroke:none"
       id="path112148" />
    <path
       d="m 238.31539,113.03468 h -29.10901 c -1.03106,0 -1.86711,0.83606 -1.86711,1.86712 v 19.69736 c 0,1.03107 0.83605,1.86781 1.86711,1.86781 h 29.10901 c 1.03106,0 1.86711,-0.83674 1.86711,-1.86781 V 114.9018 c 0,-1.03106 -0.83605,-1.86712 -1.86711,-1.86712"
       style="fill:#000000;fill-opacity:1;fill-rule:nonzero;stroke:none;stroke-width:0.691524"
       id="path111674" />
    <path
       d="m 216.846,108.726 16.844,14.711 5.087,-7.082 1.566,-33.224 c 0,0 -7.374,0.948 -23.497,25.595"
       style="fill:#a37b90;fill-opacity:1;fill-rule:nonzero;stroke:none"
       id="path112150" />
    <path
       d="m 236.1523,113.03468 h -28.98591 c -1.02968,0 -1.86366,0.83398 -1.86366,1.86297 v 19.70566 c 0,1.02899 0.83398,1.86366 1.86366,1.86366 h 28.98591 c 1.02899,0 1.86366,-0.83467 1.86366,-1.86366 v -19.70566 c 0,-1.02899 -0.83467,-1.86297 -1.86366,-1.86297"
       style="fill:#40507f;fill-opacity:1;fill-rule:nonzero;stroke:none;stroke-width:0.691524"
       id="path111676" />
    <path
       d="m 272.604,150.805 c 0,0 6.167,-27.431 4.126,-47.516 -2.04,-20.086 -9.541,-43.543 -9.541,-43.543 l -24.937,0.635 4.737,32.741 6.076,55.986 19.539,1.697"
       style="fill:#a37b90;fill-opacity:1;fill-rule:nonzero;stroke:none"
       id="path112152" />
    <path
       d="m 302.806,198.639 c 0,0 -6.854,-9.753 -10.317,-8.097 -3.462,1.657 -4.817,4.685 -4.817,4.685 0,0 -2.997,10.581 1.726,10.726 5.768,0.177 13.408,-7.314 13.408,-7.314"
       style="fill:#f48462;fill-opacity:1;fill-rule:nonzero;stroke:none"
       id="path112154" />
    <path
       d="m 299.427,205.977 c 0,0 2.373,4.441 -0.395,4.484 -2.768,0.043 -8.82,-6.775 -7.146,-9.106 1.673,-2.33 7.541,4.622 7.541,4.622"
       style="fill:#f48462;fill-opacity:1;fill-rule:nonzero;stroke:none"
       id="path112156" />
    <path
       d="m 302.517,203.182 c 0,0 2.373,4.441 -0.395,4.484 -2.768,0.043 -8.82,-6.775 -7.147,-9.105 1.673,-2.331 7.542,4.621 7.542,4.621"
       style="fill:#f48462;fill-opacity:1;fill-rule:nonzero;stroke:none"
       id="path112158" />
    <path
       d="m 304.727,199.634 c 0,0 2.739,3.515 0.332,3.97 -2.407,0.455 -8.712,-4.579 -7.604,-6.863 1.107,-2.283 7.272,2.893 7.272,2.893"
       style="fill:#f48462;fill-opacity:1;fill-rule:nonzero;stroke:none"
       id="path112160" />
    <path
       d="m 273.181,163.534 1.419,-16.342 -35.978,-1.586 c 0,0 -3.858,35.315 -1.951,39.362 3.725,7.897 31.392,5.664 31.392,5.664 l 5.118,-27.098"
       style="fill:#5c69a5;fill-opacity:1;fill-rule:nonzero;stroke:none"
       id="path112162" />
    <path
       d="m 242.663,39.531 c 0.47,-0.883 6.54,-0.28 7.063,-0.435 0.523,-0.157 2.118,3.263 3.089,2.715 0.976,-0.554 2.132,-2.218 3.566,-3.009 1.341,-0.745 23.711,-1.352 28.056,-0.91 0.366,0.037 0.62,0.386 0.565,0.765 -0.115,0.851 -0.388,2.453 -0.939,4.126 -0.597,1.822 -1.54,3.736 -2.972,4.887 -3.386,2.711 -10.613,3.98 -13.196,5.795 -2.587,1.82 -5.409,6.099 -7.011,5.354 -1.597,-0.74 -4.69,-4.288 -8.962,-3.63 -4.272,0.659 -6.219,1.761 -7.412,0.762 -0.804,-0.677 -1.58,-7.548 -1.847,-12.193 -0.133,-2.227 -0.152,-3.944 0,-4.227"
       style="fill:#f7b369;fill-opacity:1;fill-rule:nonzero;stroke:none"
       id="path112164" />
    <path
       d="m 228.227,137.516 c 0.034,-1.184 -1.493,-3.717 -1.493,-3.717 0,0 -0.172,-4.278 -1.395,-4.716 -1.222,-0.437 -2.795,1.352 -2.795,1.352 0,0 -2.443,-1.442 -3.448,-1.355 -1.004,0.087 -5.725,-0.036 -7.12,2.25 -1.395,2.286 1.568,13.158 1.568,13.158 l 10.196,2.074 c 0,0 4.454,-7.862 4.487,-9.046"
       style="fill:#f48462;fill-opacity:1;fill-rule:nonzero;stroke:none"
       id="path112166" />
    <path
       d="m 225.69162,124.75048 c 0,-1.52273 -1.23368,-2.75641 -2.75641,-2.75641 -1.52274,0 -2.75711,1.23368 -2.75711,2.75641 0,1.52274 1.23437,2.75711 2.75711,2.75711 1.52273,0 2.75641,-1.23437 2.75641,-2.75711"
       style="fill:#ffffff;fill-opacity:1;fill-rule:nonzero;stroke:none;stroke-width:0.691524"
       id="path111678" />
    <path
       d="m 222.544,130.177 c -0.13,0 -0.242,0.098 -0.255,0.23 l -0.32,3.03 c -0.015,0.141 0.087,0.268 0.229,0.283 0.134,0.014 0.268,-0.087 0.282,-0.229 l 0.32,-3.029 c 0.015,-0.142 -0.087,-0.269 -0.229,-0.283 -0.008,-0.001 -0.018,-0.002 -0.027,-0.002"
       style="fill:#000000;fill-opacity:1;fill-rule:nonzero;stroke:none"
       id="path112168" />
    <path
       d="m 250.2,196.599 0.456,-7.704 c 0,0 1.386,-2.116 5.476,-2.159 3.048,-0.033 4.067,0.811 4.067,0.811 l -0.667,3.401 -0.629,4.239 -7.453,1.208 -1.25,0.204"
       style="fill:#f48462;fill-opacity:1;fill-rule:nonzero;stroke:none"
       id="path112170" />
    <path
       d="m 251.423,195.465 c 0.031,-0.19 0.119,-0.408 0.248,-0.657 1.795,-3.367 6.1,-3.824 7.861,-3.86 l -0.599,3.924 -7.51,0.593"
       style="fill:#000000;fill-opacity:1;fill-rule:nonzero;stroke:none"
       id="path112172" />
    <path
       d="m 259.061,210.058 c 0,0 4.071,-8.112 3.012,-12.847 -1.059,-4.735 -5.349,-4.228 -7.941,-3.461 -2.591,0.767 -3.855,2.264 -3.855,2.264 0,0 -2.333,-0.932 -4.04,1.192 -1.706,2.125 -0.863,4.714 0.463,5.368 1.325,0.654 2.99,-0.24 2.99,-0.24 l -1.392,2.346 c 0,0 4.666,12.549 10.763,5.378"
       style="fill:#f48462;fill-opacity:1;fill-rule:nonzero;stroke:none"
       id="path112174" />
    <path
       d="m 249.673,198.728 c -0.046,0 -0.092,0.012 -0.135,0.039 l -3.15,1.952 c -0.12,0.074 -0.158,0.233 -0.083,0.354 0.074,0.12 0.232,0.159 0.355,0.083 l 3.15,-1.952 c 0.12,-0.075 0.158,-0.233 0.083,-0.354 -0.049,-0.079 -0.133,-0.122 -0.22,-0.122"
       style="fill:#000000;fill-opacity:1;fill-rule:nonzero;stroke:none"
       id="path112176" />
    <path
       d="m 246.936,198.577 c -0.108,0 -0.209,0.069 -0.245,0.177 -0.045,0.135 0.028,0.281 0.163,0.325 l 1.942,0.645 c 0.136,0.045 0.281,-0.029 0.325,-0.163 0.045,-0.135 -0.028,-0.281 -0.163,-0.326 l -1.941,-0.644 c -0.027,-0.009 -0.055,-0.014 -0.081,-0.014"
       style="fill:#000000;fill-opacity:1;fill-rule:nonzero;stroke:none"
       id="path112178" />
    <path
       d="m 253.705,206.169 c -0.05,0 -0.1,0.014 -0.143,0.043 -0.119,0.079 -0.15,0.239 -0.072,0.357 0.82,1.226 2.035,1.097 2.562,0.857 0.129,-0.059 0.186,-0.211 0.128,-0.34 -0.059,-0.129 -0.213,-0.185 -0.34,-0.129 -0.047,0.021 -1.145,0.491 -1.921,-0.674 -0.05,-0.074 -0.131,-0.114 -0.214,-0.114"
       style="fill:#000000;fill-opacity:1;fill-rule:nonzero;stroke:none"
       id="path112180" />
    <path
       d="m 260.145,206.926 c -0.053,0 -0.105,0.016 -0.15,0.048 -0.745,0.535 -1.459,0.068 -1.49,0.048 -0.118,-0.079 -0.277,-0.047 -0.357,0.068 -0.079,0.118 -0.05,0.277 0.067,0.357 0.041,0.028 1.035,0.694 2.079,-0.054 0.116,-0.083 0.143,-0.244 0.06,-0.359 -0.05,-0.071 -0.129,-0.108 -0.209,-0.108"
       style="fill:#000000;fill-opacity:1;fill-rule:nonzero;stroke:none"
       id="path112182" />
    <path
       d="m 259.472,199.78 c -0.019,0 -0.038,0.002 -0.057,0.006 -0.139,0.031 -0.226,0.169 -0.195,0.308 0.546,2.427 -1.177,3.679 -1.251,3.731 -0.115,0.082 -0.143,0.243 -0.062,0.359 0.082,0.116 0.243,0.144 0.358,0.063 0.021,-0.015 2.08,-1.494 1.458,-4.267 -0.027,-0.119 -0.133,-0.2 -0.251,-0.2"
       style="fill:#000000;fill-opacity:1;fill-rule:nonzero;stroke:none"
       id="path112184" />
    <path
       d="m 260.335,203.724 c -0.106,0 -0.206,0.066 -0.243,0.172 l -0.522,1.5 c -0.047,0.134 0.024,0.28 0.159,0.327 0.134,0.048 0.28,-0.024 0.327,-0.159 l 0.522,-1.499 c 0.047,-0.134 -0.024,-0.28 -0.159,-0.327 -0.027,-0.01 -0.056,-0.014 -0.084,-0.014"
       style="fill:#000000;fill-opacity:1;fill-rule:nonzero;stroke:none"
       id="path112186" />
    <path
       d="m 256.125,203.351 c -0.107,0 -0.207,0.066 -0.244,0.173 l -0.522,1.499 c -0.046,0.134 0.025,0.281 0.159,0.328 0.133,0.048 0.28,-0.024 0.328,-0.159 l 0.522,-1.499 c 0.047,-0.134 -0.025,-0.281 -0.159,-0.328 -0.028,-0.01 -0.057,-0.014 -0.084,-0.014"
       style="fill:#000000;fill-opacity:1;fill-rule:nonzero;stroke:none"
       id="path112188" />
    <path
       d="m 259.892,208.224 c 0,0 -0.816,1.29 -2.478,1.187 -1.663,-0.103 -2.553,-1.34 -2.553,-1.34 0,0 0.922,-2.749 -1.236,-4.39 -2.157,-1.642 -3.935,-1.347 -3.935,-1.347 l -1.679,0.472 -1.366,2.312 4.39,5.436 5.914,3.662 3.322,-2.625 -0.379,-3.367"
       style="fill:#000000;fill-opacity:1;fill-rule:nonzero;stroke:none"
       id="path112190" />
    <path
       d="m 257.685,197.723 c -0.658,0 -1.649,0.253 -2.199,1.241 -0.069,0.124 -0.024,0.281 0.1,0.35 0.124,0.069 0.281,0.025 0.351,-0.1 0.644,-1.16 1.959,-0.964 2.012,-0.957 0.142,0.019 0.273,-0.072 0.295,-0.213 0.023,-0.14 -0.072,-0.272 -0.212,-0.295 -0.098,-0.017 -0.216,-0.026 -0.347,-0.026"
       style="fill:#000000;fill-opacity:1;fill-rule:nonzero;stroke:none"
       id="path112192" />
    <path
       d="m 259.532,190.948 c 0,0 1.552,-1.406 2.627,-4.141 0.61,-1.552 0.675,-3.908 0.342,-3.937 -0.334,-0.028 -3.14,3.646 -4.754,3.756 -1.615,0.109 -2.585,-4.63 -3.253,-4.846 -0.669,-0.216 -3.462,1.4 -4.61,3.965 -1.148,2.567 0.677,4.765 0.677,4.765 0,0 8.457,-5.967 8.971,0.438"
       style="fill:#ffffff;fill-opacity:1;fill-rule:nonzero;stroke:none"
       id="path112194" />
    <path
       d="m 226.733,133.541 c -0.13,0 -0.242,0.1 -0.255,0.232 l -0.546,5.59 c -0.014,0.142 0.089,0.268 0.231,0.282 0.134,0.009 0.268,-0.089 0.281,-0.231 l 0.546,-5.59 c 0.014,-0.141 -0.09,-0.267 -0.231,-0.281 -0.009,-0.001 -0.017,-0.002 -0.026,-0.002"
       style="fill:#000000;fill-opacity:1;fill-rule:nonzero;stroke:none"
       id="path112196" />
    <path
       d="m 243.075,189.162 c 0,0 -8.674,-2.259 -14.725,-6.257 -6.052,-3.999 -9.725,-8.11 -9.725,-8.11 l 15.616,-15.234 5.564,3.327 3.27,26.274"
       style="fill:#5c69a5;fill-opacity:1;fill-rule:nonzero;stroke:none"
       id="path112198" />
    <path
       d="m 273.181,163.276 c -0.121,0 -0.229,0.087 -0.253,0.21 l -1.632,8.644 c -0.026,0.14 0.065,0.274 0.205,0.301 0.138,0.026 0.274,-0.066 0.301,-0.205 l 1.632,-8.644 c 0.026,-0.14 -0.065,-0.274 -0.205,-0.301 -0.016,-0.003 -0.032,-0.005 -0.048,-0.005"
       style="fill:#f7b369;fill-opacity:1;fill-rule:nonzero;stroke:none"
       id="path112200" />
    <path
       d="m 238.876,166.765 c -0.291,-0.169 -0.827,-2.281 -1.207,-4.451 0.761,1.058 1.897,2.959 1.335,4.243 -0.076,0.173 -0.128,0.208 -0.128,0.208 z m -1.622,-5.661 c -0.037,0 -0.074,0.008 -0.108,0.025 -0.104,0.048 -0.164,0.158 -0.146,0.271 0.321,2.143 0.989,5.753 1.853,5.869 0.26,0.032 0.462,-0.137 0.623,-0.505 0.941,-2.153 -1.907,-5.433 -2.029,-5.572 -0.05,-0.056 -0.121,-0.088 -0.193,-0.088"
       style="fill:#f7b369;fill-opacity:1;fill-rule:nonzero;stroke:none"
       id="path112202" />
    <path
       d="m 245.191,81.926 c -0.887,0 -1.42,0.07 -1.442,0.073 -0.141,0.02 -0.239,0.15 -0.219,0.291 0.02,0.141 0.15,0.243 0.291,0.219 0.095,-0.014 9.591,-1.242 15.932,7.23 8.799,11.755 2.549,45.307 2.485,45.645 -0.013,0.071 0.004,0.145 0.048,0.203 0.044,0.059 0.11,0.095 0.183,0.101 l 9.017,0.784 c 0.143,-0.004 0.267,-0.093 0.279,-0.235 0.013,-0.141 -0.092,-0.266 -0.234,-0.279 l -8.735,-0.759 c 0.642,-3.499 5.974,-34.273 -2.63,-45.768 -5.03,-6.72 -11.997,-7.505 -14.975,-7.505"
       style="fill:#ffffff;fill-opacity:1;fill-rule:nonzero;stroke:none"
       id="path112204" />
    <path
       d="m 235.997,120.133 c 1.033,-2.746 3.093,-7.508 4.548,-7.955 0.186,-0.059 0.346,-0.032 0.498,0.082 0.165,0.123 0.248,0.289 0.261,0.522 0.092,1.64 -3.287,5.349 -5.307,7.351 z m 4.73,-8.499 c -0.109,0 -0.221,0.016 -0.333,0.052 -2.215,0.681 -4.956,8.437 -5.261,9.32 -0.039,0.111 0.003,0.235 0.103,0.3 0.098,0.064 0.229,0.053 0.316,-0.028 0.261,-0.245 6.406,-6.017 6.266,-8.525 -0.022,-0.387 -0.179,-0.691 -0.467,-0.905 -0.19,-0.143 -0.402,-0.214 -0.624,-0.214"
       style="fill:#ffffff;fill-opacity:1;fill-rule:nonzero;stroke:none"
       id="path112206" />
    <path
       d="m 240.614,136.933 c -0.094,0 -0.186,0.052 -0.231,0.143 -0.063,0.127 -0.01,0.282 0.117,0.345 3.515,1.741 5.846,6.221 5.87,6.266 0.064,0.126 0.221,0.173 0.346,0.112 0.127,-0.066 0.177,-0.221 0.112,-0.347 -0.098,-0.19 -2.431,-4.675 -6.099,-6.492 -0.037,-0.019 -0.076,-0.027 -0.115,-0.027"
       style="fill:#ffffff;fill-opacity:1;fill-rule:nonzero;stroke:none"
       id="path112208" />
    <path
       d="m 242.663,39.531 c 0.47,-0.883 6.54,-0.28 7.063,-0.435 0.523,-0.157 2.118,3.263 3.089,2.715 0.976,-0.554 2.132,-2.218 3.566,-3.009 1.341,-0.745 23.711,-1.352 28.056,-0.91 0.366,0.037 0.62,0.386 0.565,0.765 -0.115,0.851 -0.388,2.453 -0.939,4.126 l -41.4,0.975 c -0.133,-2.227 -0.152,-3.944 0,-4.227"
       style="fill:#ffffff;fill-opacity:1;fill-rule:nonzero;stroke:none"
       id="path112210" />
    <path
       d="m 359.755,225.711 c 3.697,21.922 -11.246,42.681 -33.297,46.068 -20.986,3.223 -41.068,-10.854 -45.178,-31.686 -2.56,-12.977 1.462,-25.64 9.679,-34.65 2.217,-2.429 3.212,-5.732 2.665,-8.975 l -0.62,-3.674 c -0.867,-5.141 2.599,-10.012 7.739,-10.878 l 21.72,-3.663 c 5.141,-0.866 10.012,2.599 10.879,7.739 l 0.623,3.699 c 0.551,3.262 2.618,6.034 5.522,7.617 10.377,5.656 18.15,15.844 20.268,28.403"
       style="fill:#ffc988;fill-opacity:1;fill-rule:nonzero;stroke:none"
       id="path112212" />
    <path
       d="m 314.771,238.188 c -0.574,-1.181 -1.016,-2.385 -1.273,-3.489 -0.379,-1.627 -0.252,-2.738 0.333,-2.899 0.114,-0.032 0.239,-0.045 0.409,0.173 0.644,0.83 0.8,3.407 0.531,6.215 z m 12.881,-0.27 c -1.522,-3.541 -2.047,-7.531 -1.335,-8.48 0.074,-0.097 0.153,-0.17 0.395,-0.086 1.074,0.371 1.657,2.535 1.451,5.386 -0.076,1.049 -0.249,2.13 -0.511,3.18 z m 10.354,-13.546 c -0.023,0 -0.048,0.002 -0.071,0.006 -0.252,0.039 -0.424,0.275 -0.385,0.527 0.026,0.164 2.506,16.494 -3.598,18.412 -1.994,0.622 -3.647,-0.984 -4.681,-2.446 -0.367,-0.519 -0.705,-1.083 -1.014,-1.675 0.439,-1.412 0.72,-2.921 0.826,-4.391 0.248,-3.428 -0.526,-5.792 -2.069,-6.326 -0.571,-0.196 -1.094,-0.049 -1.435,0.406 -1.136,1.513 -0.207,6.541 1.682,10.375 -0.955,2.856 -2.595,5.23 -4.739,5.638 -2.446,0.472 -5.145,-2.147 -6.997,-5.3 0.487,-3.47 0.374,-6.993 -0.556,-8.191 -0.362,-0.466 -0.851,-0.641 -1.385,-0.497 -0.672,0.186 -1.694,0.953 -0.985,3.998 0.32,1.376 1.02,3.13 1.982,4.828 -0.336,2.257 -0.933,4.486 -1.759,5.929 -0.362,0.631 -0.926,1.366 -1.557,1.284 -5.737,-0.747 -9.358,-14.817 -9.394,-14.959 -0.063,-0.247 -0.316,-0.398 -0.56,-0.334 -0.248,0.063 -0.397,0.314 -0.335,0.56 0.153,0.605 3.815,14.821 10.17,15.648 0.915,0.116 1.747,-0.466 2.477,-1.74 0.731,-1.278 1.308,-3.173 1.685,-5.194 1.933,2.952 4.611,5.403 7.387,4.875 2.301,-0.438 4.061,-2.654 5.155,-5.446 0.213,0.368 0.437,0.718 0.668,1.045 1.736,2.455 3.712,3.42 5.71,2.793 6.857,-2.154 4.344,-18.73 4.233,-19.435 -0.035,-0.227 -0.232,-0.39 -0.455,-0.39"
       style="fill:#ffffff;fill-opacity:1;fill-rule:nonzero;stroke:none"
       id="path112214" />
    <path
       d="m 311.756,180.53 c -0.215,0 -0.407,0.151 -0.452,0.369 l -12.812,63.378 c -0.051,0.249 0.111,0.493 0.361,0.543 0.246,0.055 0.492,-0.11 0.543,-0.361 l 12.812,-63.376 c 0.051,-0.25 -0.11,-0.493 -0.36,-0.544 -0.031,-0.006 -0.062,-0.009 -0.092,-0.009"
       style="fill:#ffdd92;fill-opacity:1;fill-rule:nonzero;stroke:none"
       id="path112216" />
    <path
       d="m 311.616,179.7 c -0.08,0 -0.161,0.021 -0.235,0.064 -0.219,0.13 -0.292,0.413 -0.162,0.632 l 32.887,55.671 c 0.129,0.219 0.412,0.294 0.632,0.162 0.22,-0.129 0.292,-0.412 0.162,-0.632 l -32.887,-55.67 c -0.086,-0.146 -0.24,-0.227 -0.397,-0.227"
       style="fill:#ffdd92;fill-opacity:1;fill-rule:nonzero;stroke:none"
       id="path112218" />
    <path
       d="m 292.744,253.115 c -0.08,0 -0.161,0.021 -0.234,0.065 -0.219,0.129 -0.293,0.411 -0.163,0.631 0.071,0.121 7.333,12.121 24.977,14.128 0.263,0.023 0.482,-0.153 0.511,-0.406 0.029,-0.254 -0.153,-0.482 -0.406,-0.511 -17.168,-1.952 -24.219,-13.563 -24.287,-13.68 -0.087,-0.146 -0.241,-0.227 -0.398,-0.227"
       style="fill:#ffdd92;fill-opacity:1;fill-rule:nonzero;stroke:none"
       id="path112220" />
    <path
       d="m 286.912,205.093 c -0.566,-1.462 0.359,-3.076 1.907,-3.318 2.945,-0.46 7.497,-1.346 7.617,0.762 0.105,1.86 -4.59,3.373 -6.428,3.993 -1.254,0.423 -2.618,-0.203 -3.096,-1.437"
       style="fill:#f48462;fill-opacity:1;fill-rule:nonzero;stroke:none"
       id="path112222" />
    <path
       d="m 293.239,193.927 c -0.029,0 -0.058,0.005 -0.087,0.015 -0.133,0.047 -0.203,0.195 -0.156,0.329 1.21,3.396 -0.355,6.6 -0.371,6.632 -0.04,0.078 -0.036,0.172 0.009,0.247 0.045,0.076 0.125,0.123 0.213,0.125 2.411,0.073 2.9,0.582 2.977,0.879 0.204,0.791 -1.618,2.216 -2.815,2.928 -0.122,0.073 -0.162,0.231 -0.089,0.353 0.074,0.122 0.231,0.161 0.353,0.089 0.351,-0.209 3.416,-2.081 3.049,-3.499 -0.191,-0.738 -1.199,-1.148 -3.078,-1.249 0.392,-0.961 1.294,-3.712 0.237,-6.677 -0.037,-0.106 -0.136,-0.172 -0.242,-0.172"
       style="fill:#000000;fill-opacity:1;fill-rule:nonzero;stroke:none"
       id="path112224" />
    <path
       d="m 327.732,172.221 -33.944,5.724 c -1.685,0.284 -2.821,1.88 -2.537,3.566 0.285,1.684 1.881,2.82 3.566,2.536 l 33.944,-5.724 c 1.685,-0.284 2.821,-1.881 2.536,-3.565 -0.284,-1.686 -1.88,-2.821 -3.565,-2.537"
       style="fill:#68b6d8;fill-opacity:1;fill-rule:nonzero;stroke:none"
       id="path112226" />
    <path
       d="m 326.778,166.565 -33.944,5.724 c -1.685,0.284 -2.82,1.881 -2.536,3.565 0.284,1.686 1.88,2.822 3.565,2.538 l 33.944,-5.724 c 1.685,-0.284 2.821,-1.881 2.537,-3.566 -0.284,-1.685 -1.881,-2.821 -3.566,-2.537"
       style="fill:#68b6d8;fill-opacity:1;fill-rule:nonzero;stroke:none"
       id="path112228" />
    <path
       d="m 424.113,224.178 c 0,0 3.661,7.602 4.22,12.889 0.56,5.287 -0.455,7.226 -1.234,7.43 -0.78,0.204 -1.873,-3.016 -1.873,-3.016 0,0 0.386,4.984 -1.33,5.401 -1.714,0.417 -2.544,-3.914 -2.544,-3.914 0,0 -0.464,3.627 -1.909,3.089 -1.444,-0.538 -5.065,-10.513 -5.065,-10.513 l 1.852,-7.914 7.883,-3.452"
       style="fill:#f48462;fill-opacity:1;fill-rule:nonzero;stroke:none"
       id="path112230" />
    <path
       d="m 411.206,234.712 c 0,0 -0.286,-11.58 3.455,-12.012 3.74,-0.432 8.166,0 8.166,0 0,0 5.035,7.888 3.333,11.084 -5.262,9.881 -14.954,0.928 -14.954,0.928"
       style="fill:#f48462;fill-opacity:1;fill-rule:nonzero;stroke:none"
       id="path112232" />
    <path
       d="m 417.016,227.683 c -0.03,0 -0.059,0.005 -0.087,0.015 -0.134,0.049 -0.203,0.196 -0.156,0.33 0.942,2.61 3.915,3.664 4.041,3.707 0.131,0.047 0.281,-0.024 0.328,-0.158 0.046,-0.135 -0.025,-0.282 -0.16,-0.328 -0.028,-0.01 -2.868,-1.02 -3.724,-3.396 -0.038,-0.105 -0.137,-0.17 -0.242,-0.17"
       style="fill:#000000;fill-opacity:1;fill-rule:nonzero;stroke:none"
       id="path112234" />
    <path
       d="m 397.326,215.621 c 0,0 4.051,10.487 10.786,4.593 6.735,-5.893 -4.934,-12.975 -8.431,-11.153 -3.496,1.822 -2.355,6.56 -2.355,6.56"
       style="fill:#000000;fill-opacity:1;fill-rule:nonzero;stroke:none"
       id="path112236" />
    <path
       d="m 363.155,154.142 c 0,0 -6.484,-5.401 -11.476,-7.228 -4.992,-1.828 -7.12,-1.315 -7.507,-0.609 -0.387,0.706 2.47,2.55 2.47,2.55 0,0 -4.741,-1.587 -5.562,-0.025 -0.822,1.563 3.177,3.421 3.177,3.421 0,0 -3.631,-0.432 -3.46,1.1 0.171,1.531 6.44,3.79 6.44,3.79 0,0 -4.802,0.305 -4.686,1.492 0.116,1.186 7.513,3.75 9.845,3.627 2.333,-0.122 5.494,-1.311 5.494,-1.311 l 5.265,-6.807"
       style="fill:#f48462;fill-opacity:1;fill-rule:nonzero;stroke:none"
       id="path112238" />
    <path
       d="m 353.324,155.562 c -3.768,0 -5.279,1.782 -5.358,1.878 -0.09,0.111 -0.074,0.272 0.035,0.362 0.11,0.088 0.273,0.075 0.363,-0.034 0.023,-0.029 2.376,-2.759 8.579,-1.204 0.135,0.034 0.279,-0.049 0.313,-0.187 0.034,-0.138 -0.05,-0.277 -0.188,-0.313 -1.439,-0.36 -2.681,-0.502 -3.744,-0.502"
       style="fill:#000000;fill-opacity:1;fill-rule:nonzero;stroke:none"
       id="path112240" />
    <path
       d="m 353.138,162.488 c 0,0 9.266,6.264 13.842,12.851 6.91,9.946 13.375,16.283 13.375,16.283 l 15.083,-18.387 -16.179,-17.17 -16.306,-7.761 -9.815,14.184"
       style="fill:#68b6d8;fill-opacity:1;fill-rule:nonzero;stroke:none"
       id="path112242" />
    <path
       d="m 386.943,218.281 c 0,0 4.285,1.778 8.682,0 4.397,-1.778 5.01,-6.311 5.01,-6.311 0,0 1.974,-1.988 0,-4.867 -1.975,-2.879 -5.701,-4.438 -5.701,-4.438 l -7.991,15.616"
       style="fill:#000000;fill-opacity:1;fill-rule:nonzero;stroke:none"
       id="path112244" />
    <path
       d="m 398.533,62.833 -0.869,-8.41 h -17.436 v 9.814 l 18.305,-1.404"
       style="fill:#f48462;fill-opacity:1;fill-rule:nonzero;stroke:none"
       id="path112246" />
    <path
       d="m 450.545,121.152 8.603,1.086 3.962,-16.546 -9.808,-2.229 -2.757,17.689"
       style="fill:#f48462;fill-opacity:1;fill-rule:nonzero;stroke:none"
       id="path112248" />
    <path
       d="m 452.909,123.415 c 0,0 -20.765,-2.291 -28.901,8.043 -9.623,12.225 -16.806,27.654 -16.806,27.654 l -31.909,-1.726 c 0,0 -3.175,-33.589 -2.739,-56.115 0.435,-22.526 2.669,-41.092 3.453,-41.926 0.784,-0.835 25.477,-0.312 26.935,0 1.458,0.31 -0.937,25.89 -1.139,33.336 -0.203,7.444 0,18.516 0,18.516 0,0 7.599,-10.881 21.605,-13.362 14.005,-2.482 32.012,0 33.212,0.764 1.2,0.762 -3.711,24.816 -3.711,24.816"
       style="fill:#f7b369;fill-opacity:1;fill-rule:nonzero;stroke:none"
       id="path112250" />
    <path
       d="m 372.116,47.776 c -0.026,0 -0.053,0.004 -0.079,0.013 -0.336,0.108 -8.254,2.68 -9.111,5.234 -0.155,0.46 -0.089,0.898 0.192,1.299 0.315,0.448 0.751,0.69 1.298,0.721 1.711,0.089 4.222,-2.009 5.81,-3.543 -1.052,1.934 -2.416,4.889 -1.912,6.446 0.151,0.465 0.451,0.788 0.891,0.96 0.452,0.178 0.903,0.144 1.344,-0.097 2.18,-1.203 3.415,-7.491 3.467,-7.757 0.026,-0.14 -0.065,-0.275 -0.204,-0.302 -0.146,-0.025 -0.276,0.065 -0.302,0.204 -0.012,0.064 -1.239,6.317 -3.21,7.403 -0.302,0.165 -0.598,0.189 -0.907,0.071 -0.294,-0.116 -0.487,-0.325 -0.589,-0.641 -0.699,-2.156 2.906,-7.808 2.943,-7.865 0.072,-0.112 0.046,-0.263 -0.061,-0.344 -0.106,-0.081 -0.258,-0.066 -0.348,0.034 -0.044,0.05 -4.398,4.919 -6.797,4.919 -0.032,0 -0.063,-10e-4 -0.096,-0.003 -0.386,-0.021 -0.683,-0.186 -0.905,-0.503 -0.186,-0.263 -0.227,-0.537 -0.126,-0.838 0.644,-1.917 6.557,-4.193 8.781,-4.908 0.135,-0.044 0.21,-0.188 0.166,-0.324 -0.035,-0.108 -0.135,-0.179 -0.245,-0.179"
       style="fill:#f7b369;fill-opacity:1;fill-rule:nonzero;stroke:none"
       id="path112252" />
    <path
       d="m 355.083,37.963 c 0.553,-0.213 17.491,-0.661 29.214,-0.745 0.779,0.564 0.946,4.689 3.049,4.689 2.068,0 2.638,-1.425 3.319,-3.205 0.346,-0.903 1.195,-1.528 2.183,-1.482 2.458,0.113 5.229,0.466 5.405,0.743 0.291,0.448 0.497,1.972 0.631,3.886 0.339,4.51 0.339,11.218 0.339,11.218 0,0 0.303,2.291 0.242,3.354 -0.048,1.052 -19.888,0.649 -19.888,0.649 l -12.895,-9.908 c 0,0 -3.539,0.614 -7.406,0 -2.047,-0.318 -3.369,-2.763 -4.023,-5.065 -0.582,-2.044 -0.63,-3.946 -0.17,-4.134"
       style="fill:#a37b90;fill-opacity:1;fill-rule:nonzero;stroke:none"
       id="path112254" />
    <path
       d="m 468.555,89.105 c -0.16,0 -0.324,0.027 -0.491,0.081 -0.537,0.17 -0.901,0.519 -1.084,1.038 -0.557,1.581 0.799,4.496 1.86,6.406 -1.594,-1.515 -4.095,-3.604 -5.768,-3.604 -0.02,0 -0.04,0.001 -0.059,0.001 -0.489,0.015 -0.882,0.204 -1.172,0.563 -0.297,0.367 -0.395,0.792 -0.292,1.262 0.523,2.387 6.422,5.333 6.673,5.457 0.128,0.065 0.281,0.01 0.344,-0.117 0.064,-0.127 0.011,-0.282 -0.116,-0.344 -1.647,-0.817 -6.008,-3.325 -6.398,-5.107 -0.069,-0.313 -0.007,-0.585 0.189,-0.827 0.195,-0.24 0.451,-0.361 0.787,-0.372 2.386,-0.001 6.899,4.915 6.945,4.966 0.09,0.098 0.242,0.111 0.348,0.029 0.107,-0.083 0.131,-0.233 0.057,-0.346 -0.037,-0.055 -3.685,-5.606 -2.912,-7.796 0.128,-0.363 0.375,-0.598 0.755,-0.719 0.326,-0.105 0.622,-0.059 0.903,0.138 1.689,1.19 2.263,7.31 2.342,9.568 0.004,0.142 0.136,0.281 0.265,0.248 0.143,-0.005 0.254,-0.124 0.249,-0.266 -0.012,-0.342 -0.318,-8.391 -2.559,-9.97 -0.273,-0.192 -0.563,-0.289 -0.866,-0.289"
       style="fill:#f7b369;fill-opacity:1;fill-rule:nonzero;stroke:none"
       id="path112256" />
    <path
       d="m 486.426,86.271 c 0.054,0.577 -4.262,16.543 -7.471,27.531 -0.774,0.569 -4.885,-0.433 -5.476,1.534 -0.58,1.935 0.664,2.867 2.226,4.005 0.792,0.576 1.169,1.546 0.847,2.457 -0.802,2.266 -1.928,4.76 -2.25,4.847 -0.524,0.146 -2.082,-0.089 -4.004,-0.502 -4.539,-0.95 -11.146,-2.833 -11.146,-2.833 0,0 -2.341,-0.361 -3.372,-0.715 -1.021,-0.341 4.947,-18.783 4.947,-18.783 l 13.379,-9.277 c 0,0 0.39,-3.482 2.081,-6.926 0.889,-1.826 3.667,-2.375 6.12,-2.339 2.175,0.029 4.061,0.518 4.119,1.001"
       style="fill:#a37b90;fill-opacity:1;fill-rule:nonzero;stroke:none"
       id="path112258" />
    <path
       d="m 401.803,110.939 c -0.051,0 -0.103,0.016 -0.147,0.046 -0.193,0.135 -4.78,3.406 -8.544,13.511 -2.293,6.157 -4.18,13.78 -4.482,15.021 l -9.114,1.163 c -0.142,0.018 -0.242,0.147 -0.224,0.288 0.019,0.14 0.148,0.239 0.288,0.223 l 9.291,-1.185 c 0.107,-0.014 0.193,-0.092 0.219,-0.196 0.019,-0.084 2.024,-8.475 4.505,-15.134 3.708,-9.956 8.308,-13.236 8.354,-13.267 0.117,-0.081 0.147,-0.242 0.066,-0.358 -0.051,-0.072 -0.131,-0.112 -0.212,-0.112"
       style="fill:#ffffff;fill-opacity:1;fill-rule:nonzero;stroke:none"
       id="path112260" />
    <path
       d="m 411.5,145.52 c -0.065,10e-4 -6.003,0.207 -7.029,6.077 -0.025,0.139 0.069,0.273 0.21,0.298 0.135,0.019 0.272,-0.071 0.298,-0.21 0.954,-5.458 6.471,-5.649 6.527,-5.65 0.142,-0.004 0.255,-0.122 0.252,-0.264 -0.004,-0.14 -0.118,-0.251 -0.258,-0.251"
       style="fill:#ffffff;fill-opacity:1;fill-rule:nonzero;stroke:none"
       id="path112262" />
    <path
       d="m 394.934,200.589 -0.176,-6.863 c 0,0 -1.321,-1.943 -5.45,-2.168 -3.077,-0.168 -4.009,1.391 -4.009,1.391 l 0.898,5.988 7.482,1.414 1.255,0.238"
       style="fill:#f48462;fill-opacity:1;fill-rule:nonzero;stroke:none"
       id="path112264" />
    <path
       d="m 394.934,201.008 c -0.022,-0.187 -0.101,-0.407 -0.222,-0.657 -1.664,-3.391 -7.247,-4.682 -9.024,-4.793 l 0.509,3.379 8.737,2.071"
       style="fill:#000000;fill-opacity:1;fill-rule:nonzero;stroke:none"
       id="path112266" />
    <path
       d="m 385.029,214.621 c 0,0 -3.628,-9.351 -2.584,-13.332 1.268,-4.835 5.834,-4.103 8.53,-3.2 2.697,0.904 3.96,2.498 3.96,2.498 0,0 2.503,-0.853 4.204,1.407 1.702,2.259 0.693,4.881 -0.734,5.493 -1.427,0.612 -3.142,-0.381 -3.142,-0.381 l 1.361,2.473 c 0,0 -5.498,12.682 -11.595,5.042"
       style="fill:#f48462;fill-opacity:1;fill-rule:nonzero;stroke:none"
       id="path112268" />
    <path
       d="m 395.263,207.106 c 0,0 -3.774,-0.742 -6.396,3.35 -2.621,4.092 -2.381,5.773 -2.381,5.773 l -2.611,-4.225 c 0,0 -0.584,2.93 0.618,4.797 1.202,1.867 2.45,1.48 2.45,1.48 l 8.321,-2.026 2.191,-6.499 -2.192,-2.65"
       style="fill:#000000;fill-opacity:1;fill-rule:nonzero;stroke:none"
       id="path112270" />
    <path
       d="m 385.328,203.767 c -0.109,0 -0.211,0.07 -0.246,0.18 -0.573,1.826 0.752,3.678 0.809,3.756 0.083,0.115 0.244,0.14 0.359,0.057 0.115,-0.084 0.141,-0.245 0.057,-0.36 -0.012,-0.017 -1.228,-1.722 -0.733,-3.298 0.042,-0.136 -0.033,-0.281 -0.169,-0.323 -0.025,-0.008 -0.051,-0.012 -0.077,-0.012"
       style="fill:#000000;fill-opacity:1;fill-rule:nonzero;stroke:none"
       id="path112272" />
    <path
       d="m 395.625,203.109 c -0.064,0 -0.13,0.024 -0.18,0.073 -0.101,0.099 -0.103,0.262 -0.005,0.364 l 2.391,2.455 c 0.099,0.103 0.262,0.105 0.364,0.005 0.102,-0.099 0.104,-0.262 0.005,-0.364 l -2.39,-2.455 c -0.051,-0.052 -0.118,-0.078 -0.185,-0.078"
       style="fill:#000000;fill-opacity:1;fill-rule:nonzero;stroke:none"
       id="path112274" />
    <path
       d="m 398.15,203.762 c -0.038,0.003 -1.686,0.251 -1.686,0.251 -0.141,0.021 -0.237,0.152 -0.217,0.292 0.022,0.141 0.15,0.238 0.293,0.216 l 1.648,-0.248 c 0.141,-0.021 0.238,-0.151 0.217,-0.292 -0.019,-0.128 -0.129,-0.219 -0.255,-0.219"
       style="fill:#000000;fill-opacity:1;fill-rule:nonzero;stroke:none"
       id="path112276" />
    <path
       d="m 383.639,207.26 c -0.026,0 -0.052,0.004 -0.077,0.012 -0.136,0.043 -0.211,0.187 -0.168,0.323 l 0.454,1.444 -0.44,0.877 c -0.063,0.126 -0.012,0.281 0.115,0.345 0.125,0.064 0.281,0.013 0.346,-0.115 l 0.486,-0.97 c 0.03,-0.059 0.036,-0.129 0.015,-0.192 l -0.486,-1.544 c -0.034,-0.11 -0.136,-0.18 -0.245,-0.18"
       style="fill:#000000;fill-opacity:1;fill-rule:nonzero;stroke:none"
       id="path112278" />
    <path
       d="m 392.986,194.366 c 0,0 13.423,23.308 15.601,35.563 l 18.175,-5.459 c -3.348,-26.648 -16.782,-42.391 -16.782,-42.391 0,0 -0.232,-24.693 -0.582,-25.147 -0.349,-0.453 -9.851,-2.513 -20.523,-1.938 -10.672,0.576 -12.999,2.051 -13.582,2.392 -0.582,0.34 5.062,34.236 5.062,34.236 0,0 4.25,2.635 12.631,2.744"
       style="fill:#68b6d8;fill-opacity:1;fill-rule:nonzero;stroke:none"
       id="path112280" />
    <path
       d="m 388.072,206.845 c -0.025,0 -0.051,0.004 -0.077,0.012 -0.136,0.043 -0.211,0.187 -0.168,0.323 l 0.451,1.434 -0.427,0.726 c -0.073,0.123 -0.032,0.281 0.09,0.353 0.122,0.071 0.281,0.032 0.353,-0.091 l 0.486,-0.825 c 0.037,-0.063 0.046,-0.138 0.024,-0.208 l -0.487,-1.544 c -0.034,-0.109 -0.135,-0.18 -0.245,-0.18"
       style="fill:#000000;fill-opacity:1;fill-rule:nonzero;stroke:none"
       id="path112282" />
    <path
       d="m 383.639,210.771 c -0.124,0 -0.233,0.088 -0.254,0.214 -0.024,0.14 0.07,0.273 0.211,0.297 l 1.558,0.263 c 0.148,0.024 0.274,-0.071 0.297,-0.211 0.024,-0.14 -0.07,-0.272 -0.211,-0.296 l -1.558,-0.264 c -0.015,-0.003 -0.03,-0.003 -0.043,-0.003"
       style="fill:#000000;fill-opacity:1;fill-rule:nonzero;stroke:none"
       id="path112284" />
    <path
       d="m 390.117,209.773 c -0.038,0 -0.077,0.009 -0.114,0.027 l -2.557,1.261 c -0.127,0.063 -0.179,0.217 -0.116,0.344 0.062,0.128 0.216,0.18 0.345,0.117 l 2.556,-1.26 c 0.127,-0.063 0.18,-0.218 0.117,-0.345 -0.044,-0.091 -0.136,-0.144 -0.231,-0.144"
       style="fill:#000000;fill-opacity:1;fill-rule:nonzero;stroke:none"
       id="path112286" />
    <path
       d="m 375.246,158.78 c -0.165,0.015 -0.269,0.14 -0.257,0.282 l 1.429,15.696 c 0.014,0.141 0.146,0.228 0.28,0.233 0.142,-0.013 0.246,-0.138 0.234,-0.28 l -1.429,-15.696 c -0.013,-0.134 -0.125,-0.235 -0.257,-0.235"
       style="fill:#a37b90;fill-opacity:1;fill-rule:nonzero;stroke:none"
       id="path112288" />
    <path
       d="m 392.986,194.366 c 0,0 -5.59,-4.383 -7.143,-1.13 -1.569,3.286 7.143,1.13 7.143,1.13"
       style="fill:#f48462;fill-opacity:1;fill-rule:nonzero;stroke:none"
       id="path112290" />
    <path
       d="m 387.313,201.479 c -0.138,0 -0.285,0.019 -0.44,0.063 -0.137,0.039 -0.216,0.181 -0.178,0.318 0.039,0.137 0.184,0.216 0.319,0.177 0.882,-0.251 1.29,0.687 1.307,0.727 0.055,0.131 0.208,0.19 0.336,0.138 0.131,-0.055 0.194,-0.205 0.14,-0.336 -0.172,-0.415 -0.678,-1.087 -1.484,-1.087"
       style="fill:#000000;fill-opacity:1;fill-rule:nonzero;stroke:none"
       id="path112292" />
    <path
       d="m 388.313,191.797 c -0.051,0 -0.102,0.001 -0.154,0.003 -0.977,0.04 -1.823,0.467 -2.511,1.268 -0.092,0.109 -0.08,0.271 0.028,0.364 0.108,0.092 0.27,0.079 0.363,-0.028 0.591,-0.688 1.312,-1.055 2.141,-1.09 2.252,-0.103 4.602,2.211 4.626,2.236 0.1,0.098 0.263,0.097 0.364,-0.003 0.1,-0.101 0.099,-0.264 -0.003,-0.364 -0.101,-0.099 -2.442,-2.386 -4.854,-2.386"
       style="fill:#a37b90;fill-opacity:1;fill-rule:nonzero;stroke:none"
       id="path112294" />
    <path
       d="m 353.138,149.974 c -0.071,0 -0.142,0.029 -0.193,0.087 l -4.972,5.591 c -0.095,0.107 -0.085,0.269 0.021,0.364 0.106,0.093 0.269,0.086 0.363,-0.022 l 4.973,-5.592 c 0.095,-0.106 0.085,-0.268 -0.021,-0.363 -0.049,-0.044 -0.11,-0.065 -0.171,-0.065"
       style="fill:#000000;fill-opacity:1;fill-rule:nonzero;stroke:none"
       id="path112296" />
    <path
       d="m 462.496,290.233 c -8.351,20.604 -31.962,30.439 -52.512,21.756 -19.559,-8.263 -29.272,-30.782 -21.844,-50.674 4.627,-12.392 14.694,-21.064 26.416,-24.423 3.162,-0.906 5.741,-3.196 6.976,-6.244 l 1.4,-3.453 c 1.959,-4.832 7.464,-7.161 12.295,-5.202 l 20.413,8.275 c 4.832,1.958 7.161,7.462 5.203,12.294 l -1.41,3.477 c -1.243,3.065 -0.936,6.509 0.706,9.38 5.869,10.26 7.142,23.011 2.357,34.814"
       style="fill:#ffc988;fill-opacity:1;fill-rule:nonzero;stroke:none"
       id="path112298" />
    <path
       d="m 428.761,283.787 c 0.561,-3.813 2.208,-7.486 3.311,-7.919 0.112,-0.045 0.219,-0.066 0.382,0.132 0.72,0.88 0.08,3.029 -1.592,5.349 -0.613,0.852 -1.328,1.681 -2.101,2.438 z m -11.109,-6.527 c 0.131,-1.306 0.387,-2.563 0.746,-3.638 0.531,-1.584 1.23,-2.465 1.805,-2.294 0.114,0.033 0.229,0.089 0.259,0.362 0.112,1.045 -1.107,3.321 -2.81,5.57 z m -8.172,-12.643 c -0.196,0 -0.377,0.126 -0.44,0.323 -0.186,0.595 -4.525,14.619 0.451,18.657 0.717,0.581 1.734,0.52 3.022,-0.182 1.293,-0.705 2.778,-2.016 4.159,-3.538 0.098,3.527 1.099,7.021 3.732,8.024 2.189,0.834 4.85,-0.128 7.244,-1.932 -0.009,0.425 -0.003,0.841 0.022,1.24 0.19,3.001 1.365,4.859 3.396,5.373 6.956,1.765 13.524,-13.668 13.799,-14.326 0.099,-0.235 -0.012,-0.506 -0.247,-0.604 -0.237,-0.096 -0.506,0.013 -0.604,0.247 -0.064,0.154 -6.516,15.361 -12.721,13.788 -2.028,-0.513 -2.589,-2.75 -2.702,-4.536 -0.04,-0.635 -0.032,-1.293 0.015,-1.959 1.115,-0.972 2.144,-2.109 3.005,-3.304 2.01,-2.788 2.592,-5.207 1.558,-6.471 -0.383,-0.467 -0.907,-0.616 -1.434,-0.408 -1.761,0.692 -3.608,5.46 -4.01,9.715 -2.312,1.931 -4.953,3.091 -6.993,2.315 -2.328,-0.887 -3.253,-4.526 -3.176,-8.183 2.234,-2.698 3.986,-5.757 3.823,-7.265 -0.064,-0.588 -0.39,-0.996 -0.918,-1.149 -0.674,-0.195 -1.943,-0.077 -2.937,2.887 -0.449,1.339 -0.773,3.199 -0.845,5.15 -1.47,1.746 -3.147,3.33 -4.608,4.125 -0.639,0.348 -1.505,0.68 -1.998,0.276 -4.493,-3.645 -0.196,-17.523 -0.152,-17.663 0.076,-0.243 -0.059,-0.502 -0.302,-0.578 -0.046,-0.015 -0.093,-0.022 -0.139,-0.022"
       style="fill:#ffffff;fill-opacity:1;fill-rule:nonzero;stroke:none"
       id="path112300" />
    <path
       d="m 445.088,226.521 c -0.123,0 -0.246,0.049 -0.337,0.146 l -44.152,47.238 c -0.174,0.186 -0.164,0.478 0.021,0.652 0.187,0.173 0.478,0.165 0.652,-0.022 l 44.153,-47.238 c 0.174,-0.186 0.164,-0.478 -0.022,-0.651 -0.09,-0.084 -0.202,-0.125 -0.315,-0.125"
       style="fill:#ffdd92;fill-opacity:1;fill-rule:nonzero;stroke:none"
       id="path112302" />
    <path
       d="m 445.404,225.741 c -0.251,0 -0.457,0.201 -0.461,0.452 l -1.202,64.648 c -0.005,0.255 0.197,0.466 0.452,0.471 0.248,-0.006 0.466,-0.198 0.47,-0.453 l 1.202,-64.648 c 0.005,-0.255 -0.197,-0.465 -0.452,-0.47 -0.003,0 -0.006,0 -0.009,0"
       style="fill:#ffdd92;fill-opacity:1;fill-rule:nonzero;stroke:none"
       id="path112304" />
    <path
       d="m 390.827,278.347 c -0.251,0 -0.456,0.2 -0.461,0.452 -0.003,0.14 -0.114,14.166 13.855,25.13 0.201,0.159 0.489,0.124 0.648,-0.078 0.157,-0.2 0.122,-0.49 -0.078,-0.647 -13.612,-10.684 -13.505,-24.251 -13.503,-24.387 0.005,-0.255 -0.197,-0.465 -0.452,-0.47 -0.003,0 -0.006,0 -0.009,0"
       style="fill:#ffdd92;fill-opacity:1;fill-rule:nonzero;stroke:none"
       id="path112306" />
    <path
       d="m 410.585,241.672 c 2.814,-0.086 6.736,-7.305 6.159,-8.793 -0.576,-1.487 -5.288,-3.442 -5.288,-3.442 0,0 -3.686,12.32 -0.871,12.235"
       style="fill:#f48462;fill-opacity:1;fill-rule:nonzero;stroke:none"
       id="path112308" />
    <path
       d="m 463.29,227.896 -31.902,-12.933 c -1.583,-0.641 -3.388,0.122 -4.03,1.705 -0.642,1.584 0.121,3.389 1.705,4.031 l 31.902,12.931 c 1.584,0.642 3.388,-0.121 4.03,-1.705 0.642,-1.583 -0.122,-3.387 -1.705,-4.029"
       style="fill:#5c69a5;fill-opacity:1;fill-rule:nonzero;stroke:none"
       id="path112310" />
    <path
       d="m 465.444,222.58 -31.901,-12.932 c -1.584,-0.642 -3.388,0.122 -4.03,1.706 -0.642,1.583 0.122,3.387 1.705,4.029 l 31.902,12.932 c 1.583,0.642 3.388,-0.122 4.029,-1.705 0.643,-1.584 -0.121,-3.388 -1.705,-4.03"
       style="fill:#5c69a5;fill-opacity:1;fill-rule:nonzero;stroke:none"
       id="path112312" />
    <path
       d="m 502.67868,190.499 c 0,0 5.208,-9.465 10.344,-9.371 5.138,0.095 8.471,8.068 8.471,8.068 0,0 -2.444,10.764 -4.222,11.173 -1.778,0.409 -2.209,-4.809 -2.209,-4.809 l -3.416,1.903 -8.968,-6.964"
       style="fill:#f48462;fill-opacity:1;fill-rule:nonzero;stroke:none"
       id="path112314" />
    <path
       d="m 569.10668,215.622 c 0,0 4.5,3.751 9.158,0 4.658,-3.751 1.194,-9.737 1.194,-9.737 0,0 4.313,0.231 5.742,-3.38 1.429,-3.61 -1.722,-6.582 -1.722,-6.582 0,0 5.005,-0.736 5.747,-5.878 0.877,-6.081 -6.674,-10.707 -6.674,-10.707 l -20.587,8.065 1.791,22.633 5.351,5.586"
       style="fill:#000000;fill-opacity:1;fill-rule:nonzero;stroke:none"
       id="path112316" />
    <path
       d="m 571.48668,190.422 c 0,0 3.954,-0.523 6.397,-1.864 2.443,-1.343 5.595,-9.671 5.595,-9.671 l -11.393,-14.207 -11.215,5.665 10.616,20.077"
       style="fill:#a37b90;fill-opacity:1;fill-rule:nonzero;stroke:none"
       id="path112318" />
    <path
       d="m 511.64668,179.874 c 0,0 10.573,-17.214 23.878,-19.131 13.306,-1.917 26.069,17.09 26.069,17.09 l -10.377,13.928 c 0,0 -6.823,-6.956 -15.894,-8.755 -5.277,-1.047 -13.58,8.61 -13.58,8.61 l -10.096,-11.742"
       style="fill:#a37b90;fill-opacity:1;fill-rule:nonzero;stroke:none"
       id="path112320" />
    <path
       d="m 534.59668,182.549 c 0.249,-1.392 0.734,-3.073 1.359,-3.362 0.098,-0.042 0.251,-0.083 0.496,0.081 0.033,0.022 0.068,0.056 0.078,0.144 0.068,0.604 -0.991,2.047 -1.933,3.137 z m 1.529,-3.924 c -0.154,0 -0.285,0.039 -0.389,0.086 -1.277,0.588 -1.74,4.217 -1.789,4.629 -0.012,0.111 0.047,0.22 0.15,0.267 0.102,0.048 0.223,0.027 0.301,-0.056 0.287,-0.302 2.788,-2.984 2.653,-4.197 -0.026,-0.224 -0.131,-0.405 -0.308,-0.522 -0.229,-0.154 -0.438,-0.207 -0.618,-0.207"
       style="fill:#ffffff;fill-opacity:1;fill-rule:nonzero;stroke:none"
       id="path112322" />
    <path
       d="m 554.25368,205.159 c 0,0 -3.899,6.535 5.096,10.931 8.995,4.396 14.902,-2.771 14.747,-6.416 -0.157,-3.645 -2.332,-5.201 -2.332,-5.201 0,0 0.316,-7.936 -7.226,-6.92 -7.542,1.014 -10.285,7.606 -10.285,7.606"
       style="fill:#000000;fill-opacity:1;fill-rule:nonzero;stroke:none"
       id="path112324" />
    <path
       d="m 536.77368,59.135 c 0,0 -13.876,-7.381 -17.896,-11.512 -4.02,-4.13 -4.119,-6.832 -3.582,-8.135 0.538,-1.303 29.776,1.245 29.776,1.245 0,0 -0.021,8.06 3.121,7.672 3.143,-0.387 1.743,-7.667 1.743,-7.667 l 8.852,0.456 c 0,0 0.071,8.018 -0.704,11.13 -0.836,3.36 -2.996,7.852 -2.996,7.852 l -18.314,-1.041"
       style="fill:#967186;fill-opacity:1;fill-rule:nonzero;stroke:none"
       id="path112326" />
    <path
       d="m 550.54468,111.204 c 0,0 -3.365,-11.169 4.5,-25.355 9.017,-16.265 15.267,-24.481 15.267,-24.481 l 14.889,3.934 c 0,0 -13.436,33.481 -13.67,47.037 -0.233,13.556 -20.986,-1.135 -20.986,-1.135"
       style="fill:#f48462;fill-opacity:1;fill-rule:nonzero;stroke:none"
       id="path112328" />
    <path
       d="m 535.60568,116.572 c 0,0 -0.655,-14.624 1.321,-30.723 1.975,-16.099 3.427,-25.626 3.427,-25.626 l 14.734,-0.047 c 0,0 -1.288,35.172 1.113,48.507 2.403,13.342 -20.595,7.889 -20.595,7.889"
       style="fill:#f48462;fill-opacity:1;fill-rule:nonzero;stroke:none"
       id="path112330" />
    <path
       d="m 568.38368,58.064 c 0,0 -10.601,-11.604 -13.004,-16.843 -2.403,-5.239 -1.592,-7.818 -0.649,-8.866 0.944,-1.047 27.638,11.153 27.638,11.153 0,0 -2.722,7.587 0.369,8.274 3.091,0.688 4.211,-6.64 4.211,-6.64 l 8.188,3.396 c 0,0 -2.619,7.578 -4.394,10.251 -1.913,2.884 -5.687,7.052 -5.687,7.052 l -16.672,-7.777"
       style="fill:#a37b90;fill-opacity:1;fill-rule:nonzero;stroke:none"
       id="path112332" />
    <path
       d="m 539.69868,61.602 c 0,0 -11.897,-7.389 -9.642,-8.009 2.254,-0.62 14.818,-0.211 18.443,1.284 3.625,1.494 6.545,5.441 6.545,5.441 l -8.525,3.605 -6.821,-2.321"
       style="fill:#f48462;fill-opacity:1;fill-rule:nonzero;stroke:none"
       id="path112334" />
    <path
       d="m 559.60168,108.411 c -1.455,-0.077 -2.973,-0.126 -4.554,-0.14 -2.358,-0.021 -4.596,0.14 -6.694,0.419 -5.625,0.749 -10.284,2.4 -13.732,3.988 0.86,26.637 12.435,50.729 12.435,50.729 l 6.627,-1.475 1.175,-0.259 4.743,-53.262"
       style="fill:#92b4ea;fill-opacity:1;fill-rule:nonzero;stroke:none"
       id="path112336" />
    <path
       d="m 577.62168,134.664 c -1.714,-16.082 -3.323,-21.657 -3.323,-21.657 0,0 0.322,-0.909 0.86,-2.47 -3.693,-0.86 -8.968,-1.783 -15.557,-2.126 -1.455,-0.077 -2.973,-0.126 -4.554,-0.14 -2.358,-0.021 -4.596,0.14 -6.694,0.419 -0.84,2.875 -1.392,4.848 -1.504,5.38 -0.644,2.945 4.148,47.826 4.148,47.826 l 2.686,0.036 18.402,-1.994 c 0,0 7.25,-9.185 5.536,-25.274"
       style="fill:#92b4ea;fill-opacity:1;fill-rule:nonzero;stroke:none"
       id="path112338" />
    <path
       d="m 565.34268,198.773 -0.239,-6.38 c 0,0 -1.218,-1.791 -4.962,-1.956 -2.789,-0.122 -3.744,0.543 -3.744,0.543 l 0.509,3.217 0.5,3.137 6.796,1.231 1.14,0.208"
       style="fill:#f48462;fill-opacity:1;fill-rule:nonzero;stroke:none"
       id="path112340" />
    <path
       d="m 565.34268,199.078 c -0.023,-0.174 -0.097,-0.377 -0.208,-0.609 -1.547,-3.134 -6.616,-4.188 -8.228,-4.272 l 0.5,3.137 7.936,1.744"
       style="fill:#000000;fill-opacity:1;fill-rule:nonzero;stroke:none"
       id="path112342" />
    <path
       d="m 556.52668,211.932 c 0,0 -3.647,-7.875 -2.493,-12.37 1.154,-4.494 5.239,-3.879 7.693,-3.069 2.454,0.81 3.617,2.278 3.617,2.278 0,0 2.258,-0.82 3.825,1.262 1.567,2.082 0.684,4.531 -0.603,5.116 -1.287,0.585 -2.851,-0.319 -2.851,-0.319 l 1.261,2.284 c 0,0 -4.836,11.854 -10.449,4.818"
       style="fill:#f48462;fill-opacity:1;fill-rule:nonzero;stroke:none"
       id="path112344" />
    <path
       d="m 555.35068,208.709 c -0.124,0 -0.233,0.091 -0.252,0.217 -0.021,0.139 0.076,0.268 0.214,0.289 l 1.557,0.231 c 0.15,0.022 0.268,-0.076 0.289,-0.215 0.021,-0.138 -0.076,-0.268 -0.215,-0.288 l -1.556,-0.231 c -0.013,-0.002 -0.026,-0.003 -0.037,-0.003"
       style="fill:#000000;fill-opacity:1;fill-rule:nonzero;stroke:none"
       id="path112346" />
    <path
       d="m 561.15668,208.065 c -0.033,0 -0.066,0.007 -0.098,0.02 l -1.808,0.76 c -0.129,0.054 -0.19,0.203 -0.136,0.333 0.055,0.129 0.203,0.189 0.333,0.135 l 1.808,-0.759 c 0.129,-0.054 0.19,-0.203 0.136,-0.333 -0.041,-0.097 -0.135,-0.156 -0.235,-0.156"
       style="fill:#000000;fill-opacity:1;fill-rule:nonzero;stroke:none"
       id="path112348" />
    <path
       d="m 556.57468,202.251 c -0.129,0 -0.239,0.098 -0.253,0.228 -0.275,2.716 0.863,4.071 0.911,4.128 0.09,0.105 0.25,0.119 0.358,0.027 0.106,-0.091 0.119,-0.252 0.028,-0.358 -0.011,-0.013 -1.043,-1.262 -0.791,-3.745 0.015,-0.14 -0.088,-0.264 -0.227,-0.279 -0.009,-0.001 -0.018,-0.001 -0.026,-0.001"
       style="fill:#000000;fill-opacity:1;fill-rule:nonzero;stroke:none"
       id="path112350" />
    <path
       d="m 565.70368,201.595 c -0.097,0 -0.188,0.055 -0.231,0.149 -0.059,0.128 -0.002,0.278 0.126,0.337 l 3.206,1.457 c 0.127,0.059 0.277,0.002 0.337,-0.126 0.058,-0.128 0.002,-0.279 -0.126,-0.337 l -3.206,-1.457 c -0.035,-0.016 -0.071,-0.023 -0.106,-0.023"
       style="fill:#000000;fill-opacity:1;fill-rule:nonzero;stroke:none"
       id="path112352" />
    <path
       d="m 568.56068,200.854 c -0.065,0 -0.129,0.024 -0.179,0.074 l -1.413,1.397 c -0.1,0.098 -0.101,0.259 -0.002,0.359 0.099,0.1 0.26,0.101 0.359,0.002 l 1.413,-1.397 c 0.1,-0.099 0.101,-0.26 0.002,-0.359 -0.05,-0.051 -0.115,-0.076 -0.18,-0.076"
       style="fill:#000000;fill-opacity:1;fill-rule:nonzero;stroke:none"
       id="path112354" />
    <path
       d="m 570.31168,61.368 c 0,0 -8.732,-10.948 -6.401,-10.777 2.332,0.172 14.032,4.767 16.947,7.39 2.915,2.623 4.198,7.86 4.198,7.86 h -9.094 l -5.65,-4.473"
       style="fill:#f48462;fill-opacity:1;fill-rule:nonzero;stroke:none"
       id="path112356" />
    <path
       d="m 554.08068,87.917 c -0.083,0 -0.164,0.04 -0.213,0.115 -5.076,7.766 -5.763,19.312 -5.768,19.428 -0.008,0.14 0.099,0.26 0.24,0.268 0.147,-10e-4 0.26,-0.1 0.267,-0.241 0.006,-0.114 0.686,-11.527 5.687,-19.177 0.077,-0.118 0.044,-0.275 -0.074,-0.352 -0.042,-0.028 -0.091,-0.041 -0.139,-0.041"
       style="fill:#ed6d4f;fill-opacity:1;fill-rule:nonzero;stroke:none"
       id="path112358" />
    <path
       d="m 546.78968,112.895 c -0.124,0 -0.232,0.089 -0.251,0.215 -1.781,11.734 3.87,36.758 4.393,39.028 l -3.971,2.932 c -0.112,0.083 -0.137,0.242 -0.053,0.356 0.083,0.113 0.241,0.137 0.356,0.053 l 4.104,-3.032 c 0.081,-0.059 0.119,-0.163 0.096,-0.262 -0.063,-0.267 -6.265,-26.86 -4.423,-38.998 0.021,-0.139 -0.074,-0.269 -0.213,-0.29 -0.013,-0.001 -0.025,-0.002 -0.038,-0.002"
       style="fill:#5c69a5;fill-opacity:1;fill-rule:nonzero;stroke:none"
       id="path112360" />
    <path
       d="m 554.25368,205.159 c 0,0 0.648,2.421 3.172,5.066 2.524,2.644 2.524,2.644 2.524,2.644 0,0 -0.282,-5.006 1.957,-7.166 2.24,-2.161 3.808,-0.873 3.808,-0.873 l 4.292,3.76 -7.632,7.031 c 0,0 -8.531,0.326 -8.121,-10.462"
       style="fill:#000000;fill-opacity:1;fill-rule:nonzero;stroke:none"
       id="path112362" />
    <path
       d="m 556.97968,192.559 -5.763,-0.798 c 0,0 -5.142,-5.599 -5.278,-11.832 -0.135,-6.234 1.173,-9.093 1.173,-9.093 l -2.005,-9.793 c 0,0 5.062,-4.207 13.683,-5.105 8.622,-0.897 15.927,1.666 15.927,1.666 0,0 -1.281,30.751 -1.281,33.366 0,1.765 -16.456,1.589 -16.456,1.589"
       style="fill:#a37b90;fill-opacity:1;fill-rule:nonzero;stroke:none"
       id="path112364" />
    <path
       d="m 556.70768,192.94 -2.468,-0.761 c 0,0 -0.827,-4.726 4.833,-5.017 5.94,-0.306 10.651,4.947 10.651,4.947 l -5.188,0.831 h -7.828"
       style="fill:#f48462;fill-opacity:1;fill-rule:nonzero;stroke:none"
       id="path112366" />
    <path
       d="m 559.58068,186.896 c -2.084,0 -3.626,0.566 -4.582,1.683 -1.322,1.545 -1.023,3.555 -1.01,3.64 0.022,0.137 0.152,0.236 0.29,0.211 0.139,-0.022 0.234,-0.152 0.212,-0.29 -0.003,-0.019 -0.273,-1.871 0.898,-3.234 0.855,-0.997 2.266,-1.503 4.192,-1.503 5.981,0.012 9.905,4.817 9.944,4.866 0.088,0.109 0.249,0.127 0.358,0.039 0.109,-0.088 0.127,-0.248 0.039,-0.358 -0.04,-0.05 -4.11,-5.043 -10.319,-5.054 -0.007,0 -0.015,0 -0.022,0"
       style="fill:#ffffff;fill-opacity:1;fill-rule:nonzero;stroke:none"
       id="path112368" />
    <path
       d="m 570.96968,113.995 c -0.324,0 -0.596,-0.08 -0.774,-0.278 -0.064,-0.073 -0.069,-0.11 -0.069,-0.11 0.121,-0.248 1.535,-0.412 3.258,-0.378 -0.737,0.375 -1.7,0.766 -2.415,0.766 z m 1.92,-1.282 c -1.357,0 -2.954,0.124 -3.224,0.683 -0.057,0.12 -0.113,0.363 0.151,0.659 1.153,1.293 4.267,-0.613 4.618,-0.833 0.093,-0.059 0.138,-0.172 0.11,-0.279 -0.027,-0.107 -0.122,-0.184 -0.233,-0.19 -0.366,-0.02 -0.875,-0.04 -1.422,-0.04"
       style="fill:#5c69a5;fill-opacity:1;fill-rule:nonzero;stroke:none"
       id="path112370" />
    <path
       d="m 546.14468,174.863 c -0.097,0 -0.19,0.054 -0.236,0.147 -2.805,5.702 2.414,13.222 2.637,13.54 0.085,0.118 0.25,0.144 0.366,0.063 0.118,-0.084 0.147,-0.247 0.064,-0.366 -0.054,-0.075 -5.263,-7.584 -2.596,-13.005 0.064,-0.131 0.011,-0.288 -0.119,-0.351 -0.038,-0.019 -0.077,-0.028 -0.116,-0.028"
       style="fill:#ffffff;fill-opacity:1;fill-rule:nonzero;stroke:none"
       id="path112372" />
    <path
       d="m 573.86168,207.759 c -0.164,0.014 -0.266,0.138 -0.253,0.279 0.595,6.214 -3.524,8 -3.699,8.073 -0.13,0.054 -0.191,0.202 -0.138,0.332 0.053,0.13 0.204,0.189 0.332,0.138 0.046,-0.019 4.643,-1.989 4.011,-8.592 -0.012,-0.132 -0.123,-0.23 -0.253,-0.23"
       style="fill:#ffb655;fill-opacity:1;fill-rule:nonzero;stroke:none"
       id="path112374" />
    <path
       d="m 559.27168,205.086 c -0.024,0 -0.048,0.003 -0.073,0.011 -0.135,0.04 -0.211,0.182 -0.17,0.317 l 0.31,1.033 -0.236,0.961 c -0.034,0.136 0.049,0.274 0.186,0.307 0.144,0.033 0.274,-0.05 0.308,-0.186 l 0.253,-1.028 c 0.01,-0.043 0.009,-0.089 -0.004,-0.133 l -0.33,-1.101 c -0.033,-0.11 -0.134,-0.181 -0.244,-0.181"
       style="fill:#000000;fill-opacity:1;fill-rule:nonzero;stroke:none"
       id="path112376" />
    <path
       d="m 555.35068,205.631 c -0.025,0 -0.049,0.003 -0.074,0.011 -0.133,0.04 -0.211,0.182 -0.17,0.316 l 0.309,1.035 -0.235,0.96 c -0.034,0.136 0.049,0.274 0.186,0.307 0.142,0.033 0.276,-0.05 0.308,-0.186 l 0.252,-1.028 c 0.01,-0.044 0.01,-0.089 -0.004,-0.133 l -0.329,-1.101 c -0.032,-0.11 -0.134,-0.181 -0.243,-0.181"
       style="fill:#000000;fill-opacity:1;fill-rule:nonzero;stroke:none"
       id="path112378" />
    <path
       d="m 557.74568,200.635 c 0.219,-0.36 0.518,-0.669 0.659,-0.618 0.18,0.052 0.442,0.595 0.636,1.187 z m 0.626,-1.133 c -0.623,0 -1.112,0.939 -1.211,1.144 -0.03,0.062 -0.034,0.133 -0.01,0.198 0.024,0.065 0.074,0.117 0.136,0.145 l 2.046,0.898 c 0.089,0.039 0.192,0.025 0.267,-0.038 0.073,-0.062 0.106,-0.162 0.083,-0.256 -0.109,-0.438 -0.509,-1.881 -1.134,-2.065 -0.06,-0.017 -0.119,-0.026 -0.177,-0.026"
       style="fill:#000000;fill-opacity:1;fill-rule:nonzero;stroke:none"
       id="path112380" />
    <path
       d="m 500.82768,165.902 c -6.169,15.867 1.817,33.748 17.828,39.706 15.238,5.67 32.478,-1.774 38.788,-16.757 3.932,-9.335 2.879,-19.454 -1.887,-27.483 -1.286,-2.166 -1.52,-4.797 -0.607,-7.143 l 1.034,-2.66 c 1.447,-3.72 -0.396,-7.91 -4.117,-9.356 l -15.72,-6.113 c -3.72,-1.448 -7.909,0.396 -9.356,4.117 l -1.041,2.678 c -0.918,2.36 -2.897,4.118 -5.321,4.854 -8.659,2.634 -16.066,9.068 -19.601,18.157"
       style="fill:#ffc988;fill-opacity:1;fill-rule:nonzero;stroke:none"
       id="path112382" />
    <path
       d="m 532.62668,182.231 c 0.232,-2.147 0.749,-4.055 1.36,-4.578 0.163,-0.137 0.254,-0.108 0.335,-0.066 0.413,0.211 0.337,1.063 -0.199,2.224 -0.364,0.789 -0.882,1.623 -1.496,2.42 z m -9.617,-2.199 c -0.034,-0.827 0.004,-1.664 0.109,-2.461 0.287,-2.172 1.06,-3.705 1.923,-3.817 0.189,-0.027 0.244,0.042 0.282,0.127 0.387,0.821 -0.624,3.732 -2.314,6.151 z m -5.737,-11.77 c -0.142,0 -0.277,0.088 -0.331,0.229 -0.191,0.511 -4.645,12.552 0.163,15.23 1.401,0.781 3.033,0.363 4.714,-1.209 0.225,-0.209 0.447,-0.438 0.664,-0.68 0.387,2.264 1.364,4.197 3.021,4.882 1.996,0.825 4.388,-0.595 6.295,-2.51 -0.03,1.574 0.108,3.085 0.459,4.156 0.349,1.068 0.884,1.636 1.587,1.689 4.872,0.329 9.843,-9.728 10.052,-10.157 0.085,-0.176 0.012,-0.387 -0.164,-0.472 -0.175,-0.086 -0.386,-0.013 -0.471,0.163 -0.05,0.102 -4.971,10.121 -9.365,9.761 -0.486,-0.036 -0.794,-0.674 -0.967,-1.203 -0.397,-1.211 -0.499,-2.975 -0.401,-4.719 0.985,-1.125 1.782,-2.332 2.236,-3.316 1.003,-2.171 0.355,-2.905 -0.12,-3.148 -0.377,-0.192 -0.771,-0.136 -1.117,0.158 -0.883,0.754 -1.512,3.378 -1.685,6.056 -1.878,2.076 -4.301,3.616 -6.07,2.89 -1.544,-0.639 -2.405,-2.673 -2.678,-4.963 2.01,-2.582 3.486,-6.208 2.869,-7.52 -0.186,-0.394 -0.561,-0.583 -1.013,-0.526 -1.241,0.161 -2.187,1.815 -2.532,4.426 -0.149,1.118 -0.172,2.292 -0.062,3.417 -0.323,0.396 -0.665,0.767 -1.02,1.1 -1.002,0.935 -2.488,1.888 -3.888,1.108 -4.282,-2.385 0.111,-14.245 0.155,-14.365 0.069,-0.182 -0.024,-0.385 -0.207,-0.455 -0.041,-0.014 -0.083,-0.022 -0.124,-0.022"
       style="fill:#ffffff;fill-opacity:1;fill-rule:nonzero;stroke:none"
       id="path112384" />
    <path
       d="m 543.75168,139.455 c -0.194,0 -0.353,0.157 -0.354,0.352 l -0.214,49.509 c -10e-4,0.196 0.157,0.355 0.351,0.356 0.196,0 0.355,-0.157 0.356,-0.352 l 0.214,-49.509 c 10e-4,-0.196 -0.157,-0.355 -0.351,-0.356 -10e-4,0 -0.002,0 -0.002,0"
       style="fill:#ffdd92;fill-opacity:1;fill-rule:nonzero;stroke:none"
       id="path112386" />
    <path
       d="m 543.98568,138.854 c -0.095,0 -0.191,0.04 -0.261,0.117 l -33.29,36.648 c -0.131,0.145 -0.121,0.367 0.024,0.499 0.144,0.131 0.366,0.122 0.499,-0.024 l 33.29,-36.649 c 0.131,-0.144 0.12,-0.367 -0.024,-0.499 -0.068,-0.061 -0.153,-0.092 -0.238,-0.092"
       style="fill:#ffdd92;fill-opacity:1;fill-rule:nonzero;stroke:none"
       id="path112388" />
    <path
       d="m 546.75868,196.831 c -0.096,0 -0.192,0.039 -0.262,0.116 -0.069,0.076 -7.163,7.683 -20.332,6.494 -0.191,-0.018 -0.366,0.125 -0.384,0.32 -0.017,0.194 0.125,0.365 0.32,0.383 13.536,1.233 20.847,-6.642 20.919,-6.722 0.131,-0.145 0.121,-0.368 -0.024,-0.499 -0.067,-0.062 -0.152,-0.092 -0.237,-0.092"
       style="fill:#ffdd92;fill-opacity:1;fill-rule:nonzero;stroke:none"
       id="path112390" />
    <path
       d="m 507.36568,197.182 c 0,0 -2.705,4.172 0.016,4.445 2.72,0.273 9.242,-5.933 7.79,-8.365 -1.453,-2.432 -7.806,3.92 -7.806,3.92"
       style="fill:#f48462;fill-opacity:1;fill-rule:nonzero;stroke:none"
       id="path112392" />
    <path
       d="m 504.55868,194.175 c 0,0 -2.705,4.173 0.015,4.445 2.72,0.273 9.242,-5.933 7.79,-8.365 -1.453,-2.433 -7.805,3.92 -7.805,3.92"
       style="fill:#f48462;fill-opacity:1;fill-rule:nonzero;stroke:none"
       id="path112394" />
    <path
       d="m 502.67868,190.499 c 0,0 -2.989,3.231 -0.658,3.879 2.332,0.647 8.955,-3.78 8.055,-6.12 -0.9,-2.34 -7.397,2.241 -7.397,2.241"
       style="fill:#f48462;fill-opacity:1;fill-rule:nonzero;stroke:none"
       id="path112396" />
    <path
       d="m 508.69668,187.3 c -1.149,0 -2.343,0.761 -2.419,0.808 -0.117,0.078 -0.151,0.235 -0.075,0.352 0.077,0.119 0.236,0.151 0.352,0.076 0.023,-0.015 2.386,-1.517 3.31,-0.137 0.148,0.221 0.19,0.447 0.127,0.688 -0.188,0.727 -1.278,1.426 -1.682,1.634 l -3.915,3.258 c -0.107,0.09 -0.122,0.25 -0.032,0.359 0.092,0.108 0.251,0.122 0.359,0.032 l 3.867,-3.227 c 0.02,-0.004 1.61,-0.831 1.895,-1.928 0.1,-0.385 0.034,-0.754 -0.197,-1.099 -0.41,-0.612 -0.994,-0.816 -1.59,-0.816"
       style="fill:#000000;fill-opacity:1;fill-rule:nonzero;stroke:none"
       id="path112398" />
    <path
       d="m 511.01568,189.355 c -1.392,0 -2.717,1.357 -2.773,1.416 -0.098,0.101 -0.095,0.261 0.006,0.359 0.102,0.098 0.262,0.096 0.359,-0.006 0.013,-0.013 1.233,-1.26 2.408,-1.26 0.475,0.012 0.839,0.195 1.157,0.558 0.683,0.785 -0.548,2.728 -1.08,3.411 l -4.374,4 c -0.104,0.095 -0.111,0.256 -0.016,0.359 0.094,0.105 0.256,0.111 0.359,0.016 l 4.403,-4.031 c 0.251,-0.317 2.171,-2.851 1.091,-4.089 -0.411,-0.471 -0.911,-0.717 -1.487,-0.732 -0.017,-0.001 -0.036,-0.001 -0.053,-0.001"
       style="fill:#000000;fill-opacity:1;fill-rule:nonzero;stroke:none"
       id="path112400" />
    <path
       d="m 513.85168,192.518 c -1.105,0 -2.184,0.737 -2.739,1.292 -0.099,0.099 -0.099,0.259 0,0.359 0.1,0.1 0.26,0.1 0.36,0 0.083,-0.082 2.026,-1.987 3.535,-0.713 0.136,0.114 0.2,0.265 0.204,0.471 0.024,1.566 -3.457,5.045 -4.8,6.253 -0.104,0.093 -0.113,0.254 -0.019,0.359 0.095,0.104 0.254,0.112 0.359,0.019 0.204,-0.184 5.001,-4.522 4.968,-6.639 -0.005,-0.355 -0.135,-0.641 -0.384,-0.852 -0.469,-0.395 -0.979,-0.549 -1.484,-0.549"
       style="fill:#000000;fill-opacity:1;fill-rule:nonzero;stroke:none"
       id="path112402" />
    <path
       d="m 565.31168,165.161 c 0,0 -10.998,1.71 -13.682,0.491 -2.686,-1.219 -0.086,-10.146 0.81,-11.75 0.896,-1.604 12.022,1.374 12.022,1.374 l 3.047,4.796 -2.197,5.089"
       style="fill:#f48462;fill-opacity:1;fill-rule:nonzero;stroke:none"
       id="path112404" />
    <path
       d="m 551.62968,165.652 c 0,0 -6.41,-4.795 -6.537,-7.602 -0.126,-2.809 7.742,3.41 7.742,3.41 l -1.205,4.192"
       style="fill:#f48462;fill-opacity:1;fill-rule:nonzero;stroke:none"
       id="path112406" />
    <path
       d="m 556.46468,154.492 c 0,0 5.651,-1.015 3.941,-2.622 -1.71,-1.606 -7.368,0.634 -7.966,2.032 -0.597,1.399 3.389,3.364 3.389,3.364 l 0.636,-2.774"
       style="fill:#f48462;fill-opacity:1;fill-rule:nonzero;stroke:none"
       id="path112408" />
    <path
       d="m 571.62068,191.831 c 0,0 21.297,-4.154 22.707,-21.365 1.065,-12.991 -29.465,-18.365 -29.465,-18.365 l -2.16,14.376 15.181,11.074 -6.263,14.28"
       style="fill:#a37b90;fill-opacity:1;fill-rule:nonzero;stroke:none"
       id="path112410" />
    <path
       d="m 563.77168,167.804 c -0.092,0 -0.182,0.05 -0.227,0.139 -0.063,0.126 -0.012,0.279 0.113,0.342 0.453,0.228 11.141,5.575 15.8,5.784 0.135,-10e-4 0.26,-0.102 0.266,-0.242 0.006,-0.14 -0.103,-0.26 -0.243,-0.265 -4.551,-0.205 -15.485,-5.676 -15.594,-5.732 -0.037,-0.018 -0.075,-0.026 -0.115,-0.026"
       style="fill:#ffffff;fill-opacity:1;fill-rule:nonzero;stroke:none"
       id="path112412" />
    <path
       d="m 575.53668,175.73 c -1.08,0 -2.244,-1.854 -2.915,-3.202 1.845,1.451 3.225,2.823 3.147,3.167 10e-4,0.001 -0.03,0.021 -0.155,0.033 -0.025,0.001 -0.051,0.002 -0.077,0.002 z m -3.566,-4.273 c -0.055,0 -0.11,0.018 -0.156,0.053 -0.09,0.069 -0.123,0.19 -0.08,0.297 0.191,0.47 1.945,4.604 3.922,4.426 0.412,-0.034 0.554,-0.234 0.6,-0.396 0.268,-0.939 -2.802,-3.341 -4.135,-4.33 -0.045,-0.033 -0.098,-0.05 -0.151,-0.05"
       style="fill:#ffffff;fill-opacity:1;fill-rule:nonzero;stroke:none"
       id="path112414" />
    <path
       d="m 557.03968,153.635 c -0.136,0 -0.248,0.105 -0.254,0.242 -0.007,0.141 0.102,0.26 0.242,0.266 l 1.283,0.058 -0.667,0.944 c -0.082,0.114 -0.054,0.273 0.061,0.354 0.111,0.08 0.274,0.054 0.355,-0.062 l 0.934,-1.322 c 0.054,-0.075 0.062,-0.175 0.021,-0.258 -0.041,-0.084 -0.124,-0.138 -0.217,-0.142 l -1.746,-0.08 c -0.004,0 -0.008,0 -0.012,0"
       style="fill:#000000;fill-opacity:1;fill-rule:nonzero;stroke:none"
       id="path112416" />
    <path
       d="m 550.54068,159.981 c -0.057,0 -0.114,0.019 -0.161,0.058 -0.109,0.089 -0.125,0.249 -0.035,0.357 0.183,0.225 1.818,2.204 2.505,2.482 0.129,0.052 0.278,-0.01 0.331,-0.14 0.052,-0.13 -0.01,-0.278 -0.14,-0.331 -0.427,-0.174 -1.64,-1.523 -2.304,-2.333 -0.05,-0.061 -0.123,-0.093 -0.196,-0.093"
       style="fill:#000000;fill-opacity:1;fill-rule:nonzero;stroke:none"
       id="path112418" />
    <path
       d="m 551.32268,156.806 c -0.065,0 -0.131,0.024 -0.179,0.074 -0.1,0.099 -0.1,0.261 0,0.359 l 3.092,3.084 c 0.1,0.1 0.262,0.1 0.36,0 0.099,-0.099 0.099,-0.261 0,-0.359 l -3.093,-3.084 c -0.05,-0.05 -0.114,-0.074 -0.18,-0.074"
       style="fill:#000000;fill-opacity:1;fill-rule:nonzero;stroke:none"
       id="path112420" />
    <path
       d="m 533.13168,130.756 24.566,9.553 c 1.22,0.474 1.823,1.847 1.35,3.067 -0.475,1.22 -1.848,1.823 -3.068,1.35 l -24.566,-9.554 c -1.219,-0.474 -1.823,-1.847 -1.349,-3.067 0.474,-1.219 1.847,-1.824 3.067,-1.349"
       style="fill:#40507f;fill-opacity:1;fill-rule:nonzero;stroke:none"
       id="path112422" />
    <path
       d="m 534.72368,126.663 24.566,9.553 c 1.22,0.474 1.823,1.847 1.35,3.066 -0.475,1.22 -1.848,1.824 -3.068,1.35 l -24.566,-9.553 c -1.219,-0.475 -1.823,-1.848 -1.349,-3.067 0.474,-1.219 1.847,-1.824 3.067,-1.349"
       style="fill:#40507f;fill-opacity:1;fill-rule:nonzero;stroke:none"
       id="path112424" />
    <path
       d="m 544.352,232.051 c -2.138,3.95 -4.163,6.006 -4.183,6.026 l 0.709,0.705 c 0.087,-0.087 2.147,-2.179 4.352,-6.256 l -0.878,-0.475"
       style="fill:#ffffff;fill-opacity:1;fill-rule:nonzero;stroke:none"
       id="path112548" />
    <path
       d="m 549.367,213.05 c -0.128,3.367 -0.605,6.663 -1.42,9.797 l 0.969,0.251 c 0.832,-3.203 1.32,-6.571 1.451,-10.01 l -1,-0.038"
       style="fill:#ffffff;fill-opacity:1;fill-rule:nonzero;stroke:none"
       id="path112550" />
    <path
       d="m 315.712,278.801 -1,0.014 c 0.036,2.611 -0.183,5.085 -0.65,7.353 l 0.98,0.202 c 0.481,-2.339 0.707,-4.885 0.67,-7.569"
       style="fill:#ffffff;fill-opacity:1;fill-rule:nonzero;stroke:none"
       id="path112556" />
    <path
       d="m 481.459,273.032 -0.957,0.289 c 0.996,3.296 2.319,6.431 3.932,9.32 l 0.873,-0.488 c -1.578,-2.825 -2.872,-5.894 -3.848,-9.121"
       style="fill:#ffffff;fill-opacity:1;fill-rule:nonzero;stroke:none"
       id="path112568" />
    <path
       d="m 478.178,255.85 c -0.032,2.574 0.083,5.114 0.343,7.549 l 0.995,-0.106 c -0.256,-2.396 -0.37,-4.896 -0.338,-7.431 l -1,-0.012"
       style="fill:#ffffff;fill-opacity:1;fill-rule:nonzero;stroke:none"
       id="path112570" />
    <path
       d="m 349.21539,142.02321 6.68053,3.66205 c 0.80561,0.44312 1.10068,1.45613 0.65883,2.26222 l -9.52966,17.37644 c -0.4419,0.80605 -1.45486,1.10114 -2.26222,0.6589 l -6.6801,-3.66336 c -0.80566,-0.44315 -1.10122,-1.45486 -0.65889,-2.26224 l 9.53066,-17.37466 c 0.44353,-0.80698 1.45524,-1.10247 2.26085,-0.65935"
       style="display:inline;fill:#413a6d;fill-opacity:1;fill-rule:nonzero;stroke:none;stroke-width:1.39031"
       id="path103132" />
    <path
       d="m 348.1629,141.44485 6.67885,3.66294 c 0.80736,0.44225 1.10111,1.45481 0.65882,2.26221 l -9.52933,17.37509 c -0.44222,0.80742 -1.45524,1.10249 -2.26128,0.66066 l -6.67968,-3.66467 c -0.80735,-0.44225 -1.10159,-1.4535 -0.65925,-2.26088 l 9.52966,-17.37645 c 0.4419,-0.80606 1.4548,-1.10117 2.26221,-0.6589"
       style="display:inline;fill:#50447e;fill-opacity:1;fill-rule:nonzero;stroke:none;stroke-width:1.39031"
       id="path103134" />
  </g>
</svg>
