<?xml version="1.0" encoding="UTF-8" standalone="no"?>
<!-- Created with Inkscape (http://www.inkscape.org/) -->

<svg
   version="1.1"
   id="svg361"
   width="944"
   height="666.66669"
   viewBox="0 0 944 666.66669"
   sodipodi:docname="meditate-group.svg"
   inkscape:export-filename="appamana-meditate-group.png"
   inkscape:export-xdpi="96"
   inkscape:export-ydpi="96"
   inkscape:version="1.2.1 (9c6d41e, 2022-07-14)"
   xmlns:inkscape="http://www.inkscape.org/namespaces/inkscape"
   xmlns:sodipodi="http://sodipodi.sourceforge.net/DTD/sodipodi-0.dtd"
   xmlns="http://www.w3.org/2000/svg"
   xmlns:svg="http://www.w3.org/2000/svg">
  <defs
     id="defs365" />
  <sodipodi:namedview
     id="namedview363"
     pagecolor="#ffffff"
     bordercolor="#000000"
     borderopacity="0.25"
     inkscape:showpageshadow="2"
     inkscape:pageopacity="0.0"
     inkscape:pagecheckerboard="0"
     inkscape:deskcolor="#d1d1d1"
     showgrid="false"
     inkscape:zoom="0.55488169"
     inkscape:cx="424.4148"
     inkscape:cy="454.15087"
     inkscape:window-width="1440"
     inkscape:window-height="872"
     inkscape:window-x="0"
     inkscape:window-y="0"
     inkscape:window-maximized="1"
     inkscape:current-layer="g369">
    <inkscape:page
       x="0"
       y="0"
       id="page367"
       width="944"
       height="666.66669" />
  </sodipodi:namedview>
  <g
     id="g369"
     inkscape:groupmode="layer"
     inkscape:label="Page 1"
     transform="matrix(1.3333333,0,0,-1.3333333,0,666.66667)">
    <path
       d="m 436.677,426.217 c 77.662,0 140.621,-62.959 140.621,-140.622 0,-77.665 -62.959,-140.62 -140.621,-140.62 -77.664,0 -140.623,62.955 -140.623,140.62 0,77.663 62.959,140.622 140.623,140.622"
       style="fill:#ebb763;fill-opacity:1;fill-rule:evenodd;stroke:none;stroke-width:0.1"
       id="path407" />
    <path
       d="m 242.02054,96.719102 h 406.227 c -15.188,110.581998 -73.564,205.043998 -130.702,209.218998 -49.911,40.649 -112.858,38.391 -145.212,12.327 -20.662,-0.595 -37.747,-6.064 -53.888,1.042 -76.906,50.056 -218.528904,-36.258 -251.969104,-222.587998"
       style="fill:#b2d7bd;fill-opacity:1;fill-rule:evenodd;stroke:none;stroke-width:0.1"
       id="path786" />
    <path
       d="m 114.095,197.57 h 138.85 c 1.897,0 3.449,-1.552 3.449,-3.45 v -93.05 c 0,-1.8966 -1.552,-3.4493 -3.449,-3.4493 h -138.85 c -1.897,0 -3.45,1.5527 -3.45,3.4493 v 93.05 c 0,1.898 1.553,3.45 3.45,3.45"
       style="fill:#333333;fill-opacity:1;fill-rule:evenodd;stroke:none;stroke-width:0.1"
       id="path387" />
    <path
       d="m 295.84054,97.3843 c 2.667,82.2868 15.046,193.5208 22.604,221.9228 11.79,2.059 45.142,1.348 53.889,-1.042 l 18.045,-220.9366"
       style="fill:#99cccc;fill-opacity:1;fill-rule:evenodd;stroke:none;stroke-width:0.1"
       id="path788" />
    <path
       d="m 252.945,196.283 h -138.85 c -0.594,0 -1.134,-0.244 -1.527,-0.636 -0.393,-0.393 -0.636,-0.933 -0.636,-1.527 v -93.05 c 0,-0.593 0.243,-1.1341 0.636,-1.5251 0.393,-0.3937 0.933,-0.6379 1.527,-0.6379 h 138.85 c 0.593,0 1.134,0.2442 1.526,0.6379 0.393,0.391 0.637,0.9321 0.637,1.5251 v 93.05 c 0,0.594 -0.244,1.134 -0.637,1.527 -0.392,0.392 -0.933,0.636 -1.526,0.636 m -138.85,2.573 h 138.85 c 1.304,0 2.488,-0.532 3.346,-1.39 0.857,-0.857 1.39,-2.042 1.39,-3.346 v -93.05 c 0,-1.304 -0.533,-2.4868 -1.39,-3.3462 -0.858,-0.8566 -2.042,-1.3886 -3.346,-1.3886 h -138.85 c -1.304,0 -2.488,0.532 -3.346,1.3886 -0.858,0.8594 -1.39,2.0422 -1.39,3.3462 v 93.05 c 0,1.304 0.532,2.489 1.39,3.346 0.858,0.858 2.042,1.39 3.346,1.39"
       style="fill:#000000;fill-opacity:1;fill-rule:nonzero;stroke:none;stroke-width:0.1"
       id="path389" />
    <path
       d="m 361.66454,304.6661 c 0.069,0.353 0.41,0.583 0.763,0.514 0.352,-0.068 0.582,-0.411 0.514,-0.764 -0.858,-4.317 -3.084,-8.14 -5.641,-10.583 -1.291,-1.233 -2.676,-2.125 -4.025,-2.562 -1.423,-0.464 -2.809,-0.434 -4.021,0.211 -0.686,0.364 -1.305,0.919 -1.833,1.689 -2.453,-4.643 -5.397,-6.98 -8.065,-7.627 -1.263,-0.307 -2.467,-0.239 -3.538,0.138 -1.075,0.377 -2.009,1.066 -2.729,2.003 l -10e-4,-10e-4 c -1.114,1.448 -1.709,3.491 -1.497,5.878 -2.141,-2.257 -4.077,-3.364 -5.698,-3.571 -1.204,-0.152 -2.239,0.174 -3.069,0.889 -0.79,0.68 -1.372,1.709 -1.715,3.002 -0.875,3.3 -0.202,8.473 2.614,13.964 0.163,0.318 0.552,0.445 0.872,0.282 0.319,-0.163 0.445,-0.554 0.282,-0.873 -2.661,-5.189 -3.315,-10.011 -2.511,-13.041 0.275,-1.04 0.72,-1.845 1.308,-2.352 0.548,-0.473 1.241,-0.687 2.058,-0.584 1.698,0.216 3.898,1.722 6.454,4.968 0.16,0.207 0.436,0.305 0.702,0.227 0.344,-0.102 0.54,-0.466 0.437,-0.809 -0.907,-3.014 -0.452,-5.57 0.79,-7.186 l -0.001,-0.002 0.001,-10e-4 c 0.565,-0.735 1.294,-1.274 2.131,-1.568 0.841,-0.295 1.795,-0.345 2.804,-0.1 2.527,0.612 5.381,3.039 7.743,8.012 0.063,0.138 0.173,0.254 0.321,0.323 0.326,0.15 0.711,0.007 0.861,-0.318 0.506,-1.089 1.154,-1.803 1.89,-2.192 0.881,-0.468 1.919,-0.481 3.009,-0.127 1.163,0.379 2.378,1.168 3.53,2.269 2.38,2.274 4.457,5.847 5.26,9.892"
       style="fill:#ffffff;fill-opacity:1;fill-rule:nonzero;stroke:none;stroke-width:0.1"
       id="path790" />
    <path
       d="m 183.52,194.524 c 0.653,0 1.183,-0.53 1.183,-1.183 0,-0.653 -0.53,-1.183 -1.183,-1.183 -0.653,0 -1.183,0.53 -1.183,1.183 0,0.653 0.53,1.183 1.183,1.183"
       style="fill:#000000;fill-opacity:1;fill-rule:evenodd;stroke:none;stroke-width:0.1"
       id="path391" />
    <path
       d="m 324.28454,267.2171 c 0.06,0.354 0.396,0.592 0.75,0.531 0.354,-0.06 0.592,-0.396 0.532,-0.75 -0.626,-3.595 -0.074,-6.885 1.17,-9.227 l 0.016,-0.033 c 0.633,-1.184 1.44,-2.113 2.352,-2.7 0.883,-0.567 1.869,-0.812 2.893,-0.648 1.175,0.188 2.424,0.911 3.659,2.297 0.239,0.268 0.649,0.292 0.918,0.053 0.135,-0.12 0.208,-0.283 0.217,-0.45 0.442,-4.208 1.9,-6.658 3.717,-7.754 0.881,-0.532 1.853,-0.745 2.833,-0.685 1,0.06 2.013,0.404 2.955,0.981 2.283,1.398 4.122,4.15 4.361,7.597 0.024,0.358 0.334,0.629 0.692,0.605 0.267,-0.017 0.485,-0.194 0.57,-0.431 1.186,-2.924 2.591,-4.505 4.002,-5.037 0.828,-0.313 1.671,-0.254 2.477,0.11 0.858,0.388 1.682,1.118 2.413,2.117 2.085,2.846 3.357,7.766 2.587,13.225 -0.049,0.356 0.199,0.684 0.554,0.733 0.356,0.049 0.684,-0.2 0.733,-0.555 0.819,-5.808 -0.566,-11.086 -2.825,-14.171 -0.864,-1.179 -1.863,-2.053 -2.928,-2.534 -1.118,-0.505 -2.298,-0.583 -3.469,-0.141 -1.366,0.516 -2.696,1.751 -3.852,3.861 -0.744,-2.896 -2.524,-5.193 -4.638,-6.488 -1.121,-0.687 -2.34,-1.096 -3.556,-1.17 -1.236,-0.075 -2.465,0.195 -3.581,0.869 -1.935,1.168 -3.516,3.547 -4.163,7.446 -1.151,-1.013 -2.327,-1.577 -3.472,-1.76 -1.357,-0.217 -2.652,0.099 -3.799,0.837 -1.099,0.706 -2.057,1.801 -2.796,3.18 l -0.02,0.035 c -1.366,2.576 -1.98,6.165 -1.302,10.057"
       style="fill:#ffffff;fill-opacity:1;fill-rule:nonzero;stroke:none;stroke-width:0.1"
       id="path792" />
    <path
       d="m 89.4887,163.377 h 33.4943 c 0.683,0 1.242,-0.559 1.242,-1.241 V 98.8629 c 0,-0.6832 -0.559,-1.2422 -1.242,-1.2422 H 89.4887 c -0.6828,0 -1.241,0.559 -1.241,1.2422 v 63.2731 c 0,0.682 0.5582,1.241 1.241,1.241"
       style="fill:#333333;fill-opacity:1;fill-rule:evenodd;stroke:none;stroke-width:0.1"
       id="path397" />
    <path
       d="m 339.06554,220.4241 c 0.035,0.357 0.353,0.618 0.71,0.583 0.356,-0.036 0.617,-0.354 0.583,-0.71 -0.543,-5.339 -2.606,-8.563 -5.088,-10.063 -1.151,-0.695 -2.394,-1.02 -3.623,-1.015 -1.228,0.006 -2.434,0.342 -3.519,0.97 -1.745,1.011 -3.174,2.778 -3.845,5.134 -1.304,-2.652 -2.829,-4.207 -4.375,-4.857 -1.154,-0.486 -2.311,-0.48 -3.4,-0.058 -1.05,0.408 -2.024,1.201 -2.85,2.308 -2.059,2.761 -3.267,7.573 -2.49,13.232 0.047,0.355 0.375,0.604 0.731,0.557 0.355,-0.048 0.605,-0.375 0.557,-0.73 -0.729,-5.302 0.366,-9.76 2.245,-12.281 0.682,-0.914 1.459,-1.559 2.274,-1.875 0.777,-0.301 1.604,-0.305 2.429,0.042 1.589,0.669 3.195,2.592 4.521,6.111 0.077,0.251 0.302,0.441 0.579,0.459 0.359,0.024 0.668,-0.247 0.691,-0.605 0.213,-3.002 1.677,-5.207 3.586,-6.313 0.889,-0.516 1.875,-0.792 2.87,-0.797 0.994,-0.004 2.005,0.262 2.948,0.832 2.164,1.308 3.971,4.204 4.466,9.076"
       style="fill:#ffffff;fill-opacity:1;fill-rule:nonzero;stroke:none;stroke-width:0.1"
       id="path794" />
    <path
       d="M 122.938,162.09 H 89.5341 V 98.9072 h 33.4039 z m -33.4489,2.573 h 33.4939 c 0.697,0 1.329,-0.284 1.786,-0.741 0.458,-0.458 0.742,-1.091 0.742,-1.787 V 98.8629 c 0,-0.6957 -0.284,-1.3289 -0.742,-1.7867 -0.457,-0.4582 -1.089,-0.741 -1.786,-0.741 H 89.4891 c -0.6969,0 -1.3289,0.2828 -1.786,0.741 -0.4582,0.4578 -0.7429,1.091 -0.7429,1.7867 v 63.2721 c 0,0.696 0.2847,1.329 0.7429,1.787 0.4571,0.457 1.0891,0.741 1.786,0.741"
       style="fill:#000000;fill-opacity:1;fill-rule:nonzero;stroke:none;stroke-width:0.1"
       id="path399" />
    <path
       d="m 106.236,161.286 c 0.653,0 1.183,-0.531 1.183,-1.184 0,-0.653 -0.53,-1.182 -1.183,-1.182 -0.653,0 -1.183,0.529 -1.183,1.182 0,0.653 0.53,1.184 1.183,1.184"
       style="fill:#000000;fill-opacity:1;fill-rule:evenodd;stroke:none;stroke-width:0.1"
       id="path401" />
    <path
       d="m 306.242,392.079 c 9.878,0 18.562,-5.116 23.548,-12.841 1.415,0.416 2.911,0.639 4.46,0.639 8.731,0 15.808,-7.077 15.808,-15.807 0,-2.243 -0.468,-4.375 -1.31,-6.307 h -89.163 c -0.67,1.98 -1.033,4.101 -1.033,6.307 0,10.869 8.812,19.682 19.682,19.682 2.435,0 4.766,-0.443 6.919,-1.253 5.134,5.871 12.678,9.58 21.089,9.58"
       style="fill:#ffffff;fill-opacity:1;fill-rule:evenodd;stroke:none;stroke-width:0.1"
       id="path409" />
    <path
       d="m 520.211,420.684 c 6.632,0 12.461,-3.433 15.809,-8.619 0.95,0.279 1.953,0.429 2.993,0.429 5.86,0 10.612,-4.751 10.612,-10.611 0,-1.506 -0.314,-2.938 -0.88,-4.235 h -59.852 c -0.452,1.329 -0.695,2.754 -0.695,4.235 0,7.296 5.915,13.212 13.213,13.212 1.634,0 3.198,-0.298 4.644,-0.841 3.447,3.941 8.511,6.43 14.156,6.43"
       style="fill:#ffffff;fill-opacity:1;fill-rule:evenodd;stroke:none;stroke-width:0.1"
       id="path413" />
    <path
       d="m 563.966,358.014 c 13.229,0 24.857,-6.85 31.535,-17.194 1.895,0.555 3.899,0.855 5.973,0.855 11.691,0 21.17,-9.478 21.17,-21.169 0,-3.004 -0.627,-5.86 -1.755,-8.447 H 501.484 c -0.898,2.652 -1.384,5.493 -1.384,8.447 0,14.557 11.801,26.357 26.357,26.357 3.262,0 6.383,-0.593 9.266,-1.677 6.876,7.862 16.978,12.828 28.243,12.828"
       style="fill:#ffffff;fill-opacity:1;fill-rule:evenodd;stroke:none;stroke-width:0.1"
       id="path417" />
    <path
       d="m 272.256,197.112 c -31.911,27.542 -2.781,48.423 0,0"
       style="fill:#80854d;fill-opacity:1;fill-rule:evenodd;stroke:none;stroke-width:0.1"
       id="path419" />
    <path
       d="m 276.576,157.563 c -47.965,-7.674 -43.207,64.393 0,0"
       style="fill:#80854d;fill-opacity:1;fill-rule:evenodd;stroke:none;stroke-width:0.1"
       id="path421" />
    <path
       d="m 279.639,156.729 c 0.325,-0.146 0.468,-0.526 0.323,-0.849 -0.146,-0.324 -0.526,-0.467 -0.849,-0.322 -5.668,2.569 -11.292,5.577 -16.84,9.324 -5.548,3.748 -11.023,8.237 -16.395,13.766 -0.248,0.254 -0.241,0.661 0.011,0.908 0.255,0.247 0.662,0.241 0.909,-0.013 5.3,-5.457 10.711,-9.891 16.195,-13.595 5.485,-3.705 11.044,-6.68 16.646,-9.219"
       style="fill:#000000;fill-opacity:1;fill-rule:nonzero;stroke:none;stroke-width:0.1"
       id="path423" />
    <path
       d="m 380.329,403.645 c -37.545,-6.621 -39.899,47.165 0,0"
       style="fill:#8c9152;fill-opacity:1;fill-rule:evenodd;stroke:none;stroke-width:0.1"
       id="path425" />
    <path
       d="m 382.682,403.398 c 0.334,-0.117 0.511,-0.482 0.395,-0.817 -0.116,-0.334 -0.482,-0.511 -0.816,-0.394 -4.325,1.505 -8.647,3.336 -12.959,5.711 -4.316,2.378 -8.629,5.304 -12.934,8.999 -0.268,0.23 -0.3,0.635 -0.07,0.904 0.231,0.269 0.636,0.301 0.906,0.071 4.23,-3.632 8.471,-6.509 12.716,-8.848 4.251,-2.342 8.505,-4.145 12.762,-5.626"
       style="fill:#000000;fill-opacity:1;fill-rule:nonzero;stroke:none;stroke-width:0.1"
       id="path427" />
    <path
       d="m 266.257,440.096 c -23.888,27.029 -53.06,3.199 0,0"
       style="fill:#80854d;fill-opacity:1;fill-rule:evenodd;stroke:none;stroke-width:0.1"
       id="path429" />
    <path
       d="m 181.297,305.661 c -53.289,19.054 -38.732,-12.61 0,0"
       style="fill:#8c9152;fill-opacity:1;fill-rule:evenodd;stroke:none;stroke-width:0.1"
       id="path431" />
    <path
       d="m 192.259,295.616 c -62.459,9.457 -38.479,-18.012 0,0"
       style="fill:#80854d;fill-opacity:1;fill-rule:evenodd;stroke:none;stroke-width:0.1"
       id="path433" />
    <path
       d="m 172.544,315.961 c -45.088,29.106 -33.488,-5.255 0,0"
       style="fill:#8c9152;fill-opacity:1;fill-rule:evenodd;stroke:none;stroke-width:0.1"
       id="path435" />
    <path
       d="m 167.998,322.276 c -11.837,52.476 -31.094,18.313 0,0"
       style="fill:#80854d;fill-opacity:1;fill-rule:evenodd;stroke:none;stroke-width:0.1"
       id="path437" />
    <path
       d="m 169.936,319.495 c 16.179,46.941 -17.061,27.88 0,0"
       style="fill:#8c9152;fill-opacity:1;fill-rule:evenodd;stroke:none;stroke-width:0.1"
       id="path439" />
    <path
       d="m 177.011,310.422 c 21.4,49.741 -12.82,29.142 0,0"
       style="fill:#8c9152;fill-opacity:1;fill-rule:evenodd;stroke:none;stroke-width:0.1"
       id="path441" />
    <path
       d="m 186.035,300.967 c 21.663,56.883 -15.318,29.111 0,0"
       style="fill:#8c9152;fill-opacity:1;fill-rule:evenodd;stroke:none;stroke-width:0.1"
       id="path443" />
    <path
       d="m 205.368,286.962 c -63.515,8.899 -46.624,-27.038 0,0"
       style="fill:#80854d;fill-opacity:1;fill-rule:evenodd;stroke:none;stroke-width:0.1"
       id="path445" />
    <path
       d="m 198.051,291.384 c 11.84,58.322 -19.162,27.409 0,0"
       style="fill:#80854d;fill-opacity:1;fill-rule:evenodd;stroke:none;stroke-width:0.1"
       id="path447" />
    <path
       d="m 225.568,279.3 c -76.748,1.043 -51.567,-33.664 0,0"
       style="fill:#8c9152;fill-opacity:1;fill-rule:evenodd;stroke:none;stroke-width:0.1"
       id="path449" />
    <path
       d="m 213.191,283.257 c 0.175,65.72 -29.047,24.719 0,0"
       style="fill:#8c9152;fill-opacity:1;fill-rule:evenodd;stroke:none;stroke-width:0.1"
       id="path451" />
    <path
       d="m 166.982,322.634 c -0.198,0.294 -0.119,0.692 0.175,0.889 0.295,0.197 0.693,0.119 0.89,-0.176 8.967,-13.349 19.3,-24.128 30.983,-31.845 11.212,-7.405 23.67,-11.992 37.364,-13.329 0.353,-0.034 0.611,-0.346 0.578,-0.699 -0.033,-0.352 -0.346,-0.611 -0.698,-0.578 -13.914,1.359 -26.569,6.017 -37.952,13.536 -11.826,7.811 -22.278,18.71 -31.34,32.202"
       style="fill:#000000;fill-opacity:1;fill-rule:nonzero;stroke:none;stroke-width:0.1"
       id="path453" />
    <path
       d="m 599.303,325.478 c 29.62,8.055 11.219,48.315 0,0"
       style="fill:#8c9152;fill-opacity:1;fill-rule:evenodd;stroke:none;stroke-width:0.1"
       id="path455" />
    <path
       d="m 598.5,323.606 c -0.246,-0.254 -0.652,-0.26 -0.907,-0.013 -0.254,0.247 -0.259,0.654 -0.013,0.908 2.584,2.67 5.047,5.575 7.306,8.875 2.257,3.296 4.309,6.987 6.077,11.231 0.135,0.328 0.512,0.483 0.839,0.347 0.327,-0.136 0.482,-0.512 0.346,-0.839 -1.803,-4.331 -3.898,-8.097 -6.203,-11.463 -2.3,-3.362 -4.811,-6.324 -7.445,-9.046"
       style="fill:#000000;fill-opacity:1;fill-rule:nonzero;stroke:none;stroke-width:0.1"
       id="path457" />
    <path
       d="m 534.604,288.493 c 45.341,34.95 41.203,-0.059 0,0"
       style="fill:#8c9152;fill-opacity:1;fill-rule:evenodd;stroke:none;stroke-width:0.1"
       id="path459" />
    <path
       d="m 527.921,275.321 c 57.158,28.572 42.645,-5.337 0,0"
       style="fill:#80854d;fill-opacity:1;fill-rule:evenodd;stroke:none;stroke-width:0.1"
       id="path461" />
    <path
       d="m 539.816,301.134 c 34.314,42.066 33.864,5.384 0,0"
       style="fill:#80854d;fill-opacity:1;fill-rule:evenodd;stroke:none;stroke-width:0.1"
       id="path463" />
    <path
       d="m 542.222,308.629 c -4.969,54.189 24.213,27.316 0,0"
       style="fill:#80854d;fill-opacity:1;fill-rule:evenodd;stroke:none;stroke-width:0.1"
       id="path465" />
    <path
       d="m 579.94274,125.29686 -4.66421,0.73362 -4.58772,-28.435183 c 15.30515,0 54.76234,-2.643286 61.51527,5.151493 2.34949,2.71282 -7.83945,4.73288 -25.08122,12.38198 -11.25113,4.99191 -10.13506,17.93975 -27.18212,10.16809"
       style="fill:#000000;fill-opacity:1;fill-rule:evenodd;stroke:none;stroke-width:0.0869216"
       id="path840" />
    <path
       d="m 541.224,305.348 c -30.204,40.131 7.726,32.149 0,0"
       style="fill:#8c9152;fill-opacity:1;fill-rule:evenodd;stroke:none;stroke-width:0.1"
       id="path467" />
    <path
       d="m 582.9624,97.37695 c -8.84688,-0.13751 -10.32542,0.975086 -17.8337,0 -88.47836,4.14338 -126.26057,23.20441 -110.40694,58.49458 6.54345,14.56545 30.25654,17.69549 75.89993,4.66855 5.749,1.94966 5.6699,2.34776 6.57562,3.87932 18.45606,-4.3739 25.56973,-4.26872 49.62528,-0.21992 1.10911,-2.24257 6.799,-2.14001 18.41868,-5.60209 53.60193,17.89802 77.66878,11.70573 83.58206,-3.55423 C 699.6581,127.08049 668.59581,103.96804 582.9624,97.37695"
       style="fill:#333333;fill-opacity:1;fill-rule:evenodd;stroke:none;stroke-width:0.0869216"
       id="path842" />
    <path
       d="m 537.244,294.412 c -36.101,41.195 3.252,32.041 0,0"
       style="fill:#8c9152;fill-opacity:1;fill-rule:evenodd;stroke:none;stroke-width:0.1"
       id="path469" />
    <path
       d="m 574.90998,98.171239 c 2.06004,-0.132121 4.43126,-0.285972 7.98896,-0.23295 l 0.009,8.69e-4 c 32.9624,2.537242 57.80633,7.522192 75.26192,14.285562 11.51363,4.46169 19.79813,9.68915 25.06384,15.49377 5.22486,5.75943 7.47526,12.09254 6.9572,18.8107 -0.20861,2.71283 -0.86921,5.49432 -1.96877,8.33057 -3.08398,7.96202 -11.29285,13.39027 -26.34854,14.03001 -13.20687,0.56152 -31.62381,-2.54506 -56.39038,-10.81391 -0.1356,-0.0496 -0.29206,-0.0582 -0.4433,-0.013 -4.65465,1.38727 -8.36533,2.20172 -11.20245,2.82321 -4.01491,0.88139 -6.36353,1.39683 -7.34575,2.68414 -11.80916,-1.98094 -19.52693,-2.99619 -26.58149,-2.98228 -7.03543,0.0139 -13.36941,1.05001 -22.38491,3.17003 -0.78838,-1.35858 -1.23081,-1.89837 -6.67645,-3.74545 l -8.7e-4,0.002 c -0.12951,-0.0443 -0.27641,-0.0513 -0.41896,-0.0104 -22.10677,6.30964 -39.03388,8.81559 -51.32807,8.05937 -12.80529,-0.78751 -20.52393,-5.12924 -23.79131,-12.4011 -7.79165,-17.34347 -2.39991,-30.70071 15.81104,-40.23253 18.42564,-9.64221 49.87387,-15.41728 93.97788,-17.487754 4.45473,0.575421 6.8077,0.424177 9.81171,0.229473 m 8.00809,-1.358584 c -3.64462,-0.05467 -6.02801,0.09918 -8.09762,0.232254 -2.94142,0.190445 -5.24398,0.338821 -9.60136,-0.227821 -0.0522,-0.0061 -0.10343,-0.0061 -0.15298,-0.0026 -44.32479,2.077948 -75.97642,7.904302 -94.58546,17.643002 -18.83592,9.85864 -24.40933,23.67744 -16.34735,41.62414 3.45774,7.6969 11.53275,12.28636 24.88305,13.10777 12.40631,0.76317 29.42122,-1.74104 51.58535,-8.05155 4.96236,1.6915 5.20487,2.11046 5.87069,3.26478 0.053,0.0913 0.10865,0.18688 0.16341,0.27902 0.14255,0.24077 0.45286,0.35203 0.73623,0.27902 9.17022,-2.17217 15.51811,-3.23262 22.53789,-3.24653 7.04065,-0.0148 14.80275,1.02046 26.79619,3.03965 0.29466,0.0487 0.58064,-0.0921 0.69624,-0.32682 h 8.7e-4 c 0.53631,-1.08478 2.72239,-1.56459 6.73642,-2.44511 2.81105,-0.61714 6.47392,-1.42116 11.09033,-2.78757 24.84393,8.27841 43.37039,11.38846 56.70243,10.82174 15.66674,-0.66582 24.23547,-6.38874 27.49069,-14.78971 1.13432,-2.92665 1.81666,-5.8055 2.03309,-8.62262 0.53892,-7.00415 -1.80014,-13.60149 -7.23448,-19.59126 -5.39349,-5.94544 -13.83879,-11.2859 -25.54625,-15.82147 -17.58337,-6.81291 -42.56116,-11.830896 -75.65829,-14.377525 -0.0339,-0.0026 -0.0661,-0.0026 -0.0991,-8.69e-4"
       style="fill:#000000;fill-opacity:1;fill-rule:nonzero;stroke:none;stroke-width:0.0869216"
       id="path844" />
    <path
       d="m 531.507,282.5 c -38.581,47.986 5.666,32.791 0,0"
       style="fill:#8c9152;fill-opacity:1;fill-rule:evenodd;stroke:none;stroke-width:0.1"
       id="path471" />
    <path
       d="m 564.86358,124.94135 4.66509,0.73362 4.58685,-28.43553 c -15.30515,0 -54.76234,-2.643286 -61.51528,5.15271 -2.34949,2.71195 7.83946,4.73201 25.08123,12.38111 11.252,4.99191 10.13592,17.93975 27.18211,10.16809"
       style="fill:#000000;fill-opacity:1;fill-rule:evenodd;stroke:none;stroke-width:0.0869216"
       id="path846" />
    <path
       d="m 516.33,258.375 c 47.388,44.312 54.313,4.746 0,0"
       style="fill:#80854d;fill-opacity:1;fill-rule:evenodd;stroke:none;stroke-width:0.1"
       id="path473" />
    <path
       d="m 569.73902,125.15083 c -0.28945,-0.11647 -0.61802,0.0243 -0.73449,0.31379 -0.11561,0.28945 0.0252,0.61801 0.31466,0.73362 l 70.29087,28.36077 c 0.28945,0.11648 0.61802,-0.0243 0.73362,-0.31379 0.11561,-0.28945 -0.0243,-0.61801 -0.31378,-0.73361"
       style="fill:#000000;fill-opacity:1;fill-rule:nonzero;stroke:none;stroke-width:0.0869216"
       id="path848" />
    <path
       d="m 523.381,268.056 c -29.575,52.433 9.896,32.35 0,0"
       style="fill:#80854d;fill-opacity:1;fill-rule:evenodd;stroke:none;stroke-width:0.1"
       id="path475" />
    <path
       d="m 490.57083,155.40389 c -0.29553,0.1 -0.45373,0.4207 -0.35377,0.71536 0.1,0.29554 0.4207,0.45373 0.71624,0.35464 l 83.77589,-28.49029 c 0.29554,-0.10082 0.4546,-0.4207 0.35464,-0.7171 -0.10083,-0.29379 -0.42157,-0.45373 -0.7171,-0.35377"
       style="fill:#000000;fill-opacity:1;fill-rule:nonzero;stroke:none;stroke-width:0.0869216"
       id="path850" />
    <path
       d="m 541.846,309.644 c 0.097,0.341 0.452,0.539 0.794,0.442 0.342,-0.097 0.539,-0.453 0.442,-0.794 -3.401,-11.907 -8.134,-23.015 -13.979,-33.212 -6.038,-10.536 -13.266,-20.102 -21.439,-28.576 -0.245,-0.256 -0.651,-0.263 -0.907,-0.018 -0.255,0.246 -0.263,0.652 -0.017,0.908 8.096,8.396 15.259,17.877 21.248,28.324 5.794,10.11 10.486,21.121 13.858,32.926"
       style="fill:#000000;fill-opacity:1;fill-rule:nonzero;stroke:none;stroke-width:0.1"
       id="path477" />
    <path
       d="m 202.927,416.226 c 3.823,1.246 5.769,3.331 7.62,9.459 1.621,-4.911 4.137,-8.034 7.66,-9.149 -4.291,-1.305 -6.374,-5.458 -8.034,-9.474 -0.647,3.814 -2.724,8.061 -7.246,9.164"
       style="fill:#ffffff;fill-opacity:1;fill-rule:evenodd;stroke:none;stroke-width:0.1"
       id="path479" />
    <path
       d="m 143.139,250.379 c 1.152,-0.125 2.256,-0.69 3.04,-1.665 v 0 c 0.784,-0.975 1.097,-2.174 0.972,-3.325 -0.125,-1.152 -0.69,-2.256 -1.663,-3.038 l -0.002,-0.002 c -0.974,-0.783 -2.174,-1.097 -3.325,-0.972 -1.151,0.126 -2.256,0.69 -3.04,1.664 v 0.001 c -0.783,0.975 -1.098,2.174 -0.973,3.324 0.127,1.153 0.691,2.258 1.666,3.041 0.975,0.783 2.174,1.097 3.325,0.972 m 2.013,-2.437 c -0.559,0.679 -1.338,1.072 -2.149,1.161 -0.826,0.089 -1.686,-0.135 -2.385,-0.696 -0.698,-0.561 -1.104,-1.352 -1.192,-2.176 -0.089,-0.814 0.128,-1.661 0.67,-2.353 0.018,-0.02 0.036,-0.042 0.052,-0.064 0.559,-0.679 1.338,-1.072 2.148,-1.161 0.815,-0.088 1.661,0.128 2.354,0.671 0.021,0.019 0.043,0.036 0.064,0.052 0.679,0.559 1.072,1.338 1.161,2.149 0.088,0.814 -0.129,1.661 -0.671,2.353 -0.019,0.021 -0.036,0.042 -0.052,0.064"
       style="fill:#8c9152;fill-opacity:1;fill-rule:nonzero;stroke:none;stroke-width:0.1"
       id="path481" />
    <path
       d="m 95.9922,299.191 c 4.3448,1.417 6.5568,3.786 8.6598,10.751 1.843,-5.582 4.703,-9.131 8.706,-10.399 -4.876,-1.483 -7.244,-6.203 -9.13,-10.768 -0.736,4.335 -3.096,9.162 -8.2358,10.416"
       style="fill:#ebb763;fill-opacity:1;fill-rule:evenodd;stroke:none;stroke-width:0.1"
       id="path483" />
    <path
       d="m 530.62256,160.54095 c 12.49064,-6.0028 56.82065,-8.24451 74.61871,-1.94356 l 1.54286,49.34886 22.8569,8.26972 c -13.44851,61.65 -110.13226,59.06409 -123.24786,2.32341 l 22.8569,-7.61781"
       style="fill:#ffffff;fill-opacity:1;fill-rule:evenodd;stroke:none;stroke-width:0.0869216"
       id="path852" />
    <path
       d="m 607.25,223.558 c -1.179,1.465 -3.32,1.699 -4.786,0.521 -1.464,-1.177 -1.698,-3.319 -0.521,-4.784 1.178,-1.466 3.321,-1.699 4.786,-0.522 1.464,1.178 1.698,3.32 0.521,4.785"
       style="fill:#8c9152;fill-opacity:1;fill-rule:evenodd;stroke:none;stroke-width:0.1"
       id="path485" />
    <path
       d="m 260.036,128.696 c -3.934,16.587 16.487,20.583 36.168,7.302 -4.618,27.474 35.523,13.358 47.517,-1.496 5.243,29.267 54.081,-18.439 46.706,-37.952 H 242.918 c -36.37,12.969 -10.261,50.399 17.118,32.146"
       style="fill:#8c9152;fill-opacity:1;fill-rule:evenodd;stroke:none;stroke-width:0.1"
       id="path487" />
    <path
       d="m 519.92339,173.29235 c 3.73502,5.523 7.62389,13.01042 10.01076,22.76129 l -0.68408,14.86793 -22.85603,7.61694 -9.17544,-31.84024 -37.52145,-14.13345 c -2.61199,2.84755 -6.77554,5.72378 -10.84086,8.68607 -3.96971,-5.17966 7.27099,-10.12028 2.3773,-12.34808 -5.19095,1.84274 -0.9118,12.58798 -6.04887,13.1721 0.29293,2.75541 -1.09347,4.04794 -3.70547,4.20179 l -0.45547,-3.02227 c 0.0982,-0.15819 0.0834,-0.3416 -0.0817,-0.54326 l 0.0817,0.54326 c -0.29205,0.47199 -1.59327,0.72319 -2.99618,0.54674 -1.08565,-3.41602 -2.7954,-14.39334 0.18079,-21.58784 1.30557,-3.15613 12.64536,-6.29573 17.23395,-6.37483 17.34868,-0.68147 38.24376,1.62543 52.91178,7.09714 2.84929,1.06305 5.25963,2.67371 7.2962,4.68855 h 8.7e-4 l 0.008,0.009 c 1.6576,1.64281 3.06834,3.55335 4.26438,5.65946"
       style="fill:#f26e3f;fill-opacity:1;fill-rule:evenodd;stroke:none;stroke-width:0.0869216"
       id="path854" />
    <path
       d="m 459.887,330.039 c 14.462,67.317 -148.128,18.034 -178.502,-47.688 3.85,-30.158 34.008,-22.258 41.804,-49.75 4.001,-17.936 39.947,-32.536 62.576,-30.819 58.954,8.911 108.065,98.926 74.122,128.257"
       style="fill:#000000;fill-opacity:1;fill-rule:nonzero;stroke:none;stroke-width:0.1"
       id="path489" />
    <path
       d="m 441.55661,163.72924 c 0.11213,-0.29032 -0.0322,-0.61715 -0.32247,-0.72927 -0.29032,-0.113 -0.61802,0.0313 -0.72928,0.32247 -2.64241,6.77815 -0.87095,16.13352 0.0478,20.98896 0.15559,0.81706 0.28424,1.50201 0.36768,2.04874 0.0452,0.30857 0.33378,0.52153 0.64322,0.47546 0.30857,-0.0469 0.52153,-0.33464 0.47459,-0.64409 -0.0765,-0.51196 -0.21295,-1.23081 -0.3755,-2.08785 -0.89877,-4.74766 -2.63111,-13.89703 -0.10604,-20.37442"
       style="fill:#000000;fill-opacity:1;fill-rule:nonzero;stroke:none;stroke-width:0.0869216"
       id="path856" />
    <path
       d="m 283.032,283.71 c -0.168,-0.312 -0.557,-0.429 -0.87,-0.261 -0.312,0.168 -0.429,0.557 -0.261,0.869 25.388,47.149 85.57,74.974 129.787,80.328 11.464,1.387 21.867,1.267 30.326,-0.416 8.55,-1.701 15.138,-5.003 18.875,-9.965 4.631,-6.148 4.873,-14.762 -0.955,-25.931 -0.164,-0.314 -0.551,-0.436 -0.864,-0.272 -0.314,0.164 -0.436,0.551 -0.272,0.864 5.567,10.669 5.393,18.82 1.066,24.564 -3.538,4.697 -9.857,7.839 -18.096,9.478 -8.329,1.658 -18.596,1.773 -29.93,0.401 -43.899,-5.315 -103.634,-32.911 -128.806,-79.659"
       style="fill:#000000;fill-opacity:1;fill-rule:nonzero;stroke:none;stroke-width:0.1"
       id="path491" />
    <path
       d="m 446.11044,164.15255 c 0.1156,-0.28945 -0.0243,-0.61802 -0.31379,-0.73449 -0.28945,-0.11561 -0.61801,0.0252 -0.73449,0.31465 -0.9205,2.28604 -1.34989,5.35872 -1.41943,8.48616 -0.08,3.63071 0.32074,7.34922 0.99352,9.99598 0.0765,0.30249 0.38419,0.48589 0.68755,0.40853 0.30335,-0.0765 0.48502,-0.38419 0.40853,-0.68755 -0.65105,-2.56418 -1.03958,-6.17143 -0.96222,-9.69436 0.0669,-3.0014 0.47111,-5.93414 1.34033,-8.08892"
       style="fill:#000000;fill-opacity:1;fill-rule:nonzero;stroke:none;stroke-width:0.0869216"
       id="path858" />
    <path
       d="m 399.719,175.343 c 1.687,-1.756 11.896,-7.264 19.91,-8.68 20.495,-3.62 50.517,-2.399 50.899,8.597 l 1.733,49.905 22.161,6.458 c -13.04,54.723 -106.782,53.007 -119.499,2.64 l 22.161,-6.457"
       style="fill:#fffaff;fill-opacity:1;fill-rule:evenodd;stroke:none;stroke-width:0.1"
       id="path493" />
    <path
       d="m 452.81644,169.16271 c 0.30857,-0.0409 0.52587,-0.32335 0.48676,-0.63366 -0.0417,-0.3077 -0.32422,-0.52501 -0.63279,-0.48589 -1.45768,0.19557 -2.4312,0.75448 -3.14135,1.54025 -0.68755,0.7623 -1.10129,1.71322 -1.4681,2.74672 -0.10344,0.29553 0.0504,0.61801 0.34508,0.72232 0.29379,0.10343 0.61714,-0.0513 0.72058,-0.34508 0.32421,-0.91355 0.68146,-1.74626 1.24297,-2.36861 0.53892,-0.59629 1.2934,-1.0222 2.44685,-1.17605"
       style="fill:#000000;fill-opacity:1;fill-rule:nonzero;stroke:none;stroke-width:0.0869216"
       id="path860" />
    <path
       d="m 447.416,128.284 -4.723,0.834 -4.646,-32.3192 c 15.5,0 55.458,-3.005 62.298,5.8552 2.378,3.083 -7.94,5.379 -25.4,14.073 -11.395,5.674 -10.264,20.391 -27.529,11.557"
       style="fill:#000000;fill-opacity:1;fill-rule:evenodd;stroke:none;stroke-width:0.1"
       id="path495" />
    <path
       d="m 530.66516,193.97708 c 0.0156,-0.31031 -0.22513,-0.57542 -0.53631,-0.5902 -0.31118,-0.0148 -0.57629,0.226 -0.5902,0.53718 l -1.51678,30.21655 c -0.0148,0.31205 0.22513,0.57542 0.53718,0.58933 0.31031,0.0148 0.57542,-0.22513 0.59019,-0.53631"
       style="fill:#000000;fill-opacity:1;fill-rule:nonzero;stroke:none;stroke-width:0.0869216"
       id="path862" />
    <path
       d="m 450.475,96.5496 c -8.959,-0.1558 -10.457,1.1078 -18.06,0 -160.461,8.4354 -139.621,105.3214 -34.944,71.7934 0.362,2.098 1.332,5.26 2.248,7 18.692,-4.972 46.447,-4.684 70.809,-0.082 1.123,-2.549 1.877,-5.956 2.509,-9.127 120.571,45.186 135.173,-55.956 -22.562,-69.5844"
       style="fill:#f7ebe4;fill-opacity:1;fill-rule:evenodd;stroke:none;stroke-width:0.1"
       id="path497" />
    <path
       d="m 502.0949,189.13729 c 0.29206,0.11039 0.61801,-0.0374 0.72753,-0.32857 0.11039,-0.29205 -0.0374,-0.61714 -0.32856,-0.7284 l -22.46663,-8.46095 c -0.29031,-0.11039 -0.61627,0.0374 -0.72579,0.32944 -0.11039,0.29118 0.0365,0.61714 0.32856,0.72753"
       style="fill:#000000;fill-opacity:1;fill-rule:nonzero;stroke:none;stroke-width:0.0869216"
       id="path864" />
    <path
       d="m 437.107,128.118 c -0.329,-0.13 -0.701,0.031 -0.832,0.359 -0.13,0.329 0.031,0.702 0.359,0.832 l 89.043,35.442 c 0.328,0.131 0.702,-0.03 0.831,-0.359 0.131,-0.329 -0.03,-0.701 -0.358,-0.832"
       style="fill:#000000;fill-opacity:1;fill-rule:nonzero;stroke:none;stroke-width:0.1"
       id="path499" />
    <path
       d="m 698.00746,181.47689 c -1.40291,0.17732 -2.70326,-0.0739 -2.99618,-0.545 l 0.0808,-0.54413 c -0.16428,0.20166 -0.17992,0.38506 -0.0808,0.54413 l -0.45634,3.02052 c -2.612,-0.15385 -3.99753,-1.4455 -3.7046,-4.20092 -5.13794,-0.58498 -0.85879,-11.33022 -6.04887,-13.17296 -4.89456,2.22867 6.34614,7.16842 2.37643,12.34808 -4.06532,-2.96229 -8.22886,-5.83766 -10.84086,-8.68608 l -37.52144,14.13345 -9.17457,31.84112 -22.8569,-8.26972 -0.35464,-11.18072 c 1.62282,-6.63125 4.00969,-13.07475 6.57214,-18.58819 1.70627,-5.28222 4.25307,-10.02901 7.99418,-13.4572 0.003,-0.003 0.005,-0.007 0.008,-0.0104 l 8.7e-4,0.002 c 1.90271,-1.74104 4.11139,-3.14221 6.67558,-4.09922 14.66801,-5.47171 35.56396,-7.77774 52.91177,-7.09628 h 8.7e-4 c 4.58772,0.0791 15.92751,3.21871 17.23395,6.37483 2.97619,7.19363 1.26644,18.17096 0.18079,21.58698"
       style="fill:#f26e3f;fill-opacity:1;fill-rule:evenodd;stroke:none;stroke-width:0.0869216"
       id="path866" />
    <path
       d="m 356.865,162.511 c -0.332,0.126 -0.498,0.498 -0.372,0.829 0.126,0.332 0.498,0.499 0.83,0.372 l 84.839,-32.382 c 0.332,-0.126 0.499,-0.497 0.372,-0.829 -0.126,-0.331 -0.497,-0.498 -0.829,-0.372"
       style="fill:#000000;fill-opacity:1;fill-rule:nonzero;stroke:none;stroke-width:0.1"
       id="path501" />
    <path
       d="m 695.52933,160.99816 c -0.11126,-0.29032 -0.43809,-0.43461 -0.72927,-0.32161 -0.29032,0.11213 -0.43461,0.43809 -0.32335,0.7284 2.52594,6.47827 0.79359,15.62677 -0.10518,20.37529 -0.16341,0.85792 -0.29814,1.57676 -0.3755,2.08873 -0.0469,0.3077 0.16602,0.59628 0.47459,0.64322 0.31031,0.0461 0.59802,-0.16776 0.64409,-0.47546 0.0826,-0.54761 0.21296,-1.23255 0.36681,-2.04874 0.91876,-4.85544 2.69109,-14.21168 0.0478,-20.98983"
       style="fill:#000000;fill-opacity:1;fill-rule:nonzero;stroke:none;stroke-width:0.0869216"
       id="path868" />
    <path
       d="m 442.321,97.4539 c 2.086,-0.15 4.487,-0.3238 8.09,-0.2648 l 0.009,7e-4 c 58.872,5.0862 93.617,22.3572 107.745,39.6142 5.736,7.006 8.04,13.983 7.149,20.099 -0.886,6.083 -4.951,11.347 -11.959,14.963 -14.662,7.566 -42.03,7.923 -80.045,-6.314 -0.046,-0.022 -0.095,-0.038 -0.147,-0.049 -0.349,-0.07 -0.688,0.157 -0.757,0.505 -0.317,1.594 -0.663,3.237 -1.061,4.762 -0.349,1.344 -0.745,2.629 -1.208,3.765 -12.272,-2.284 -25.382,-3.478 -37.754,-3.464 -11.927,0.013 -23.169,1.151 -32.32,3.518 -0.353,-0.753 -0.708,-1.697 -1.022,-2.677 -0.411,-1.279 -0.753,-2.617 -0.937,-3.677 h -10e-4 c -0.005,-0.03 -0.011,-0.059 -0.021,-0.088 -0.109,-0.338 -0.47,-0.523 -0.807,-0.415 -32.844,10.52 -57.336,8.152 -70.464,-0.283 -6.317,-4.058 -9.972,-9.522 -10.619,-15.609 -0.649,-6.112 1.725,-12.882 7.471,-19.532 14.181,-16.41 48.696,-31.949 108.721,-35.1142 4.511,0.6542 6.894,0.4812 9.937,0.2601 m 8.109,-1.5461 c -3.69,-0.0617 -6.103,0.1133 -8.2,0.2652 -2.979,0.2161 -5.31,0.3848 -9.724,-0.2589 -0.053,-0.0082 -0.105,-0.0082 -0.156,-0.0032 -60.445,3.1829 -95.283,18.9251 -109.657,35.5591 -5.993,6.934 -8.463,14.047 -7.777,20.505 0.688,6.483 4.545,12.278 11.202,16.555 13.315,8.555 37.955,11.037 70.858,0.641 0.204,0.965 0.5,2.068 0.843,3.133 0.404,1.257 0.873,2.466 1.333,3.338 0.144,0.272 0.455,0.399 0.74,0.319 9.138,-2.429 20.459,-3.594 32.491,-3.609 12.459,-0.014 25.678,1.207 38.027,3.54 0.299,0.056 0.589,-0.106 0.706,-0.373 0.574,-1.303 1.055,-2.826 1.471,-4.427 0.354,-1.36 0.657,-2.746 0.932,-4.096 38.052,14.128 65.57,13.676 80.424,6.011 7.398,-3.817 11.695,-9.42 12.643,-15.923 0.942,-6.469 -1.45,-13.795 -7.426,-21.095 -14.311,-17.479 -49.366,-34.96 -108.629,-40.08 -0.034,-0.0031 -0.067,-0.0031 -0.101,-0.0012"
       style="fill:#000000;fill-opacity:1;fill-rule:nonzero;stroke:none;stroke-width:0.1"
       id="path503" />
    <path
       d="m 397.257,167.737 c -0.334,0.118 -0.51,0.484 -0.393,0.819 0.119,0.335 0.486,0.51 0.82,0.392 1.49,-0.53 2.951,-1.081 4.383,-1.649 1.476,-0.586 2.866,-1.169 4.174,-1.748 0.325,-0.143 0.472,-0.522 0.329,-0.846 -0.143,-0.325 -0.522,-0.472 -0.846,-0.33 -1.351,0.598 -2.728,1.176 -4.13,1.734 -1.367,0.542 -2.812,1.086 -4.337,1.628"
       style="fill:#000000;fill-opacity:1;fill-rule:nonzero;stroke:none;stroke-width:0.1"
       id="path505" />
    <path
       d="m 690.97203,161.40843 c -0.11648,-0.28945 -0.44504,-0.43026 -0.73362,-0.31379 -0.29032,0.11561 -0.43026,0.44417 -0.31379,0.73362 0.86922,2.15479 1.27254,5.08752 1.33947,8.08893 0.0791,3.5238 -0.31031,7.13017 -0.96223,9.69523 -0.0765,0.30249 0.10692,0.61019 0.40941,0.68668 0.30248,0.0774 0.61018,-0.10604 0.68668,-0.40853 0.67364,-2.64676 1.07522,-6.36527 0.99438,-9.99511 -0.0695,-3.12831 -0.49806,-6.20099 -1.4203,-8.48703"
       style="fill:#000000;fill-opacity:1;fill-rule:nonzero;stroke:none;stroke-width:0.0869216"
       id="path870" />
    <path
       d="m 472.823,166.739 c 0.335,0.118 0.701,-0.058 0.819,-0.392 0.118,-0.334 -0.057,-0.701 -0.391,-0.819 -2.13,-0.758 -4.15,-1.536 -6.064,-2.331 -1.999,-0.83 -3.88,-1.676 -5.649,-2.531 -0.319,-0.155 -0.703,-0.02 -0.858,0.299 -0.153,0.319 -0.019,0.703 0.3,0.857 1.798,0.869 3.701,1.725 5.715,2.561 1.936,0.804 3.977,1.591 6.128,2.356"
       style="fill:#000000;fill-opacity:1;fill-rule:nonzero;stroke:none;stroke-width:0.1"
       id="path507" />
    <path
       d="m 683.36378,165.71974 c -0.3077,-0.04 -0.59193,0.17732 -0.63192,0.48676 -0.04,0.30857 0.17819,0.59194 0.4859,0.63192 1.15344,0.15385 1.90792,0.58064 2.44771,1.17779 0.56151,0.62149 0.91876,1.45333 1.24211,2.36688 0.10343,0.29379 0.42678,0.44851 0.72145,0.34507 0.29466,-0.1043 0.44851,-0.42678 0.34594,-0.72145 -0.36767,-1.03349 -0.78055,-1.98528 -1.46984,-2.74759 -0.70928,-0.78577 -1.68367,-1.34467 -3.14135,-1.53938"
       style="fill:#000000;fill-opacity:1;fill-rule:nonzero;stroke:none;stroke-width:0.0869216"
       id="path872" />
    <path
       d="m 432.147,127.88 4.724,0.834 4.645,-32.3202 c -15.499,0 -55.458,-3.0043 -62.296,5.8562 -2.38,3.082 7.939,5.379 25.399,14.073 11.394,5.673 10.264,20.391 27.528,11.557"
       style="fill:#000000;fill-opacity:1;fill-rule:evenodd;stroke:none;stroke-width:0.1"
       id="path509" />
    <path
       d="m 397.893,211.723 -0.809,16.083 -22.161,6.458 -10.428,-36.191 -42.647,-16.065 c -2.969,3.238 -7.701,6.506 -12.322,9.873 -4.512,-5.887 8.265,-11.502 2.702,-14.034 -5.9,2.094 -1.036,14.307 -6.875,14.972 0.332,3.132 -1.243,4.6 -4.211,4.774 l -0.519,-3.433 c 0.113,-0.18 0.095,-0.39 -0.093,-0.618 l 0.093,0.618 c -0.332,0.536 -1.811,0.821 -3.405,0.62 -1.234,-3.883 -3.178,-16.359 0.205,-24.536 1.485,-3.588 14.373,-7.156 19.589,-7.246 19.718,-0.774 43.468,1.847 60.14,8.066 14.012,5.228 18.703,22.093 19.946,37.62 0.279,1.005 0.545,2.018 0.795,3.039"
       style="fill:#f26e3f;fill-opacity:1;fill-rule:evenodd;stroke:none;stroke-width:0.1"
       id="path511" />
    <path
       d="m 301.23,171.967 c 0.127,-0.331 -0.037,-0.703 -0.367,-0.83 -0.33,-0.127 -0.701,0.038 -0.829,0.368 -3.003,7.702 -0.99,18.337 0.055,23.856 0.176,0.928 0.324,1.707 0.417,2.328 0.053,0.35 0.38,0.593 0.731,0.54 0.351,-0.052 0.593,-0.381 0.54,-0.731 -0.087,-0.582 -0.242,-1.4 -0.426,-2.373 -1.022,-5.397 -2.991,-15.796 -0.121,-23.158"
       style="fill:#000000;fill-opacity:1;fill-rule:nonzero;stroke:none;stroke-width:0.1"
       id="path513" />
    <path
       d="m 306.405,172.448 c 0.132,-0.33 -0.028,-0.703 -0.356,-0.834 -0.33,-0.132 -0.703,0.027 -0.835,0.356 -1.048,2.6 -1.535,6.091 -1.613,9.646 -0.092,4.127 0.365,8.352 1.128,11.361 0.088,0.344 0.438,0.553 0.782,0.466 0.344,-0.088 0.552,-0.438 0.465,-0.782 -0.74,-2.916 -1.183,-7.015 -1.093,-11.02 0.075,-3.411 0.535,-6.745 1.522,-9.193"
       style="fill:#000000;fill-opacity:1;fill-rule:nonzero;stroke:none;stroke-width:0.1"
       id="path515" />
    <path
       d="m 314.027,178.142 c 0.351,-0.045 0.599,-0.368 0.553,-0.719 -0.046,-0.351 -0.367,-0.598 -0.719,-0.552 -1.656,0.221 -2.763,0.855 -3.57,1.75 -0.782,0.866 -1.252,1.948 -1.669,3.122 -0.117,0.335 0.058,0.702 0.392,0.819 0.335,0.119 0.701,-0.057 0.82,-0.392 0.368,-1.037 0.774,-1.983 1.412,-2.69 0.613,-0.678 1.472,-1.163 2.781,-1.338"
       style="fill:#000000;fill-opacity:1;fill-rule:nonzero;stroke:none;stroke-width:0.1"
       id="path517" />
    <path
       d="m 606.90843,189.07036 c -0.006,-0.31118 -0.26425,-0.55804 -0.57456,-0.55195 -0.31204,0.006 -0.5589,0.2625 -0.55282,0.57368 l 0.83706,36.40363 c 0.006,0.31205 0.26337,0.5589 0.57542,0.55282 0.31205,-0.006 0.5589,-0.2625 0.55282,-0.57455"
       style="fill:#000000;fill-opacity:1;fill-rule:nonzero;stroke:none;stroke-width:0.0869216"
       id="path874" />
    <path
       d="m 572.129,192.139 c -1.595,0.201 -3.074,-0.084 -3.407,-0.62 l 0.094,-0.618 c -0.189,0.229 -0.207,0.438 -0.094,0.618 l -0.518,3.433 c -2.97,-0.174 -4.543,-1.643 -4.211,-4.774 -5.839,-0.664 -0.975,-12.877 -6.875,-14.973 -5.563,2.533 7.213,8.148 2.702,14.035 -4.622,-3.367 -9.354,-6.635 -12.323,-9.872 l -42.645,16.063 -10.43,36.192 -22.161,-6.458 -0.809,-16.083 c 0.25,-1.021 0.516,-2.034 0.795,-3.039 1.244,-15.528 5.935,-32.392 19.946,-37.62 16.673,-6.22 40.423,-8.84 60.141,-8.066 5.216,0.09 18.104,3.658 19.588,7.245 3.383,8.178 1.439,20.655 0.207,24.537"
       style="fill:#f26e3f;fill-opacity:1;fill-rule:evenodd;stroke:none;stroke-width:0.1"
       id="path519" />
    <path
       d="m 633.5412,185.75691 c -0.29206,0.11039 -0.43895,0.43634 -0.32943,0.72753 0.11039,0.29119 0.43547,0.43982 0.72753,0.32943 l 22.46488,-8.46181 c 0.29206,-0.11039 0.43983,-0.43548 0.32944,-0.72667 -0.10952,-0.29205 -0.43548,-0.43982 -0.72667,-0.32943"
       style="fill:#000000;fill-opacity:1;fill-rule:nonzero;stroke:none;stroke-width:0.0869216"
       id="path876" />
    <path
       d="m 569.312,168.863 c -0.128,-0.33 -0.499,-0.494 -0.829,-0.367 -0.33,0.128 -0.495,0.499 -0.367,0.829 2.87,7.363 0.901,17.762 -0.12,23.159 -0.185,0.974 -0.34,1.791 -0.428,2.373 -0.053,0.35 0.189,0.678 0.541,0.731 0.35,0.052 0.679,-0.189 0.73,-0.54 0.094,-0.622 0.242,-1.4 0.417,-2.328 1.045,-5.519 3.059,-16.153 0.056,-23.857"
       style="fill:#000000;fill-opacity:1;fill-rule:nonzero;stroke:none;stroke-width:0.1"
       id="path521" />
    <path
       d="m 530.42351,160.01247 c -0.29205,0.10952 -0.43895,0.43548 -0.32943,0.72667 0.11039,0.29205 0.43548,0.43982 0.72753,0.32943 l 13.0139,-4.90151 c 0.29119,-0.10952 0.43983,-0.43548 0.32944,-0.72753 -0.11039,-0.29206 -0.43635,-0.43896 -0.72754,-0.32944"
       style="fill:#000000;fill-opacity:1;fill-rule:nonzero;stroke:none;stroke-width:0.0869216"
       id="path878" />
    <path
       d="m 564.131,169.329 c -0.132,-0.329 -0.505,-0.488 -0.834,-0.357 -0.329,0.132 -0.489,0.506 -0.357,0.835 0.989,2.449 1.448,5.782 1.523,9.193 0.089,4.005 -0.353,8.105 -1.094,11.019 -0.087,0.345 0.121,0.695 0.465,0.782 0.345,0.088 0.695,-0.121 0.781,-0.465 0.765,-3.008 1.221,-7.235 1.129,-11.361 -0.078,-3.555 -0.565,-7.047 -1.613,-9.646"
       style="fill:#000000;fill-opacity:1;fill-rule:nonzero;stroke:none;stroke-width:0.1"
       id="path523" />
    <path
       d="m 605.04222,159.12587 c 0.29119,0.10952 0.61714,-0.0374 0.72753,-0.32943 0.10952,-0.29206 -0.0382,-0.61715 -0.32943,-0.72754 l -13.0139,-4.9015 c -0.29206,-0.10953 -0.61801,0.0374 -0.72753,0.32943 -0.11039,0.29119 0.0374,0.61714 0.32943,0.72753"
       style="fill:#000000;fill-opacity:1;fill-rule:nonzero;stroke:none;stroke-width:0.0869216"
       id="path880" />
    <path
       d="m 555.485,174.229 c -0.352,-0.045 -0.673,0.202 -0.719,0.553 -0.046,0.351 0.201,0.674 0.553,0.719 1.31,0.175 2.169,0.659 2.781,1.338 0.639,0.707 1.044,1.653 1.412,2.69 0.119,0.335 0.486,0.511 0.82,0.393 0.335,-0.118 0.509,-0.485 0.392,-0.819 -0.417,-1.176 -0.886,-2.257 -1.669,-3.123 -0.807,-0.895 -1.914,-1.529 -3.57,-1.751"
       style="fill:#000000;fill-opacity:1;fill-rule:nonzero;stroke:none;stroke-width:0.1"
       id="path525" />
    <path
       d="m 398.813,206.179 c 0.017,-0.354 -0.257,-0.654 -0.611,-0.67 -0.354,-0.016 -0.655,0.256 -0.671,0.611 l -1.724,34.343 c -0.016,0.353 0.257,0.655 0.61,0.671 0.355,0.016 0.655,-0.257 0.671,-0.611"
       style="fill:#000000;fill-opacity:1;fill-rule:nonzero;stroke:none;stroke-width:0.1"
       id="path527" />
    <path
       d="m 577.36291,276.60996 c 21.73387,22.24497 15.82147,50.87868 5.64208,44.75418 4.94149,14.76016 -32.27486,12.36547 -33.86987,-5.52995 -9.4023,2.21563 -5.3448,-23.20198 10.10551,-36.19502 4.93627,-4.15137 10.87997,-0.87269 18.12228,-3.02921"
       style="fill:#000000;fill-opacity:1;fill-rule:evenodd;stroke:none;stroke-width:0.0869216"
       id="path882" />
    <path
       d="m 472.035,200.202 c -0.007,-0.355 -0.299,-0.636 -0.653,-0.629 -0.354,0.006 -0.636,0.299 -0.628,0.654 l 0.951,41.375 c 0.008,0.354 0.3,0.636 0.654,0.628 0.354,-0.007 0.635,-0.299 0.628,-0.653"
       style="fill:#000000;fill-opacity:1;fill-rule:nonzero;stroke:none;stroke-width:0.1"
       id="path529" />
    <path
       d="m 370.038,200.846 c 0.332,0.125 0.702,-0.043 0.827,-0.375 0.125,-0.331 -0.043,-0.701 -0.375,-0.826 l -25.534,-9.618 c -0.332,-0.125 -0.702,0.043 -0.826,0.375 -0.125,0.331 0.042,0.702 0.374,0.826"
       style="fill:#000000;fill-opacity:1;fill-rule:nonzero;stroke:none;stroke-width:0.1"
       id="path531" />
    <path
       d="m 558.40357,287.83762 c 2.32776,2.94229 17.21917,2.41729 18.93848,0.9683 -0.22078,-9.56224 1.16562,-23.3793 3.98014,-28.65717 -6.81205,-2.60417 -21.29058,-2.38948 -27.11954,0.0574 3.11875,4.59033 5.01799,20.74384 4.20092,27.63151"
       style="fill:#f26e3f;fill-opacity:1;fill-rule:evenodd;stroke:none;stroke-width:0.0869216"
       id="path884" />
    <path
       d="m 498.856,197.004 c -0.332,0.125 -0.5,0.495 -0.375,0.827 0.125,0.332 0.495,0.499 0.827,0.375 l 25.533,-9.619 c 0.332,-0.125 0.5,-0.494 0.375,-0.826 -0.125,-0.332 -0.495,-0.5 -0.827,-0.374"
       style="fill:#000000;fill-opacity:1;fill-rule:nonzero;stroke:none;stroke-width:0.1"
       id="path533" />
    <path
       d="m 556.41741,295.81702 c -7.48134,4.26785 -6.92069,-7.42484 -0.81184,-7.4118"
       style="fill:#f26e3f;fill-opacity:1;fill-rule:evenodd;stroke:none;stroke-width:0.0869216"
       id="path886" />
    <path
       d="m 426.485,299.887 c 2.428,3.344 13.387,7.022 15.181,5.375 -0.047,-11.497 3.723,-28.117 5.57,-33.997 -7.035,-4.209 -21.284,-3.359 -27.366,-0.579 2.927,5.574 6.923,24.934 6.615,29.201"
       style="fill:#f26e3f;fill-opacity:1;fill-rule:evenodd;stroke:none;stroke-width:0.1"
       id="path535" />
    <path
       d="m 572.02766,302.44131 c 0.8162,-3.02226 2.1574,-5.52299 4.15398,-6.07495 7.48308,4.26872 6.9207,-7.42571 0.81272,-7.41093 -0.44851,-9.21108 -4.4669,-13.41287 -10.61312,-13.85878 -6.87289,-0.49893 -14.1604,5.36046 -11.31459,26.38505 1.50722,0.7058 8.98856,-2.1261 16.96101,0.95961"
       style="fill:#ed7c53;fill-opacity:1;fill-rule:evenodd;stroke:none;stroke-width:0.0869216"
       id="path888" />
    <path
       d="m 448.056,272.712 c 0.254,0.247 0.66,0.241 0.907,-0.013 0.247,-0.254 0.241,-0.66 -0.012,-0.907 -2.664,-2.579 -8.007,-3.733 -13.586,-3.908 -6.782,-0.213 -13.984,1.016 -17.088,2.88 -0.304,0.181 -0.404,0.575 -0.222,0.879 0.183,0.304 0.576,0.403 0.88,0.221 2.921,-1.753 9.827,-2.904 16.39,-2.698 5.297,0.166 10.324,1.215 12.731,3.546"
       style="fill:#000000;fill-opacity:1;fill-rule:nonzero;stroke:none;stroke-width:0.1"
       id="path537" />
    <path
       d="m 417.59,317.505 c -2.756,1.402 -5.113,0.229 -5.264,-2.62 -0.151,-2.849 1.961,-6.294 4.718,-7.694 2.756,-1.402 5.113,-0.228 5.264,2.62 0.151,2.849 -1.961,6.294 -4.718,7.694"
       style="fill:#f26e3f;fill-opacity:1;fill-rule:evenodd;stroke:none;stroke-width:0.1"
       id="path539" />
    <path
       d="m 414.713,314.477 c -0.345,0.086 -0.555,0.436 -0.469,0.779 0.087,0.344 0.436,0.554 0.78,0.468 0.909,-0.229 1.708,-0.74 2.268,-1.569 0.484,-0.715 0.781,-1.664 0.802,-2.866 0.006,-0.354 -0.277,-0.645 -0.63,-0.651 -0.231,-0.003 -0.435,0.115 -0.551,0.297 -0.281,0.393 -0.577,0.709 -0.881,0.954 -0.309,0.251 -0.626,0.425 -0.941,0.53 -0.336,0.113 -0.517,0.476 -0.403,0.812 0.111,0.336 0.475,0.517 0.81,0.405 0.288,-0.096 0.573,-0.23 0.854,-0.403 -0.039,0.071 -0.081,0.139 -0.125,0.203 -0.371,0.548 -0.905,0.887 -1.514,1.041"
       style="fill:#000000;fill-opacity:1;fill-rule:nonzero;stroke:none;stroke-width:0.1"
       id="path541" />
    <path
       d="m 572.02766,302.44131 c 0.23382,-0.86052 0.50849,-1.67932 0.82923,-2.4225 -2.04787,-1.19778 -5.14923,-1.96095 -8.62001,-1.96095 -3.88192,0 -7.29967,0.9544 -9.30061,2.40425 0.0409,0.33552 0.0843,0.67538 0.13038,1.01959 1.50722,0.7058 8.98856,-2.1261 16.96101,0.95961"
       style="fill:#f26e3f;fill-opacity:1;fill-rule:evenodd;stroke:none;stroke-width:0.0869216"
       id="path890" />
    <path
       d="m 449.664,317.567 c -5.482,0.19 -4.743,7.521 -8.76,10.022 -4.268,-6.455 -16.354,-10.376 -24.047,-9.767 -0.63,-13.975 4.516,-24.495 15.618,-24.407 8.95,0.07 13.636,5.623 15.527,13.357 6.312,-2.037 11.828,15.019 1.662,10.795"
       style="fill:#ed7c53;fill-opacity:1;fill-rule:evenodd;stroke:none;stroke-width:0.1"
       id="path543" />
    <path
       d="m 581.97062,260.92756 c 0.27815,0.13995 0.61801,0.0287 0.75883,-0.25033 0.13994,-0.27815 0.0287,-0.61801 -0.24947,-0.75796 -3.12657,-1.58458 -8.83645,-2.32428 -14.47244,-2.32254 -5.90545,0.003 -11.77005,0.82401 -14.53242,2.34514 -0.2738,0.15038 -0.37376,0.49372 -0.22339,0.76752 0.15037,0.27293 0.49285,0.37289 0.76752,0.22252 2.59982,-1.4316 8.25233,-2.20433 13.98829,-2.20694 5.47954,-0.003 10.99906,0.69972 13.96308,2.20259"
       style="fill:#000000;fill-opacity:1;fill-rule:nonzero;stroke:none;stroke-width:0.0869216"
       id="path892" />
    <path
       d="m 443.114,325.141 c -0.566,0.982 -1.253,1.853 -2.21,2.448 -4.269,-6.455 -16.355,-10.376 -24.046,-9.767 11.247,-3.13 23.636,3.404 26.256,7.319"
       style="fill:#f26e3f;fill-opacity:1;fill-rule:evenodd;stroke:none;stroke-width:0.1"
       id="path545" />
    <path
       d="m 423.449,309.377 c -1.18,0.205 -2.303,-0.585 -2.507,-1.765 -0.206,-1.179 0.584,-2.302 1.763,-2.507 1.181,-0.205 2.304,0.584 2.509,1.765 0.205,1.179 -0.585,2.302 -1.765,2.507"
       style="fill:#de5138;fill-opacity:1;fill-rule:evenodd;stroke:none;stroke-width:0.1"
       id="path547" />
    <path
       d="m 569.86245,274.87761 c -0.29293,-0.10778 -0.61802,0.0435 -0.72493,0.33639 -0.10778,0.29292 0.0426,0.61714 0.33639,0.72492 2.13827,0.79186 4.15137,2.5242 5.5256,4.92498 1.2395,2.16348 1.95574,4.86674 1.77755,7.9116 -0.0165,0.31118 0.22165,0.57716 0.53283,0.59454 0.31205,0.0165 0.57803,-0.22165 0.59541,-0.53282 0.1921,-3.27782 -0.58411,-6.19491 -1.92444,-8.53483 -1.50809,-2.6346 -3.73763,-4.54253 -6.11841,-5.42478"
       style="fill:#000000;fill-opacity:1;fill-rule:nonzero;stroke:none;stroke-width:0.0869216"
       id="path894" />
    <path
       d="m 442.356,309.541 c -1.179,0.206 -2.302,-0.584 -2.507,-1.764 -0.205,-1.18 0.585,-2.302 1.765,-2.507 1.179,-0.206 2.302,0.584 2.507,1.764 0.205,1.179 -0.585,2.302 -1.765,2.507"
       style="fill:#de5138;fill-opacity:1;fill-rule:evenodd;stroke:none;stroke-width:0.1"
       id="path549" />
    <path
       d="m 431.791,308.421 c 0.354,0.005 0.645,-0.278 0.647,-0.632 0.005,-0.354 -0.279,-0.644 -0.631,-0.648 -0.28,-0.004 -0.432,-0.114 -0.486,-0.259 -0.042,-0.118 -0.049,-0.263 -0.021,-0.412 0.027,-0.161 0.093,-0.318 0.186,-0.444 0.13,-0.18 0.33,-0.29 0.562,-0.219 0.338,0.104 0.697,-0.086 0.802,-0.425 0.104,-0.338 -0.087,-0.697 -0.425,-0.802 -0.846,-0.26 -1.541,0.096 -1.975,0.687 -0.211,0.287 -0.355,0.631 -0.418,0.981 -0.062,0.362 -0.041,0.739 0.084,1.075 0.229,0.621 0.761,1.087 1.675,1.098"
       style="fill:#000000;fill-opacity:1;fill-rule:nonzero;stroke:none;stroke-width:0.1"
       id="path551" />
    <path
       d="m 429.584,318.032 c 0.35,-0.068 0.577,-0.405 0.509,-0.753 -0.07,-0.349 -0.405,-0.576 -0.755,-0.508 -0.95,0.187 -2.575,0.105 -4.143,-0.111 -1.706,-0.233 -3.298,-0.61 -3.829,-0.954 -0.296,-0.193 -0.694,-0.109 -0.886,0.188 -0.194,0.297 -0.11,0.695 0.188,0.887 0.686,0.443 2.487,0.895 4.357,1.151 1.689,0.232 3.47,0.315 4.559,0.1"
       style="fill:#000000;fill-opacity:1;fill-rule:nonzero;stroke:none;stroke-width:0.1"
       id="path553" />
    <path
       d="m 579.34124,295.87265 c 0.29988,0.0852 0.6128,-0.0895 0.69885,-0.38941 0.0834,-0.29988 -0.0904,-0.6128 -0.39027,-0.69798 -0.50589,-0.14516 -0.94832,-0.44156 -1.26471,-0.91007 -0.0278,-0.0435 -0.0574,-0.0887 -0.0834,-0.1356 0.26077,0.15299 0.52588,0.26772 0.79186,0.34856 0.29901,0.0887 0.61366,-0.0808 0.70232,-0.38072 0.0887,-0.29901 -0.08,-0.61366 -0.37984,-0.70319 -0.28424,-0.0852 -0.56934,-0.23121 -0.85183,-0.44591 -0.27989,-0.21296 -0.5563,-0.49372 -0.82489,-0.84923 h -8.7e-4 c -0.10865,-0.14342 -0.28336,-0.23295 -0.4772,-0.22338 -0.31118,0.0148 -0.55108,0.27901 -0.53717,0.59019 0.0487,1.01177 0.31291,1.81493 0.72492,2.42685 0.47633,0.70755 1.13867,1.15345 1.89228,1.36989"
       style="fill:#000000;fill-opacity:1;fill-rule:nonzero;stroke:none;stroke-width:0.0869216"
       id="path896" />
    <path
       d="m 443.825,317.054 c 0.32,-0.154 0.457,-0.538 0.304,-0.858 -0.153,-0.321 -0.536,-0.457 -0.858,-0.303 -1.173,0.559 -2.495,0.85 -3.812,0.984 -1.342,0.134 -2.686,0.107 -3.87,0.03 -0.353,-0.023 -0.659,0.245 -0.68,0.6 -0.022,0.354 0.246,0.657 0.601,0.681 1.234,0.08 2.645,0.11 4.075,-0.036 1.456,-0.147 2.925,-0.472 4.24,-1.098"
       style="fill:#000000;fill-opacity:1;fill-rule:nonzero;stroke:none;stroke-width:0.1"
       id="path555" />
    <path
       d="m 434.862,303.145 c 0.202,0.291 0.601,0.364 0.893,0.163 0.291,-0.201 0.364,-0.6 0.163,-0.892 -0.193,-0.278 -0.408,-0.532 -0.642,-0.758 -0.694,-0.671 -1.557,-1.101 -2.486,-1.202 -0.932,-0.1 -1.919,0.13 -2.859,0.781 -0.298,0.207 -0.592,0.456 -0.876,0.749 -0.246,0.256 -0.238,0.662 0.018,0.908 0.255,0.245 0.661,0.237 0.907,-0.018 0.224,-0.231 0.451,-0.425 0.68,-0.583 0.669,-0.463 1.356,-0.629 1.994,-0.56 0.639,0.069 1.239,0.373 1.732,0.85 0.174,0.168 0.333,0.356 0.476,0.562"
       style="fill:#000000;fill-opacity:1;fill-rule:nonzero;stroke:none;stroke-width:0.1"
       id="path557" />
    <path
       d="m 568.35783,282.96479 c 0.10344,0.27728 0.35377,0.38854 0.55978,0.2486 0.20426,-0.13994 0.28771,-0.47807 0.1834,-0.75448 -0.1495,-0.39897 -0.43287,-0.75709 -0.80663,-1.05088 -0.51197,-0.40071 -1.21777,-0.7032 -1.98442,-0.8301 -0.76056,-0.1243 -1.59153,-0.0791 -2.36774,0.21382 -0.65365,0.24512 -1.26645,0.66322 -1.76625,1.30035 -0.16776,0.21296 -0.17558,0.56847 -0.0182,0.79533 0.15732,0.226 0.42157,0.2373 0.58845,0.0235 0.3955,-0.50327 0.88747,-0.83705 1.4177,-1.03697 0.66321,-0.2486 1.38292,-0.28597 2.047,-0.17558 0.65713,0.10691 1.24906,0.35637 1.66542,0.68407 0.23816,0.18601 0.40766,0.3868 0.48154,0.58237"
       style="fill:#000000;fill-opacity:1;fill-rule:nonzero;stroke:none;stroke-width:0.0869216"
       id="path898" />
    <path
       d="m 443.789,312.352 c 0.202,0.29 0.604,0.359 0.895,0.155 0.289,-0.203 0.359,-0.604 0.155,-0.894 -0.689,-0.977 -2.462,-1.584 -4.432,-1.625 -1.719,-0.036 -3.627,0.344 -5.091,1.271 -0.298,0.188 -0.388,0.585 -0.2,0.885 0.189,0.299 0.584,0.389 0.884,0.2 1.241,-0.784 2.886,-1.106 4.382,-1.075 1.584,0.034 2.952,0.438 3.407,1.083"
       style="fill:#000000;fill-opacity:1;fill-rule:nonzero;stroke:none;stroke-width:0.1"
       id="path559" />
    <path
       d="m 566.34647,294.29763 c -0.24947,-0.18514 -0.60324,-0.13299 -0.78925,0.11734 -0.18601,0.25034 -0.13386,0.60324 0.11734,0.78925 0.67104,0.49806 1.84274,0.76578 2.98054,0.77969 1.12477,0.0148 2.25823,-0.21904 2.89797,-0.72319 0.24512,-0.19297 0.28858,-0.54847 0.0956,-0.79359 -0.19383,-0.24512 -0.54847,-0.28771 -0.79272,-0.0956 -0.43287,0.34074 -1.29426,0.49633 -2.18869,0.48589 -0.92484,-0.0122 -1.84273,-0.20426 -2.3208,-0.55977"
       style="fill:#000000;fill-opacity:1;fill-rule:nonzero;stroke:none;stroke-width:0.0869216"
       id="path900" />
    <path
       d="m 445.276,311.482 c 0.347,-0.074 0.568,-0.415 0.494,-0.761 -0.073,-0.347 -0.414,-0.569 -0.761,-0.495 -0.264,0.056 -0.529,0.132 -0.791,0.227 -0.261,0.094 -0.517,0.207 -0.764,0.335 -0.315,0.162 -0.439,0.549 -0.277,0.864 0.162,0.315 0.55,0.439 0.865,0.276 0.201,-0.104 0.406,-0.194 0.614,-0.269 0.2,-0.073 0.406,-0.132 0.62,-0.177"
       style="fill:#000000;fill-opacity:1;fill-rule:nonzero;stroke:none;stroke-width:0.1"
       id="path561" />
    <path
       d="m 557.64562,294.38542 c -0.26511,-0.16428 -0.6128,-0.0834 -0.77882,0.17993 -0.16428,0.26685 -0.0826,0.61453 0.18166,0.77968 0.82315,0.51197 1.8045,0.69799 2.76498,0.65887 1.09174,-0.0443 2.17043,-0.38506 2.9562,-0.87008 0.26511,-0.16342 0.34682,-0.5111 0.18254,-0.77535 -0.16254,-0.26511 -0.50936,-0.34768 -0.77534,-0.18427 -0.63279,0.39115 -1.50983,0.66495 -2.40773,0.70146 -0.75187,0.0322 -1.50722,-0.10692 -2.12349,-0.49024"
       style="fill:#000000;fill-opacity:1;fill-rule:nonzero;stroke:none;stroke-width:0.0869216"
       id="path902" />
    <path
       d="m 444.127,310.548 c 0.311,-0.169 0.425,-0.558 0.257,-0.869 -0.17,-0.311 -0.559,-0.426 -0.871,-0.256 -0.242,0.133 -0.474,0.281 -0.693,0.443 -0.224,0.168 -0.436,0.349 -0.636,0.544 -0.255,0.247 -0.261,0.653 -0.014,0.908 0.248,0.253 0.653,0.259 0.907,0.012 0.161,-0.157 0.332,-0.302 0.509,-0.433 0.175,-0.13 0.355,-0.247 0.541,-0.349"
       style="fill:#000000;fill-opacity:1;fill-rule:nonzero;stroke:none;stroke-width:0.1"
       id="path563" />
    <path
       d="m 420.024,311.587 c -0.208,0.286 -0.145,0.687 0.141,0.895 0.286,0.208 0.686,0.145 0.895,-0.141 0.487,-0.67 1.894,-1.144 3.521,-1.223 1.475,-0.071 3.092,0.203 4.35,0.973 0.303,0.185 0.697,0.09 0.882,-0.213 0.185,-0.302 0.089,-0.698 -0.214,-0.882 -1.492,-0.914 -3.376,-1.241 -5.079,-1.159 -1.992,0.096 -3.786,0.774 -4.496,1.75"
       style="fill:#000000;fill-opacity:1;fill-rule:nonzero;stroke:none;stroke-width:0.1"
       id="path565" />
    <path
       d="m 419.961,310.29 c -0.348,-0.074 -0.688,0.148 -0.762,0.495 -0.073,0.347 0.148,0.688 0.496,0.761 0.212,0.045 0.419,0.105 0.619,0.177 0.208,0.075 0.413,0.166 0.615,0.27 0.314,0.162 0.701,0.038 0.863,-0.277 0.162,-0.315 0.039,-0.702 -0.276,-0.864 -0.246,-0.128 -0.502,-0.241 -0.765,-0.335 -0.262,-0.095 -0.525,-0.171 -0.79,-0.227"
       style="fill:#000000;fill-opacity:1;fill-rule:nonzero;stroke:none;stroke-width:0.1"
       id="path567" />
    <path
       d="m 421.448,309.479 c -0.312,-0.169 -0.7,-0.054 -0.87,0.256 -0.169,0.311 -0.055,0.701 0.257,0.87 0.185,0.102 0.366,0.219 0.542,0.349 0.175,0.131 0.345,0.276 0.507,0.433 0.253,0.247 0.66,0.241 0.907,-0.013 0.247,-0.254 0.241,-0.66 -0.013,-0.907 -0.2,-0.195 -0.413,-0.377 -0.638,-0.544 -0.218,-0.162 -0.45,-0.311 -0.692,-0.444"
       style="fill:#000000;fill-opacity:1;fill-rule:nonzero;stroke:none;stroke-width:0.1"
       id="path569" />
    <path
       d="m 565.29906,285.7402 c 0.2938,-0.10604 0.44591,-0.42939 0.33813,-0.72319 -0.10605,-0.29205 -0.4294,-0.44417 -0.72232,-0.33812 -2.50074,0.91007 -2.05222,2.42859 -1.52982,4.19831 0.23034,0.77621 0.4772,1.61413 0.37724,2.40599 -0.0382,0.31031 0.18253,0.5928 0.49371,0.63105 0.30944,0.0374 0.59107,-0.1834 0.62932,-0.49371 0.12864,-1.01699 -0.15386,-1.97399 -0.41723,-2.86146 -0.36072,-1.22299 -0.67103,-2.27213 0.83097,-2.81887"
       style="fill:#000000;fill-opacity:1;fill-rule:nonzero;stroke:none;stroke-width:0.0869216"
       id="path904" />
    <path
       d="m 452.028,315.724 c 0.344,0.086 0.692,-0.124 0.778,-0.468 0.086,-0.344 -0.123,-0.693 -0.466,-0.779 -0.611,-0.153 -1.144,-0.492 -1.515,-1.04 -0.044,-0.065 -0.086,-0.133 -0.125,-0.204 0.28,0.174 0.565,0.307 0.853,0.403 0.336,0.112 0.7,-0.069 0.812,-0.405 0.112,-0.335 -0.068,-0.699 -0.404,-0.811 -0.316,-0.106 -0.632,-0.279 -0.942,-0.53 -0.303,-0.246 -0.599,-0.562 -0.88,-0.955 -0.116,-0.181 -0.32,-0.3 -0.55,-0.296 -0.355,0.005 -0.637,0.296 -0.631,0.65 0.02,1.203 0.317,2.151 0.801,2.867 0.561,0.829 1.36,1.339 2.269,1.568"
       style="fill:#000000;fill-opacity:1;fill-rule:nonzero;stroke:none;stroke-width:0.1"
       id="path571" />
    <path
       d="m 566.52726,289.00063 c -0.28249,0.13038 -0.40679,0.4659 -0.27641,0.74926 0.13039,0.28337 0.46677,0.40766 0.74927,0.27641 0.72492,-0.33465 1.98268,-0.4885 3.13874,-0.36681 0.90311,0.0965 1.71235,0.35464 2.06612,0.81881 0.18775,0.24772 0.54152,0.2964 0.78838,0.10778 0.2486,-0.18775 0.2964,-0.54152 0.10865,-0.78925 -0.56499,-0.74231 -1.66541,-1.1352 -2.84929,-1.26036 -1.3412,-0.14169 -2.83451,0.053 -3.72546,0.46416"
       style="fill:#000000;fill-opacity:1;fill-rule:nonzero;stroke:none;stroke-width:0.0869216"
       id="path906" />
    <path
       d="m 447.366,306.854 c 0.046,0.351 0.368,0.599 0.719,0.553 0.351,-0.046 0.598,-0.368 0.552,-0.719 -0.513,-3.864 -2.274,-6.805 -4.396,-8.954 -3.276,-3.319 -7.468,-4.754 -9.242,-4.784 -0.354,-0.006 -0.646,0.277 -0.651,0.631 -0.005,0.354 0.277,0.645 0.631,0.65 1.571,0.027 5.33,1.347 8.348,4.402 1.95,1.976 3.568,4.677 4.039,8.221"
       style="fill:#000000;fill-opacity:1;fill-rule:nonzero;stroke:none;stroke-width:0.1"
       id="path573" />
    <path
       d="m 557.29706,289.03714 c -0.28163,0.13212 -0.40418,0.46763 -0.27119,0.74926 0.13125,0.28249 0.46676,0.40418 0.74926,0.27206 0.69885,-0.32769 1.59762,-0.50153 2.42946,-0.50762 0.76752,-0.005 1.45159,0.12865 1.81753,0.41201 0.24599,0.19036 0.6015,0.14516 0.79098,-0.1017 0.18949,-0.24686 0.14516,-0.6015 -0.10169,-0.79098 -0.57195,-0.44417 -1.50983,-0.65279 -2.51204,-0.6467 -0.98395,0.007 -2.05569,0.2173 -2.90231,0.61367"
       style="fill:#000000;fill-opacity:1;fill-rule:nonzero;stroke:none;stroke-width:0.0869216"
       id="path908" />
    <path
       d="m 602.936,120.556 c 2.938,12.387 -12.313,15.373 -27.01,5.453 3.448,20.518 -26.528,9.977 -35.485,-1.116 -3.915,21.855 -40.388,-13.771 -34.88,-28.3438 h 110.158 c 27.16,9.6868 7.663,37.6388 -12.783,24.0068"
       style="fill:#8c9152;fill-opacity:1;fill-rule:evenodd;stroke:none;stroke-width:0.1"
       id="path575" />
    <path
       d="m 571.38531,288.03232 c -0.83532,0.12604 -1.62022,-0.42852 -1.75668,-1.23863 -0.13473,-0.81011 0.43287,-1.5698 1.26731,-1.69584 0.83358,-0.12604 1.62022,0.42765 1.75582,1.23863 0.13473,0.81011 -0.43113,1.56894 -1.26645,1.69584"
       style="fill:#de5138;fill-opacity:1;fill-rule:evenodd;stroke:none;stroke-width:0.0869216"
       id="path910" />
    <path
       d="m 76.3574,95.9051 c -0.332,0 -0.6011,0.2699 -0.6011,0.6019 0,0.3309 0.2691,0.5989 0.6011,0.5989 H 631.643 c 0.331,0 0.6,-0.268 0.6,-0.5989 0,-0.332 -0.269,-0.6019 -0.6,-0.6019"
       style="fill:#000000;fill-opacity:1;fill-rule:nonzero;stroke:none;stroke-width:0.1"
       id="path577" />
    <path
       d="m 558.96596,288.0245 c -0.83445,0.1269 -1.62022,-0.42852 -1.75582,-1.23863 -0.13473,-0.81011 0.43287,-1.56981 1.26732,-1.69584 0.83357,-0.12604 1.62021,0.42852 1.75494,1.23863 0.1356,0.81011 -0.43113,1.56893 -1.26644,1.69584"
       style="fill:#de5138;fill-opacity:1;fill-rule:evenodd;stroke:none;stroke-width:0.0869216"
       id="path912" />
  </g>
</svg>
