<?xml version="1.0" encoding="UTF-8" standalone="no"?>
<!-- Created with Inkscape (http://www.inkscape.org/) -->

<svg
   width="800"
   height="600"
   viewBox="0 0 211.66667 158.75"
   version="1.1"
   id="svg5641"
   inkscape:export-filename="sofa-work.png"
   inkscape:export-xdpi="96"
   inkscape:export-ydpi="96"
   inkscape:version="1.2.1 (9c6d41e, 2022-07-14)"
   sodipodi:docname="sofa-work-calm.svg"
   xmlns:inkscape="http://www.inkscape.org/namespaces/inkscape"
   xmlns:sodipodi="http://sodipodi.sourceforge.net/DTD/sodipodi-0.dtd"
   xmlns="http://www.w3.org/2000/svg"
   xmlns:svg="http://www.w3.org/2000/svg">
  <sodipodi:namedview
     id="namedview5643"
     pagecolor="#ffffff"
     bordercolor="#000000"
     borderopacity="0.25"
     inkscape:showpageshadow="2"
     inkscape:pageopacity="0.0"
     inkscape:pagecheckerboard="0"
     inkscape:deskcolor="#d1d1d1"
     inkscape:document-units="mm"
     showgrid="false"
     inkscape:zoom="0.47707663"
     inkscape:cx="195.98529"
     inkscape:cy="318.60709"
     inkscape:window-width="1309"
     inkscape:window-height="710"
     inkscape:window-x="0"
     inkscape:window-y="0"
     inkscape:window-maximized="0"
     inkscape:current-layer="layer1" />
  <defs
     id="defs5638" />
  <g
     inkscape:label="Layer 1"
     inkscape:groupmode="layer"
     id="layer1">
    <path
       d="m 138.29275,0 c 24.98654,0 45.24262,20.25608 45.24262,45.24296 0,24.98751 -20.25608,45.24232 -45.24262,45.24232 -24.98719,0 -45.243304,-20.25481 -45.243304,-45.24232 C 93.049446,20.25608 113.30556,0 138.29275,0"
       style="fill:#ebb763;fill-opacity:1;fill-rule:evenodd;stroke:none;stroke-width:0.0321735"
       id="path407" />
    <path
       d="M 76.705026,124.37799 H 205.642 C 200.82132,81.68075 182.29269,45.20768 164.15703,43.59565 148.31519,27.9005 128.33573,28.77234 118.06658,38.83602 111.5084,39.06573 106.08559,41.17741 100.96243,38.43369 76.552366,19.1064 31.601076,52.43343 20.987111,124.37799"
       style="fill:#b2d7bd;fill-opacity:1;fill-rule:evenodd;stroke:none;stroke-width:0.0350075"
       id="path786" />
    <path
       d="m 96.327276,10.98339 c 3.1781,0 5.972044,1.64599 7.576224,4.13139 0.45525,-0.13386 0.93655,-0.20569 1.43495,-0.20569 2.80905,0 5.08597,2.27689 5.08597,5.08565 0,0.72164 -0.15049,1.40757 -0.42147,2.02917 H 81.316116 c -0.21556,-0.63703 -0.33235,-1.31944 -0.33235,-2.02917 0,-3.49694 2.83512,-6.33241 6.33237,-6.33241 0.78342,0 1.53339,0.1426 2.22608,0.40314 1.65179,-1.88889 4.07896,-3.08219 6.78506,-3.08219"
       style="fill:#ffffff;fill-opacity:1;fill-rule:evenodd;stroke:none;stroke-width:0.0321735"
       id="path409" />
    <path
       d="m 165.1685,1.78014 c 2.13376,0 4.00915,1.10454 5.08631,2.77305 0.30564,-0.0897 0.62833,-0.13812 0.96296,-0.13812 1.88536,0 3.41424,1.52856 3.41424,3.41394 0,0.48452 -0.10104,0.94525 -0.28313,1.36253 h -19.25644 c -0.14537,-0.42758 -0.2236,-0.88605 -0.2236,-1.36253 0,-2.34739 1.90305,-4.25075 4.25107,-4.25075 0.5257,0 1.02891,0.0959 1.49412,0.27057 1.10903,-1.26796 2.7383,-2.06877 4.55447,-2.06877"
       style="fill:#ffffff;fill-opacity:1;fill-rule:evenodd;stroke:none;stroke-width:0.0321735"
       id="path413" />
    <path
       d="m 179.24601,21.94325 c 4.25623,0 7.99734,2.20389 10.1459,5.53193 0.60968,-0.17863 1.25444,-0.2751 1.92172,-0.2751 3.76139,0 6.81112,3.04941 6.81112,6.8108 0,0.96648 -0.20165,1.88538 -0.56464,2.7177 H 159.1434 c -0.28893,-0.85323 -0.4453,-1.76731 -0.4453,-2.7177 0,-4.68349 3.79679,-8.47995 8.47998,-8.47995 1.04948,0 2.05362,0.19077 2.98118,0.53953 2.21224,-2.52946 5.46241,-4.12721 9.08675,-4.12721"
       style="fill:#ffffff;fill-opacity:1;fill-rule:evenodd;stroke:none;stroke-width:0.0321735"
       id="path417" />
    <path
       d="m 36.07452,80.80314 c -0.594806,6.77589 -3.901928,12.02157 -7.387246,11.7155 -3.485341,-0.30529 -5.829201,-6.04649 -5.23514,-12.8224 0.594783,-6.77663 3.901905,-12.02157 7.387246,-11.71625 3.485317,0.30604 5.829177,6.04647 5.23514,12.82315"
       style="fill:#7b9b75;fill-opacity:1;fill-rule:nonzero;stroke:none;stroke-width:0.75196"
       id="path4796" />
    <path
       d="m 211.21926,135.86832 c 0,1.29185 -43.15866,2.34011 -96.39661,2.34011 -53.237944,0 -96.39587,-1.04826 -96.39587,-2.34011 0,-1.29186 43.157926,-2.33935 96.39587,-2.33935 53.23795,0 96.39661,1.04749 96.39661,2.33935"
       style="fill:#ddd0d0;fill-opacity:1;fill-rule:nonzero;stroke:none;stroke-width:0.75196"
       id="path4798" />
    <path
       d="m 114.24628,22.067763 c 11.39678,0 20.63589,9.239128 20.63589,20.636039 0,11.39721 -9.23911,20.635748 -20.63589,20.635748 -11.39704,0 -20.636172,-9.238538 -20.636172,-20.635748 0,-11.396911 9.239132,-20.636039 20.636172,-20.636039"
       style="fill:#f8e7cd;fill-opacity:1;fill-rule:evenodd;stroke:none;stroke-width:0.0146748"
       id="path407-1-7" />
    <path
       d="M 160.59214,117.18513 H 59.896556 c -4.33352,0 -7.84668,-3.51312 -7.84668,-7.84666 V 55.20944 c 0,-4.33354 3.51316,-7.84593 7.84668,-7.84593 H 160.59214 c 4.33277,0 7.84593,3.51239 7.84593,7.84593 v 54.12903 c 0,4.33354 -3.51316,7.84666 -7.84593,7.84666"
       style="fill:#6876aa;fill-opacity:1;fill-rule:nonzero;stroke:none;stroke-width:0.75196"
       id="path4800" />
    <path
       d="m 173.82736,112.23875 v 3.29434 c 0,0.86476 -0.11276,1.70695 -0.33086,2.51156 -1.10539,4.0756 -4.82759,7.07592 -9.25662,7.07592 H 56.251076 c -4.42904,0 -8.15876,-3.00032 -9.264132,-7.07592 -0.218077,-0.80461 -0.330879,-1.6468 -0.330879,-2.51156 v -3.29434 c 0,-5.29377 4.293681,-9.58745 9.595011,-9.58745 H 164.23988 c 5.29379,0 9.58748,4.29368 9.58748,9.58745"
       style="fill:#40507f;fill-opacity:1;fill-rule:nonzero;stroke:none;stroke-width:0.75196"
       id="path4802" />
    <path
       d="m 179.87688,100.60821 c 0,6.46309 -5.23893,11.70199 -11.70199,11.70199 -6.46311,0 -11.70199,-5.2389 -11.70199,-11.70199 0,-6.46308 5.23888,-11.70197 11.70199,-11.70197 6.46306,0 11.70199,5.23889 11.70199,11.70197"
       style="fill:#6876aa;fill-opacity:1;fill-rule:nonzero;stroke:none;stroke-width:0.75196"
       id="path4804" />
    <path
       d="m 55.234416,136.75563 h -0.49102 c -1.20765,0 -2.2288,-0.89258 -2.38973,-2.08894 l -1.71372,-12.72163 h 7.55193 l -0.54819,12.50507 c -0.0565,1.28961 -1.11816,2.3055 -2.40927,2.3055"
       style="fill:#40507f;fill-opacity:1;fill-rule:nonzero;stroke:none;stroke-width:0.75196"
       id="path4806" />
    <path
       d="m 165.29863,136.75563 h 0.49104 c 1.20691,0 2.22806,-0.89258 2.38974,-2.08894 l 1.7137,-12.72163 h -7.55193 l 0.54819,12.50507 c 0.0565,1.28961 1.11817,2.3055 2.40926,2.3055"
       style="fill:#40507f;fill-opacity:1;fill-rule:nonzero;stroke:none;stroke-width:0.75196"
       id="path4808" />
    <path
       d="m 62.887106,101.37899 c 0,6.46307 -5.23964,11.70272 -11.70199,11.70272 -6.463079,0 -11.70197,-5.23965 -11.70197,-11.70272 0,-6.46236 5.238891,-11.70199 11.70197,-11.70199 6.46235,0 11.70199,5.23963 11.70199,11.70199"
       style="fill:#6876aa;fill-opacity:1;fill-rule:nonzero;stroke:none;stroke-width:0.75196"
       id="path4810" />
    <path
       d="m 163.08489,50.98495 h -30.8792 c -0.10381,0 -0.188,-0.0842 -0.188,-0.188 0,-0.10381 0.0842,-0.188 0.188,-0.188 h 30.8792 c 0.10381,0 0.188,0.0842 0.188,0.188 0,0.1038 -0.0842,0.188 -0.188,0.188"
       style="fill:#92b4ea;fill-opacity:1;fill-rule:nonzero;stroke:none;stroke-width:0.75196"
       id="path4812" />
    <path
       d="m 89.125206,70.8299 c 0,0 7.2188,-16.48897 15.268524,-18.80498 8.05048,-2.31529 -0.61435,20.68113 -0.61435,20.68113 L 89.125206,70.8299"
       style="fill:#f7b369;fill-opacity:1;fill-rule:nonzero;stroke:none;stroke-width:0.75196"
       id="path4814" />
    <path
       d="m 119.02911,51.10376 c 0,0 14.38648,3.54924 17.74097,16.0701 3.35523,12.52163 -15.49262,18.50798 -15.49262,18.50798 l -2.24835,-34.57808"
       style="fill:#f7b369;fill-opacity:1;fill-rule:nonzero;stroke:none;stroke-width:0.75196"
       id="path4816" />
    <path
       d="m 126.23966,101.99483 -0.43238,5.43591 11.46434,0.8888 v -5.43514 l -11.03196,-0.88957"
       style="fill:#ffffff;fill-opacity:1;fill-rule:nonzero;stroke:none;stroke-width:0.75196"
       id="path4818" />
    <path
       d="m 119.99237,83.153 c 0,0 14.54289,-15.71822 24.40181,-12.77428 13.96915,4.17261 -0.7715,38.61758 -0.7715,38.61758 h -20.60743 l 0.867,-6.24801 -23.41374,0.52036 2.82286,-24.26872 16.701,4.15307"
       style="fill:#68b6d8;fill-opacity:1;fill-rule:nonzero;stroke:none;stroke-width:0.75196"
       id="path4820" />
    <path
       d="m 103.05827,98.85691 h 5.26369 l -1.34599,11.64634 h -4.408 l 0.4903,-11.64634"
       style="fill:#f7b369;fill-opacity:1;fill-rule:nonzero;stroke:none;stroke-width:0.75196"
       id="path4822" />
    <path
       d="m 114.46023,48.43432 c 0,0 7.26392,0.9655 4.91178,-8.43246 -2.35289,-9.39875 -9.0799,-4.06436 -9.0799,-4.06436 l 4.16812,12.49682"
       style="fill:#000000;fill-opacity:1;fill-rule:nonzero;stroke:none;stroke-width:0.75196"
       id="path4824" />
    <path
       d="m 92.075896,84.7652 c 0,0 -23.20547,6.73153 -24.71615,16.61379 -1.50992,9.88297 14.33083,14.27065 23.01672,14.88801 8.68586,0.61661 16.069374,0 16.069374,0 V 81.17234 L 92.075896,84.7652"
       style="fill:#68b6d8;fill-opacity:1;fill-rule:nonzero;stroke:none;stroke-width:0.75196"
       id="path4826" />
    <path
       d="m 97.822346,84.7652 c 0,0 -0.10743,-29.67681 5.802884,-32.47559 7.41057,-3.50864 18.13878,-1.89194 20.09535,1.67837 2.23558,4.07861 -0.95574,28.68948 -0.95574,28.68948 0,0 -11.0974,6.24878 -24.942494,2.10774"
       style="fill:#f7b369;fill-opacity:1;fill-rule:nonzero;stroke:none;stroke-width:0.75196"
       id="path4828" />
    <path
       d="m 115.8551,45.93104 0.41658,5.05165 c 0,0 -0.41584,1.67086 -3.35148,2.15512 -2.18669,0.36018 -3.3763,-0.21656 -3.3763,-0.21656 l 0.0955,-2.58373 0.0963,-2.52057 5.2404,-1.61446 0.87904,-0.27145"
       style="fill:#f48462;fill-opacity:1;fill-rule:nonzero;stroke:none;stroke-width:0.75196"
       id="path4830" />
    <path
       d="m 114.97605,46.20249 c -0.001,0.13918 -0.0405,0.30604 -0.10678,0.50005 -0.92191,2.61681 -3.9681,3.41616 -5.22987,3.63498 l 0.0963,-2.52057 5.2404,-1.61446"
       style="fill:#000000;fill-opacity:1;fill-rule:nonzero;stroke:none;stroke-width:0.75196"
       id="path4832" />
    <path
       d="m 107.65874,36.3947 c 0,0 -2.12803,6.55256 -0.79257,9.986 1.33549,3.4327 4.49748,2.56193 6.35481,1.69041 1.85735,-0.87154 2.63486,-2.13933 2.63486,-2.13933 0,0 1.85735,0.43313 2.89506,-1.35652 1.03844,-1.78967 0.10978,-3.63647 -0.96025,-3.97562 -1.0693,-0.33912 -2.21679,0.52186 -2.21679,0.52186 l 0.77752,-1.91973 c 0,0 -4.93585,-8.88516 -8.69264,-2.80707"
       style="fill:#f48462;fill-opacity:1;fill-rule:nonzero;stroke:none;stroke-width:0.75196"
       id="path4834" />
    <path
       d="m 93.877576,61.60186 c 0,0 -5.13061,-10.66204 -4.37415,-10.8034 0.75649,-0.14132 5.42014,10.01009 5.42014,10.01009 l -1.04599,0.79331"
       style="fill:#000000;fill-opacity:1;fill-rule:nonzero;stroke:none;stroke-width:0.75196"
       id="path4836" />
    <path
       d="m 173.4965,118.04465 c -1.10539,4.0756 -4.82759,7.07592 -9.25662,7.07592 H 56.251076 c -4.42904,0 -8.15876,-3.00032 -9.264132,-7.07592 H 173.4965"
       style="fill:#39476b;fill-opacity:1;fill-rule:nonzero;stroke:none;stroke-width:0.75196"
       id="path4838" />
    <path
       d="m 108.32196,98.85691 c 0,0 9.94317,-0.32184 12.13361,1.88966 1.27158,1.2836 -2.24083,13.40367 -2.24083,13.40367 0,0 -0.89409,13.98418 -2.47997,15.76257 -1.62345,1.81973 -5.64343,1.28359 -6.25027,0.15049 -0.53165,-0.99336 -1.02117,-2.43035 -1.03997,-4.36814 -0.0407,-4.28918 -0.0407,-4.28918 -0.0407,-4.28918 l -1.65129,-10.99288 1.56934,-11.55611"
       style="fill:#f7b369;fill-opacity:1;fill-rule:nonzero;stroke:none;stroke-width:0.75196"
       id="path4840" />
    <path
       d="m 125.00868,117.66792 c 0.0714,2.70478 17.63946,8.20763 18.28314,8.48509 0.64517,0.27749 5.90663,1.06779 7.81737,0.53389 1.38134,-0.38649 1.32419,-4.81329 0.42786,-6.27434 -0.89558,-1.46257 -4.34859,-2.72961 -4.34859,-2.72961 l -9.64539,-8.68665 h -11.73579 c 0,0 -0.84447,6.98723 -0.7986,8.67162"
       style="fill:#f7b369;fill-opacity:1;fill-rule:nonzero;stroke:none;stroke-width:0.75196"
       id="path4842" />
    <path
       d="m 98.991646,69.9862 c -0.094,0 -0.17521,-0.0699 -0.18651,-0.16626 -0.29174,-2.46568 1.618224,-9.8627 1.699434,-10.17629 0.0262,-0.1 0.12853,-0.15944 0.22936,-0.1345 0.10082,0.0262 0.16093,0.12853 0.13471,0.22936 -0.0192,0.0759 -1.973894,7.64139 -1.690414,10.03788 0.0128,0.10296 -0.061,0.19632 -0.16392,0.20825 l -0.0226,0.002"
       style="fill:#ffffff;fill-opacity:1;fill-rule:nonzero;stroke:none;stroke-width:0.75196"
       id="path4844" />
    <path
       d="m 88.626666,66.9009 c 0,0 3.28455,-6.90823 5.1652,-7.87601 1.88064,-0.96701 6.754104,-0.57299 6.824014,-0.004 0.0693,0.56999 -4.254574,1.79118 -4.254574,1.79118 0,0 2.99579,4.032 3.15146,4.99978 0.15645,0.96775 -1.73853,4.06959 -2.19497,4.41097 -0.4572,0.34141 -1.87765,-1.09031 -1.87765,-1.09031 0,0 -1.16478,1.80919 -3.02137,2.5461 -1.85734,0.73694 -4.40646,-1.90771 -4.40646,-1.90771 l 0.61435,-2.87023"
       style="fill:#f48462;fill-opacity:1;fill-rule:nonzero;stroke:none;stroke-width:0.75196"
       id="path4846" />
    <path
       d="m 94.413726,71.9488 c 0,0 1.82276,-1.96111 1.83252,-3.53869 0.009,-1.57688 -3.44322,-1.35806 -3.44322,-1.35806 l -0.42034,3.06876 2.03104,1.82799"
       style="fill:#ff9c85;fill-opacity:1;fill-rule:nonzero;stroke:none;stroke-width:0.75196"
       id="path4850" />
    <path
       d="m 89.633516,84.28695 h 22.838504 c 0.80836,0 1.46483,-0.65572 1.46483,-1.46558 V 67.36711 c 0,-0.80909 -0.65647,-1.46481 -1.46483,-1.46481 H 89.633516 c -0.80909,0 -1.46481,0.65572 -1.46481,1.46481 v 15.45426 c 0,0.80986 0.65572,1.46558 1.46481,1.46558"
       style="fill:#000000;fill-opacity:1;fill-rule:nonzero;stroke:none;stroke-width:0.75196"
       id="path4852" />
    <path
       d="m 91.330696,84.28695 h 22.742254 c 0.80687,0 1.4618,-0.65496 1.4618,-1.46257 V 67.36487 c 0,-0.80836 -0.65493,-1.46257 -1.4618,-1.46257 H 91.330696 c -0.8076,0 -1.46181,0.65421 -1.46181,1.46257 v 15.45951 c 0,0.80761 0.65421,1.46257 1.46181,1.46257"
       style="fill:#7c576c;fill-opacity:1;fill-rule:nonzero;stroke:none;stroke-width:0.75196"
       id="path4854" />
    <path
       d="m 99.537576,75.09425 c 0,1.19487 0.968534,2.16339 2.163384,2.16339 1.19412,0 2.16264,-0.96852 2.16264,-2.16339 0,-1.1941 -0.96852,-2.16262 -2.16264,-2.16262 -1.19485,0 -2.163384,0.96852 -2.163384,2.16262"
       style="fill:#ffffff;fill-opacity:1;fill-rule:nonzero;stroke:none;stroke-width:0.75196"
       id="path4856" />
    <path
       d="m 120.66763,74.27312 c 0,0 -4.53356,-1.4761 -5.13288,-1.66785 0,0 -0.0646,1.63326 0.13471,1.9205 0.1993,0.28725 -8.72872,1.66409 -8.70617,2.52659 0.0232,0.8625 0.85197,1.05425 0.85197,1.05425 0,0 -1.78665,0.38274 -1.30765,1.24524 0.479,0.86248 1.30765,0.89782 1.30765,0.89782 0,0 -1.75808,0.8535 0,1.94233 1.75885,1.08883 10.3853,1.75957 13.15025,-0.99935 2.03254,-2.0288 -0.29777,-6.91953 -0.29777,-6.91953"
       style="fill:#f48462;fill-opacity:1;fill-rule:nonzero;stroke:none;stroke-width:0.75196"
       id="path4860" />
    <path
       d="m 115.57386,41.1215 c 0,0 -3.00408,-0.25115 -4.44182,-2.03631 -1.31517,-1.63324 -1.90846,-3.59509 -1.90846,-3.59509 0,0 -0.60911,0.54893 -1.32347,1.76936 -0.5602,0.95722 -1.00009,2.113 -1.00009,2.113 0,0 -1.35953,-4.10193 2.31755,-5.78859 3.67705,-1.68663 7.06387,0.60757 8.18806,2.89805 1.12494,2.29122 -1.83177,4.63958 -1.83177,4.63958"
       style="fill:#000000;fill-opacity:1;fill-rule:nonzero;stroke:none;stroke-width:0.75196"
       id="path4862" />
    <path
       d="m 56.379646,101.37899 c 0,2.86946 -2.32581,5.19602 -5.19453,5.19602 -2.86948,0 -5.195283,-2.32656 -5.195283,-5.19602 0,-2.86873 2.325803,-5.19455 5.195283,-5.19455 2.86872,0 5.19453,2.32582 5.19453,5.19455"
       style="fill:#40507f;fill-opacity:1;fill-rule:nonzero;stroke:none;stroke-width:0.75196"
       id="path4864" />
    <path
       d="m 117.9824,71.62696 0.22859,11.46738 c 0,0 4.29668,0.6963 10.22062,-3.26126 8.23394,-5.4998 8.73851,-9.2596 8.73851,-9.2596 l -11.329,-2.6078 -7.85872,3.66128"
       style="fill:#f7b369;fill-opacity:1;fill-rule:nonzero;stroke:none;stroke-width:0.75196"
       id="path4866" />
    <path
       d="m 107.81515,78.29459 c -0.094,0 -0.17521,-0.0708 -0.18651,-0.16626 -0.0106,-0.10381 0.0625,-0.19695 0.16541,-0.2091 l 5.1043,-0.58952 c 0.10082,-0.0107 0.19631,0.0616 0.20825,0.16477 0.0128,0.10295 -0.0616,0.19631 -0.16477,0.2091 l -5.1043,0.58954 -0.0226,0.001"
       style="fill:#000000;fill-opacity:1;fill-rule:nonzero;stroke:none;stroke-width:0.75196"
       id="path4868" />
    <path
       d="m 112.9202,80.43769 h -5.1043 c -0.10381,0 -0.188,-0.0842 -0.188,-0.188 0,-0.10381 0.0842,-0.188 0.188,-0.188 h 5.1043 c 0.1038,0 0.188,0.0842 0.188,0.188 0,0.1038 -0.0842,0.188 -0.188,0.188"
       style="fill:#000000;fill-opacity:1;fill-rule:nonzero;stroke:none;stroke-width:0.75196"
       id="path4870" />
    <path
       d="m 116.38222,71.45252 c -0.0684,0 -0.13535,-0.0384 -0.16839,-0.10381 -0.0458,-0.0931 -0.009,-0.20611 0.0842,-0.25265 0.29176,-0.14664 7.18723,-3.59362 10.7613,-3.84928 0.0925,-0.006 0.19333,0.0708 0.20079,0.17436 0.009,0.10381 -0.0708,0.19397 -0.17457,0.20079 -3.49886,0.24965 -10.54847,3.77483 -10.61915,3.81017 l -0.0842,0.0213"
       style="fill:#ffffff;fill-opacity:1;fill-rule:nonzero;stroke:none;stroke-width:0.75196"
       id="path4872" />
    <path
       d="m 124.22289,65.31127 c -1.07529,0 -2.22655,1.97463 -2.83565,3.28306 1.64907,-1.37308 3.15674,-2.88602 3.04168,-3.23793 -0.004,-0.0128 -0.0518,-0.0399 -0.17371,-0.0443 z m -3.31239,4.10193 -0.11212,-0.0369 c -0.0676,-0.0503 -0.094,-0.14068 -0.0631,-0.21957 0.0676,-0.17372 1.67011,-4.22151 3.48833,-4.22151 l 0.0452,7.5e-4 c 0.34966,0.0128 0.47374,0.17222 0.51735,0.3038 0.27597,0.84142 -2.80705,3.37555 -3.75829,4.13275 l -0.11723,0.0405"
       style="fill:#ffffff;fill-opacity:1;fill-rule:nonzero;stroke:none;stroke-width:0.75196"
       id="path4874" />
    <path
       d="m 14.164685,88.00537 c 6.15703,2.89206 9.941639,7.80309 8.454274,10.97035 -1.487366,3.16725 -7.684277,3.38983 -13.8413074,0.4978 -6.157051,-2.89206 -9.941658,-7.80384 -8.454271,-10.9711 1.487364,-3.16648 7.684253,-3.3898 13.8413044,-0.49705"
       style="fill:#7b9b75;fill-opacity:1;fill-rule:nonzero;stroke:none;stroke-width:0.75196"
       id="path4876" />
    <path
       d="m 16.552902,112.13725 c -4.98624,-0.7527 -8.7151934,-3.44173 -8.3287024,-6.00738 0.387279,-2.56421 4.7441174,-4.03351 9.7303604,-3.28157 4.986986,0.7527 8.715193,3.44173 8.328702,6.00664 -0.387257,2.56495 -4.743374,4.03425 -9.73036,3.28231"
       style="fill:#7b9b75;fill-opacity:1;fill-rule:nonzero;stroke:none;stroke-width:0.75196"
       id="path4878" />
    <path
       d="m 37.64009,94.13236 c 4.616271,-4.99602 10.440946,-7.12181 13.011136,-4.74787 2.57021,2.37467 0.91213,8.349 -3.704142,13.34576 -4.615523,4.99677 -10.440949,7.12256 -13.011136,4.74787 -2.570207,-2.37392 -0.911381,-8.34902 3.704142,-13.34576"
       style="fill:#7b9b75;fill-opacity:1;fill-rule:nonzero;stroke:none;stroke-width:0.75196"
       id="path4880" />
    <path
       d="m 47.66068,115.14358 c 4.974216,0.82716 9.352116,-0.57675 9.777716,-3.13567 0.42563,-2.5589 -3.26274,-5.30356 -8.2377,-6.13072 -4.974946,-0.82716 -9.352098,0.57752 -9.777723,3.13642 -0.425604,2.55892 3.262765,5.30357 8.237707,6.12997"
       style="fill:#7b9b75;fill-opacity:1;fill-rule:nonzero;stroke:none;stroke-width:0.75196"
       id="path4882" />
    <path
       d="m 208.30468,95.63551 h -33.7013 c -1.85733,0 -3.36199,-1.50466 -3.36199,-3.36127 0,-1.85658 1.50466,-3.36199 3.36199,-3.36199 h 33.7013 c 1.85658,0 3.36199,1.50541 3.36199,3.36199 0,1.85661 -1.50541,3.36127 -3.36199,3.36127"
       style="fill:#b79a9a;fill-opacity:1;fill-rule:nonzero;stroke:none;stroke-width:0.75196"
       id="path4884" />
    <path
       d="m 178.97676,136.75563 c -1.01137,0 -1.831,-0.81889 -1.831,-1.83026 V 94.54592 c 0,-1.01137 0.81963,-1.83026 1.831,-1.83026 1.01066,0 1.82953,0.81889 1.82953,1.83026 v 40.37945 c 0,1.01137 -0.81887,1.83026 -1.82953,1.83026"
       style="fill:#b79a9a;fill-opacity:1;fill-rule:nonzero;stroke:none;stroke-width:0.75196"
       id="path4886" />
    <path
       d="m 204.29223,136.75563 c -1.01064,0 -1.83028,-0.81889 -1.83028,-1.83026 V 94.54592 c 0,-1.01137 0.81964,-1.83026 1.83028,-1.83026 1.01062,0 1.83026,0.81889 1.83026,1.83026 v 40.37945 c 0,1.01137 -0.81964,1.83026 -1.83026,1.83026"
       style="fill:#b79a9a;fill-opacity:1;fill-rule:nonzero;stroke:none;stroke-width:0.75196"
       id="path4888" />
    <path
       d="m 177.14576,77.78852 h 8.50841 v 11.12373 h -8.50841 z"
       style="fill:#f7b369;fill-opacity:1;fill-rule:nonzero;stroke:none;stroke-width:0.75196"
       id="path4890" />
    <path
       d="m 185.65417,77.78852 c 0,0.26996 -1.90471,0.48878 -4.25382,0.48878 -2.3499,0 -4.25459,-0.21882 -4.25459,-0.48878 0,-0.26996 1.90469,-0.48952 4.25459,-0.48952 2.34911,0 4.25382,0.21956 4.25382,0.48952"
       style="fill:#ffffff;fill-opacity:1;fill-rule:nonzero;stroke:none;stroke-width:0.75196"
       id="path4892" />
    <path
       d="m 185.65417,80.58506 c -1.33849,0 -2.42809,1.50618 -2.42809,3.35673 0,1.85059 1.0896,3.356 2.42809,3.356 1.33924,0 2.42808,-1.50541 2.42808,-3.356 0,-1.85055 -1.08884,-3.35673 -2.42808,-3.35673 z m 0,7.46469 c -1.75282,0 -3.18005,-1.8423 -3.18005,-4.10796 0,-2.26564 1.42723,-4.10871 3.18005,-4.10871 1.75356,0 3.18004,1.84307 3.18004,4.10871 0,2.26566 -1.42648,4.10796 -3.18004,4.10796"
       style="fill:#f7b369;fill-opacity:1;fill-rule:nonzero;stroke:none;stroke-width:0.75196"
       id="path4894" />
    <path
       d="m 124.06499,102.7919 -0.36545,-0.0872 c 0.0279,-0.11809 2.85292,-11.85463 6.8368,-17.7026 l 0.31057,0.21123 c -3.94403,5.79157 -6.75411,17.46123 -6.78192,17.57852"
       style="fill:#6876aa;fill-opacity:1;fill-rule:nonzero;stroke:none;stroke-width:0.75196"
       id="path4896" />
    <path
       d="m 127.06605,85.25097 c -0.0949,0 -0.14729,0.0369 -0.18118,0.0699 -0.4978,0.48575 -0.0128,2.95743 0.48878,4.73207 0.32333,-1.03319 0.90611,-3.22743 0.40305,-4.27865 -0.12043,-0.24965 -0.29251,-0.40981 -0.52487,-0.48802 -0.0759,-0.0256 -0.1362,-0.0354 -0.18565,-0.0354 z m 0.28123,6.01265 -0.16391,-0.52861 c -0.15198,-0.48878 -1.45956,-4.80427 -0.56098,-5.68257 0.12939,-0.12789 0.36545,-0.25113 0.74896,-0.12256 0.33011,0.11063 0.5805,0.34064 0.74369,0.68277 0.73691,1.53775 -0.52187,4.98624 -0.57601,5.13137 l -0.19183,0.5196"
       style="fill:#6876aa;fill-opacity:1;fill-rule:nonzero;stroke:none;stroke-width:0.75196"
       id="path4898" />
    <path
       d="M 106.3729,97.69889 C 96.791436,94.90161 79.085796,96.5574 78.908346,96.5747 l -0.036,-0.37446 c 0.17905,-0.0171 17.95453,-1.68063 27.606674,1.13772 l -0.10593,0.36093"
       style="fill:#6876aa;fill-opacity:1;fill-rule:nonzero;stroke:none;stroke-width:0.75196"
       id="path4900" />
    <path
       d="m 83.447156,94.28726 c -0.27823,0 -0.49479,0.0752 -0.62036,0.25115 -0.0895,0.12491 -0.0586,0.18801 -0.0452,0.21431 0.24741,0.50229 2.34838,0.79783 3.97636,0.90308 -1.08657,-0.68426 -2.47318,-1.36854 -3.31087,-1.36854 z m 4.61327,1.80018 -0.6339,-0.0217 c -0.75045,-0.0256 -4.51626,-0.20165 -4.98172,-1.146 -0.0661,-0.133 -0.10594,-0.34513 0.0759,-0.5993 0.97755,-1.36931 4.60874,1.1159 5.02007,1.40391 l 0.5196,0.36319"
       style="fill:#6876aa;fill-opacity:1;fill-rule:nonzero;stroke:none;stroke-width:0.75196"
       id="path4902" />
    <path
       d="m 173.36942,100.60821 c 0,2.86948 -2.32579,5.1953 -5.19453,5.1953 -2.86948,0 -5.19527,-2.32582 -5.19527,-5.1953 0,-2.86871 2.32579,-5.19527 5.19527,-5.19527 2.86874,0 5.19453,2.32656 5.19453,5.19527"
       style="fill:#40507f;fill-opacity:1;fill-rule:nonzero;stroke:none;stroke-width:0.75196"
       id="path4904" />
    <path
       d="m 31.934969,116.72871 c -0.08036,0 -0.154962,-0.0518 -0.179687,-0.13237 -3.587591,-11.60347 -15.961077,-9.85517 -16.085153,-9.83561 -0.09997,0.0171 -0.197806,-0.055 -0.213558,-0.15794 -0.01492,-0.10232 0.05414,-0.19781 0.157094,-0.21356 0.127039,-0.0213 12.818636,-1.81222 16.500227,10.0958 0.03091,0.0993 -0.02473,0.20441 -0.124055,0.23536 l -0.05499,0.009"
       style="fill:#ffffff;fill-opacity:1;fill-rule:nonzero;stroke:none;stroke-width:0.75196"
       id="path4906" />
    <path
       d="m 31.365741,115.15863 c -0.07972,0 -0.154109,-0.0518 -0.179048,-0.13237 -4.338062,-13.89169 -17.258202,-21.00521 -17.388291,-21.07514 -0.09166,-0.0497 -0.125547,-0.16328 -0.07588,-0.25491 0.04966,-0.0917 0.164553,-0.12406 0.254144,-0.0759 0.131515,0.0708 13.184855,7.25265 17.568767,21.29399 0.03091,0.0993 -0.02409,0.20463 -0.123203,0.23534 l -0.05648,0.009"
       style="fill:#ffffff;fill-opacity:1;fill-rule:nonzero;stroke:none;stroke-width:0.75196"
       id="path4908" />
    <path
       d="M 31.521408,118.6778 31.356641,118.58 c -6.71726,-12.27949 -2.326573,-40.80655 -2.281446,-41.09305 0.01492,-0.10295 0.115102,-0.17372 0.215049,-0.15645 0.102314,0.0171 0.172867,0.11212 0.156454,0.21505 -0.04519,0.28575 -4.416244,28.68648 2.23933,40.85393 0.04967,0.091 0.01705,0.20612 -0.07439,0.25566 l -0.09016,0.0226"
       style="fill:#ffffff;fill-opacity:1;fill-rule:nonzero;stroke:none;stroke-width:0.75196"
       id="path4910" />
    <path
       d="m 29.656547,116.17151 c -0.09933,0 -0.182672,-0.0789 -0.187148,-0.17905 -0.0043,-0.10445 -0.310565,-10.5259 14.723334,-21.021 0.08505,-0.0586 0.201429,-0.039 0.261689,0.0467 0.05947,0.085 0.03837,0.20228 -0.04668,0.26168 -14.848925,10.36576 -14.567713,20.59314 -14.563194,20.69539 0.0043,0.10296 -0.07524,0.19099 -0.179049,0.19546 l -0.0085,7.5e-4"
       style="fill:#ffffff;fill-opacity:1;fill-rule:nonzero;stroke:none;stroke-width:0.75196"
       id="path4912" />
    <path
       d="m 31.128118,116.17151 -0.06927,-0.0128 c -0.09634,-0.0375 -0.143665,-0.14729 -0.105298,-0.24364 1.471572,-3.70941 3.701883,-6.09912 6.630018,-7.10301 5.208816,-1.7859 10.885348,1.50317 10.942498,1.53702 0.0895,0.0526 0.11958,0.16775 0.0663,0.25792 -0.0518,0.0887 -0.1669,0.11808 -0.25717,0.0663 -0.055,-0.0324 -5.588566,-3.23645 -10.631206,-1.50469 -2.819086,0.96703 -4.97194,3.28381 -6.400665,6.88494 -0.02942,0.0737 -0.09997,0.11872 -0.175212,0.11872"
       style="fill:#ffffff;fill-opacity:1;fill-rule:nonzero;stroke:none;stroke-width:0.75196"
       id="path4914" />
    <path
       d="m 21.501542,136.36686 h 14.023275 c 0.760234,0 1.396392,-0.54141 1.471592,-1.25125 l 2.145349,-20.42997 c 0.08569,-0.81663 -0.59781,-1.52423 -1.471592,-1.52423 H 19.356215 c -0.873781,0 -1.557323,0.7076 -1.471593,1.52423 l 2.145351,20.42997 c 0.07439,0.70984 0.710589,1.25125 1.471569,1.25125"
       style="fill:#aa8888;fill-opacity:1;fill-rule:nonzero;stroke:none;stroke-width:0.75196"
       id="path4916" />
    <path
       d="m 24.605637,136.36686 h 14.023274 c 0.760234,0 1.39639,-0.54141 1.47159,-1.25125 l 2.144584,-20.42997 c 0.08654,-0.81663 -0.597066,-1.52423 -1.470825,-1.52423 H 22.460288 c -0.874529,0 -1.557302,0.7076 -1.471572,1.52423 l 2.145328,20.42997 c 0.07439,0.70984 0.710612,1.25125 1.471593,1.25125"
       style="fill:#b79a9a;fill-opacity:1;fill-rule:nonzero;stroke:none;stroke-width:0.75196"
       id="path4918" />
    <path
       d="m 116.37619,36.76315 c 0,0 -0.86625,-5.46898 3.80115,-6.02169 4.66742,-0.55268 4.08164,8.69115 -1.92575,8.57385 -6.00815,-0.11723 -1.8754,-2.55216 -1.8754,-2.55216"
       style="fill:#000000;fill-opacity:1;fill-rule:nonzero;stroke:none;stroke-width:0.75196"
       id="path4920" />
    <path
       d="m 119.15544,39.4078 c -0.0857,0 -0.16391,-0.0595 -0.18267,-0.14729 -0.55343,-2.53863 -1.84982,-3.45827 -1.86261,-3.46729 -0.0857,-0.0586 -0.10743,-0.17585 -0.0488,-0.26094 0.058,-0.0865 0.17457,-0.10743 0.26017,-0.0497 0.058,0.039 1.43026,1.00011 2.01828,3.69738 0.0217,0.10146 -0.0422,0.20143 -0.14366,0.22332 l -0.0405,0.004"
       style="fill:#ffffff;fill-opacity:1;fill-rule:nonzero;stroke:none;stroke-width:0.75196"
       id="path4922" />
    <path
       d="m 111.86669,39.55142 -1.68812,-0.24813 c -0.10296,-0.0149 -0.17372,-0.11063 -0.15859,-0.21273 0.0149,-0.10295 0.11425,-0.17521 0.21356,-0.15858 l 1.66031,0.24591 c 0.10295,0.0149 0.17372,0.11063 0.15858,0.21273 -0.0149,0.0931 -0.094,0.16093 -0.18565,0.16093"
       style="fill:#000000;fill-opacity:1;fill-rule:nonzero;stroke:none;stroke-width:0.75196"
       id="path4924" />
    <path
       d="m 106.89926,39.56046 c -0.0872,0 -0.16541,-0.061 -0.18353,-0.15049 -0.0213,-0.10146 0.0452,-0.20079 0.14729,-0.22182 l 1.11063,-0.22335 c 0.0993,-0.0213 0.20079,0.0458 0.22183,0.14729 0.0213,0.10232 -0.0458,0.20079 -0.14729,0.22185 l -1.1114,0.22332 -0.0375,0.002"
       style="fill:#000000;fill-opacity:1;fill-rule:nonzero;stroke:none;stroke-width:0.75196"
       id="path4926" />
    <path
       d="m 109.19725,44.3053 -0.12704,-0.0503 c -0.92565,-0.85423 -0.11361,-2.7349 -0.0789,-2.81385 0.0422,-0.0955 0.15411,-0.1377 0.24817,-0.097 0.0949,0.0422 0.1377,0.15262 0.0964,0.24815 -0.009,0.0171 -0.73919,1.71373 -0.0107,2.38674 0.0759,0.0708 0.0804,0.18949 0.0107,0.26544 l -0.13834,0.061"
       style="fill:#000000;fill-opacity:1;fill-rule:nonzero;stroke:none;stroke-width:0.75196"
       id="path4928" />
    <path
       d="m 110.71096,45.72123 c -0.0806,0 -0.15411,-0.0518 -0.17905,-0.13301 -0.0301,-0.0993 0.0256,-0.20377 0.12405,-0.23461 0.0309,-0.0107 0.75045,-0.24212 0.89859,-1.07453 0.0171,-0.10146 0.11574,-0.16775 0.21808,-0.15198 0.10231,0.0171 0.17073,0.11575 0.15198,0.21808 -0.18864,1.06476 -1.11967,1.35578 -1.15951,1.3678 l -0.0541,0.009"
       style="fill:#000000;fill-opacity:1;fill-rule:nonzero;stroke:none;stroke-width:0.75196"
       id="path4930" />
    <path
       d="m 116.04759,43.73307 -0.13535,-0.0571 c -0.0723,-0.0753 -0.0699,-0.19397 0.004,-0.26621 l 1.92577,-1.8611 c 0.0759,-0.0714 0.19482,-0.0699 0.26618,0.004 0.0723,0.0753 0.0699,0.19397 -0.004,0.26544 l -1.92654,1.86185 -0.13002,0.0526"
       style="fill:#000000;fill-opacity:1;fill-rule:nonzero;stroke:none;stroke-width:0.75196"
       id="path4932" />
    <path
       d="m 117.99594,43.25557 -1.29866,-0.17756 c -0.10231,-0.0128 -0.17457,-0.10913 -0.16007,-0.21123 0.0149,-0.10296 0.11275,-0.17287 0.21208,-0.16093 l 1.27233,0.17521 c 0.10295,0.0149 0.17457,0.10977 0.16008,0.21208 -0.0128,0.094 -0.0932,0.16243 -0.18566,0.16243"
       style="fill:#000000;fill-opacity:1;fill-rule:nonzero;stroke:none;stroke-width:0.75196"
       id="path4934" />
    <path
       d="m 112.04416,53.42356 c -1.88966,0 -3.46051,-0.62788 -3.48835,-0.63992 -0.0961,-0.039 -0.14217,-0.149 -0.10295,-0.24513 0.0399,-0.0964 0.15198,-0.14217 0.24589,-0.10231 0.0473,0.0192 4.80655,1.91747 7.54516,-1.06103 0.0708,-0.0752 0.18864,-0.0806 0.26544,-0.0107 0.0767,0.0699 0.0812,0.18949 0.0106,0.26546 -1.28884,1.4009 -2.98226,1.79342 -4.47641,1.79342"
       style="fill:#ffffff;fill-opacity:1;fill-rule:nonzero;stroke:none;stroke-width:0.75196"
       id="path4936" />
    <path
       d="m 93.878326,61.78984 -0.13834,-0.0601 c -0.0699,-0.0759 -0.0661,-0.19482 0.0107,-0.26618 0.65496,-0.60985 2.51155,-0.82942 2.5905,-0.83844 0.0946,-0.0106 0.19631,0.0616 0.20761,0.16541 0.0128,0.10295 -0.0625,0.19631 -0.16477,0.20825 -0.50231,0.058 -1.90847,0.30379 -2.37694,0.74068 l -0.12789,0.0503"
       style="fill:#000000;fill-opacity:1;fill-rule:nonzero;stroke:none;stroke-width:0.75196"
       id="path4938" />
    <path
       d="m 111.78876,40.5938 c 0.0411,-0.10594 0.12278,-0.13109 0.18182,-0.0567 0.0588,0.0742 0.0729,0.22059 0.0316,0.32653 -0.14004,0.35682 -0.50046,0.57852 -0.90091,0.59348 -0.34942,0.0128 -0.73725,-0.12554 -1.03486,-0.4642 -0.0605,-0.0686 -0.0789,-0.21364 -0.0405,-0.32323 0.0384,-0.10913 0.11873,-0.14217 0.17969,-0.0729 0.25227,0.28632 0.58666,0.40392 0.89074,0.3926 0.32199,-0.0128 0.60007,-0.16008 0.69256,-0.39552"
       style="fill:#000000;fill-opacity:1;fill-rule:nonzero;stroke:none;stroke-width:0.0272475"
       id="path6761" />
    <path
       d="m 112.09101,40.91155 c 0.0706,0.0271 0.11553,0.15155 0.1004,0.27795 -0.0149,0.12661 -0.0842,0.20782 -0.15475,0.18075 -0.0537,-0.0213 -0.10743,-0.0482 -0.16072,-0.0829 -0.0531,-0.0343 -0.10508,-0.0757 -0.15539,-0.12235 -0.0639,-0.059 -0.0893,-0.20058 -0.0563,-0.31558 0.0328,-0.1151 0.11169,-0.16029 0.17585,-0.10082 0.0409,0.0379 0.0825,0.0708 0.1247,0.0983 0.0407,0.0266 0.0825,0.0482 0.12597,0.0646"
       style="fill:#000000;fill-opacity:1;fill-rule:nonzero;stroke:none;stroke-width:0.0272475"
       id="path6763" />
    <path
       d="m 111.85746,41.25268 c 0.0633,0.0616 0.0863,0.20377 0.0522,0.31738 -0.0345,0.11361 -0.11361,0.1556 -0.17713,0.0936 -0.0492,-0.0486 -0.0963,-0.10253 -0.14089,-0.16179 -0.0456,-0.0614 -0.0887,-0.12746 -0.12938,-0.19866 -0.0518,-0.0902 -0.0531,-0.23849 -0.002,-0.33162 0.0503,-0.0925 0.13279,-0.0946 0.18437,-0.004 0.0326,0.0573 0.0676,0.1102 0.10338,0.15816 0.0356,0.0475 0.0723,0.0902 0.10999,0.12746"
       style="fill:#000000;fill-opacity:1;fill-rule:nonzero;stroke:none;stroke-width:0.0272475"
       id="path6765" />
    <path
       d="m 106.95796,40.8732 c -0.0422,-0.10444 -0.0294,-0.25092 0.0288,-0.32689 0.0582,-0.0761 0.13941,-0.0531 0.18204,0.0514 0.0989,0.2447 0.38499,0.41782 0.71572,0.44668 0.29982,0.0258 0.6285,-0.0742 0.88422,-0.35536 0.0616,-0.0676 0.14175,-0.0328 0.17926,0.0778 0.0375,0.1102 0.0192,0.25493 -0.0435,0.32213 -0.30327,0.33382 -0.68627,0.45325 -1.03243,0.4233 -0.40492,-0.0352 -0.76958,-0.28268 -0.91391,-0.63913"
       style="fill:#000000;fill-opacity:1;fill-rule:nonzero;stroke:none;stroke-width:0.0272475"
       id="path6767" />
    <path
       d="m 106.94517,41.34691 c -0.0708,0.0271 -0.13983,-0.0541 -0.15496,-0.18075 -0.0149,-0.12683 0.0301,-0.25129 0.10082,-0.27795 0.0431,-0.0171 0.0853,-0.0384 0.12576,-0.0646 0.0422,-0.0275 0.084,-0.0608 0.12512,-0.0987 0.0639,-0.059 0.1426,-0.0149 0.17542,0.10104 0.033,0.1151 0.009,0.2564 -0.0561,0.31555 -0.0501,0.0469 -0.1021,0.088 -0.1556,0.12235 -0.0533,0.0347 -0.10679,0.0625 -0.1605,0.0829"
       style="fill:#000000;fill-opacity:1;fill-rule:nonzero;stroke:none;stroke-width:0.0272475"
       id="path6769" />
    <path
       d="m 107.24742,41.64311 c -0.0635,0.0618 -0.14217,0.0192 -0.17692,-0.0936 -0.0343,-0.11361 -0.0107,-0.25601 0.0522,-0.31774 0.0375,-0.0373 0.0744,-0.0801 0.1102,-0.12747 0.0356,-0.0477 0.0701,-0.10082 0.10296,-0.15816 0.0514,-0.0902 0.13428,-0.088 0.18437,0.004 0.0503,0.0927 0.049,0.24107 -0.002,0.33128 -0.0407,0.0712 -0.084,0.1377 -0.12959,0.19866 -0.0443,0.059 -0.0914,0.11361 -0.14068,0.16221"
       style="fill:#000000;fill-opacity:1;fill-rule:nonzero;stroke:none;stroke-width:0.0272475"
       id="path6771" />
    <path
       d="m 107.61711,41.84654 c -0.48735,-0.0846 -0.95115,0.24161 -1.03541,0.72896 -0.085,0.48695 0.2412,0.95077 0.72813,1.03543 0.48776,0.0846 0.95158,-0.2412 1.03624,-0.72898 0.0846,-0.48692 -0.24161,-0.95074 -0.72896,-1.03541"
       style="fill:#f16136;fill-opacity:1;fill-rule:evenodd;stroke:none;stroke-width:0.0413011"
       id="path6749" />
    <path
       d="m 112.31593,41.72696 c -0.48692,-0.085 -0.95074,0.24121 -1.03541,0.72856 -0.0846,0.48735 0.24161,0.95077 0.72896,1.03543 0.48693,0.085 0.95075,-0.2412 1.03541,-0.72856 0.0846,-0.48694 -0.24161,-0.95074 -0.72896,-1.03543"
       style="fill:#f16136;fill-opacity:1;fill-rule:evenodd;stroke:none;stroke-width:0.0413011"
       id="path6751" />
  </g>
</svg>
