<?xml version="1.0" encoding="UTF-8" standalone="no"?>
<!-- Created with Inkscape (http://www.inkscape.org/) -->

<svg
   version="1.1"
   id="svg36832"
   width="800"
   height="600"
   viewBox="0 0 800 600"
   sodipodi:docname="teamwork-puzzle.svg"
   inkscape:version="1.3.2 (091e20e, 2023-11-25)"
   xmlns:inkscape="http://www.inkscape.org/namespaces/inkscape"
   xmlns:sodipodi="http://sodipodi.sourceforge.net/DTD/sodipodi-0.dtd"
   xmlns="http://www.w3.org/2000/svg"
   xmlns:svg="http://www.w3.org/2000/svg">
  <defs
     id="defs36836">
    <clipPath
       clipPathUnits="userSpaceOnUse"
       id="clipPath36848">
      <path
         d="M 0,399.96 H 791.051 V 0 H 0 Z"
         id="path36846" />
    </clipPath>
  </defs>
  <sodipodi:namedview
     id="namedview36834"
     pagecolor="#ffffff"
     bordercolor="#000000"
     borderopacity="0.25"
     inkscape:showpageshadow="2"
     inkscape:pageopacity="0.0"
     inkscape:pagecheckerboard="0"
     inkscape:deskcolor="#d1d1d1"
     showgrid="false"
     inkscape:zoom="0.67542492"
     inkscape:cx="552.24495"
     inkscape:cy="337.56528"
     inkscape:window-width="1424"
     inkscape:window-height="733"
     inkscape:window-x="0"
     inkscape:window-y="38"
     inkscape:window-maximized="0"
     inkscape:current-layer="layer9">
    <inkscape:page
       x="0"
       y="0"
       id="page36838"
       width="800"
       height="600"
       margin="0"
       bleed="0" />
  </sodipodi:namedview>
  <g
     inkscape:groupmode="layer"
     id="layer8"
     inkscape:label="bg"
     transform="translate(-2.5605368,26.885637)">
    <path
       d="M 282.63853,483.88634 H 673.35808 C 658.74986,366.97225 602.60237,267.10118 547.64559,262.68707 499.63983,219.71052 439.09581,222.09782 407.97696,249.65428 c -19.87322,0.62899 -36.30603,6.41124 -51.83089,-1.10169 -73.97012,-52.92227 -210.18675,38.33419 -242.35043,235.33375"
       style="fill:#b2d7bd;fill-opacity:1;fill-rule:evenodd;stroke:none;stroke-width:0.100842"
       id="path786"
       inkscape:export-filename="team-work-collaboration.png"
       inkscape:export-xdpi="96"
       inkscape:export-ydpi="96" />
    <path
       d="m 252.34987,449.23243 c -5.1646,-18.96136 21.644,-23.52938 47.48111,-8.34724 -6.06244,-31.407 46.63444,-15.27027 62.38004,1.7102 6.8831,-33.45664 70.99733,21.0785 61.31539,43.38486 H 229.8774 c -47.74632,-14.82554 -13.47059,-57.61369 22.47247,-36.74782"
       style="fill:#8fc098;fill-opacity:1;fill-rule:evenodd;stroke:none;stroke-width:0.122504"
       id="path487" />
  </g>
  <g
     inkscape:groupmode="layer"
     id="layer9"
     inkscape:label="aura">
    <path
       d="m 380.74486,195.5955 c 26.55163,0 48.07644,21.52483 48.07644,48.07678 0,26.55263 -21.52481,48.07612 -48.07644,48.07612 -26.55226,0 -48.07711,-21.52349 -48.07711,-48.07612 0,-26.55195 21.52485,-48.07678 48.07711,-48.07678"
       style="fill:#f8e7cd;fill-opacity:1;fill-rule:evenodd;stroke:none;stroke-width:0.0341886"
       id="path74468"
       inkscape:label="aura" />
    <path
       d="m 122.72287,204.78075 c 26.55163,0 48.07644,21.52483 48.07644,48.07678 0,26.55263 -21.52481,48.07612 -48.07644,48.07612 -26.552255,0 -48.077105,-21.52349 -48.077105,-48.07612 0,-26.55195 21.52485,-48.07678 48.077105,-48.07678"
       style="fill:#f8e7cd;fill-opacity:1;fill-rule:evenodd;stroke:none;stroke-width:0.0341886"
       id="path74892"
       inkscape:label="aura" />
    <path
       d="m 723.10412,194.76048 c 26.55163,0 48.07644,21.52483 48.07644,48.07678 0,26.55263 -21.52481,48.07612 -48.07644,48.07612 -26.55226,0 -48.07711,-21.52349 -48.07711,-48.07612 0,-26.55195 21.52485,-48.07678 48.07711,-48.07678"
       style="fill:#f8e7cd;fill-opacity:1;fill-rule:evenodd;stroke:none;stroke-width:0.0341886"
       id="path74894"
       inkscape:label="aura" />
  </g>
  <g
     id="g36840"
     inkscape:groupmode="layer"
     inkscape:label="Page 1"
     transform="matrix(1.3333333,0,0,-1.3333333,0,533.33333)">
    <path
       d="m 600.00002,-18.902929 c 0,-4.309354 -134.31485,-7.803277 -300.00001,-7.803277 -165.68516,0 -300.0000124999998,3.493923 -300.0000124999998,7.803277 0,4.31072 134.3148524999998,7.804644 300.0000124999998,7.804644 165.68516,0 300.00001,-3.493924 300.00001,-7.804644"
       style="fill:#ddc7c7;fill-opacity:1;fill-rule:nonzero;stroke:none;stroke-width:1.11981"
       id="path36852"
       inkscape:export-filename="team-work-collaboration.png"
       inkscape:export-xdpi="96"
       inkscape:export-ydpi="96" />
    <path
       d="m 510.58332,175.56982 c 0,0 -12.77372,-16.08188 -17.5543,-20.63436 -4.78058,-4.55385 -7.28424,-6.14647 -7.28424,-6.14647 l 10.2441,-12.45 c 0,0 20.86657,5.92383 30.38129,25.80559 9.51473,19.88039 -15.78685,13.42524 -15.78685,13.42524"
       style="fill:#f48462;fill-opacity:1;fill-rule:nonzero;stroke:none;stroke-width:1.36588"
       id="path36854" />
    <path
       d="m 534.20487,225.12534 c 0,0 -3.91599,10.44489 0.85094,11.73975 4.76556,1.29485 9.28116,-4.83795 9.28116,-4.83795 0,0 9.81385,-2.61566 12.73957,-8.8755 2.92572,-6.25983 -7.87567,-14.52887 -7.87567,-14.52887 l -14.996,16.50257"
       style="fill:#000000;fill-opacity:1;fill-rule:nonzero;stroke:none;stroke-width:1.36588"
       id="path36856" />
    <path
       d="m 497.9981,7.1635419 5.204,7.5642481 -18.08836,12.200047 -7.9303,-6.832136 12.14268,-14.1518911 8.67198,1.219732"
       style="fill:#f48462;fill-opacity:1;fill-rule:nonzero;stroke:none;stroke-width:1.36588"
       id="path36858" />
    <path
       d="M 533.18455,13.506692 532.93733,0.33277092 556.22969,0.57726392 555.23806,14.72779 533.18455,13.506692"
       style="fill:#f48462;fill-opacity:1;fill-rule:nonzero;stroke:none;stroke-width:1.36588"
       id="path36860" />
    <path
       d="m 518.06835,87.191869 2.97489,55.871351 36.42531,0.2445 c 0,0 4.46096,-14.39502 5.69982,-28.30242 1.23885,-13.9074 4.46097,-102.23072 3.96378,-103.449086 -0.49444,-1.221097 -40.88491,-2.6839561 -43.36398,-1.221097 -2.47771,1.464224 -5.69982,76.856752 -5.69982,76.856752"
       style="fill:#5c69a5;fill-opacity:1;fill-rule:nonzero;stroke:none;stroke-width:1.36588"
       id="path36862" />
    <path
       d="m 514.59901,143.55084 c 0,0 -42.8668,-111.011964 -42.37235,-113.452793 0.49581,-2.439463 33.20593,-19.76293 35.18782,-19.76293 1.98189,0 16.35369,25.132207 16.35369,25.132207 l 1.73467,107.840396 -10.90383,0.24312"
       style="fill:#5c69a5;fill-opacity:1;fill-rule:nonzero;stroke:none;stroke-width:1.36588"
       id="path36864" />
    <path
       d="m 554.48137,127.86507 c -6.31584,0 -10.17308,7.84425 -10.21543,7.93167 -0.0833,0.17483 -0.0109,0.38381 0.16528,0.46713 0.16936,0.0847 0.38517,0.0137 0.46986,-0.16391 0.0423,-0.0888 4.41726,-8.95608 11.24666,-7.33341 0.19805,0.0369 0.37972,-0.0738 0.42479,-0.26088 0.0437,-0.18986 -0.0738,-0.37972 -0.26088,-0.42479 -0.63104,-0.14752 -1.24295,-0.21581 -1.83028,-0.21581"
       style="fill:#92b4ea;fill-opacity:1;fill-rule:nonzero;stroke:none;stroke-width:1.36588"
       id="path36866" />
    <path
       d="m 558.00944,10.126137 c -0.19259,0 -0.34967,0.15571 -0.3524,0.3483 -0.004,0.441179 -0.47669,44.458056 -1.77838,70.539552 -1.30168,26.074661 -4.19462,47.363281 -4.22467,47.574991 -0.0259,0.19259 0.10791,0.37016 0.3005,0.39611 0.18985,0.0273 0.37152,-0.1079 0.3961,-0.29913 0.0301,-0.21308 2.92708,-21.53174 4.23014,-47.636461 1.30305,-26.096518 1.77564,-70.125688 1.7811,-70.566867 0,-0.195321 -0.15571,-0.353763 -0.3483,-0.356495 -10e-4,0 -0.003,0 -0.004,0"
       style="fill:#92b4ea;fill-opacity:1;fill-rule:nonzero;stroke:none;stroke-width:1.36588"
       id="path36868" />
    <path
       d="m 500.35287,14.375392 c -0.0615,0 -0.12293,0.01639 -0.17756,0.04917 -0.168,0.09834 -0.224,0.314153 -0.12566,0.48079 l 21.82404,37.173815 c 0.0984,0.168004 0.31825,0.224005 0.47943,0.124296 0.168,-0.09698 0.224,-0.312787 0.12566,-0.479425 L 500.65473,14.550225 c -0.0642,-0.112002 -0.18166,-0.174833 -0.30186,-0.174833"
       style="fill:#92b4ea;fill-opacity:1;fill-rule:nonzero;stroke:none;stroke-width:1.36588"
       id="path36870" />
    <path
       d="m 532.3418,198.58491 c 0,0 -9.26886,-0.38927 -12.94445,-7.25283 -3.67285,-6.86491 -6.45105,-47.78124 -6.45105,-47.78124 0,0 10.27552,-4.19871 25.27289,-4.01705 14.99737,0.18166 22.95363,4.01705 22.95363,4.01705 l 0.96431,27.29167 c 0,0 -1.42052,25.06937 -5.15893,26.93517 -3.73842,1.86579 -18.42983,2.28238 -24.6364,0.80723"
       style="fill:#a37b90;fill-opacity:1;fill-rule:nonzero;stroke:none;stroke-width:1.36588"
       id="path36872" />
    <path
       d="m 497.73311,169.21301 15.51914,-19.71922 c 0,0 11.84902,7.02745 14.68322,19.31355 2.83557,12.28474 -5.75992,25.98862 -5.75992,25.98862 0,0 -8.96018,-8.77988 -24.44244,-25.58295"
       style="fill:#a37b90;fill-opacity:1;fill-rule:nonzero;stroke:none;stroke-width:1.36588"
       id="path36874" />
    <path
       d="m 547.50445,207.59836 -0.95475,-9.76332 c 0,0 -2.0338,-2.63478 -7.79099,-2.54054 -4.28886,0.071 -5.68889,1.17876 -5.68889,1.17876 l 1.07631,4.88712 1.05583,4.76419 10.53504,1.25935 1.76745,0.21444"
       style="fill:#f48462;fill-opacity:1;fill-rule:nonzero;stroke:none;stroke-width:1.36588"
       id="path36876" />
    <path
       d="m 545.737,207.38392 c -0.0505,-0.26362 -0.18166,-0.56821 -0.37562,-0.91378 -2.66074,-4.66312 -8.73754,-5.13025 -11.21525,-5.10976 l 1.05583,4.76419 10.53504,1.25935"
       style="fill:#000000;fill-opacity:1;fill-rule:nonzero;stroke:none;stroke-width:1.36588"
       id="path36878" />
    <path
       d="m 535.43552,227.78335 c 0,0 -5.99621,-11.73975 -4.71229,-18.73716 1.28666,-6.99877 7.28425,-6.43466 10.92569,-5.41845 3.64143,1.01485 5.46215,3.16065 5.46215,3.16065 0,0 3.21392,-1.46695 5.67524,1.57896 2.46405,3.04865 1.3932,6.88541 -0.42752,7.90299 -1.82072,1.01485 -4.17687,-0.22674 -4.17687,-0.22674 l 2.03517,3.38738 c 0,0 -5.99759,18.62379 -14.78157,8.35237"
       style="fill:#f48462;fill-opacity:1;fill-rule:nonzero;stroke:none;stroke-width:1.36588"
       id="path36880" />
    <path
       d="m 548.07129,210.7754 c -0.11883,0 -0.23357,0.0587 -0.29913,0.168 -0.10244,0.16527 -0.0505,0.38245 0.1161,0.48352 l 4.46643,2.73313 c 0.16527,0.10108 0.38108,0.0492 0.48489,-0.11747 0.10107,-0.16527 0.0492,-0.38244 -0.1161,-0.48352 l -4.4678,-2.73312 c -0.0574,-0.0342 -0.12156,-0.0505 -0.18439,-0.0505"
       style="fill:#000000;fill-opacity:1;fill-rule:nonzero;stroke:none;stroke-width:1.36588"
       id="path36882" />
    <path
       d="m 551.87936,210.43803 c -0.041,0 -0.0833,0.007 -0.12566,0.0232 l -2.67849,1.0285 c -0.1803,0.0697 -0.27181,0.27318 -0.20215,0.45484 0.0697,0.1803 0.27181,0.26908 0.45484,0.20215 l 2.67849,-1.02987 c 0.1803,-0.0697 0.27044,-0.27318 0.20215,-0.45347 -0.0533,-0.14069 -0.18713,-0.22537 -0.32918,-0.22537"
       style="fill:#000000;fill-opacity:1;fill-rule:nonzero;stroke:none;stroke-width:1.36588"
       id="path36884" />
    <path
       d="m 542.75391,221.87181 c -0.12019,0 -0.23629,0.0615 -0.30322,0.1721 -1.03671,1.7456 -2.58152,1.10227 -2.64571,1.07495 -0.17757,-0.0751 -0.38655,0.004 -0.46304,0.18167 -0.0779,0.17756 10e-4,0.38381 0.17893,0.46166 0.0205,0.01 2.17312,0.93427 3.5349,-1.36041 0.0997,-0.16664 0.0451,-0.38245 -0.12156,-0.48079 -0.0574,-0.0342 -0.11883,-0.0492 -0.1803,-0.0492"
       style="fill:#000000;fill-opacity:1;fill-rule:nonzero;stroke:none;stroke-width:1.36588"
       id="path36886" />
    <path
       d="m 533.81149,223.25682 c -0.10927,0 -0.21854,0.0505 -0.28683,0.14751 -0.11201,0.15844 -0.0751,0.37835 0.082,0.49035 1.19378,0.84685 2.42034,0.36469 2.90659,-0.008 0.15435,-0.11883 0.18303,-0.33874 0.0642,-0.49308 -0.11883,-0.15435 -0.33737,-0.18167 -0.49172,-0.0656 -0.0423,0.0328 -1.01348,0.74577 -2.07067,-0.007 -0.0628,-0.0437 -0.13249,-0.0642 -0.20352,-0.0642"
       style="fill:#000000;fill-opacity:1;fill-rule:nonzero;stroke:none;stroke-width:1.36588"
       id="path36888" />
    <path
       d="m 534.20487,213.50853 c -0.16664,0 -0.31552,0.11746 -0.34557,0.28683 -0.76353,4.13589 2.49273,5.41982 2.52688,5.43347 0.1762,0.0697 0.38244,-0.0219 0.4521,-0.20351 0.0683,-0.18166 -0.0218,-0.38518 -0.20351,-0.45347 -0.11201,-0.0437 -2.73723,-1.10364 -2.08434,-4.6481 0.0355,-0.19122 -0.0915,-0.37561 -0.28137,-0.40976 -0.0218,-0.004 -0.0423,-0.005 -0.0642,-0.005"
       style="fill:#000000;fill-opacity:1;fill-rule:nonzero;stroke:none;stroke-width:1.36588"
       id="path36890" />
    <path
       d="m 533.41812,218.56092 c -0.041,0 -0.0806,0.007 -0.1202,0.0219 -0.18303,0.0656 -0.27591,0.26635 -0.21035,0.44938 l 0.78675,2.17994 c 0.0669,0.18303 0.26498,0.27455 0.45074,0.21171 0.18303,-0.0669 0.27591,-0.26771 0.21035,-0.45074 l -0.78675,-2.17994 c -0.0519,-0.14342 -0.18712,-0.2322 -0.33054,-0.2322"
       style="fill:#000000;fill-opacity:1;fill-rule:nonzero;stroke:none;stroke-width:1.36588"
       id="path36892" />
    <path
       d="m 539.26955,217.837 c -0.0396,0 -0.0806,0.005 -0.1202,0.0205 -0.18302,0.0656 -0.2759,0.26771 -0.21034,0.44937 l 0.78675,2.17995 c 0.0669,0.18303 0.26771,0.27727 0.45074,0.21035 0.18302,-0.0656 0.2759,-0.26635 0.21034,-0.44938 l -0.78675,-2.17858 c -0.0519,-0.14342 -0.18712,-0.2322 -0.33054,-0.2322"
       style="fill:#000000;fill-opacity:1;fill-rule:nonzero;stroke:none;stroke-width:1.36588"
       id="path36894" />
    <path
       d="m 534.20487,225.12534 c 0,0 1.18831,1.85897 3.50075,1.63769 2.31243,-0.22264 3.50348,-2.07614 3.50348,-2.07614 0,0 -1.39593,-3.99656 1.54481,-6.49886 2.93938,-2.50366 5.42801,-2.14443 5.42801,-2.14443 l 2.35888,0.62148 1.99828,3.33821 -5.89924,8.16797 -8.09284,5.62743 -4.73551,-3.71383 0.39338,-4.95952"
       style="fill:#000000;fill-opacity:1;fill-rule:nonzero;stroke:none;stroke-width:1.36588"
       id="path36896" />
    <path
       d="m 536.96531,209.63625 c -0.22674,0 -0.42889,0.0219 -0.59143,0.056 -0.19122,0.0382 -0.31278,0.22401 -0.27317,0.41387 0.0369,0.18985 0.22537,0.31142 0.41249,0.27454 0.0806,-0.015 1.89585,-0.35513 2.8424,1.3249 0.097,0.16937 0.31415,0.23084 0.47943,0.13386 0.16937,-0.0956 0.22946,-0.31006 0.13522,-0.47943 -0.77309,-1.36861 -2.08843,-1.72374 -3.00494,-1.72374"
       style="fill:#000000;fill-opacity:1;fill-rule:nonzero;stroke:none;stroke-width:1.36588"
       id="path36898" />
    <path
       d="m 513.53499,150.55508 c -0.23357,0.026 -0.37152,0.20078 -0.34967,0.39337 l 1.8617,15.97261 c 0.0218,0.19122 0.18439,0.32235 0.39064,0.30732 0.19123,-0.0219 0.33055,-0.19668 0.30733,-0.39064 l -1.86033,-15.97124 c -0.0219,-0.17893 -0.17347,-0.31142 -0.34967,-0.31142"
       style="fill:#ffffff;fill-opacity:1;fill-rule:nonzero;stroke:none;stroke-width:1.36588"
       id="path36900" />
    <path
       d="m 538.40768,194.8984 c -3.33138,0 -5.48401,1.25251 -5.51952,1.27437 -0.16528,0.0997 -0.21991,0.31415 -0.1202,0.48079 0.0983,0.168 0.31825,0.22263 0.48215,0.12156 0.0587,-0.0341 5.83095,-3.37236 13.107,1.35359 0.16663,0.1079 0.38381,0.0574 0.48762,-0.10244 0.10517,-0.16391 0.0601,-0.38108 -0.10244,-0.48626 -3.1388,-2.03653 -6.02217,-2.64161 -8.33461,-2.64161"
       style="fill:#ffffff;fill-opacity:1;fill-rule:nonzero;stroke:none;stroke-width:1.36588"
       id="path36902" />
    <path
       d="m 498.25078,-22.253434 c 1.33584,-0.490352 57.03372,0.84548 58.21385,3.045914 0.35786,0.663818 0.52176,2.86152 0.55727,5.615136 0.1202,6.4892999 -0.38381,16.1051009 -0.38381,16.1051009 0,0 0.23767,3.305432 0.0751,4.824291 -0.14342,1.502469 -26.86551,-0.472594 -26.86551,-0.472594 l -16.64736,-15.112106 c 0,0 -4.81746,0.631037 -9.98596,-0.521767 -2.73722,-0.603719 -4.3353,-4.1987169 -5.04556,-7.5478569 -0.63104,-2.968059 -0.55318,-5.697089 0.082,-5.936118"
       style="fill:#40507f;fill-opacity:1;fill-rule:nonzero;stroke:none;stroke-width:1.36588"
       id="path36904" />
    <path
       d="m 498.25078,-22.253434 c 1.33584,-0.490352 57.03372,0.84548 58.21385,3.045914 0.35786,0.663818 0.52176,2.86152 0.55727,5.615136 -10.5323,-1.3331 -36.47311,-4.167302 -58.85307,-2.724932 -0.63104,-2.968059 -0.55318,-5.697089 0.082,-5.936118"
       style="fill:#f7b369;fill-opacity:1;fill-rule:nonzero;stroke:none;stroke-width:1.36588"
       id="path36906" />
    <path
       d="m 517.19282,-4.9764071 c -0.17074,0 -0.31962,0.124295 -0.34693,0.296396 -0.03,0.192589 0.0997,0.371519 0.29093,0.402935 l 9.2115,1.472419 -3.2385,3.55265602 c -0.13113,0.143418 -0.1202,0.36605598 0.0232,0.49718098 0.14479,0.133856 0.36743,0.121563 0.49719,-0.02322 l 3.67695,-4.033446 c 0.0874,-0.09561 0.11473,-0.2322 0.0724,-0.353763 -0.0423,-0.12293 -0.14888,-0.210346 -0.27591,-0.230834 l -9.85483,-1.574861 c -0.0191,-0.0041 -0.0369,-0.0055 -0.056,-0.0055"
       style="fill:#d2f2fa;fill-opacity:1;fill-rule:nonzero;stroke:none;stroke-width:1.36588"
       id="path36908" />
    <path
       d="m 434.83977,9.7805689 c 0.93836,-1.07085 50.46929,-26.5800409 52.55772,-25.2141599 0.63241,0.41113 1.83028,2.261898 3.18114,4.660385 3.21255,5.6410879 7.37712,14.3212609 7.37712,14.3212609 0,0 1.79067,2.787763 2.378,4.200084 0.59416,1.387734 -23.8114,12.4554671 -23.8114,12.4554671 l -21.85,-5.291422 c 0,0 -3.92827,2.860154 -9.01481,4.324378 -2.69215,0.784016 -5.81865,-1.609007 -8.04504,-4.205547 -1.97643,-2.305607 -3.21528,-4.736875 -2.77273,-5.2504461"
       style="fill:#40507f;fill-opacity:1;fill-rule:nonzero;stroke:none;stroke-width:1.36588"
       id="path36910" />
    <path
       d="m 434.83977,9.7805689 c 0.93836,-1.07085 50.46929,-26.5800409 52.55772,-25.2141599 0.63241,0.41113 1.83028,2.261898 3.18114,4.660385 -9.88488,3.8763699 -34.01316,13.8158849 -52.96613,25.804221 -1.97643,-2.305607 -3.21528,-4.736875 -2.77273,-5.2504461"
       style="fill:#f7b369;fill-opacity:1;fill-rule:nonzero;stroke:none;stroke-width:1.36588"
       id="path36912" />
    <path
       d="m 469.31733,12.490477 c -0.0396,0 -0.0792,0.0068 -0.11747,0.02185 l -9.40545,3.336847 c -0.18166,0.0642 -0.27864,0.266347 -0.21308,0.448009 0.0642,0.183028 0.26635,0.282737 0.44801,0.214443 l 8.79217,-3.119672 -1.14051,4.668581 c -0.0464,0.189857 0.0697,0.381081 0.25679,0.426155 0.19669,0.04507 0.38108,-0.07103 0.42615,-0.258152 l 1.29486,-5.300983 c 0.0314,-0.127027 -0.01,-0.259518 -0.10517,-0.345568 -0.0656,-0.05873 -0.15025,-0.09151 -0.2363,-0.09151"
       style="fill:#d2f2fa;fill-opacity:1;fill-rule:nonzero;stroke:none;stroke-width:1.36588"
       id="path36914" />
    <path
       d="m 487.99438,150.47449 c 0,0 -5.24634,-0.0273 -12.07165,-2.30287 -4.97454,-1.65955 -7.85791,-6.21203 -6.34042,-6.97009 1.51886,-0.75943 8.23353,2.27556 8.23353,2.27556 0,0 -14.79795,-6.07134 -14.79795,-9.6322 10e-4,-2.05428 3.68105,-1.59808 3.68105,-1.59808 0,0 -3.77257,-3.79441 -2.34112,-5.46352 1.43007,-1.67047 5.98392,0 5.98392,0 0,0 -3.03635,-3.18797 -0.91104,-4.24926 2.12531,-1.06265 22.91538,5.15894 28.53188,16.99703 5.61514,11.83808 -9.9682,10.94343 -9.9682,10.94343"
       style="fill:#f48462;fill-opacity:1;fill-rule:nonzero;stroke:none;stroke-width:1.36588"
       id="path36920" />
    <path
       d="m 481.37533,141.09499 c -1.7374,0 -3.66876,0.31962 -5.72168,1.18149 -0.17893,0.0738 -0.26361,0.28137 -0.18849,0.4603 0.0751,0.17893 0.28274,0.26088 0.4603,0.18712 7.58337,-3.1825 13.42251,1.37681 13.47988,1.42462 0.15161,0.12156 0.37425,0.0983 0.49445,-0.0546 0.12156,-0.15162 0.097,-0.37289 -0.0546,-0.49445 -0.0451,-0.0355 -3.45158,-2.70445 -8.46982,-2.70445"
       style="fill:#000000;fill-opacity:1;fill-rule:nonzero;stroke:none;stroke-width:1.36588"
       id="path36922" />
    <path
       d="m 484.75998,131.43821 c -0.0929,0 -0.18576,0.0382 -0.25542,0.10927 l -8.04367,8.41656 c -0.13386,0.14069 -0.1284,0.36332 0.0109,0.49855 0.13932,0.13112 0.36196,0.12839 0.49855,-0.0123 l 8.04367,-8.41656 c 0.13386,-0.14069 0.1284,-0.36333 -0.0123,-0.49718 -0.0669,-0.0642 -0.15435,-0.0983 -0.24176,-0.0983"
       style="fill:#000000;fill-opacity:1;fill-rule:nonzero;stroke:none;stroke-width:1.36588"
       id="path36924" />
    <path
       d="M 528.73969,124.70538 460.21734,54.120011 c -2.16443,-2.229586 -5.72019,-2.282323 -7.94978,-0.117903 L 427.9028,77.654769 c 6.6473,-0.44139 13.43835,1.93022 18.4408,7.08327 9.04777,9.32018 8.83457,24.217451 -0.49247,33.271871 -9.31919,9.04683 -24.21622,8.81818 -33.26401,-0.502 -5.00243,-5.15305 -7.18019,-12.02026 -6.53234,-18.643691 l -24.3726,23.660251 c -2.23056,2.16539 -2.28428,5.7221 -0.11979,7.95168 l 68.52237,70.58538 c 2.16443,2.22958 5.72214,2.28234 7.9527,0.11692 l 70.58536,-68.52236 c 2.22959,-2.16443 2.28138,-5.72119 0.11692,-7.95077"
       style="fill:#81a8e2;fill-opacity:1;fill-rule:nonzero;stroke:none;stroke-width:1.36588"
       id="path38418" />
    <path
       d="m 577.38992,152.72819 c 0,0 -1.88218,-18.06923 -22.38406,-25.91622 -18.8273,-7.20638 -22.91811,-6.41008 -22.91811,-6.41008 l -3.57861,16.95742 c 0,0 22.78016,11.08002 26.49672,21.53447 3.71657,10.45309 22.38406,-6.16559 22.38406,-6.16559"
       style="fill:#f48462;fill-opacity:1;fill-rule:nonzero;stroke:none;stroke-width:1.36588"
       id="path36916" />
    <path
       d="m 556.9782,197.77768 c 0,0 18.3629,-4.30116 22.91538,-22.05761 4.55385,-17.75646 0,-26.3178 0,-26.3178 l -29.35278,7.79372 6.4374,40.58169"
       style="fill:#a37b90;fill-opacity:1;fill-rule:nonzero;stroke:none;stroke-width:1.36588"
       id="path36918" />
    <path
       d="m 521.18256,30.659424 c -0.21171,0.01093 -0.3606,0.174833 -0.35103,0.370154 l 4.31208,90.660342 -9.4396,6.23115 c -0.16254,0.10654 -0.20625,0.32508 -0.0997,0.48625 0.1079,0.16254 0.32918,0.20762 0.48625,0.10108 l 9.60624,-6.34179 c 0.10518,-0.0683 0.16527,-0.18712 0.15845,-0.31005 L 521.5336,30.994065 c -0.008,-0.188492 -0.16527,-0.334641 -0.35103,-0.334641"
       style="fill:#92b4ea;fill-opacity:1;fill-rule:nonzero;stroke:none;stroke-width:1.36588"
       id="path36926" />
    <path
       d="m 421.28079,160.47581 c -9.04967,-9.32212 -23.94298,-9.54298 -33.26608,-0.49237 -9.32116,9.04873 -9.543,23.94297 -0.49333,33.26511 9.05062,9.32312 23.94489,9.54303 33.26605,0.49431 9.32311,-9.05062 9.54399,-23.94393 0.49336,-33.26705"
       style="fill:#81a8e2;fill-opacity:1;fill-rule:nonzero;stroke:none;stroke-width:1.36588"
       id="path38420" />
    <path
       d="m 527.59264,137.68575 c 0,0 -5.24499,-0.026 -12.07029,-2.30151 -4.97318,-1.65954 -7.85792,-6.21202 -6.33906,-6.97145 1.51613,-0.75807 8.23217,2.27692 8.23217,2.27692 0,0 -14.79932,-6.06998 -14.79796,-9.63219 10e-4,-2.05429 3.68105,-1.59808 3.68105,-1.59808 0,0 -3.77119,-3.79442 -2.34248,-5.46353 1.43144,-1.6691 5.98392,0 5.98392,0 0,0 -3.03362,-3.1866 -0.90967,-4.25062 2.12531,-1.06129 22.91674,5.16167 28.53188,16.99839 5.61514,11.83809 -9.96956,10.94207 -9.96956,10.94207"
       style="fill:#f48462;fill-opacity:1;fill-rule:nonzero;stroke:none;stroke-width:1.36588"
       id="path36942" />
    <path
       d="m 522.4375,62.275635 c -9.04967,-9.32213 -23.94296,-9.543 -33.26511,-0.493333 -9.32212,9.049672 -9.543,23.942967 -0.49332,33.265097 9.05062,9.323111 23.94392,9.543991 33.26604,0.49432 9.32214,-9.04969 9.543,-23.942967 0.49239,-33.266084"
       style="fill:#81a8e2;fill-opacity:1;fill-rule:nonzero;stroke:none;stroke-width:1.36588"
       id="path38422" />
    <path
       d="m 506.29855,119.10704 c -0.13522,0 -0.26498,0.0792 -0.32234,0.21171 -0.0779,0.17757 0.004,0.38518 0.18302,0.46303 l 11.7698,5.11659 c 0.1762,0.0792 0.38518,-0.006 0.46303,-0.18302 0.0765,-0.17757 -0.004,-0.38518 -0.18303,-0.46304 l -11.76979,-5.11659 c -0.0451,-0.0191 -0.0942,-0.0287 -0.14069,-0.0287"
       style="fill:#000000;fill-opacity:1;fill-rule:nonzero;stroke:none;stroke-width:1.36588"
       id="path36944" />
    <path
       d="m 454.27662,191.6315 23.81103,-23.1151 c 0.23126,-0.2246 0.23777,-0.59632 0.0123,-0.8286 -0.22548,-0.23226 -0.5973,-0.23682 -0.82858,-0.0123 l -23.81103,23.11511 c -0.23131,0.22447 -0.23778,0.59632 -0.0123,0.82857 0.22548,0.23228 0.5973,0.23682 0.8286,0.0123"
       style="fill:#e6f2fc;fill-opacity:1;fill-rule:nonzero;stroke:none;stroke-width:1.36588"
       id="path38424" />
    <path
       d="m 509.35813,113.93991 c -0.13659,0 -0.26635,0.0792 -0.32372,0.21171 -0.0765,0.17757 0.004,0.38518 0.18303,0.46304 l 10.39435,4.51833 c 0.17757,0.0806 0.38791,-0.004 0.46304,-0.18166 0.0779,-0.17757 -0.004,-0.38654 -0.18303,-0.46303 l -10.39435,-4.5197 c -0.0451,-0.0191 -0.0929,-0.0287 -0.13932,-0.0287"
       style="fill:#000000;fill-opacity:1;fill-rule:nonzero;stroke:none;stroke-width:1.36588"
       id="path36946" />
    <path
       d="m 151.72818,190.91003 c 0,0 -4.97317,-22.79655 -20.50461,-28.95258 -12.70679,-5.03737 -25.05435,2.64435 -25.05435,2.64435 l 9.46419,24.24165 c 0,0 8.2308,-1.61311 15.59836,2.24414 6.73379,3.52397 8.51763,10.03649 8.51763,10.03649 l 11.97878,-10.21405"
       style="fill:#f48462;fill-opacity:1;fill-rule:nonzero;stroke:none;stroke-width:1.36588"
       id="path36948" />
    <path
       d="m 113.59688,189.56737 13.62057,0.99026 4.98819,-30.2447 c 0,0 -11.77662,-2.7782 -16.06822,-0.10654 -4.2916,2.67166 -6.04675,24.21843 -2.54054,29.36098"
       style="fill:#5c69a5;fill-opacity:1;fill-rule:nonzero;stroke:none;stroke-width:1.36588"
       id="path36950" />
    <path
       d="m 100.84092,210.91335 c 0,0 6.70511,6.28305 3.07323,10.76861 -3.63187,4.48282 -10.235912,-0.88919 -10.235912,-0.88919 0,0 -2.93528,2.50776 -6.61086,0.001 -3.67559,-2.50502 -3.69198,-7.91118 -3.69198,-7.91118 0,0 -3.92827,-0.2199 -3.77802,-5.00868 0.15161,-4.78878 5.62196,-8.63374 5.62196,-8.63374 l 15.621582,11.67282"
       style="fill:#000000;fill-opacity:1;fill-rule:nonzero;stroke:none;stroke-width:1.36588"
       id="path36952" />
    <path
       d="m 49.502918,169.42062 c 0,0 -4.34213,-4.66721 -7.69674,-13.83227 -4.06622,-11.11554 -2.67576,-29.04819 -2.67576,-29.04819 l 15.73632,-0.43571 c 0,0 5.98665,24.06545 10.92568,24.4438 4.94176,0.37971 -16.2895,18.87237 -16.2895,18.87237"
       style="fill:#f48462;fill-opacity:1;fill-rule:nonzero;stroke:none;stroke-width:1.36588"
       id="path36954" />
    <path
       d="m 44.021638,83.430229 12.68904,-12.495076 12.55381,20.027906 -7.17224,7.30883 -18.07061,-14.84166"
       style="fill:#f48462;fill-opacity:1;fill-rule:nonzero;stroke:none;stroke-width:1.36588"
       id="path36956" />
    <path
       d="m 50.500018,117.01861 c -1.29349,0.44118 -6.7857,-5.82412 -7.45225,-6.15603 -0.66792,-0.33191 0.9329,-5.23132 -0.54908,-5.59191 -1.49018,-0.35786 -4.19599,0.224 -6.36364,-0.32508 -2.0338,-0.50674 -24.91367,-20.775051 -28.8351105,-25.268801 -0.33055,-0.37971 -0.25952,-0.96431 0.15024,-1.29212 0.90968,-0.74168 2.6757605,-2.08434 4.7860505,-3.23987 2.29605,-1.26071 5.02234,-2.287852 7.52464,-2.100726 5.90743,0.454836 14.30077,5.932016 18.57051,6.531646 4.27794,0.59825 11.08549,-1.03671 11.98971,1.20061 0.90148,2.22911 0.67611,8.65285 5.5523,11.98287 4.8762,3.33002 7.84699,4.0471 8.10377,6.15602 0.1721,1.425981 -5.46625,9.002521 -9.53521,13.886911 -1.94365,2.34386 -3.52671,4.07579 -3.94193,4.21648"
       style="fill:#f7b369;fill-opacity:1;fill-rule:nonzero;stroke:none;stroke-width:1.36588"
       id="path36958" />
    <path
       d="m 50.500018,117.01861 c -1.29349,0.44118 -6.7857,-5.82412 -7.45225,-6.15603 -0.66792,-0.33191 0.9329,-5.23132 -0.54908,-5.59191 -1.49018,-0.35786 -4.19599,0.224 -6.36364,-0.32508 -2.0338,-0.50674 -24.91367,-20.775051 -28.8351105,-25.268801 -0.33055,-0.37971 -0.25952,-0.96431 0.15024,-1.29212 0.90968,-0.74168 2.6757605,-2.08434 4.7860505,-3.23987 l 42.20572,37.657331 c -1.94365,2.34386 -3.52671,4.07579 -3.94193,4.21648"
       style="fill:#ffffff;fill-opacity:1;fill-rule:nonzero;stroke:none;stroke-width:1.36588"
       id="path36960" />
    <path
       d="m 103.23941,13.447959 0.36879,-7.9316701 -13.407492,-5.27639798 -7.0739,0.614647 0.13522,16.38100908 19.977382,-3.787588"
       style="fill:#f48462;fill-opacity:1;fill-rule:nonzero;stroke:none;stroke-width:1.36588"
       id="path36962" />
    <path
       d="m 74.001358,131.40407 c 0,0 -2.6061,-13.45939 -3.80398,-24.89318 -1.19787,-11.433791 -3.14835,-26.784931 -3.14835,-26.784931 0,0 -9.17053,-35.217869 13.387,-38.190026 27.967772,-3.683781 26.345112,29.441562 26.345112,29.441562 l -8.822232,69.295235 -23.95755,-8.86866"
       style="fill:#a37b90;fill-opacity:1;fill-rule:nonzero;stroke:none;stroke-width:1.36588"
       id="path36964" />
    <path
       d="m 43.640558,77.693529 23.0069,20.09348 6.94824,-9.67317 2.13896,-45.380028 c 0,0 -10.072,1.294855 -32.0941,34.959718"
       style="fill:#a37b90;fill-opacity:1;fill-rule:nonzero;stroke:none;stroke-width:1.36588"
       id="path36966" />
    <path
       d="m 29.913048,117.03224 h 43.13862 l 12.32024,-27.868071 h -41.43673 c -1.03397,0 -1.97096,0.60919 -2.38892,1.55437 l -11.63321,26.313701"
       style="fill:#ffffff;fill-opacity:1;fill-rule:nonzero;stroke:none;stroke-width:1.36588"
       id="path5198" />
    <path
       d="m 119.79935,135.16843 c 0,0 8.42338,-37.467471 5.63562,-64.901193 -2.7864,-27.435083 -13.03187,-59.47455 -13.03187,-59.47455 l -34.060972,0.867334 6.47018,44.720305 8.29909,76.470204 26.687952,2.3179"
       style="fill:#a37b90;fill-opacity:1;fill-rule:nonzero;stroke:none;stroke-width:1.36588"
       id="path36968" />
    <path
       d="m 161.05168,200.50397 c 0,0 -9.36175,-13.32143 -14.09179,-11.05953 -4.72868,2.26326 -6.57945,6.39915 -6.57945,6.39915 0,0 -4.09355,14.45238 2.35751,14.65044 7.8784,0.24176 18.31373,-9.99006 18.31373,-9.99006"
       style="fill:#f48462;fill-opacity:1;fill-rule:nonzero;stroke:none;stroke-width:1.36588"
       id="path36970" />
    <path
       d="m 156.43637,210.52681 c 0,0 3.24123,6.06587 -0.53952,6.12461 -3.78076,0.0587 -12.04707,-9.25385 -9.76059,-12.43771 2.28512,-3.18251 10.30011,6.3131 10.30011,6.3131"
       style="fill:#f48462;fill-opacity:1;fill-rule:nonzero;stroke:none;stroke-width:1.36588"
       id="path36972" />
    <path
       d="m 160.65694,206.70917 c 0,0 3.24124,6.06588 -0.53952,6.12461 -3.78076,0.0587 -12.04707,-9.25384 -9.76195,-12.43634 2.28512,-3.18387 10.30147,6.31173 10.30147,6.31173"
       style="fill:#f48462;fill-opacity:1;fill-rule:nonzero;stroke:none;stroke-width:1.36588"
       id="path36974" />
    <path
       d="m 163.67554,201.86303 c 0,0 3.74115,4.80107 0.45347,5.42254 -3.28768,0.62148 -11.89955,-6.25437 -10.38616,-9.37404 1.51203,-3.1183 9.93269,3.9515 9.93269,3.9515"
       style="fill:#f48462;fill-opacity:1;fill-rule:nonzero;stroke:none;stroke-width:1.36588"
       id="path36976" />
    <path
       d="m 120.58746,152.55473 1.93819,-22.32122 -49.141672,-2.16629 c 0,0 -5.26956,48.23608 -2.66483,53.7638 5.08791,10.78636 42.877732,7.73635 42.877732,7.73635 l 6.99058,-37.01264"
       style="fill:#5c69a5;fill-opacity:1;fill-rule:nonzero;stroke:none;stroke-width:1.36588"
       id="path36978" />
    <path
       d="m 78.903508,-16.818594 c 0.64196,-1.206073 8.93286,-0.382447 9.64721,-0.594159 0.71436,-0.214443 2.89294,4.45687 4.21921,3.708367 1.3331,-0.756698 2.91206,-3.029524 4.87073,-4.109936 1.83165,-1.017581 32.386402,-1.846671 38.321162,-1.242951 0.49991,0.05054 0.84684,0.52723 0.77172,1.044899 -0.15708,1.162364 -0.52996,3.350505 -1.28256,5.635624 -0.81544,2.4886349 -2.10346,5.1029309 -4.0594,6.6750599 -4.62487,3.702903 -14.4961,5.43620602 -18.02417,7.915279 -3.53353,2.485903 -7.38805,8.3305081 -9.57619,7.312926 -2.18131,-1.010751 -6.405982,-5.856897 -12.241022,-4.958147 -5.83504,0.900115 -8.49441,2.405316 -10.12391,1.040801 -1.09817,-0.924701 -2.15809,-10.309669 -2.52278,-16.6541849 -0.18166,-3.041817 -0.20762,-5.387034 0,-5.773578"
       style="fill:#f7b369;fill-opacity:1;fill-rule:nonzero;stroke:none;stroke-width:1.36588"
       id="path36980" />
    <path
       d="m 27.306428,117.03224 h 43.13725 l 10.99534,-24.871321 c 0.62421,-1.41096 -0.4084,-2.99675 -1.95048,-2.99675 h -39.86186 l -12.32025,27.868071"
       style="fill:#68b6d8;fill-opacity:1;fill-rule:nonzero;stroke:none;stroke-width:1.36588"
       id="path5200" />
    <path
       d="m 59.185648,117.01724 c 0.0464,-1.6172 -2.03926,-5.07698 -2.03926,-5.07698 0,0 -0.23493,-5.84324 -1.9054,-6.44149 -1.66911,-0.59689 -3.81764,1.84667 -3.81764,1.84667 0,0 -3.33685,-1.9696 -4.70956,-1.85077 -1.37134,0.11883 -7.81966,-0.0492 -9.72507,3.07323 -1.9054,3.12241 2.1417,17.97226 2.1417,17.97226 l 13.92653,2.83284 c 0,0 6.08363,-10.73855 6.1287,-12.35576"
       style="fill:#f48462;fill-opacity:1;fill-rule:nonzero;stroke:none;stroke-width:1.36588"
       id="path36982" />
    <path
       d="m 50.801468,103.09889 c 0,2.02287 1.64042,3.66329 3.66329,3.66329 2.02423,0 3.66329,-1.64042 3.66329,-3.66329 0,-2.02424 -1.63906,-3.663291 -3.66329,-3.663291 -2.02287,0 -3.66329,1.639051 -3.66329,3.663291"
       style="fill:#ffffff;fill-opacity:1;fill-rule:nonzero;stroke:none;stroke-width:1.36588"
       id="path5202" />
    <path
       d="m 51.423348,106.99304 c -0.17756,0 -0.33054,0.13386 -0.3483,0.31416 l -0.43708,4.13861 c -0.0205,0.19259 0.11883,0.36606 0.31279,0.38655 0.18302,0.0191 0.36605,-0.11883 0.38518,-0.31279 l 0.43708,-4.13725 c 0.0205,-0.19396 -0.11883,-0.36742 -0.31279,-0.38655 -0.0109,-10e-4 -0.0246,-0.003 -0.0369,-0.003"
       style="fill:#000000;fill-opacity:1;fill-rule:nonzero;stroke:none;stroke-width:1.36588"
       id="path36984" />
    <path
       d="m 89.198148,197.71758 0.62284,-10.52275 c 0,0 1.89311,-2.8902 7.47957,-2.94894 4.163202,-0.0451 5.555032,1.10773 5.555032,1.10773 l -0.91104,4.64536 -0.85914,5.78997 -10.179912,1.64999 -1.70735,0.27864"
       style="fill:#f48462;fill-opacity:1;fill-rule:nonzero;stroke:none;stroke-width:1.36588"
       id="path36986" />
    <path
       d="m 90.868618,196.16867 c 0.0423,-0.25952 0.16254,-0.55728 0.33874,-0.89739 2.45176,-4.59892 8.33188,-5.22312 10.737192,-5.2723 l -0.81816,5.35972 -10.257772,0.80997"
       style="fill:#000000;fill-opacity:1;fill-rule:nonzero;stroke:none;stroke-width:1.36588"
       id="path36988" />
    <path
       d="m 101.30122,216.10097 c 0,0 5.5605,-11.08003 4.11404,-17.54747 -1.44647,-6.46745 -7.306102,-5.77495 -10.846462,-4.72732 -3.539,1.04763 -5.26547,3.09236 -5.26547,3.09236 0,0 -3.1866,-1.273 -5.51816,1.62813 -2.3302,2.90249 -1.17876,6.43876 0.6324,7.33205 1.80979,0.89328 4.08398,-0.32782 4.08398,-0.32782 l -1.9013,3.20436 c 0,0 6.3732,17.14044 14.700972,7.34571"
       style="fill:#f48462;fill-opacity:1;fill-rule:nonzero;stroke:none;stroke-width:1.36588"
       id="path36990" />
    <path
       d="m 88.478328,200.62554 c -0.0628,0 -0.12566,0.0164 -0.18439,0.0533 l -4.30253,2.6662 c -0.1639,0.10107 -0.2158,0.31825 -0.11336,0.48352 0.10107,0.1639 0.31688,0.21717 0.48488,0.11337 l 4.30253,-2.6662 c 0.1639,-0.10244 0.21581,-0.31825 0.11337,-0.48353 -0.0669,-0.1079 -0.18167,-0.16663 -0.3005,-0.16663"
       style="fill:#000000;fill-opacity:1;fill-rule:nonzero;stroke:none;stroke-width:1.36588"
       id="path36992" />
    <path
       d="m 84.739918,200.41929 c -0.14752,0 -0.28547,0.0943 -0.33464,0.24176 -0.0615,0.18439 0.0382,0.38381 0.22264,0.44391 l 2.65254,0.88099 c 0.18576,0.0615 0.38381,-0.0396 0.44391,-0.22263 0.0615,-0.1844 -0.0383,-0.38382 -0.22264,-0.44528 l -2.65118,-0.87963 c -0.0369,-0.0123 -0.0751,-0.0191 -0.11063,-0.0191"
       style="fill:#000000;fill-opacity:1;fill-rule:nonzero;stroke:none;stroke-width:1.36588"
       id="path36994" />
    <path
       d="m 93.985558,210.78906 c -0.0683,0 -0.13658,0.0191 -0.19532,0.0587 -0.16254,0.1079 -0.20488,0.32645 -0.0983,0.48762 1.12002,1.67457 2.77957,1.49837 3.49939,1.17056 0.1762,-0.0806 0.25405,-0.2882 0.17483,-0.4644 -0.0806,-0.1762 -0.29093,-0.25269 -0.4644,-0.1762 -0.0642,0.0287 -1.56393,0.67065 -2.62386,-0.9206 -0.0683,-0.10108 -0.17893,-0.15571 -0.2923,-0.15571"
       style="fill:#000000;fill-opacity:1;fill-rule:nonzero;stroke:none;stroke-width:1.36588"
       id="path36996" />
    <path
       d="m 102.78184,211.82303 c -0.0724,0 -0.14342,0.0219 -0.20488,0.0656 -1.01759,0.73075 -1.99282,0.0929 -2.03517,0.0656 -0.16117,-0.1079 -0.37835,-0.0642 -0.48762,0.0929 -0.107902,0.16118 -0.0683,0.37835 0.0915,0.48762 0.056,0.0383 1.41368,0.94792 2.83966,-0.0738 0.15845,-0.11336 0.19532,-0.33327 0.082,-0.49035 -0.0683,-0.097 -0.1762,-0.14751 -0.28547,-0.14751"
       style="fill:#000000;fill-opacity:1;fill-rule:nonzero;stroke:none;stroke-width:1.36588"
       id="path36998" />
    <path
       d="m 101.8626,202.06244 c -0.0259,0 -0.0519,0.003 -0.0779,0.008 -0.18985,0.0423 -0.30868,0.23083 -0.26634,0.42069 0.74577,3.31499 -1.607642,5.02508 -1.708722,5.0961 -0.15708,0.112 -0.19532,0.33191 -0.0847,0.49035 0.112,0.15845 0.331912,0.19669 0.488982,0.0861 0.0287,-0.0205 2.84103,-2.04062 1.99146,-5.82821 -0.0369,-0.16254 -0.18167,-0.27318 -0.34284,-0.27318"
       style="fill:#000000;fill-opacity:1;fill-rule:nonzero;stroke:none;stroke-width:1.36588"
       id="path37000" />
    <path
       d="m 103.04135,207.44948 c -0.14478,0 -0.28137,0.0901 -0.3319,0.23493 l -0.71299,2.04882 c -0.0642,0.18303 0.0328,0.38245 0.21717,0.44664 0.18303,0.0656 0.38245,-0.0328 0.44664,-0.21717 l 0.71299,-2.04746 c 0.0642,-0.18302 -0.0328,-0.38244 -0.21717,-0.44664 -0.0369,-0.0137 -0.0765,-0.0191 -0.11474,-0.0191"
       style="fill:#000000;fill-opacity:1;fill-rule:nonzero;stroke:none;stroke-width:1.36588"
       id="path37002" />
    <path
       d="m 97.290998,206.94 c -0.14615,0 -0.28274,0.0901 -0.33328,0.2363 l -0.71299,2.04746 c -0.0628,0.18303 0.0342,0.38381 0.21718,0.44801 0.18166,0.0656 0.38244,-0.0328 0.44801,-0.21718 l 0.71299,-2.04745 c 0.0642,-0.18303 -0.0342,-0.38382 -0.21718,-0.44801 -0.0382,-0.0137 -0.0779,-0.0191 -0.11473,-0.0191"
       style="fill:#000000;fill-opacity:1;fill-rule:nonzero;stroke:none;stroke-width:1.36588"
       id="path37004" />
    <path
       d="m 102.43627,213.59594 c 0,0 -1.11456,1.76199 -3.384652,1.6213 -2.27146,-0.14068 -3.4871,-1.83028 -3.4871,-1.83028 0,0 1.25935,-3.7548 -1.68823,-5.99621 -2.9462,-2.24278 -5.37474,-1.83985 -5.37474,-1.83985 l -2.29331,0.6447 -1.86579,3.15792 5.99621,7.42492 8.07782,5.00186 4.537462,-3.58544 -0.51767,-4.59892"
       style="fill:#000000;fill-opacity:1;fill-rule:nonzero;stroke:none;stroke-width:1.36588"
       id="path37006" />
    <path
       d="m 99.421768,199.25283 c -0.89875,0 -2.25234,0.34556 -3.00357,1.69506 -0.0942,0.16936 -0.0328,0.38381 0.13659,0.47805 0.16937,0.0942 0.38381,0.0341 0.47942,-0.13658 0.87963,-1.58443 2.67576,-1.31671 2.74815,-1.30715 0.19396,0.026 0.372892,-0.0983 0.402942,-0.29094 0.0314,-0.19122 -0.0983,-0.37151 -0.289572,-0.40293 -0.13386,-0.0232 -0.29503,-0.0355 -0.47396,-0.0355"
       style="fill:#000000;fill-opacity:1;fill-rule:nonzero;stroke:none;stroke-width:1.36588"
       id="path37008" />
    <path
       d="m 101.94455,189.99898 c 0,0 2.11985,-1.92042 3.58817,-5.65611 0.83319,-2.11985 0.92197,-5.33786 0.46713,-5.37747 -0.4562,-0.0383 -4.28886,4.98 -6.493392,5.13025 -2.2059,0.14888 -3.53081,-6.32403 -4.44322,-6.61906 -0.91377,-0.29503 -4.72867,1.91223 -6.29671,5.41572 -1.56803,3.50621 0.92471,6.50842 0.92471,6.50842 0,0 11.551252,-8.15021 12.253312,0.59825"
       style="fill:#ffffff;fill-opacity:1;fill-rule:nonzero;stroke:none;stroke-width:1.36588"
       id="path37010" />
    <path
       d="m 57.145028,111.58787 c -0.17757,0 -0.33055,0.13658 -0.3483,0.31688 l -0.74577,7.63527 c -0.0191,0.19396 0.12156,0.36606 0.31551,0.38518 0.18303,0.0123 0.36606,-0.12156 0.38382,-0.31552 l 0.74577,-7.63527 c 0.0191,-0.19259 -0.12293,-0.36469 -0.31552,-0.38381 -0.0123,-10e-4 -0.0232,-0.003 -0.0355,-0.003"
       style="fill:#000000;fill-opacity:1;fill-rule:nonzero;stroke:none;stroke-width:1.36588"
       id="path37012" />
    <path
       d="m 79.466248,187.55952 c 0,0 -11.84765,-3.08552 -20.11259,-8.54632 -8.26632,-5.46215 -13.2832,-11.07729 -13.2832,-11.07729 l 21.3296,-20.80782 7.59976,4.54428 4.46643,35.88715"
       style="fill:#5c69a5;fill-opacity:1;fill-rule:nonzero;stroke:none;stroke-width:1.36588"
       id="path37014" />
    <path
       d="m 120.58746,152.20233 c -0.16527,0 -0.31279,0.11883 -0.34557,0.28683 l -2.22912,11.80668 c -0.0355,0.19122 0.0888,0.37425 0.28001,0.41113 0.18849,0.0355 0.37425,-0.0902 0.41113,-0.28001 l 2.22912,-11.80667 c 0.0355,-0.19122 -0.0888,-0.37425 -0.28001,-0.41113 -0.0219,-0.004 -0.0437,-0.007 -0.0656,-0.007"
       style="fill:#f7b369;fill-opacity:1;fill-rule:nonzero;stroke:none;stroke-width:1.36588"
       id="path37016" />
    <path
       d="m 73.730918,156.96789 c -0.39747,-0.23084 -1.12959,-3.11558 -1.64862,-6.07954 1.03943,1.4451 2.59108,4.04164 1.82345,5.79543 -0.10381,0.2363 -0.17483,0.28411 -0.17483,0.28411 z m -2.21546,-7.73225 c -0.0505,0 -0.10108,0.0109 -0.14752,0.0341 -0.14205,0.0656 -0.224,0.21581 -0.19941,0.37016 0.43844,2.92708 1.35085,7.85791 2.53097,8.01635 0.35513,0.0437 0.63104,-0.18712 0.85095,-0.68977 1.28529,-2.94074 -2.60474,-7.42083 -2.77138,-7.61069 -0.0683,-0.0765 -0.16527,-0.12019 -0.26361,-0.12019"
       style="fill:#f7b369;fill-opacity:1;fill-rule:nonzero;stroke:none;stroke-width:1.36588"
       id="path37018" />
    <path
       d="m 82.356458,41.087924 c -1.21154,0 -1.93956,0.09561 -1.96961,0.09971 -0.19258,0.02732 -0.32644,0.204882 -0.29912,0.397472 0.0273,0.192589 0.20488,0.331909 0.39747,0.299127 0.12976,-0.01912 13.10016,-1.696424 21.761212,9.875319 12.01839,16.05593 3.48163,61.883968 3.39422,62.345628 -0.0178,0.097 0.005,0.19806 0.0656,0.27728 0.0601,0.0806 0.15025,0.12976 0.24995,0.13795 l 12.31615,1.07085 c 0.19532,-0.006 0.36469,-0.12702 0.38108,-0.32098 0.0178,-0.19259 -0.12566,-0.36332 -0.31961,-0.38108 l -11.93101,-1.0367 c 0.87689,-4.77922 8.15977,-46.812839 -3.59227,-62.513639 C 95.940138,42.160142 86.424048,41.087925 82.356458,41.087925"
       style="fill:#ffffff;fill-opacity:1;fill-rule:nonzero;stroke:none;stroke-width:1.36588"
       id="path37020" />
    <path
       d="m 69.798548,93.274139 c 1.41095,-3.75071 4.22467,-10.25504 6.21202,-10.86559 0.25406,-0.0806 0.4726,-0.0437 0.68021,0.11201 0.22537,0.168 0.33874,0.39473 0.3565,0.71299 0.12566,2.24004 -4.48965,7.30609 -7.24873,10.04059 z m 6.46061,-11.60863 c -0.14888,0 -0.30186,0.0219 -0.45484,0.071 -3.02542,0.93017 -6.7693,11.52394 -7.18589,12.73001 -0.0533,0.15162 0.004,0.32099 0.14068,0.40977 0.13386,0.0874 0.31279,0.0724 0.43162,-0.0382 0.35649,-0.33464 8.74983,-8.21851 8.55861,-11.64414 -0.0301,-0.52859 -0.24449,-0.94382 -0.63787,-1.23612 -0.25951,-0.19532 -0.54908,-0.2923 -0.85231,-0.2923"
       style="fill:#ffffff;fill-opacity:1;fill-rule:nonzero;stroke:none;stroke-width:1.36588"
       id="path37022" />
    <path
       d="m 76.104818,116.22093 c -0.12839,0 -0.25406,0.071 -0.31552,0.19532 -0.0861,0.17347 -0.0137,0.38518 0.15981,0.47123 4.80107,2.378 7.98494,8.49715 8.01772,8.55861 0.0874,0.1721 0.30186,0.2363 0.47259,0.15298 0.17347,-0.0902 0.24176,-0.30186 0.15298,-0.47396 -0.13385,-0.25952 -3.32045,-6.38549 -8.33051,-8.8673 -0.0505,-0.0259 -0.1038,-0.0369 -0.15707,-0.0369"
       style="fill:#ffffff;fill-opacity:1;fill-rule:nonzero;stroke:none;stroke-width:1.36588"
       id="path37024" />
    <path
       d="m 78.903508,-16.818594 c 0.64196,-1.206073 8.93286,-0.382447 9.64721,-0.594159 0.71436,-0.214443 2.89294,4.45687 4.21921,3.708367 1.3331,-0.756698 2.91206,-3.029524 4.87073,-4.109936 1.83165,-1.017581 32.386402,-1.846671 38.321162,-1.242951 0.49991,0.05054 0.84684,0.52723 0.77172,1.044899 -0.15708,1.162364 -0.52996,3.350505 -1.28256,5.635624 l -56.547472,1.331734 c -0.18166,-3.041817 -0.20762,-5.387034 0,-5.773578"
       style="fill:#ffffff;fill-opacity:1;fill-rule:nonzero;stroke:none;stroke-width:1.36588"
       id="path37026" />
    <path
       d="m 139.34237,209.31937 c -0.77309,-1.99692 0.49035,-4.20145 2.60473,-4.53199 4.02252,-0.62831 10.24001,-1.83848 10.40392,1.0408 0.14342,2.54054 -6.26939,4.60711 -8.77988,5.45396 -1.71282,0.57777 -3.57588,-0.27727 -4.22877,-1.96277"
       style="fill:#f48462;fill-opacity:1;fill-rule:nonzero;stroke:none;stroke-width:1.36588"
       id="path37038" />
    <path
       d="m 147.9843,194.06794 c -0.0396,0 -0.0792,0.007 -0.11883,0.0205 -0.18167,0.0642 -0.27728,0.26635 -0.21308,0.44938 1.65272,4.63853 -0.48489,9.01481 -0.50674,9.05852 -0.0546,0.10654 -0.0492,0.23493 0.0123,0.33737 0.0615,0.10381 0.17074,0.168 0.29093,0.17074 3.29314,0.0997 3.96106,0.79494 4.06623,1.20061 0.27864,1.08041 -2.20999,3.02679 -3.84495,3.99929 -0.16664,0.0997 -0.22128,0.31552 -0.12157,0.48216 0.10108,0.16664 0.31552,0.21991 0.48216,0.12156 0.47942,-0.28547 4.66585,-2.84239 4.16457,-4.77921 -0.26088,-1.00802 -1.63769,-1.56803 -4.20418,-1.70599 0.53542,-1.31261 1.76745,-5.07015 0.32371,-9.11999 -0.0505,-0.14478 -0.18576,-0.23493 -0.33054,-0.23493"
       style="fill:#000000;fill-opacity:1;fill-rule:nonzero;stroke:none;stroke-width:1.36588"
       id="path37040" />
    <path
       d="m 326.74259,235.3872 c 0,0 5.00049,10.38343 5.76402,17.60484 0.76489,7.22142 -0.62148,9.86986 -1.6855,10.1485 -1.06539,0.27864 -2.5583,-4.1195 -2.5583,-4.1195 0,0 0.52723,6.80755 -1.81662,7.37712 -2.34112,0.56958 -3.4748,-5.34605 -3.4748,-5.34605 0,0 -0.63377,4.95405 -2.60746,4.2192 -1.97234,-0.73484 -6.91819,-14.3595 -6.91819,-14.3595 l 2.52961,-10.80958 10.76724,-4.71503"
       style="fill:#f48462;fill-opacity:1;fill-rule:nonzero;stroke:none;stroke-width:1.36588"
       id="path37046" />
    <path
       d="m 309.11316,249.77539 c 0,0 -0.39064,-15.8169 4.71912,-16.40696 5.1084,-0.59006 11.15379,0 11.15379,0 0,0 6.87721,10.77407 4.55248,15.13943 -7.18727,13.49627 -20.42539,1.26753 -20.42539,1.26753"
       style="fill:#f48462;fill-opacity:1;fill-rule:nonzero;stroke:none;stroke-width:1.36588"
       id="path37048" />
    <path
       d="m 317.04893,240.17462 c -0.041,0 -0.0806,0.007 -0.11883,0.0205 -0.18303,0.0669 -0.27727,0.26771 -0.21308,0.45074 1.28666,3.56495 5.34743,5.00458 5.51953,5.06332 0.17893,0.0642 0.38381,-0.0328 0.44801,-0.21581 0.0628,-0.1844 -0.0341,-0.38518 -0.21854,-0.44801 -0.0383,-0.0137 -3.91735,-1.3932 -5.08654,-4.63853 -0.0519,-0.14342 -0.18713,-0.2322 -0.33055,-0.2322"
       style="fill:#000000;fill-opacity:1;fill-rule:nonzero;stroke:none;stroke-width:1.36588"
       id="path37050" />
    <path
       d="m 290.15474,223.69936 c 0,0 5.53318,14.32399 14.73239,6.27349 9.19921,-8.04913 -6.73926,-17.7223 -11.51574,-15.23367 -4.77512,2.48864 -3.21665,8.96018 -3.21665,8.96018"
       style="fill:#000000;fill-opacity:1;fill-rule:nonzero;stroke:none;stroke-width:1.36588"
       id="path37052" />
    <path
       d="m 243.48122,139.72638 c 0,0 -8.85637,-7.37713 -15.67484,-9.87259 -6.81848,-2.49683 -9.72508,-1.79613 -10.25367,-0.83182 -0.5286,0.96431 3.37372,3.483 3.37372,3.483 0,0 -6.47564,-2.16766 -7.59703,-0.0342 -1.12275,2.13487 4.33941,4.67267 4.33941,4.67267 0,0 -4.95952,-0.59006 -4.72595,1.50247 0.23357,2.09117 8.79627,5.17669 8.79627,5.17669 0,0 -6.55896,0.41659 -6.40052,2.0379 0.15845,1.61993 10.26187,5.12205 13.4471,4.95404 3.1866,-0.16663 7.50415,-1.79067 7.50415,-1.79067 l 7.19136,-9.29755"
       style="fill:#f48462;fill-opacity:1;fill-rule:nonzero;stroke:none;stroke-width:1.36588"
       id="path37054" />
    <path
       d="m 228.24034,125.00039 5.78012,9.21355 c 0.61522,0.98049 0.31767,2.27691 -0.66361,2.89063 l -19.03614,11.9416 c -0.98052,0.61521 -2.27615,0.31913 -2.89213,-0.66284 l -5.7779,-9.21284 c -0.61519,-0.9805 -0.31912,-2.27614 0.66215,-2.88988 l 19.03765,-11.94236 c 0.98196,-0.61599 2.27466,-0.31834 2.88986,0.66214"
       style="fill:#ffffff;fill-opacity:1;fill-rule:nonzero;stroke:none;stroke-width:1.67094"
       id="path5258" />
    <path
       d="m 230.05325,141.66593 c -5.14664,0 -7.21049,2.434 -7.31839,2.56512 -0.12293,0.15161 -0.10108,0.37152 0.0478,0.49445 0.15024,0.1202 0.37288,0.10244 0.49581,-0.0464 0.0314,-0.0396 3.24533,-3.76846 11.71789,-1.64452 0.1844,0.0464 0.38108,-0.0669 0.42752,-0.25542 0.0464,-0.18849 -0.0683,-0.37835 -0.25678,-0.42752 -1.96551,-0.49172 -3.66193,-0.68567 -5.11386,-0.68567"
       style="fill:#000000;fill-opacity:1;fill-rule:nonzero;stroke:none;stroke-width:1.36588"
       id="path37056" />
    <path
       d="m 227.36306,123.59911 5.77787,9.21286 c 0.61599,0.98196 0.31914,2.27612 -0.66136,2.89134 l -19.0384,11.9409 c -0.98197,0.61598 -2.27465,0.31835 -2.88987,-0.66214 l -5.77936,-9.21208 c -0.61597,-0.98196 -0.31766,-2.27691 0.66138,-2.89132 l 19.03839,-11.94091 c 0.98051,-0.6152 2.27613,-0.31914 2.89135,0.66135"
       style="fill:#000000;fill-opacity:1;fill-rule:nonzero;stroke:none;stroke-width:1.67094"
       id="path5260" />
    <path
       d="m 229.7992,151.12602 c 0,0 12.65625,8.55587 18.90652,17.55293 9.43823,13.58505 18.26865,22.24064 18.26865,22.24064 l 20.60159,-25.11445 -22.09859,-23.45217 -22.27205,-10.60061 -13.40612,19.37366"
       style="fill:#68b6d8;fill-opacity:1;fill-rule:nonzero;stroke:none;stroke-width:1.36588"
       id="path37058" />
    <path
       d="m 275.9728,227.33261 c 0,0 5.8528,2.42853 11.85858,0 6.00577,-2.42854 6.84306,-8.62008 6.84306,-8.62008 0,0 2.69625,-2.71537 0,-6.64774 -2.69762,-3.93237 -7.78689,-6.06178 -7.78689,-6.06178 l -10.91475,21.3296"
       style="fill:#000000;fill-opacity:1;fill-rule:nonzero;stroke:none;stroke-width:1.36588"
       id="path37060" />
    <path
       d="M 291.80336,15.009161 290.61641,3.5221029 h -23.8155 V 16.926858 l 25.00245,-1.917697"
       style="fill:#f48462;fill-opacity:1;fill-rule:nonzero;stroke:none;stroke-width:1.36588"
       id="path37062" />
    <path
       d="m 362.84555,94.665969 11.75067,1.48334 5.41162,-22.59986 -13.39656,-3.044549 -3.76573,24.161069"
       style="fill:#f48462;fill-opacity:1;fill-rule:nonzero;stroke:none;stroke-width:1.36588"
       id="path37064" />
    <path
       d="m 366.07449,97.756959 c 0,0 -28.36251,-3.12924 -39.47532,10.985781 -13.14387,16.69789 -22.95499,37.77207 -22.95499,37.77207 l -43.58389,-2.35752 c 0,0 -4.33668,-45.878571 -3.74115,-76.646401 0.59416,-30.767832 3.64553,-56.126776 4.71638,-57.26592 1.07086,-1.1405111 34.79855,-0.4261551 36.79001,0 1.99145,0.423423 -1.27984,35.362655 -1.55574,45.533004 -0.27728,10.167617 0,25.290646 0,25.290646 0,0 10.37933,-14.862146 29.50985,-18.250896 19.12916,-3.390117 43.72458,0 45.36364,1.043533 1.63905,1.040801 -5.06879,33.895703 -5.06879,33.895703"
       style="fill:#f7b369;fill-opacity:1;fill-rule:nonzero;stroke:none;stroke-width:1.36588"
       id="path37066" />
    <path
       d="m 255.72088,-5.5569071 c -0.0355,0 -0.0724,0.0055 -0.1079,0.01776 -0.45894,0.147515 -11.27398,3.66056 -12.44454,7.14902 -0.21171,0.628305 -0.12157,1.226561 0.26225,1.774279 0.43025,0.611915 1.02577,0.942458 1.77291,0.9848 2.33702,0.121564 5.76675,-2.744054 7.93577,-4.83931598 -1.43691,2.64161398 -3.29997,6.67779198 -2.61157,8.80446798 0.20625,0.635135 0.61602,1.076315 1.217,1.311246 0.61738,0.243127 1.23339,0.196687 1.83575,-0.13249 2.97762,-1.643155 4.66448,-10.23181398 4.73551,-10.595138 0.0355,-0.191224 -0.0888,-0.375617 -0.27864,-0.412496 -0.19942,-0.03415 -0.37699,0.08878 -0.4125,0.278639 -0.0164,0.08742 -1.69233,8.62827 -4.38448,10.111616 -0.41249,0.225371 -0.81679,0.258152 -1.23885,0.09698 -0.40157,-0.158442 -0.66519,-0.443911 -0.80451,-0.87553 -0.95475,-2.944839 3.96925,-10.664797 4.01979,-10.742653 0.0984,-0.152978 0.0628,-0.359226 -0.0833,-0.469863 -0.14478,-0.110636 -0.35239,-0.09015 -0.47532,0.04644 -0.0601,0.06829 -6.00715,6.718768 -9.2839,6.718768 -0.0437,0 -0.0861,-0.0014 -0.13112,-0.0041 -0.52723,-0.02868 -0.9329,-0.254054 -1.23612,-0.687038 -0.25406,-0.359227 -0.31006,-0.733478 -0.1721,-1.144609 0.87962,-2.61839298 8.95608,-5.727138 11.9938,-6.703743 0.18439,-0.0601 0.28683,-0.256785 0.22673,-0.442545 -0.0478,-0.147515 -0.18439,-0.244493 -0.33464,-0.244493"
       style="fill:#f7b369;fill-opacity:1;fill-rule:nonzero;stroke:none;stroke-width:1.36588"
       id="path37068" />
    <path
       d="m 232.45583,-18.960296 c 0.75534,-0.290932 23.89063,-0.902847 39.90285,-1.017581 1.06402,0.770357 1.29212,6.404615 4.16457,6.404615 2.82464,0 3.60319,-1.94638 4.53336,-4.377648 0.47259,-1.23339 1.63222,-2.087066 2.98171,-2.024235 3.35734,0.154344 7.14219,0.6365 7.38259,1.014849 0.39747,0.611915 0.67884,2.693517 0.86187,5.307813 0.46303,6.1601229 0.46303,15.3224519 0.46303,15.3224519 0,0 0.41387,3.129233 0.33055,4.581164 -0.0656,1.436907 -27.16464,0.886457 -27.16464,0.886457 l -17.61303,-13.533148 c 0,0 -4.83386,0.838651 -10.11572,0 -2.79596,-0.43435 -4.60165,-3.7739279 -5.49494,-6.9181859 -0.79494,-2.791861 -0.8605,-5.389766 -0.2322,-5.646552"
       style="fill:#a37b90;fill-opacity:1;fill-rule:nonzero;stroke:none;stroke-width:1.36588"
       id="path37070" />
    <path
       d="m 387.44507,50.893583 c -0.21855,0 -0.44255,0.03688 -0.67065,0.110636 -0.73348,0.2322 -1.23066,0.708892 -1.48062,1.417785 -0.76079,2.159457 1.09134,6.141 2.54054,8.749832 -2.17721,-2.069309 -5.59328,-4.922634 -7.8784,-4.922634 -0.0273,0 -0.0546,0.0014 -0.0806,0.0014 -0.66791,0.02049 -1.2047,0.278639 -1.60081,0.768991 -0.40567,0.501278 -0.53952,1.081777 -0.39884,1.723741 0.71436,3.260358 8.77169,7.284243 9.11453,7.453612 0.17483,0.08878 0.38381,0.01366 0.46986,-0.159808 0.0874,-0.173467 0.015,-0.385179 -0.15844,-0.469863 -2.24961,-1.115925 -8.20621,-4.541554 -8.73891,-6.975554 -0.0942,-0.42752 -0.01,-0.79904 0.25815,-1.129583 0.26635,-0.327811 0.61602,-0.493083 1.07495,-0.508108 3.25899,-0.0014 9.42321,6.713305 9.48604,6.782964 0.12293,0.133857 0.33055,0.151613 0.47533,0.03961 0.14615,-0.113368 0.17893,-0.31825 0.0779,-0.472595 -0.0505,-0.07512 -5.03327,-7.657128 -3.97745,-10.648407 0.17483,-0.495814 0.51221,-0.816796 1.03124,-0.982068 0.44528,-0.143418 0.84958,-0.08059 1.23339,0.188491 2.30697,1.625399 3.09099,9.984589 3.19889,13.068748 0.005,0.193955 0.18576,0.383813 0.36196,0.338739 0.19532,-0.0068 0.34694,-0.169369 0.34011,-0.363325 -0.0164,-0.467131 -0.43435,-11.461106 -3.49529,-13.617831 -0.37289,-0.26225 -0.76899,-0.39474 -1.18285,-0.39474"
       style="fill:#f7b369;fill-opacity:1;fill-rule:nonzero;stroke:none;stroke-width:1.36588"
       id="path37072" />
    <path
       d="m 411.85472,47.022677 c 0.0738,0.788113 -5.82138,22.595766 -10.20449,37.604062 -1.0572,0.77719 -6.67233,-0.59142 -7.47957,2.09526 -0.79221,2.64298 0.90695,3.91599 3.04045,5.47036 1.08178,0.78675 1.59672,2.11165 1.1569,3.35597 -1.09543,3.09508 -2.63341,6.501591 -3.07323,6.620421 -0.71572,0.19942 -2.84376,-0.12156 -5.46898,-0.68567 -6.19974,-1.29759 -15.22411,-3.869541 -15.22411,-3.869541 0,0 -3.19753,-0.49308 -4.60575,-0.97661 -1.39457,-0.46576 6.75701,-25.655337 6.75701,-25.655337 l 18.27412,-12.671276 c 0,0 0.53269,-4.755997 2.8424,-9.460091 1.21427,-2.494098 5.00868,-3.243967 8.35919,-3.194795 2.97079,0.03961 5.54684,0.707526 5.62606,1.367247"
       style="fill:#a37b90;fill-opacity:1;fill-rule:nonzero;stroke:none;stroke-width:1.36588"
       id="path37074" />
    <path
       d="m 296.26979,80.716229 c -0.0697,0 -0.14069,0.0219 -0.20079,0.0628 -0.26361,0.18439 -6.52891,4.65219 -11.67008,18.45441 -3.13197,8.409731 -5.70939,18.821841 -6.12188,20.516901 l -12.44864,1.58852 c -0.19395,0.0246 -0.33054,0.20078 -0.30596,0.39337 0.0259,0.19123 0.20215,0.32645 0.39338,0.30459 l 12.6904,-1.61857 c 0.14614,-0.0191 0.26361,-0.12566 0.29912,-0.26771 0.026,-0.11473 2.76455,-11.57584 6.1533,-20.671241 5.06468,-13.59871 11.34773,-18.0788 11.41057,-18.12114 0.1598,-0.11064 0.20078,-0.33054 0.0901,-0.48899 -0.0697,-0.0983 -0.17893,-0.15297 -0.28956,-0.15297"
       style="fill:#ffffff;fill-opacity:1;fill-rule:nonzero;stroke:none;stroke-width:1.36588"
       id="path37076" />
    <path
       d="m 309.51473,127.94975 c -0.0888,0.001 -8.19938,0.28274 -9.60077,8.30046 -0.0341,0.18986 0.0942,0.37289 0.28683,0.40703 0.1844,0.0259 0.37152,-0.097 0.40703,-0.28683 1.30305,-7.45498 8.83862,-7.71586 8.91511,-7.71723 0.19395,-0.005 0.3483,-0.16664 0.3442,-0.36059 -0.005,-0.19122 -0.16117,-0.34284 -0.3524,-0.34284"
       style="fill:#ffffff;fill-opacity:1;fill-rule:nonzero;stroke:none;stroke-width:1.36588"
       id="path37078" />
    <path
       d="m 286.88755,203.16744 -0.24039,-9.37404 c 0,0 -1.80433,-2.65391 -7.44405,-2.96123 -4.20282,-0.22947 -5.47582,1.89994 -5.47582,1.89994 l 1.22656,8.1789 10.21952,1.93135 1.71418,0.32508"
       style="fill:#f48462;fill-opacity:1;fill-rule:nonzero;stroke:none;stroke-width:1.36588"
       id="path37080" />
    <path
       d="m 286.88755,203.73975 c -0.03,-0.25542 -0.13795,-0.55592 -0.30322,-0.89739 -2.27283,-4.6317 -9.89854,-6.39505 -12.32571,-6.54667 l 0.69523,4.61532 11.9337,2.82874"
       style="fill:#000000;fill-opacity:1;fill-rule:nonzero;stroke:none;stroke-width:1.36588"
       id="path37082" />
    <path
       d="m 273.3585,222.33348 c 0,0 -4.95541,-12.77235 -3.52943,-18.20992 1.73193,-6.60404 7.96854,-5.60421 11.65096,-4.37082 3.68378,1.23476 5.40889,3.41197 5.40889,3.41197 0,0 3.4188,-1.1651 5.74216,1.92179 2.32473,3.08553 0.94656,6.66687 -1.00256,7.50279 -1.94911,0.83592 -4.29159,-0.5204 -4.29159,-0.5204 l 1.85896,3.37782 c 0,0 -7.50961,17.3221 -15.83739,6.88677"
       style="fill:#f48462;fill-opacity:1;fill-rule:nonzero;stroke:none;stroke-width:1.36588"
       id="path37084" />
    <path
       d="m 287.33693,212.06889 c 0,0 -5.15484,-1.01349 -8.73618,4.5757 -3.57997,5.58918 -3.25216,7.88523 -3.25216,7.88523 l -3.56631,-5.77085 c 0,0 -0.79768,4.00203 0.84411,6.55213 1.64179,2.5501 3.34641,2.02151 3.34641,2.02151 l 11.36549,-2.76728 2.99265,-8.87686 -2.99401,-3.61958"
       style="fill:#000000;fill-opacity:1;fill-rule:nonzero;stroke:none;stroke-width:1.36588"
       id="path37086" />
    <path
       d="m 273.7669,207.50821 c -0.14888,0 -0.2882,0.0956 -0.33601,0.24586 -0.78265,2.4941 1.02715,5.02371 1.105,5.13025 0.11337,0.15707 0.33328,0.19122 0.49035,0.0778 0.15708,-0.11473 0.19259,-0.33464 0.0779,-0.49171 -0.0164,-0.0232 -1.6773,-2.35205 -1.00119,-4.50468 0.0574,-0.18576 -0.0451,-0.38381 -0.23084,-0.44118 -0.0341,-0.0109 -0.0697,-0.0164 -0.10517,-0.0164"
       style="fill:#000000;fill-opacity:1;fill-rule:nonzero;stroke:none;stroke-width:1.36588"
       id="path37088" />
    <path
       d="m 287.83138,206.60946 c -0.0874,0 -0.17757,0.0328 -0.24586,0.0997 -0.13796,0.13522 -0.14069,0.35786 -0.007,0.49718 l 3.26582,3.35324 c 0.13522,0.14068 0.35786,0.14342 0.49718,0.007 0.13932,-0.13522 0.14205,-0.35786 0.007,-0.49718 l -3.26446,-3.35324 c -0.0697,-0.071 -0.16117,-0.10654 -0.25268,-0.10654"
       style="fill:#000000;fill-opacity:1;fill-rule:nonzero;stroke:none;stroke-width:1.36588"
       id="path37090" />
    <path
       d="m 291.28022,207.50138 c -0.0519,0.004 -2.30287,0.34284 -2.30287,0.34284 -0.19259,0.0287 -0.32371,0.20761 -0.2964,0.39883 0.0301,0.19259 0.20489,0.32508 0.40021,0.29504 l 2.25097,-0.33874 c 0.19259,-0.0287 0.32508,-0.20625 0.29639,-0.39884 -0.0259,-0.17483 -0.17619,-0.29913 -0.3483,-0.29913"
       style="fill:#000000;fill-opacity:1;fill-rule:nonzero;stroke:none;stroke-width:1.36588"
       id="path37092" />
    <path
       d="m 284.22682,194.66757 c 0,0 18.33421,31.83595 21.3091,48.57482 l 24.82489,-7.45635 c -4.57297,-36.39799 -22.92222,-57.90105 -22.92222,-57.90105 0,0 -0.31688,-33.7277 -0.79494,-34.34781 -0.47669,-0.61874 -13.45529,-3.43245 -28.03197,-2.64707 -14.57668,0.78675 -17.75509,2.80142 -18.55139,3.26718 -0.79495,0.4644 6.91408,46.7623 6.91408,46.7623 0,0 5.805,3.59909 17.25245,3.74798"
       style="fill:#68b6d8;fill-opacity:1;fill-rule:nonzero;stroke:none;stroke-width:1.36588"
       id="path37096" />
    <path
       d="m 271.45993,217.07484 c -0.16937,0 -0.31825,0.1202 -0.34694,0.2923 -0.0328,0.19122 0.0956,0.37288 0.2882,0.40567 l 2.12805,0.35922 c 0.20215,0.0328 0.37425,-0.097 0.40566,-0.2882 0.0328,-0.19122 -0.0956,-0.37152 -0.2882,-0.4043 l -2.12804,-0.36059 c -0.0205,-0.004 -0.041,-0.004 -0.0587,-0.004"
       style="fill:#000000;fill-opacity:1;fill-rule:nonzero;stroke:none;stroke-width:1.36588"
       id="path37100" />
    <path
       d="m 280.3081,215.71169 c -0.0519,0 -0.10517,0.0123 -0.15571,0.0369 l -3.49255,1.72238 c -0.17347,0.0861 -0.2445,0.29639 -0.15845,0.46986 0.0847,0.17483 0.29503,0.24586 0.47123,0.15981 l 3.49119,-1.72101 c 0.17347,-0.0861 0.24586,-0.29777 0.15981,-0.47123 -0.0601,-0.1243 -0.18576,-0.19669 -0.31552,-0.19669"
       style="fill:#000000;fill-opacity:1;fill-rule:nonzero;stroke:none;stroke-width:1.36588"
       id="path37102" />
    <path
       d="m 259.99609,146.06133 c -0.22537,0.0205 -0.36742,0.19123 -0.35103,0.38518 l 1.95184,21.43886 c 0.0191,0.19259 0.19942,0.31142 0.38245,0.31825 0.19395,-0.0177 0.336,-0.18849 0.31961,-0.38244 l -1.95184,-21.43887 c -0.0178,-0.18302 -0.17073,-0.32098 -0.35103,-0.32098"
       style="fill:#a37b90;fill-opacity:1;fill-rule:nonzero;stroke:none;stroke-width:1.36588"
       id="path37104" />
    <path
       d="m 284.22682,194.66757 c 0,0 -7.63528,-5.98666 -9.75649,-1.54345 -2.14307,4.48828 9.75649,1.54345 9.75649,1.54345"
       style="fill:#f48462;fill-opacity:1;fill-rule:nonzero;stroke:none;stroke-width:1.36588"
       id="path37106" />
    <path
       d="m 276.47817,204.38308 c -0.18849,0 -0.38927,0.026 -0.60098,0.0861 -0.18713,0.0533 -0.29503,0.24722 -0.24313,0.43435 0.0533,0.18712 0.25132,0.29503 0.43572,0.24176 1.2047,-0.34284 1.76198,0.93836 1.7852,0.99299 0.0751,0.17893 0.2841,0.25952 0.45894,0.18849 0.17893,-0.0751 0.26498,-0.28 0.19122,-0.45893 -0.23493,-0.56684 -0.92607,-1.48471 -2.02697,-1.48471"
       style="fill:#000000;fill-opacity:1;fill-rule:nonzero;stroke:none;stroke-width:1.36588"
       id="path37108" />
    <path
       d="m 277.84405,191.15862 c -0.0697,0 -0.13932,10e-4 -0.21034,0.004 -1.33447,0.0546 -2.49,0.63787 -3.42973,1.73194 -0.12566,0.14888 -0.10927,0.37016 0.0383,0.49718 0.14751,0.12566 0.36878,0.10791 0.49581,-0.0382 0.80724,-0.93973 1.79204,-1.44101 2.92435,-1.48881 3.07597,-0.14069 6.28579,3.01996 6.31857,3.05411 0.13658,0.13385 0.35922,0.13249 0.49718,-0.004 0.13659,-0.13795 0.13522,-0.36059 -0.004,-0.49718 -0.13795,-0.13522 -3.33548,-3.25899 -6.62999,-3.25899"
       style="fill:#a37b90;fill-opacity:1;fill-rule:nonzero;stroke:none;stroke-width:1.36588"
       id="path37110" />
    <path
       d="m 229.7992,134.03339 c -0.097,0 -0.19396,0.0396 -0.26362,0.11883 l -6.79116,7.63664 c -0.12976,0.14615 -0.1161,0.36742 0.0287,0.49718 0.14479,0.12702 0.36743,0.11746 0.49582,-0.0301 l 6.79252,-7.63801 c 0.12976,-0.14478 0.1161,-0.36605 -0.0287,-0.49581 -0.0669,-0.0601 -0.15025,-0.0888 -0.23356,-0.0888"
       style="fill:#000000;fill-opacity:1;fill-rule:nonzero;stroke:none;stroke-width:1.36588"
       id="path37112" />
    <path
       d="m 171.70555,331.60532 c -3.36007,4.92946 -7.05477,6.74062 -7.09029,6.75837 l 0.58597,1.23339 c 0.1639,-0.0792 4.04983,-1.9655 7.63254,-7.22141 l -1.12822,-0.77035"
       style="fill:#ffffff;fill-opacity:1;fill-rule:nonzero;stroke:none;stroke-width:1.36588"
       id="path37370" />
    <path
       d="m 178.67974,309.99571 -1.36588,0.0191 c 0.0492,3.56631 -0.24996,6.9455 -0.88782,10.04332 l 1.33856,0.27591 c 0.65699,-3.1948 0.96568,-6.67233 0.91514,-10.33836"
       style="fill:#ffffff;fill-opacity:1;fill-rule:nonzero;stroke:none;stroke-width:1.36588"
       id="path37372" />
    <path
       d="m 398.53727,334.45618 -31.80726,-92.12593 c -1.00119,-2.89976 -4.17415,-4.45277 -7.08483,-3.44885 l -92.12456,31.80727 c -2.91069,1.00529 -4.44868,4.18506 -3.44749,7.08482 l 31.80727,92.12593 c 1.00392,2.9107 4.17275,4.45278 7.08346,3.44749 l 33.55969,-11.58677 c -7.1258,-1.9778 -13.18348,-7.31976 -15.77729,-14.83483 -4.20281,-12.1741 2.25234,-25.43953 14.41551,-29.63825 12.17546,-4.20282 25.43953,2.25234 29.64371,14.42643 2.59381,7.51508 1.12412,15.45631 -3.26309,21.40882 l 33.54602,-11.58267 c 2.91069,-1.00392 4.45277,-4.17413 3.44885,-7.08346"
       style="fill:#ad7b98;fill-opacity:1;fill-rule:nonzero;stroke:none;stroke-width:1.36588"
       id="path38406" />
    <path
       d="m 287.51437,322.59214 c -4.20282,-12.16727 -17.47098,-18.62515 -29.63825,-14.42507 -12.16727,4.20145 -18.62515,17.46962 -14.4237,29.63825 4.20008,12.1659 17.46961,18.62379 29.63688,14.4237 12.1659,-4.20008 18.62515,-17.46961 14.42507,-29.63688"
       style="fill:#ad7b98;fill-opacity:1;fill-rule:nonzero;stroke:none;stroke-width:1.36588"
       id="path38408" />
    <path
       d="m 308.26495,259.28192 c 3.84359,-0.11746 9.20058,-9.97776 8.41246,-12.01019 -0.78674,-2.03106 -7.22278,-4.70136 -7.22278,-4.70136 0,0 -5.03463,16.82765 -1.18968,16.71155"
       style="fill:#f48462;fill-opacity:1;fill-rule:nonzero;stroke:none;stroke-width:1.36588"
       id="path37124" />
    <path
       d="m 179.13342,253.20322 c -4.41726,-12.1017 1.81115,-25.4928 13.91286,-29.91142 5.7285,-2.09117 11.73291,-1.80706 16.94785,0.36332 l -10.32196,-28.2751 c -1.0572,-2.89567 -4.25609,-4.38311 -7.15176,-3.32728 l -91.65743,33.45998 c -2.895672,1.05856 -4.383112,4.25745 -3.327292,7.15312 l 33.461352,91.65743 c 1.05583,2.8943 4.25609,4.38311 7.15176,3.32592 l 91.65743,-33.45998 c 2.8943,-1.05719 4.38311,-4.25609 3.32592,-7.15175 l -11.35867,-31.11887 c -2.58697,5.03191 -6.9974,9.11726 -12.72454,11.20842 -12.10171,4.41726 -25.4928,-1.81116 -29.91552,-13.92379"
       style="fill:#ffb655;fill-opacity:1;fill-rule:nonzero;stroke:none;stroke-width:1.36588"
       id="path38390" />
    <path
       d="m 211.10186,319.32005 c -4.41999,-12.1058 -17.81519,-18.33695 -29.92099,-13.91833 -12.1058,4.42 -18.33695,17.81519 -13.91696,29.92099 4.41999,12.1058 17.81519,18.33559 29.92099,13.91696 12.10443,-4.41862 18.33558,-17.81518 13.91696,-29.91962"
       style="fill:#ffb655;fill-opacity:1;fill-rule:nonzero;stroke:none;stroke-width:1.36588"
       id="path38392" />
    <path
       d="m 127.32829,286.97736 c -0.0669,0 -0.13523,0.0123 -0.20079,0.0369 -0.30186,0.112 -0.45484,0.44527 -0.34283,0.74577 l 11.53896,31.18579 c 0.112,0.29913 0.44391,0.45211 0.74577,0.34284 0.30049,-0.11201 0.45484,-0.44528 0.34283,-0.74578 l -11.54032,-31.18579 c -0.0861,-0.23356 -0.30733,-0.37971 -0.54362,-0.37971"
       style="fill:#ffffff;fill-opacity:1;fill-rule:nonzero;stroke:none;stroke-width:1.36588"
       id="path38394" />
    <path
       d="m 279.94179,212.64518 c -0.14887,0 -0.29295,0.0825 -0.36415,0.22494 -0.17151,0.35442 -0.39649,0.56482 -0.68458,0.6425 -0.63438,0.17486 -1.37397,-0.31234 -1.38207,-0.3172 -0.18608,-0.12308 -0.43697,-0.0713 -0.55998,0.11499 -0.12306,0.18609 -0.0728,0.43536 0.11323,0.55996 0.0404,0.0276 1.05194,0.69105 2.03591,0.42402 0.5211,-0.13921 0.92733,-0.49845 1.20568,-1.0665 0.0971,-0.20069 0.0138,-0.44344 -0.18607,-0.54216 -0.0583,-0.0276 -0.11815,-0.0406 -0.17801,-0.0406"
       style="fill:#000000;fill-opacity:1;fill-rule:nonzero;stroke:none;stroke-width:1.61837"
       id="path54190" />
    <path
       d="m 273.49579,213.18246 c -0.16836,0 -0.32691,0.10515 -0.38354,0.27351 -0.12307,0.35767 -0.43374,0.90305 -0.71533,0.94351 -0.18451,0.0276 -0.42401,-0.17308 -0.68133,-0.53566 -0.12938,-0.18451 -0.38193,-0.22821 -0.56482,-0.097 -0.18136,0.12779 -0.22495,0.38193 -0.0955,0.56319 0.46125,0.6506 0.95809,0.94027 1.45817,0.87069 0.88201,-0.12957 1.31895,-1.34649 1.36429,-1.48404 0.0729,-0.2104 -0.0404,-0.44022 -0.25249,-0.51141 -0.0437,-0.0157 -0.0874,-0.0226 -0.12955,-0.0226"
       style="fill:#000000;fill-opacity:1;fill-rule:nonzero;stroke:none;stroke-width:1.61837"
       id="path54192" />
  </g>
</svg>
