<?xml version="1.0" encoding="UTF-8" standalone="no"?>
<!-- Created with Inkscape (http://www.inkscape.org/) -->

<svg
   width="1200"
   height="1000"
   viewBox="0 0 1200 1000"
   version="1.1"
   id="svg55524"
   inkscape:version="1.2.1 (9c6d41e, 2022-07-14)"
   sodipodi:docname="energy.svg"
   xmlns:inkscape="http://www.inkscape.org/namespaces/inkscape"
   xmlns:sodipodi="http://sodipodi.sourceforge.net/DTD/sodipodi-0.dtd"
   xmlns="http://www.w3.org/2000/svg"
   xmlns:svg="http://www.w3.org/2000/svg">
  <sodipodi:namedview
     id="namedview55526"
     pagecolor="#ffffff"
     bordercolor="#000000"
     borderopacity="0.25"
     inkscape:showpageshadow="2"
     inkscape:pageopacity="0.0"
     inkscape:pagecheckerboard="0"
     inkscape:deskcolor="#d1d1d1"
     inkscape:document-units="mm"
     showgrid="false"
     inkscape:zoom="0.94574306"
     inkscape:cx="624.37677"
     inkscape:cy="464.18527"
     inkscape:window-width="1440"
     inkscape:window-height="872"
     inkscape:window-x="0"
     inkscape:window-y="0"
     inkscape:window-maximized="1"
     inkscape:current-layer="layer3" />
  <defs
     id="defs55521">
    <clipPath
       clipPathUnits="userSpaceOnUse"
       id="clipPath70186">
      <g
         id="g70202">
        <path
           d="m 691.17079,810.87862 h -0.53633 L 653.26565,627.22431 h 0.53633 l 37.36881,183.65431"
           style="fill:#c0d8fb;fill-opacity:1;fill-rule:nonzero;stroke:none;stroke-width:0.470461"
           id="path70188" />
        <path
           d="m 750.82068,810.86921 h -0.53632 L 712.91555,627.2149 h 0.53633 l 37.3688,183.65431"
           style="fill:#c0d8fb;fill-opacity:1;fill-rule:nonzero;stroke:none;stroke-width:0.470461"
           id="path70190" />
        <path
           d="m 810.47057,810.85981 h -0.5316 L 772.56546,627.20549 h 0.53632 l 37.36879,183.65432"
           style="fill:#c0d8fb;fill-opacity:1;fill-rule:nonzero;stroke:none;stroke-width:0.470461"
           id="path70192" />
        <path
           d="m 870.12519,810.8504 h -0.53633 L 832.21534,627.19608 h 0.53633 l 37.37352,183.65432"
           style="fill:#c0d8fb;fill-opacity:1;fill-rule:nonzero;stroke:none;stroke-width:0.470461"
           id="path70194" />
        <path
           d="m 888.80725,670.39862 -279.92029,0.0376 -0.1035,-0.50339 279.92499,-0.0376 0.0988,0.50339"
           style="fill:#c0d8fb;fill-opacity:1;fill-rule:nonzero;stroke:none;stroke-width:0.470461"
           id="path70196" />
        <path
           d="m 898.77164,719.35491 -279.9203,0.0423 -0.1035,-0.5034 279.92028,-0.0376 0.10352,0.49868"
           style="fill:#c0d8fb;fill-opacity:1;fill-rule:nonzero;stroke:none;stroke-width:0.470461"
           id="path70198" />
        <path
           d="m 908.73603,768.31591 -279.925,0.0376 -0.1035,-0.50339 279.92497,-0.0376 0.10353,0.50339"
           style="fill:#c0d8fb;fill-opacity:1;fill-rule:nonzero;stroke:none;stroke-width:0.470461"
           id="path70200" />
      </g>
    </clipPath>
  </defs>
  <g
     inkscape:groupmode="layer"
     id="layer6"
     inkscape:label="sky"
     transform="translate(48.235765,7.9371844)">
    <path
       d="m 549.22681,209.30101 c 94.43732,0 170.99573,76.55841 170.99573,170.99702 0,94.44098 -76.55841,170.99459 -170.99573,170.99459 -94.43977,0 -170.99831,-76.55361 -170.99831,-170.99459 0,-94.43861 76.55854,-170.99702 170.99831,-170.99702"
       style="fill:#ebb763;fill-opacity:1;fill-rule:evenodd;stroke:none;stroke-width:0.121601"
       id="path407"
       inkscape:export-filename="garden-solar.png"
       inkscape:export-xdpi="96"
       inkscape:export-ydpi="96" />
    <path
       d="m 390.61714,250.81304 c 12.01172,0 22.57151,6.22106 28.63455,15.6147 1.72063,-0.50593 3.53972,-0.77741 5.42344,-0.77741 10.61688,0 19.22256,8.60557 19.22256,19.22135 0,2.72746 -0.56878,5.31995 -1.59296,7.66931 H 333.88205 c -0.81471,-2.40768 -1.25613,-4.98686 -1.25613,-7.66931 0,-13.21678 10.71542,-23.93352 23.93337,-23.93352 2.96096,0 5.79549,0.53896 8.41353,1.52368 6.24299,-7.13911 15.41654,-11.64922 25.64432,-11.64922"
       style="fill:#ffffff;fill-opacity:1;fill-rule:evenodd;stroke:none;stroke-width:0.121601"
       id="path409" />
    <path
       d="m 650.80445,216.0291 c 8.06461,0 15.15269,4.17464 19.22385,10.48082 1.15517,-0.33903 2.37479,-0.52203 3.63953,-0.52203 7.12577,0 12.90422,5.77723 12.90422,12.90308 0,1.83126 -0.38189,3.5726 -1.0701,5.14972 H 612.7217 c -0.54943,-1.61605 -0.8451,-3.34885 -0.8451,-5.14972 0,-8.87203 7.19263,-16.06583 16.06704,-16.06583 1.9869,0 3.88879,0.36246 5.64707,1.02263 4.1916,-4.79229 10.34948,-7.81897 17.21374,-7.81897"
       style="fill:#ffffff;fill-opacity:1;fill-rule:evenodd;stroke:none;stroke-width:0.121601"
       id="path413" />
    <path
       d="m 704.01079,292.23613 c 16.08654,0 30.22617,8.32966 38.34671,20.90808 2.3043,-0.67514 4.74119,-1.03975 7.26319,-1.03975 14.21628,0 25.74282,11.52533 25.74282,25.74161 0,3.65284 -0.76214,7.12585 -2.13408,10.27162 H 628.03242 c -1.09202,-3.2248 -1.68302,-6.6796 -1.68302,-10.27162 0,-17.70138 14.35007,-32.05021 32.05031,-32.05021 3.96654,0 7.76172,0.72103 11.26746,2.03917 8.36122,-9.56016 20.64532,-15.5989 34.34362,-15.5989"
       style="fill:#ffffff;fill-opacity:1;fill-rule:evenodd;stroke:none;stroke-width:0.121601"
       id="path417" />
  </g>
  <g
     inkscape:groupmode="layer"
     id="layer2"
     inkscape:label="solar"
     transform="matrix(-1,0,0,1,1587.6607,0.96767637)">
    <g
       id="g62847"
       transform="translate(8.989355,-224.73387)"
       inkscape:label="panel">
      <path
         d="m 737.65245,900.7369 20.09345,-0.24935 46.92387,-195.52878 -20.09341,0.24935 -46.92391,195.52878"
         style="fill:#8cb4f4;fill-opacity:1;fill-rule:nonzero;stroke:none;stroke-width:0.470461"
         id="path58351" />
      <path
         d="m 704.46134,905.08867 h 90.09821 c 0,-5.27388 -4.27181,-9.54568 -9.54566,-9.54568 h -71.00687 c -5.27388,0 -9.54568,4.2718 -9.54568,9.54568"
         style="fill:#8cb4f4;fill-opacity:1;fill-rule:nonzero;stroke:none;stroke-width:0.470461"
         id="path58353" />
      <path
         d="m 912.59381,814.55764 -8.6565,-43.38602 -0.0141,-0.0894 -28.8017,-144.38484 -279.92029,0.0376 37.47231,187.86495 53.16693,-0.009 h 0.50339 l 59.50407,-0.009 h 0.17875 l 59.24532,-0.009 h 0.40461 l 59.11825,-0.005 h 0.53163 l 47.26734,-0.009"
         style="fill:#39476b;fill-opacity:1;fill-rule:nonzero;stroke:none;stroke-width:0.470461"
         id="path58355" />
      <path
         d="m 917.38783,810.84569 -279.9203,0.0376 -37.47231,-184.1483 279.9203,-0.0376 37.47231,184.1483"
         style="fill:#6876aa;fill-opacity:1;fill-rule:nonzero;stroke:none;stroke-width:0.470461"
         id="path58357" />
      <path
         d="m 898.98788,800.72468 -256.22963,0.0344 -34.30089,-168.56316 256.22963,-0.0344 34.30089,168.56316"
         style="fill:#c0d8fb;fill-opacity:1;fill-rule:nonzero;stroke:none;stroke-width:0.430644"
         id="path58357-9"
         clip-path="url(#clipPath70186)" />
      <path
         d="m 663.37588,675.59253 -6.86404,-5.41032 4.66228,-5.41502 6.86404,5.41031 -4.66228,5.41503"
         style="fill:#c0d8fb;fill-opacity:1;fill-rule:nonzero;stroke:none;stroke-width:0.470461"
         id="path58373" />
      <path
         d="m 673.38732,724.80287 -6.86405,-5.41502 4.66229,-5.41032 6.86404,5.41032 -4.66228,5.41502"
         style="fill:#c0d8fb;fill-opacity:1;fill-rule:nonzero;stroke:none;stroke-width:0.470461"
         id="path58375" />
      <path
         d="m 723.29394,675.58312 -6.86404,-5.41032 4.66228,-5.41502 6.86405,5.41031 -4.66229,5.41503"
         style="fill:#c0d8fb;fill-opacity:1;fill-rule:nonzero;stroke:none;stroke-width:0.470461"
         id="path58377" />
      <path
         d="m 733.30538,724.79346 -6.86404,-5.41032 4.66227,-5.41502 6.86405,5.41032 -4.66228,5.41502"
         style="fill:#c0d8fb;fill-opacity:1;fill-rule:nonzero;stroke:none;stroke-width:0.470461"
         id="path58379" />
      <path
         d="m 782.94384,675.5737 -6.86403,-5.41031 4.66227,-5.41502 6.86403,5.41032 -4.66227,5.41501"
         style="fill:#c0d8fb;fill-opacity:1;fill-rule:nonzero;stroke:none;stroke-width:0.470461"
         id="path58381" />
      <path
         d="m 842.0574,675.569 -6.86403,-5.41502 4.66227,-5.41502 6.86407,5.41502 -4.66231,5.41502"
         style="fill:#c0d8fb;fill-opacity:1;fill-rule:nonzero;stroke:none;stroke-width:0.470461"
         id="path58383" />
      <path
         d="m 683.29996,773.50982 -6.86405,-5.41503 4.66228,-5.41031 6.86405,5.41031 -4.66228,5.41503"
         style="fill:#c0d8fb;fill-opacity:1;fill-rule:nonzero;stroke:none;stroke-width:0.470461"
         id="path58385" />
      <path
         d="m 743.218,773.5004 -6.86403,-5.41031 4.66227,-5.41502 6.86407,5.41031 -4.66231,5.41502"
         style="fill:#c0d8fb;fill-opacity:1;fill-rule:nonzero;stroke:none;stroke-width:0.470461"
         id="path58387" />
      <path
         d="m 802.86793,773.49099 -6.86407,-5.41031 4.6623,-5.41502 6.86403,5.41032 -4.66226,5.41501"
         style="fill:#c0d8fb;fill-opacity:1;fill-rule:nonzero;stroke:none;stroke-width:0.470461"
         id="path58389" />
      <path
         d="m 861.98149,773.48629 -6.86403,-5.41502 4.66226,-5.41502 6.86403,5.41502 -4.66226,5.41502"
         style="fill:#c0d8fb;fill-opacity:1;fill-rule:nonzero;stroke:none;stroke-width:0.470461"
         id="path58391" />
      <path
         d="m 852.07355,724.77934 -6.86403,-5.41502 4.66227,-5.41502 6.86403,5.41502 -4.66227,5.41502"
         style="fill:#c0d8fb;fill-opacity:1;fill-rule:nonzero;stroke:none;stroke-width:0.470461"
         id="path58393" />
      <path
         d="m 792.95999,724.78405 -6.86406,-5.41032 4.65757,-5.41502 6.86407,5.41502 -4.65758,5.41032"
         style="fill:#c0d8fb;fill-opacity:1;fill-rule:nonzero;stroke:none;stroke-width:0.470461"
         id="path58395" />
    </g>
    <g
       id="g72865"
       transform="matrix(-0.61764465,0,0,0.61764465,1677.3192,124.23466)"
       inkscape:label="panel">
      <path
         d="m 737.65245,900.7369 20.09345,-0.24935 46.92387,-195.52878 -20.09341,0.24935 -46.92391,195.52878"
         style="fill:#8cb4f4;fill-opacity:1;fill-rule:nonzero;stroke:none;stroke-width:0.470461"
         id="path72831" />
      <path
         d="m 704.46134,905.08867 h 90.09821 c 0,-5.27388 -4.27181,-9.54568 -9.54566,-9.54568 h -71.00687 c -5.27388,0 -9.54568,4.2718 -9.54568,9.54568"
         style="fill:#8cb4f4;fill-opacity:1;fill-rule:nonzero;stroke:none;stroke-width:0.470461"
         id="path72833" />
      <path
         d="m 912.59381,814.55764 -8.6565,-43.38602 -0.0141,-0.0894 -28.8017,-144.38484 -279.92029,0.0376 37.47231,187.86495 53.16693,-0.009 h 0.50339 l 59.50407,-0.009 h 0.17875 l 59.24532,-0.009 h 0.40461 l 59.11825,-0.005 h 0.53163 l 47.26734,-0.009"
         style="fill:#39476b;fill-opacity:1;fill-rule:nonzero;stroke:none;stroke-width:0.470461"
         id="path72835" />
      <path
         d="m 917.38783,810.84569 -279.9203,0.0376 -37.47231,-184.1483 279.9203,-0.0376 37.47231,184.1483"
         style="fill:#6876aa;fill-opacity:1;fill-rule:nonzero;stroke:none;stroke-width:0.470461"
         id="path72837" />
      <path
         d="m 898.98788,800.72468 -256.22963,0.0344 -34.30089,-168.56316 256.22963,-0.0344 34.30089,168.56316"
         style="fill:#c0d8fb;fill-opacity:1;fill-rule:nonzero;stroke:none;stroke-width:0.430644"
         id="path72839"
         clip-path="url(#clipPath70186)" />
      <path
         d="m 663.37588,675.59253 -6.86404,-5.41032 4.66228,-5.41502 6.86404,5.41031 -4.66228,5.41503"
         style="fill:#c0d8fb;fill-opacity:1;fill-rule:nonzero;stroke:none;stroke-width:0.470461"
         id="path72841" />
      <path
         d="m 673.38732,724.80287 -6.86405,-5.41502 4.66229,-5.41032 6.86404,5.41032 -4.66228,5.41502"
         style="fill:#c0d8fb;fill-opacity:1;fill-rule:nonzero;stroke:none;stroke-width:0.470461"
         id="path72843" />
      <path
         d="m 723.29394,675.58312 -6.86404,-5.41032 4.66228,-5.41502 6.86405,5.41031 -4.66229,5.41503"
         style="fill:#c0d8fb;fill-opacity:1;fill-rule:nonzero;stroke:none;stroke-width:0.470461"
         id="path72845" />
      <path
         d="m 733.30538,724.79346 -6.86404,-5.41032 4.66227,-5.41502 6.86405,5.41032 -4.66228,5.41502"
         style="fill:#c0d8fb;fill-opacity:1;fill-rule:nonzero;stroke:none;stroke-width:0.470461"
         id="path72847" />
      <path
         d="m 782.94384,675.5737 -6.86403,-5.41031 4.66227,-5.41502 6.86403,5.41032 -4.66227,5.41501"
         style="fill:#c0d8fb;fill-opacity:1;fill-rule:nonzero;stroke:none;stroke-width:0.470461"
         id="path72849" />
      <path
         d="m 842.0574,675.569 -6.86403,-5.41502 4.66227,-5.41502 6.86407,5.41502 -4.66231,5.41502"
         style="fill:#c0d8fb;fill-opacity:1;fill-rule:nonzero;stroke:none;stroke-width:0.470461"
         id="path72851" />
      <path
         d="m 683.29996,773.50982 -6.86405,-5.41503 4.66228,-5.41031 6.86405,5.41031 -4.66228,5.41503"
         style="fill:#c0d8fb;fill-opacity:1;fill-rule:nonzero;stroke:none;stroke-width:0.470461"
         id="path72853" />
      <path
         d="m 743.218,773.5004 -6.86403,-5.41031 4.66227,-5.41502 6.86407,5.41031 -4.66231,5.41502"
         style="fill:#c0d8fb;fill-opacity:1;fill-rule:nonzero;stroke:none;stroke-width:0.470461"
         id="path72855" />
      <path
         d="m 802.86793,773.49099 -6.86407,-5.41031 4.6623,-5.41502 6.86403,5.41032 -4.66226,5.41501"
         style="fill:#c0d8fb;fill-opacity:1;fill-rule:nonzero;stroke:none;stroke-width:0.470461"
         id="path72857" />
      <path
         d="m 861.98149,773.48629 -6.86403,-5.41502 4.66226,-5.41502 6.86403,5.41502 -4.66226,5.41502"
         style="fill:#c0d8fb;fill-opacity:1;fill-rule:nonzero;stroke:none;stroke-width:0.470461"
         id="path72859" />
      <path
         d="m 852.07355,724.77934 -6.86403,-5.41502 4.66227,-5.41502 6.86403,5.41502 -4.66227,5.41502"
         style="fill:#c0d8fb;fill-opacity:1;fill-rule:nonzero;stroke:none;stroke-width:0.470461"
         id="path72861" />
      <path
         d="m 792.95999,724.78405 -6.86406,-5.41032 4.65757,-5.41502 6.86407,5.41502 -4.65758,5.41032"
         style="fill:#c0d8fb;fill-opacity:1;fill-rule:nonzero;stroke:none;stroke-width:0.470461"
         id="path72863" />
    </g>
  </g>
  <g
     id="g72961"
     transform="matrix(0.78867288,0,0,0.78867288,128.71228,144.94256)">
    <path
       d="m 815.06374,585.98572 c 0,0 13.09733,-17.41733 5.764,-34.34133 -7.33334,-16.92266 -19.24934,-16.2 -19.24934,-16.2 0.52667,-16.436 -0.212,-33.64933 -14.32666,-38.46533 -25.09467,-8.564 -29.22,26.308 -29.22,26.308 l -35.59067,97.764 c 0,0 6.36934,31.628 28.99067,44.932 22.62133,13.30533 61.38666,12.93733 74.41733,-15.024 8.55733,-18.36134 -1.13467,-45.60934 -10.78533,-64.97334"
       style="fill:#76935f;fill-opacity:1;fill-rule:nonzero;stroke:none;stroke-width:1.33333"
       id="path54756" />
    <path
       d="m 776.59441,613.82572 c -2.40534,-17.53866 -9.28134,-20.964 -12.164,-30.656 -2.88267,-9.69199 9.41466,-14.02799 9.75866,-37.17733 0.34267,-23.148 -14.43866,-31.51066 -22.75733,-41.73066 -8.31867,-10.22134 3.16133,-57.01867 -24.40267,-56.816 -22.384,0.164 -18.84533,34.37733 -19.18933,43.39733 -0.344,9.01867 -12.032,19.128 -12.032,19.128 0,0 -28.39467,11.42667 -27.764,33.46667 0.63067,22.04 4.70267,33.90799 0,40.41866 -4.70267,6.51067 -15.468,27.93733 -2.73067,48.068 14.916,23.572 56.00667,5.63067 70.888,9.74267 27.33067,7.552 42.8,-10.30267 40.39334,-27.84134"
       style="fill:#97b783;fill-opacity:1;fill-rule:nonzero;stroke:none;stroke-width:1.33333"
       id="path54758" />
    <path
       d="m 728.95707,682.89639 c 0.28534,0 0.516,-0.23067 0.516,-0.516 l 0.04,-173.024 c 0,-0.28533 -0.23066,-0.51466 -0.516,-0.51466 -0.284,0 -0.516,0.22933 -0.516,0.51466 l -0.04,173.024 c 0,0.28533 0.23067,0.516 0.516,0.516"
       style="fill:#5e7c4a;fill-opacity:1;fill-rule:nonzero;stroke:none;stroke-width:1.33333"
       id="path54760" />
    <path
       d="m 780.00774,695.80306 c 0.284,0 0.51466,-0.23067 0.51466,-0.51467 l 0.0307,-134.02133 c 0,-0.28533 -0.22933,-0.516 -0.51467,-0.516 -0.28533,0 -0.516,0.23067 -0.516,0.516 l -0.0307,134.02133 c 0,0.284 0.23066,0.51467 0.516,0.51467"
       style="fill:#5e7c4a;fill-opacity:1;fill-rule:nonzero;stroke:none;stroke-width:1.33333"
       id="path54762" />
    <path
       d="m 728.99707,608.15772 c 0.10267,0 0.20534,-0.0307 0.296,-0.092 0.232,-0.164 0.28934,-0.48533 0.12667,-0.72 l -29.71733,-42.55066 c -0.164,-0.232 -0.48267,-0.28933 -0.71867,-0.12667 -0.23333,0.164 -0.29067,0.484 -0.12667,0.71867 l 29.71734,42.55066 c 0.1,0.14267 0.26,0.22 0.42266,0.22"
       style="fill:#5e7c4a;fill-opacity:1;fill-rule:nonzero;stroke:none;stroke-width:1.33333"
       id="path54764" />
    <path
       d="m 728.99574,552.16039 c 0.17867,0 0.35067,-0.092 0.44667,-0.25733 l 9.436,-16.2 c 0.144,-0.24667 0.06,-0.56133 -0.18534,-0.704 -0.24933,-0.14667 -0.56266,-0.06 -0.70533,0.18533 l -9.436,16.20134 c -0.144,0.24533 -0.06,0.56133 0.18533,0.704 0.0827,0.048 0.172,0.0707 0.25867,0.0707"
       style="fill:#5e7c4a;fill-opacity:1;fill-rule:nonzero;stroke:none;stroke-width:1.33333"
       id="path54766" />
    <path
       d="m 780.03707,650.67372 c 0.18267,0 0.36133,-0.0987 0.45467,-0.27066 l 19.704,-36.332 c 0.136,-0.24934 0.0427,-0.56267 -0.20667,-0.69867 -0.252,-0.13733 -0.56533,-0.0413 -0.7,0.20667 l -19.704,36.332 c -0.136,0.25066 -0.0427,0.564 0.20667,0.7 0.0787,0.0427 0.16266,0.0627 0.24533,0.0627"
       style="fill:#5e7c4a;fill-opacity:1;fill-rule:nonzero;stroke:none;stroke-width:1.33333"
       id="path54768" />
    <path
       d="m 649.58907,496.84973 c 17.97867,0.005 26.47067,27.65466 28.19067,38.84666 1.44667,9.42267 23.37467,3.80667 26.924,26.61334 2.608,16.75199 -14.14667,30.50133 -5.812,37.03466 8.33333,6.53333 26.648,18.84933 9.868,45.972 -16.78133,27.12267 -46.004,5.25467 -55.63733,6.632 -9.63333,1.376 -9.83733,12.25333 -23.80133,13.61067 -13.964,1.356 -31.29467,-13.83734 -24.96667,-33.516 6.32667,-19.67734 10.52667,-20.656 11.27067,-27.02134 0.744,-6.364 -12.832,-17.64666 -9.42267,-34.52666 3.408,-16.88 13.18133,-14.15867 17.332,-17.41867 4.15067,-3.26 -2.13467,-56.236 26.05466,-56.22666"
       style="fill:#abcc96;fill-opacity:1;fill-rule:nonzero;stroke:none;stroke-width:1.33333"
       id="path54770" />
    <path
       d="m 652.68374,696.34839 c 0.28133,0 0.512,-0.22533 0.516,-0.50667 l 1.71867,-115.44666 c 0.004,-0.28534 -0.224,-0.52 -0.508,-0.524 -0.23867,-0.024 -0.52,0.22266 -0.524,0.508 l -1.71867,115.44666 c -0.004,0.28534 0.224,0.52 0.508,0.52267 0.003,0 0.005,0 0.008,0"
       style="fill:#5e7c4a;fill-opacity:1;fill-rule:nonzero;stroke:none;stroke-width:1.33333"
       id="path54772" />
    <path
       d="m 653.54374,648.28306 c 0.13067,0 0.26133,-0.0493 0.36267,-0.14934 l 35.69466,-35.31733 c 0.20267,-0.2 0.204,-0.52667 0.004,-0.73067 -0.2,-0.2 -0.528,-0.204 -0.72933,-0.004 l -35.69467,35.31867 c -0.20266,0.2 -0.20533,0.52667 -0.004,0.72933 0.1,0.10267 0.23334,0.15334 0.36667,0.15334"
       style="fill:#5e7c4a;fill-opacity:1;fill-rule:nonzero;stroke:none;stroke-width:1.33333"
       id="path54776" />
  </g>
  <g
     inkscape:label="plants"
     inkscape:groupmode="layer"
     id="layer1">
    <path
       d="m 1008.8243,692.15954 c 0,9.73863 -179.08652,17.63447 -400.00002,17.63447 -220.91359,0 -400.00005,-7.89584 -400.00005,-17.63447 0,-9.7417 179.08646,-17.63756 400.00005,-17.63756 220.9135,0 400.00002,7.89586 400.00002,17.63756"
       style="fill:#90af77;fill-opacity:1;fill-rule:nonzero;stroke:none;stroke-width:1.94382"
       id="path36852"
       inkscape:export-filename="team-work-collaboration.png"
       inkscape:export-xdpi="96"
       inkscape:export-ydpi="96"
       inkscape:label="ground" />
    <path
       d="m 996.48687,662.63422 v 23.76 l -736.26949,10.70666 v -82.50666 c 0,0 13.79331,-17.78667 30.79016,-13.62667 16.98903,4.16 24.82952,38.86667 24.82952,38.86667 0,0 13.03352,-18.41333 29.62309,-14.56 16.58173,3.85333 26.00441,30.45333 26.00441,30.45333 0,0 10.87955,-23.17333 25.74593,-14.88 14.85854,8.28 24.02274,27.61333 24.02274,27.61333 l 49.0794,-19.33333 c 0,0 9.82998,-19.74667 25.18981,-19.86667 15.35985,-0.13333 23.71728,18.76 23.71728,18.76 0,0 2.71011,-19.30666 11.27118,-20.44 8.56893,-1.11999 9.25821,13.26667 9.25821,13.26667 0,0 5.57685,-22.06666 22.80868,-20.89333 17.23184,1.17333 20.78003,28.97333 20.78003,28.97333 0,0 18.60254,-42.88 49.43185,-21.34667 30.82933,21.54667 36.31223,28.14667 36.31223,28.14667 0,0 36.80562,-22.88 55.42381,-17.33333 18.62607,5.54666 23.55283,22.24 23.55283,22.24 0,0 8.65507,-51.22667 31.41678,-46.04 22.76165,5.2 27.46124,34.53333 27.46124,34.53333 0,0 8.08329,-31.68 24.01491,-29.17333 15.93165,2.50667 23.52148,22.69333 23.52148,22.69333 l 76.9088,-8.13333 c 0,0 16.41726,-25.37333 40.7612,-8.05333 12.09363,8.61333 19.72257,23.42666 24.34392,36.17333"
       style="fill:#a6c691;fill-opacity:1;fill-rule:nonzero;stroke:none;stroke-width:1.02194"
       id="path54752"
       inkscape:label="background" />
    <g
       id="g72895">
      <path
         d="m 615.74001,585.7996 c 0,0 13.09733,-17.41733 5.76266,-34.34133 -7.33333,-16.924 -19.248,-16.20133 -19.248,-16.20133 0.52667,-16.436 -0.212,-33.648 -14.32666,-38.464 -25.096,-8.564 -29.22,26.30666 -29.22,26.30666 l -35.59067,97.764 c 0,0 6.36933,31.628 28.99067,44.93333 22.62133,13.304 61.38666,12.93734 74.41733,-15.024 8.55733,-18.36133 -1.13467,-45.60933 -10.78533,-64.97333"
         style="fill:#76935f;fill-opacity:1;fill-rule:nonzero;stroke:none;stroke-width:1.33333"
         id="path54912" />
      <path
         d="m 577.27201,613.63827 c -2.408,-17.53867 -9.28267,-20.96267 -12.16534,-30.656 -2.884,-9.69067 9.41467,-14.02667 9.75734,-37.17733 0.344,-23.148 -14.43734,-31.50934 -22.756,-41.73067 -8.31867,-10.22 3.16133,-57.01733 -24.40267,-56.816 -22.384,0.16533 -18.84533,34.37733 -19.18933,43.39733 -0.344,9.02 -12.032,19.12934 -12.032,19.12934 0,0 -28.39467,11.42533 -27.764,33.46533 0.63067,22.04133 4.70267,33.90933 0,40.42 -4.70267,6.51066 -15.468,27.93866 -2.73067,48.068 14.916,23.57066 56.00667,5.62933 70.888,9.74133 27.33067,7.552 42.8,-10.30133 40.39467,-27.84133"
         style="fill:#97b783;fill-opacity:1;fill-rule:nonzero;stroke:none;stroke-width:1.33333"
         id="path54914" />
      <path
         d="m 529.63334,682.70893 c -0.28533,0 -0.516,-0.23066 -0.516,-0.516 l 0.0413,-173.02266 c 0,-0.28533 0.22934,-0.516 0.51467,-0.516 0.28533,0 0.516,0.23067 0.516,0.516 l -0.04,173.02266 c 0,0.28534 -0.23067,0.516 -0.516,0.516"
         style="fill:#5e7c4a;fill-opacity:1;fill-rule:nonzero;stroke:none;stroke-width:1.33333"
         id="path54916" />
      <path
         d="m 580.68267,695.61693 c -0.28533,0 -0.516,-0.23066 -0.516,-0.516 l 0.032,-134.02133 c 0,-0.284 0.23067,-0.51466 0.516,-0.51466 0.284,0 0.51467,0.23066 0.51467,0.51466 l -0.0307,134.02133 c 0,0.28534 -0.23066,0.516 -0.516,0.516"
         style="fill:#5e7c4a;fill-opacity:1;fill-rule:nonzero;stroke:none;stroke-width:1.33333"
         id="path54918" />
      <path
         d="m 529.67334,607.97027 c -0.16267,0 -0.32267,-0.076 -0.42267,-0.22 L 499.53201,565.1996 c -0.16267,-0.23333 -0.10533,-0.55466 0.128,-0.71866 0.23067,-0.16134 0.55467,-0.10534 0.71867,0.128 l 29.71866,42.55066 c 0.16267,0.23467 0.10533,0.55467 -0.128,0.71867 -0.0893,0.0627 -0.19333,0.092 -0.296,0.092"
         style="fill:#5e7c4a;fill-opacity:1;fill-rule:nonzero;stroke:none;stroke-width:1.33333"
         id="path54920" />
      <path
         d="m 450.26668,496.6636 c 17.97733,0.005 26.46933,27.65334 28.188,38.84667 1.448,9.42133 23.376,3.80533 26.92533,26.61333 2.608,16.752 -14.14667,30.50133 -5.812,37.03333 8.33466,6.53467 26.648,18.85067 9.868,45.97334 -16.78133,27.12133 -46.004,5.25466 -55.63733,6.63066 -9.63334,1.376 -9.83734,12.25467 -23.80134,13.61067 -13.964,1.35733 -31.29466,-13.83733 -24.968,-33.51467 6.328,-19.67733 10.528,-20.65733 11.272,-27.02133 0.744,-6.36533 -12.832,-17.648 -9.42266,-34.528 3.408,-16.88 13.18133,-14.15866 17.332,-17.41733 4.15066,-3.26 -2.13334,-56.236 26.056,-56.22667"
         style="fill:#a6c691;fill-opacity:1;fill-rule:nonzero;stroke:none;stroke-width:1.33333"
         id="path54926" />
      <path
         d="m 453.36001,696.16227 c -0.29333,-0.004 -0.52,-0.23867 -0.516,-0.524 l 1.71867,-115.44667 c 0.004,-0.28133 0.23466,-0.50667 0.516,-0.50667 0.29333,0.004 0.52,0.23734 0.516,0.52267 l -1.71867,115.44667 c -0.004,0.28266 -0.23467,0.508 -0.516,0.508"
         style="fill:#5e7c4a;fill-opacity:1;fill-rule:nonzero;stroke:none;stroke-width:1.33333"
         id="path54928" />
      <path
         d="m 454.30268,632.8276 c -0.164,0 -0.32667,-0.08 -0.42667,-0.22667 L 427.60934,593.8916 c -0.16133,-0.236 -0.0987,-0.556 0.13734,-0.716 0.23466,-0.15733 0.556,-0.0973 0.716,0.13733 l 26.26666,38.71067 c 0.16,0.23467 0.0987,0.556 -0.13733,0.716 -0.0893,0.06 -0.18933,0.088 -0.28933,0.088"
         style="fill:#5e7c4a;fill-opacity:1;fill-rule:nonzero;stroke:none;stroke-width:1.33333"
         id="path54930" />
      <path
         d="m 454.22001,648.0956 c -0.13333,0 -0.26667,-0.0507 -0.368,-0.152 -0.19867,-0.20267 -0.19733,-0.53067 0.004,-0.73067 l 35.696,-35.31733 c 0.20533,-0.2 0.52933,-0.19867 0.72933,0.004 0.2,0.20267 0.19867,0.52933 -0.004,0.73067 l -35.69466,35.31733 c -0.10134,0.0987 -0.232,0.148 -0.36267,0.148"
         style="fill:#5e7c4a;fill-opacity:1;fill-rule:nonzero;stroke:none;stroke-width:1.33333"
         id="path54932" />
    </g>
  </g>
  <g
     id="g74512"
     inkscape:label="bush">
    <path
       d="m 1007.0473,661.61807 c -2.0439,-14.95114 -22.67524,-14.5838 -22.67524,-14.5838 0,0 1.80806,-27.74206 -13.26607,-33.16444 -15.07413,-5.42406 -26.68051,4.36755 -26.68051,4.36755 0,0 -3.616,-14.01763 -14.92084,-16.48449 -11.30636,-2.46686 -14.92248,6.98776 -14.92248,6.98776 0,0 -13.2408,-11.41933 -28.49021,-6.98776 -19.07773,5.5437 -11.75626,24.17153 -11.75626,24.17153 0,0 -23.06286,-5.87901 -46.57719,15.82565 -11.22388,10.36284 -15.74982,22.06188 -17.41631,31.46258 -1.64962,9.30969 5.58246,17.82744 15.03875,17.82744 H 981.7351 c 11.07888,0 20.9682,-7.16805 24.1865,-17.77015 1.1139,-3.66996 1.6733,-7.64323 1.1257,-11.65187"
       style="fill:#b9dba2;fill-opacity:1;fill-rule:nonzero;stroke:none;stroke-width:1.68501"
       id="path55280" />
    <path
       d="m 913.10445,692.31565 c -0.36056,0 -0.6521,-0.29151 -0.6521,-0.6521 v -67.94313 c 0,-0.36059 0.29154,-0.6521 0.6521,-0.6521 0.3589,0 0.65045,0.29151 0.65045,0.6521 v 67.94313 c 0,0.36059 -0.29155,0.6521 -0.65045,0.6521"
       style="fill:#939e6a;fill-opacity:1;fill-rule:nonzero;stroke:none;stroke-width:1.68501"
       id="path55380" />
    <path
       d="m 913.10445,651.14234 c -0.14155,0 -0.28309,-0.0439 -0.40276,-0.13818 -0.28309,-0.22242 -0.33364,-0.63188 -0.11122,-0.91496 l 16.07504,-20.52852 c 0.22242,-0.28814 0.63364,-0.33364 0.91496,-0.11286 0.28308,0.22242 0.33363,0.63188 0.11121,0.91496 l -16.07503,20.53021 c -0.12802,0.16513 -0.32011,0.24939 -0.5122,0.24939"
       style="fill:#939e6a;fill-opacity:1;fill-rule:nonzero;stroke:none;stroke-width:1.68501"
       id="path55382" />
    <path
       d="m 913.10445,682.1331 c -0.15166,0 -0.30495,-0.0522 -0.42804,-0.16006 l -21.28842,-18.53516 c -0.27133,-0.23591 -0.29989,-0.64873 -0.0644,-0.92002 0.23758,-0.27297 0.64704,-0.29824 0.92001,-0.0641 l 21.28855,18.53516 c 0.27121,0.23758 0.29825,0.64872 0.0644,0.92001 -0.13143,0.14828 -0.31164,0.22411 -0.49198,0.22411"
       style="fill:#939e6a;fill-opacity:1;fill-rule:nonzero;stroke:none;stroke-width:1.68501"
       id="path55384" />
  </g>
  <g
     inkscape:groupmode="layer"
     id="layer3"
     inkscape:label="people"
     transform="matrix(1.6222897,0,0,1.6222897,-300.47466,-437.07316)">
    <path
       d="m 658.67984,472.99134 c 16.36676,0 29.63493,13.26818 29.63493,29.63514 0,16.36738 -13.26817,29.63473 -29.63493,29.63473 -16.36715,0 -29.63534,-13.26735 -29.63534,-29.63473 0,-16.36696 13.26819,-29.63514 29.63534,-29.63514"
       style="fill:#f8e7cd;fill-opacity:1;fill-rule:evenodd;stroke:none;stroke-width:0.0210743"
       id="path74468"
       inkscape:label="aura" />
    <path
       d="m 460.69894,468.05943 c 16.36676,0 29.63493,13.26818 29.63493,29.63514 0,16.36738 -13.26817,29.63473 -29.63493,29.63473 -16.36715,0 -29.63534,-13.26735 -29.63534,-29.63473 0,-16.36696 13.26819,-29.63514 29.63534,-29.63514"
       style="fill:#f8e7cd;fill-opacity:1;fill-rule:evenodd;stroke:none;stroke-width:0.0210743"
       id="path407-1-7"
       inkscape:label="aura" />
    <g
       id="g74045"
       inkscape:label="man">
      <path
         d="m 434.88082,502.73361 c 0,0 10.12,0.38934 27.24267,-3.00666 17.124,-3.39734 23.91733,-8.656 23.91733,-8.656 l -32.76267,5.348 -18.39733,6.31466"
         style="fill:#7ea565;fill-opacity:1;fill-rule:nonzero;stroke:none;stroke-width:1.33333"
         id="path54258" />
      <path
         d="m 485.67682,671.74427 v 9.44534 l 17.77867,-0.66667 v -8.77867 h -17.77867"
         style="fill:#ef8362;fill-opacity:1;fill-rule:nonzero;stroke:none;stroke-width:1.33333"
         id="path54260" />
      <path
         d="m 441.96082,670.68161 v 9.444 l 16.45733,-0.66667 v -8.77733 h -16.45733"
         style="fill:#ef8362;fill-opacity:1;fill-rule:nonzero;stroke:none;stroke-width:1.33333"
         id="path54262" />
      <path
         d="m 462.50349,695.73627 c 0,1.66667 -0.56,3.57334 -1.70667,4.05334 -1.14667,0.48 -10.42667,1.48 -18.54667,0.77333 -7.77333,-0.68 -9.38666,-1.25333 -9.96,-1.96 -0.28,-0.36 0.26667,-2.02667 0.89334,-3.64 0.04,-0.08 0.0667,-0.17333 0.10666,-0.25333 0.32,-0.81334 0.65334,-1.6 0.89334,-2.16 0.24,-0.53334 0.53333,-1.04 0.88,-1.53334 0.84,-1.16 2.50666,-3.56 2.93333,-4.8 0.56,-1.65333 1.41333,-5.22666 1.98667,-6.90666 0.57333,-1.65334 1.97333,-2 1.97333,-2 0,0 15.98667,-1.09334 17.13333,-0.13334 1.13334,0.94667 1.70667,8.81334 1.70667,10 v 1.18667 c 0,1.10667 0.76,3.29333 1.25333,5.10667 0.13334,0.45333 0.24,0.88 0.31867,1.26666 0.0813,0.38667 0.13467,0.72 0.13467,1"
         style="fill:#fcc670;fill-opacity:1;fill-rule:nonzero;stroke:none;stroke-width:1.33333"
         id="path54264" />
      <path
         d="m 533.39682,699.13627 c -1.06667,0.44 -46.44,1.68 -47.49333,0 -0.32,-0.50666 -0.54667,-2.22666 -0.69334,-4.38666 -0.37333,-5.09334 -0.37333,-12.66667 -0.37333,-12.66667 0,0 -0.33333,-2.58667 -0.26667,-3.78667 0.0533,-1.18666 21.88,-0.73333 21.88,-0.73333 l 14.18667,11.18667 c 0,0 3.89333,-0.69334 8.14666,0 2.252,0.36 3.70667,3.12 4.42667,5.72 0.64,2.30666 0.69333,4.45333 0.18667,4.66666"
         style="fill:#fcc670;fill-opacity:1;fill-rule:nonzero;stroke:none;stroke-width:1.33333"
         id="path54266" />
      <path
         d="m 482.47282,568.74828 c 0,0 12.92267,18.396 20.92267,50.396 8,31.99999 7.46666,55.55466 7.46666,55.55466 h -30.24533 c 0,0 -0.79467,-19.55467 -4.11867,-35.55466 -3.32533,-16 -7.90933,-32.88934 -7.90933,-32.88934 l -3.52133,68.444 h -30.18667 c 0,0 4.51333,-88.20533 8.07067,-99.65866 3.55466,-11.452 39.52133,-6.292 39.52133,-6.292"
         style="fill:#c172a5;fill-opacity:1;fill-rule:nonzero;stroke:none;stroke-width:1.33333"
         id="path54268" />
      <path
         d="m 516.48749,527.75094 c 0,0 6.18266,-7.70533 8.64799,-6.71333 2.46534,0.992 -2.90266,7.21733 -2.90266,7.21733 l 7.652,0.69467 c 0,0 8.336,1.55333 9.48133,2.90667 1.144,1.35333 -2.42267,2.55333 -2.42267,2.55333 0,0 5.98934,0.99333 4.008,3.18 -1.98,2.18667 -6.27066,1.89733 -6.27066,1.89733 0,0 5.992,0.69467 3.376,3.112 -1.41467,1.30667 -15.97067,2.59734 -23.41467,-1.35333 -7.444,-3.952 -1.59733,-10.96267 -1.59733,-10.96267 l 3.44267,-2.532"
         style="fill:#ef8362;fill-opacity:1;fill-rule:nonzero;stroke:none;stroke-width:1.33333"
         id="path54270" />
      <path
         d="m 466.60082,514.13361 c 0,0 12.264,0.88933 19.37467,7.112 7.112,6.22133 12.132,13.5 13.688,14.52133 1.556,1.02 15.20133,-7.28 15.20133,-7.28 0,0 6.88933,18.972 6.66666,19.86134 -0.22266,0.888 -15.33333,11.644 -26.46266,12.792 -9.53867,0.984 -19.76,-9.89467 -19.76,-9.89467 l -8.708,-37.112"
         style="fill:#6b7889;fill-opacity:1;fill-rule:nonzero;stroke:none;stroke-width:1.33333"
         id="path54272" />
      <path
         d="m 450.42215,573.45494 c 0,0 26.076,0.98667 28.77334,-3.184 4.35733,-6.736 -2.69734,-25.56133 -2.69734,-25.56133 l -9.89733,-30.576 -9.95867,1.25733 -6.11066,28.50267 -0.10934,29.56133"
         style="fill:#fcc670;fill-opacity:1;fill-rule:nonzero;stroke:none;stroke-width:1.33333"
         id="path54274" />
      <path
         d="m 456.60882,511.40161 0.0493,5.724 c 0,0 2.184,1.804 4.94667,1.804 3.72933,10e-4 4.996,-2.884 4.996,-2.884 l -0.14,-6.708 -9.852,2.064"
         style="fill:#ef8362;fill-opacity:1;fill-rule:nonzero;stroke:none;stroke-width:1.33333"
         id="path54276" />
      <path
         d="m 456.60882,511.39361 c 0,0 2.256,4.62933 6.47867,3.92533 3.40266,-0.56666 3.36933,-5.37066 3.36933,-5.37066 l -9.848,1.44533"
         style="fill:#000000;fill-opacity:1;fill-rule:nonzero;stroke:none;stroke-width:1.33333"
         id="path54278" />
      <path
         d="m 467.89282,494.90028 c 0,0 2.14667,10.20667 -1.1,15.164 -3.24533,4.956 -7.596,3.59066 -9.56133,2.132 -2.648,-1.96667 -3.232,-4.748 -3.232,-4.748 0,0 -3.58267,0.776 -4.832,-2.136 -1.31067,-3.05867 0.88666,-5.58267 2.68266,-5.75867 1.796,-0.17733 2.012,0.14667 2.012,0.14667 l -0.584,-3.28133 c 0,0 10.72934,-12.33467 14.61467,-1.51867"
         style="fill:#ef8362;fill-opacity:1;fill-rule:nonzero;stroke:none;stroke-width:1.33333"
         id="path54280" />
      <path
         d="m 466.24082,499.72828 c 0,0 5.41067,-2.41733 5.90667,1.796 0.57333,4.88 -5.26934,5.024 -5.26934,5.024 l -0.63733,-6.82"
         style="fill:#ef8362;fill-opacity:1;fill-rule:nonzero;stroke:none;stroke-width:1.33333"
         id="path54282" />
      <path
         d="m 452.98882,500.03895 c 0,0 1.912,0.76133 5.876,-2.23867 3.96267,-3 2.74,-6.44533 2.74,-6.44533 0,0 5.544,3.34133 6.84533,7.616 1.304,4.27466 1.6,-10.12667 -4.62266,-9.74134 -6.22267,0.38534 -15.472,4.59867 -10.83867,10.80934"
         style="fill:#000000;fill-opacity:1;fill-rule:nonzero;stroke:none;stroke-width:1.33333"
         id="path54284" />
      <path
         d="m 469.02349,504.09628 c -0.0547,0 -0.11067,-0.0133 -0.16267,-0.0427 -0.16,-0.0893 -0.21733,-0.29333 -0.128,-0.45333 l 1.76667,-3.14933 c 0.0907,-0.16 0.292,-0.21734 0.45466,-0.12667 0.16,0.0907 0.21734,0.29333 0.12667,0.45467 l -1.76667,3.148 c -0.06,0.108 -0.17333,0.16933 -0.29066,0.16933"
         style="fill:#000000;fill-opacity:1;fill-rule:nonzero;stroke:none;stroke-width:1.33333"
         id="path54286" />
      <path
         d="m 453.34615,504.46695 c -0.0747,0 -0.15066,-0.0253 -0.21333,-0.076 l -2.81467,-2.33334 c -0.14133,-0.11733 -0.16133,-0.328 -0.044,-0.46933 0.11734,-0.14267 0.328,-0.16267 0.46934,-0.044 l 2.816,2.33333 c 0.14133,0.11734 0.16133,0.32667 0.0427,0.46934 -0.0653,0.0787 -0.16,0.12 -0.256,0.12"
         style="fill:#000000;fill-opacity:1;fill-rule:nonzero;stroke:none;stroke-width:1.33333"
         id="path54288" />
      <path
         d="m 450.79015,504.94828 c -0.0987,0 -0.19733,-0.044 -0.26266,-0.128 -0.11334,-0.14533 -0.0867,-0.35467 0.0587,-0.468 l 1.61734,-1.26 c 0.144,-0.11467 0.35333,-0.0867 0.468,0.0587 0.11333,0.14533 0.0867,0.35466 -0.0587,0.468 l -1.61733,1.25866 c -0.0613,0.048 -0.13334,0.0707 -0.20534,0.0707"
         style="fill:#000000;fill-opacity:1;fill-rule:nonzero;stroke:none;stroke-width:1.33333"
         id="path54290" />
      <path
         d="m 471.12349,503.12561 h -1.55467 c -0.184,0 -0.33333,-0.148 -0.33333,-0.33333 0,-0.184 0.14933,-0.33333 0.33333,-0.33333 h 1.55467 c 0.18533,0 0.33333,0.14933 0.33333,0.33333 0,0.18533 -0.148,0.33333 -0.33333,0.33333"
         style="fill:#000000;fill-opacity:1;fill-rule:nonzero;stroke:none;stroke-width:1.33333"
         id="path54292" />
      <path
         d="m 462.71682,505.87495 c -0.232,-0.0307 -0.35733,-0.2 -0.32933,-0.38267 0.38666,-2.60267 -0.55734,-4.71733 -0.56667,-4.74 -0.076,-0.16667 -0.003,-0.364 0.16533,-0.44133 0.16934,-0.0733 0.36534,-10e-4 0.44134,0.16533 0.0427,0.0933 1.036,2.308 0.61866,5.11333 -0.024,0.16534 -0.16666,0.28534 -0.32933,0.28534"
         style="fill:#000000;fill-opacity:1;fill-rule:nonzero;stroke:none;stroke-width:1.33333"
         id="path54298" />
      <path
         d="m 460.55549,507.66428 c 0.25866,0.26133 0.59333,0.51067 0.96266,0.46667 0.35067,-0.0253 0.68267,-0.16667 0.952,-0.32534 z m 0.90133,1.136 c -1.136,0 -1.876,-1.30267 -1.908,-1.36 -0.06,-0.10667 -0.056,-0.23867 0.009,-0.34133 0.0667,-0.10267 0.17734,-0.16 0.30667,-0.15334 l 3.53067,0.25867 c 0.128,0.0107 0.24,0.0933 0.28666,0.21467 0.0453,0.12133 0.0173,0.25733 -0.0733,0.35066 -0.0373,0.0387 -0.928,0.944 -2.04133,1.02667 -0.036,0.003 -0.0733,0.004 -0.11067,0.004"
         style="fill:#000000;fill-opacity:1;fill-rule:nonzero;stroke:none;stroke-width:1.33333"
         id="path54300" />
      <path
         d="m 465.75415,497.39361 c -0.0733,0 -0.14533,-0.024 -0.20666,-0.072 -0.49734,-0.39066 -1.37334,-0.42666 -1.66267,-0.41066 -0.18933,0.007 -0.34267,-0.128 -0.35333,-0.312 -0.012,-0.18267 0.128,-0.34134 0.312,-0.35334 0.0507,-0.003 1.32133,-0.076 2.116,0.552 0.14533,0.11467 0.16933,0.324 0.056,0.468 -0.0653,0.084 -0.164,0.128 -0.26134,0.128"
         style="fill:#000000;fill-opacity:1;fill-rule:nonzero;stroke:none;stroke-width:1.33333"
         id="path54302" />
      <path
         d="m 457.73415,498.15361 c -0.0973,0 -0.196,-0.0427 -0.26133,-0.12666 -0.11333,-0.144 -0.0893,-0.35467 0.056,-0.468 0.79467,-0.628 2.064,-0.55467 2.116,-0.552 0.184,0.012 0.32267,0.16933 0.312,0.35333 -0.0107,0.184 -0.18933,0.31867 -0.35333,0.312 -0.009,0 -1.06934,-0.0587 -1.66267,0.41067 -0.0613,0.048 -0.13333,0.0707 -0.20667,0.0707"
         style="fill:#000000;fill-opacity:1;fill-rule:nonzero;stroke:none;stroke-width:1.33333"
         id="path54304" />
      <path
         d="m 481.90082,534.39894 c 0,0 5.03733,39.66 4.44533,40.54934 -0.592,0.88933 -6.95066,2.12133 -6.95066,2.12133 0,0 -1.64134,-15.37333 -5.19734,-34.22933 -3.556,-18.85467 -7.59733,-28.70667 -7.59733,-28.70667 l 15.3,20.26533"
         style="fill:#6b7889;fill-opacity:1;fill-rule:nonzero;stroke:none;stroke-width:1.33333"
         id="path54306" />
      <path
         d="m 499.65415,536.92294 c -0.60666,2.10667 -1.37333,5.61334 -0.588,6.84534 0.156,0.244 0.35734,0.372 0.63467,0.40133 0.24667,0.0293 0.416,-0.0333 0.55067,-0.19733 0.824,-1.004 0.0213,-4.788 -0.59734,-7.04934 z m 0.148,7.92 c -0.0573,0 -0.116,-0.004 -0.17466,-0.009 -0.48,-0.0533 -0.85734,-0.29067 -1.12267,-0.70667 -1.28267,-2.00933 0.62133,-7.812 0.84267,-8.46666 0.0467,-0.136 0.17333,-0.22667 0.316,-0.22667 0.148,10e-4 0.27466,0.096 0.31733,0.23333 0.22667,0.716 2.164,7.05067 0.78533,8.728 -0.24133,0.29467 -0.57333,0.448 -0.964,0.448"
         style="fill:#3f4f4f;fill-opacity:1;fill-rule:nonzero;stroke:none;stroke-width:1.33333"
         id="path54308" />
      <path
         d="m 531.14748,539.36028 c -0.12933,0 -0.252,-0.076 -0.30666,-0.20134 l -3.008,-6.96266 c -0.0733,-0.16934 0.005,-0.36534 0.17333,-0.43867 0.16933,-0.0747 0.36533,0.004 0.43867,0.17333 l 3.008,6.964 c 0.0733,0.16934 -0.004,0.36534 -0.17334,0.43867 -0.0427,0.0187 -0.088,0.0267 -0.132,0.0267"
         style="fill:#000000;fill-opacity:1;fill-rule:nonzero;stroke:none;stroke-width:1.33333"
         id="path54310" />
      <path
         d="m 518.27282,536.16428 c -0.49333,0 -0.83333,-0.064 -0.87067,-0.0707 -0.18,-0.036 -0.29733,-0.21067 -0.26133,-0.39067 0.0333,-0.18 0.20667,-0.29866 0.39067,-0.264 0.0213,0.005 2.11733,0.38934 3.46399,-0.948 1.15734,-1.152 1.464,-3.23066 0.91067,-6.176 -0.0347,-0.18 0.084,-0.35466 0.26533,-0.38933 0.17734,-0.032 0.356,0.084 0.38934,0.26667 0.59733,3.17866 0.228,5.45866 -1.1,6.776 -1.01467,1.00533 -2.33333,1.196 -3.188,1.196"
         style="fill:#000000;fill-opacity:1;fill-rule:nonzero;stroke:none;stroke-width:1.33333"
         id="path54312" />
      <path
         d="m 434.88082,502.73361 c 0,0 52.52667,-11.57066 51.16,-11.66266 -1.36667,-0.0933 -16.10133,0.25333 -16.10133,0.25333 0,0 -4.59067,-8.06533 -5.94134,-8.21467 -1.352,-0.152 -12.716,2.94134 -13.76666,4.356 -1.052,1.41334 -0.53334,7.896 -0.53334,7.896 l -14.81733,7.372"
         style="fill:#f4a992;fill-opacity:1;fill-rule:nonzero;stroke:none;stroke-width:1.33333"
         id="path54314" />
      <path
         d="m 457.73415,545.60161 c 0,0 2.40267,-11.264 6.88267,-10.772 4.48,0.49067 6.14667,-2.61333 6.94267,-4.62933 0.79466,-2.016 4.12666,-7.01467 6.184,-2.264 2.056,4.74933 -1.252,6.372 -0.15467,9.10933 1.09733,2.73733 -0.60133,9.62933 -4.444,8.55067 -3.84133,-1.07867 -15.41067,0.005 -15.41067,0.005"
         style="fill:#90b776;fill-opacity:1;fill-rule:nonzero;stroke:none;stroke-width:1.33333"
         id="path54316" />
      <path
         d="m 441.17282,675.03227 c -0.2,-0.009 -0.34133,-0.16533 -0.332,-0.34933 l 4.92933,-99.65866 c 0.009,-0.184 0.17467,-0.33334 0.34934,-0.316 0.184,0.009 0.32533,0.16533 0.316,0.34933 l -4.93067,99.65866 c -0.008,0.17734 -0.15467,0.316 -0.332,0.316"
         style="fill:#60253d;fill-opacity:1;fill-rule:nonzero;stroke:none;stroke-width:1.33333"
         id="path54318" />
      <path
         d="m 456.64215,515.39094 c 0,0 -14.284,-0.10133 -26.728,12.864 -12.44533,12.96267 -17.40133,33.95067 -4.068,40.17334 13.33334,6.22133 28.66,5.12933 28.66,5.12933 l 2.10267,-20.784 -4.20133,-1.24267 c 0,0 2.52933,-22.22933 4.23466,-36.14"
         style="fill:#6b7889;fill-opacity:1;fill-rule:nonzero;stroke:none;stroke-width:1.33333"
         id="path54320" />
      <path
         d="m 438.77149,548.61761 c -0.096,0 -0.18934,-0.04 -0.256,-0.11867 -0.11734,-0.14133 -0.1,-0.352 0.0413,-0.47066 1.04533,-0.87467 3.57867,-7.93334 5.02533,-12.46534 0.0573,-0.17333 0.24267,-0.27066 0.42,-0.216 0.17467,0.056 0.272,0.244 0.216,0.42 -0.376,1.172 -3.704,11.492 -5.23333,12.77334 -0.0613,0.052 -0.13867,0.0773 -0.21333,0.0773"
         style="fill:#3f4f4f;fill-opacity:1;fill-rule:nonzero;stroke:none;stroke-width:1.33333"
         id="path54322" />
      <path
         d="m 453.34615,543.34694 c 0,0 -6.75733,-5.37066 -4.576,-11.30533 2.18134,-5.93467 11.26667,0.912 9.39067,9.93333 -1.87733,9.02134 -4.81467,1.372 -4.81467,1.372"
         style="fill:#a6c691;fill-opacity:1;fill-rule:nonzero;stroke:none;stroke-width:1.33333"
         id="path54324" />
      <path
         d="m 470.34615,539.41494 c 0,2.94534 -2.388,5.33334 -5.33333,5.33334 -2.94667,0 -5.33333,-2.388 -5.33333,-5.33334 0,-2.94666 2.38666,-5.33466 5.33333,-5.33466 2.94533,0 5.33333,2.388 5.33333,5.33466"
         style="fill:#872640;fill-opacity:1;fill-rule:nonzero;stroke:none;stroke-width:1.33333"
         id="path54326" />
      <path
         d="m 441.17282,568.77361 v 8.296 h 7.59733 l 1.652,-10.96267 -9.24933,2.66667"
         style="fill:#6b7889;fill-opacity:1;fill-rule:nonzero;stroke:none;stroke-width:1.33333"
         id="path54328" />
      <path
         d="m 459.46749,549.32961 c 0,0 -0.60267,-8.61333 6.79066,-9.76933 7.39467,-1.15467 9.13734,-0.208 11.864,-2.84934 2.72667,-2.64266 8.04,-7.18 10.824,-4.43466 2.784,2.74533 3.40134,8.86933 -7.21733,11.76 -10.61867,2.892 -22.26133,5.29333 -22.26133,5.29333"
         style="fill:#90b776;fill-opacity:1;fill-rule:nonzero;stroke:none;stroke-width:1.33333"
         id="path54330" />
      <path
         d="m 466.51149,539.64561 c 0,0 3.02266,-8.08533 9.34133,-7.84133 6.31867,0.24266 2.60933,10.99866 -6.54933,11.99733 -9.16,0.99867 -2.792,-4.156 -2.792,-4.156"
         style="fill:#a6c691;fill-opacity:1;fill-rule:nonzero;stroke:none;stroke-width:1.33333"
         id="path54332" />
      <path
         d="m 445.79682,545.60161 c 0,0 -11.43867,1.44133 -14.10533,0.15867 -2.66667,-1.28267 -0.436,-3.06134 3.18933,-3.06134 3.62533,0 1.55067,-5.32 5.10667,-5.03066 3.556,0.29066 4.74133,2.872 7.11066,2.47066 2.37067,-0.40266 0.45734,-3.9 6.248,-1.112 5.79067,2.788 4.388,6.57467 4.388,6.57467 h -11.93733"
         style="fill:#a6c691;fill-opacity:1;fill-rule:nonzero;stroke:none;stroke-width:1.33333"
         id="path54334" />
      <path
         d="m 458.67949,543.34694 c 0,2.94534 -2.388,5.33334 -5.33334,5.33334 -2.94666,0 -5.33333,-2.388 -5.33333,-5.33334 0,-2.94533 2.38667,-5.33333 5.33333,-5.33333 2.94534,0 5.33334,2.388 5.33334,5.33333"
         style="fill:#b23f5d;fill-opacity:1;fill-rule:nonzero;stroke:none;stroke-width:1.33333"
         id="path54336" />
      <path
         d="m 468.14749,543.34694 c 0,2.94534 -2.388,5.33334 -5.33334,5.33334 -2.94666,0 -5.33466,-2.388 -5.33466,-5.33334 0,-2.94533 2.388,-5.33333 5.33466,-5.33333 2.94534,0 5.33334,2.388 5.33334,5.33333"
         style="fill:#a32c46;fill-opacity:1;fill-rule:nonzero;stroke:none;stroke-width:1.33333"
         id="path54338" />
      <path
         d="m 485.89015,571.58828 h -41.644 c -1.608,0 -2.91066,-1.304 -2.91066,-2.91067 v -21.872 c 0,-1.608 1.30266,-2.912 2.91066,-2.912 h 41.644 c 1.608,0 2.91067,1.304 2.91067,2.912 v 21.872 c 0,1.60667 -1.30267,2.91067 -2.91067,2.91067"
         style="fill:#471a2f;fill-opacity:1;fill-rule:nonzero;stroke:none;stroke-width:1.33333"
         id="path54340" />
      <path
         d="m 481.92749,571.58828 h -41.644 c -1.608,0 -2.91067,-1.304 -2.91067,-2.91067 v -21.872 c 0,-1.608 1.30267,-2.912 2.91067,-2.912 h 41.644 c 1.60666,0 2.91066,1.304 2.91066,2.912 v 21.872 c 0,1.60667 -1.304,2.91067 -2.91066,2.91067"
         style="fill:#60253d;fill-opacity:1;fill-rule:nonzero;stroke:none;stroke-width:1.33333"
         id="path54342" />
      <path
         d="m 485.09682,553.69894 h -21.81333 c -0.184,0 -0.33334,-0.148 -0.33334,-0.33333 0,-0.184 0.14934,-0.33333 0.33334,-0.33333 h 21.81333 c 0.18533,0 0.33333,0.14933 0.33333,0.33333 0,0.18533 -0.148,0.33333 -0.33333,0.33333"
         style="fill:#471a2f;fill-opacity:1;fill-rule:nonzero;stroke:none;stroke-width:1.33333"
         id="path54344" />
      <path
         d="m 485.09682,562.73494 h -21.81333 c -0.184,0 -0.33334,-0.14933 -0.33334,-0.33333 0,-0.184 0.14934,-0.33333 0.33334,-0.33333 h 21.81333 c 0.18533,0 0.33333,0.14933 0.33333,0.33333 0,0.184 -0.148,0.33333 -0.33333,0.33333"
         style="fill:#471a2f;fill-opacity:1;fill-rule:nonzero;stroke:none;stroke-width:1.33333"
         id="path54346" />
      <path
         d="m 454.09282,571.02961 c 0,0 3.06267,4.11067 9.52267,4.00933 6.45866,-0.1 7.616,-2.33866 7.824,-3.44 0.20666,-1.10133 0.0827,-1.55333 0.0827,-1.55333 0,0 0.95067,-1.136 0.87334,-2.476 -0.0773,-1.33867 -1.01067,-1.908 -1.01067,-1.908 0,0 0.644,-2.34 0.396,-3.24267 -0.24933,-0.904 -1.82533,-1.952 -2.26933,-1.976 -0.444,-0.024 -4.512,-0.24 -4.512,-0.24 0,0 0.056,-1.036 -0.852,-2.12266 -0.90534,-1.08667 -9.81734,-0.89467 -9.81734,-0.89467 0,0 -2.31466,11.97733 -0.23733,13.844"
         style="fill:#ef8362;fill-opacity:1;fill-rule:nonzero;stroke:none;stroke-width:1.33333"
         id="path54348" />
      <path
         d="m 464.99949,560.53628 c -0.0107,0 -4.85334,-0.14934 -4.85334,-0.14934 -0.18266,-0.007 -0.328,-0.16 -0.32266,-0.344 0.007,-0.184 0.144,-0.332 0.344,-0.32266 l 4.84266,0.14933 c 0.184,0.005 0.32934,0.16 0.32267,0.344 -0.005,0.18 -0.15333,0.32267 -0.33333,0.32267"
         style="fill:#000000;fill-opacity:1;fill-rule:nonzero;stroke:none;stroke-width:1.33333"
         id="path54350" />
      <path
         d="m 456.60882,552.77361 -37.14933,-7.172 c 0,0 -4.10134,12.62 2.14,19.74667 6.24,7.12933 32.90666,8.20933 32.90666,8.20933 l 2.10267,-20.784"
         style="fill:#6b7889;fill-opacity:1;fill-rule:nonzero;stroke:none;stroke-width:1.33333"
         id="path54352" />
      <path
         d="m 449.69815,495.69495 c -0.14266,0 -0.27466,-0.0907 -0.31866,-0.23334 -0.0547,-0.176 0.0427,-0.36266 0.21866,-0.41866 l 4.95734,-1.55067 c 0.176,-0.052 0.36266,0.0427 0.41733,0.21867 0.0547,0.176 -0.0427,0.36266 -0.21867,0.41733 l -4.95733,1.552 c -0.0333,0.0107 -0.0653,0.0147 -0.0987,0.0147"
         style="fill:#ffffff;fill-opacity:1;fill-rule:nonzero;stroke:none;stroke-width:1.33333"
         id="path54354" />
      <path
         d="m 454.65415,689.06827 c -0.0453,0 -0.092,-0.009 -0.13733,-0.0307 -3.82267,-1.73467 -8.55467,-0.008 -8.60267,0.009 -0.17333,0.0653 -0.364,-0.0227 -0.42933,-0.196 -0.064,-0.172 0.024,-0.364 0.196,-0.42933 0.204,-0.0747 5.032,-1.844 9.112,0.009 0.16667,0.076 0.24133,0.27333 0.16533,0.44133 -0.056,0.124 -0.17733,0.196 -0.304,0.196"
         style="fill:#719b56;fill-opacity:1;fill-rule:nonzero;stroke:none;stroke-width:1.33333"
         id="path54356" />
      <path
         d="m 446.10215,684.76294 c -0.13466,0 -0.26133,-0.0827 -0.312,-0.216 -0.064,-0.172 0.0227,-0.364 0.196,-0.42933 0.204,-0.076 5.032,-1.844 9.11067,0.009 0.168,0.076 0.24267,0.27333 0.16533,0.44133 -0.0747,0.168 -0.27333,0.24134 -0.44133,0.16534 -3.828,-1.73867 -8.55333,-0.009 -8.60133,0.009 -0.0387,0.0133 -0.0773,0.02 -0.11734,0.02"
         style="fill:#719b56;fill-opacity:1;fill-rule:nonzero;stroke:none;stroke-width:1.33333"
         id="path54358" />
      <path
         d="m 504.87682,683.95627 c -0.0907,0 -0.18,-0.036 -0.24667,-0.10933 -0.124,-0.136 -0.11466,-0.34667 0.0213,-0.47067 2.128,-1.94 6.18133,-2.49466 6.35333,-2.51733 0.17867,-0.0227 0.34933,0.10267 0.37467,0.28667 0.024,0.18266 -0.10534,0.34933 -0.288,0.37466 -0.0387,0.005 -4.01867,0.55067 -5.99067,2.348 -0.064,0.0587 -0.144,0.088 -0.224,0.088"
         style="fill:#719b56;fill-opacity:1;fill-rule:nonzero;stroke:none;stroke-width:1.33333"
         id="path54360" />
      <path
         d="m 507.96215,688.26027 c -0.0533,0 -0.10666,-0.012 -0.15733,-0.04 -0.16133,-0.0867 -0.22267,-0.288 -0.136,-0.45066 2.27867,-4.25734 7.47867,-3.676 7.52933,-3.67067 0.18267,0.0227 0.312,0.188 0.29067,0.37067 -0.0227,0.18266 -0.18667,0.31866 -0.37067,0.29066 -0.0467,-0.004 -4.80133,-0.52533 -6.86133,3.324 -0.06,0.112 -0.176,0.176 -0.29467,0.176"
         style="fill:#719b56;fill-opacity:1;fill-rule:nonzero;stroke:none;stroke-width:1.33333"
         id="path54362" />
      <path
         d="m 468.58882,606.58828 c -0.20133,-0.009 -0.34267,-0.16667 -0.332,-0.35067 0.38533,-7.50267 0.003,-18.968 -10e-4,-19.08267 -0.005,-0.14933 0.0907,-0.28533 0.23333,-0.32933 l 10.412,-3.26 c 0.17867,-0.0547 0.36267,0.044 0.41733,0.21867 0.0547,0.176 -0.0427,0.36266 -0.21866,0.41866 l -10.16934,3.18267 c 0.0533,1.73733 0.34667,11.97867 -0.008,18.88667 -0.009,0.17733 -0.15733,0.316 -0.33333,0.316"
         style="fill:#60253d;fill-opacity:1;fill-rule:nonzero;stroke:none;stroke-width:1.33333"
         id="path54364" />
      <path
         d="m 485.67682,675.03227 c -0.176,0 -0.324,-0.13866 -0.332,-0.31733 -0.009,-0.20933 -0.996,-21.08 -5.05467,-39.79733 -4.05733,-18.712 -11.756,-36.648 -11.83466,-36.82667 -0.072,-0.16933 0.005,-0.36533 0.17466,-0.43866 0.16934,-0.0733 0.36534,0.005 0.43734,0.17466 0.0773,0.17867 7.80266,18.172 11.87466,36.95067 4.07067,18.772 5.05867,39.69733 5.068,39.90666 0.008,0.184 -0.13333,0.34 -0.31733,0.348 -0.005,0 -0.0107,0 -0.016,0"
         style="fill:#60253d;fill-opacity:1;fill-rule:nonzero;stroke:none;stroke-width:1.33333"
         id="path54366" />
      <path
         d="m 429.28482,547.72694 c -1.17067,0 -2.06667,0.12 -2.336,0.40934 -0.052,0.056 -0.007,0.164 0.13467,0.32266 1.39466,1.57067 6.81466,0.88534 9.71866,0.316 -1.688,-0.56133 -5.15866,-1.048 -7.51733,-1.048 z m 1.688,2.364 c -1.86667,0 -3.588,-0.28666 -4.388,-1.18933 -0.55467,-0.62533 -0.272,-1.06133 -0.124,-1.22 1.308,-1.40667 10.15867,-0.14667 11.58267,0.948 0.10266,0.0787 0.14933,0.20933 0.12266,0.33467 -0.0267,0.12533 -0.12533,0.22533 -0.25066,0.25466 -0.23467,0.0547 -3.79467,0.872 -6.94267,0.872"
         style="fill:#3f4f4f;fill-opacity:1;fill-rule:nonzero;stroke:none;stroke-width:1.33333"
         id="path54368" />
      <path
         d="m 461.52749,519.23228 c -3.40267,0 -5.30134,-2.32134 -5.39334,-2.436 -0.11466,-0.144 -0.0907,-0.352 0.052,-0.468 0.144,-0.11467 0.35334,-0.092 0.468,0.052 0.0987,0.12 2.428,2.94533 6.55467,1.98533 3.04933,-0.70667 3.52533,-2.94267 3.544,-3.03733 0.0347,-0.18 0.20267,-0.29867 0.39067,-0.264 0.18,0.036 0.29733,0.20933 0.264,0.38933 -0.0213,0.112 -0.56,2.75333 -4.048,3.56267 -0.652,0.15066 -1.264,0.216 -1.832,0.216"
         style="fill:#ffffff;fill-opacity:1;fill-rule:nonzero;stroke:none;stroke-width:1.33333"
         id="path54370" />
      <path
         d="m 457.51059,501.75657 c 0.14667,0 0.28862,-0.0678 0.35877,-0.18487 0.16897,-0.29129 0.39063,-0.46422 0.67446,-0.52806 0.62501,-0.14371 1.35367,0.2567 1.36164,0.2607 0.18334,0.10116 0.43052,0.0586 0.55171,-0.0945 0.12125,-0.15294 0.0717,-0.35781 -0.1116,-0.46022 -0.0398,-0.0227 -1.03639,-0.56797 -2.00583,-0.3485 -0.5134,0.11442 -0.91362,0.40967 -1.18786,0.87654 -0.0957,0.16495 -0.0136,0.36446 0.18332,0.44559 0.0574,0.0227 0.1164,0.0333 0.17538,0.0333"
         style="fill:#000000;fill-opacity:1;fill-rule:nonzero;stroke:none;stroke-width:1.4563"
         id="path54190-4" />
      <path
         d="m 463.95396,501.31499 c 0.20447,0 0.39703,-0.0864 0.46581,-0.22479 0.14948,-0.29397 0.52678,-0.7422 0.86878,-0.77546 0.22408,-0.0227 0.51495,0.14225 0.82747,0.44026 0.15712,0.15164 0.46384,0.18755 0.68595,0.0798 0.22027,-0.10503 0.27322,-0.31391 0.116,-0.46288 -0.56018,-0.53472 -1.1636,-0.77279 -1.77094,-0.7156 -1.0712,0.10649 -1.60187,1.10665 -1.65692,1.2197 -0.0885,0.17293 0.0491,0.36181 0.30663,0.42032 0.053,0.0129 0.10626,0.0186 0.15735,0.0186"
         style="fill:#000000;fill-opacity:1;fill-rule:nonzero;stroke:none;stroke-width:1.61689"
         id="path54192-9" />
    </g>
    <g
       id="g74311"
       inkscape:label="woman"
       transform="matrix(0.61641272,0,0,0.61641272,185.2164,269.41745)">
      <path
         d="m 801.09722,584.15982 26.00402,1.9032 -7.22874,24.75464 -21.07984,3.52591 2.30456,-30.18375"
         style="fill:#ef8362;fill-opacity:1;fill-rule:nonzero;stroke:none;stroke-width:2.15783"
         id="path54156" />
      <path
         d="m 719.32405,495.5485 c 0,0 -28.14674,89.72907 -1.60972,111.74757 26.53484,22.01635 85.27747,12.906 85.27747,12.906 l 3.67695,-45.46982 -32.11717,-3.52805 -35.78763,-80.88196 -19.4399,5.22626"
         style="fill:#c172a5;fill-opacity:1;fill-rule:nonzero;stroke:none;stroke-width:2.15783"
         id="path54158" />
      <path
         d="m 781.16535,652.08832 -3.73738,25.80552 -24.18281,-8.96148 -2.02403,-21.27405 29.94422,4.43001"
         style="fill:#ef8362;fill-opacity:1;fill-rule:nonzero;stroke:none;stroke-width:2.15783"
         id="path54160" />
      <path
         d="m 782.85276,481.7621 c 0,0 6.39581,20.11963 5.29532,36.30334 -1.10049,16.18375 -2.90012,52.86687 -2.53978,59.34036 0.36038,6.4735 2.66709,78.04013 2.66709,78.04013 0,0 -12.30396,3.59711 -25.6458,3.59711 -13.34404,0 -20.79934,-1.43929 -20.79934,-1.43929 0,0 -13.02683,-79.83974 -11.77745,-103.57587 1.24938,-23.73614 -1.95067,-61.12919 -1.95067,-61.12919 l 54.75063,-11.13659"
         style="fill:#d180b8;fill-opacity:1;fill-rule:nonzero;stroke:none;stroke-width:2.15783"
         id="path54162" />
      <path
         d="m 705.25285,462.19922 18.13872,-31.54964 13.16062,7.63439 -3.62084,27.34835 -27.6785,-3.4331"
         style="fill:#ef8362;fill-opacity:1;fill-rule:nonzero;stroke:none;stroke-width:2.15783"
         id="path54164" />
      <path
         d="m 719.79446,431.97232 c 0,0 10.04904,-9.87209 14.77899,-16.52466 4.72996,-6.65261 7.98397,-10.56691 7.98397,-10.56691 l -11.38038,36.46087 c 0,0 -8.02497,-8.42631 -11.38258,-9.3693"
         style="fill:#3f4f4f;fill-opacity:1;fill-rule:nonzero;stroke:none;stroke-width:2.15783"
         id="path54166" />
      <path
         d="m 745.40792,667.66355 c 0,0 1.75432,-8.82121 6.31599,-9.24198 4.56381,-0.41861 11.09989,9.24198 11.09989,9.24198 0,0 17.82365,-1.26017 19.08382,0 1.26017,1.26019 1.26017,28.97969 0,29.40044 -1.26017,0.41864 -75.18312,0.41864 -78.54288,0 -3.35973,-0.42075 1.44575,-14.70129 8.07246,-17.22163 6.62887,-2.52035 13.76263,-2.52899 13.76263,-2.52899 l 20.20809,-9.64982"
         style="fill:#6b7889;fill-opacity:1;fill-rule:nonzero;stroke:none;stroke-width:2.15783"
         id="path54168" />
      <path
         d="m 811.8389,618.41108 c 0,0 -8.57305,-2.13412 -8.77374,-6.63102 -0.19848,-4.49475 9.58725,-10.459 9.58725,-10.459 0,0 -0.40566,-17.5475 0.89118,-18.72568 1.29471,-1.17818 28.4963,0.11657 28.85019,1.37239 0.35174,1.25801 -3.10078,73.79351 -3.6683,77.07125 -0.57182,3.27559 -14.36035,-2.10604 -16.52251,-8.72842 -2.1643,-6.62023 -1.83848,-13.62238 -1.83848,-13.62238 l -8.52559,-20.27714"
         style="fill:#556877;fill-opacity:1;fill-rule:nonzero;stroke:none;stroke-width:2.15783"
         id="path54170" />
      <path
         d="m 757.8694,355.2938 c 0,0 9.55057,-5.29963 18.80981,2.41462 9.25925,7.71209 1.67232,16.81165 8.5666,21.22874 6.89642,4.41922 13.42818,9.49228 12.41616,16.90228 -1.01204,7.41215 2.28944,16.55487 8.58599,12.99878 9.5851,-5.414 29.45224,9.63472 13.66986,26.28885 -24.2907,25.63502 -75.35359,-18.86376 -75.35359,-18.86376 0,0 -4.43435,-11.39118 -2.00681,-24.1785 1.69175,-8.9183 15.33572,-22.95068 15.31198,-36.79101"
         style="fill:#fcc670;fill-opacity:1;fill-rule:nonzero;stroke:none;stroke-width:2.15783"
         id="path54172" />
      <path
         d="m 724.8999,477.83269 c 0,0 0.97966,-60.42141 19.59094,-74.648 18.61131,-14.22658 38.36192,0 38.36192,0 l -6.63532,78.57741 c 0,0 -28.29997,6.40662 -51.31754,-3.92941"
         style="fill:#3f4f4f;fill-opacity:1;fill-rule:nonzero;stroke:none;stroke-width:2.15783"
         id="path54174" />
      <path
         d="m 781.07039,364.02653 c 0,0 -1.06597,9.69947 5.81321,12.32985 5.4485,2.0823 10.34894,2.91524 12.86499,10.47843 2.46209,7.40136 -2.242,12.06658 3.34679,16.56351 5.58879,4.49691 8.22781,-0.59771 16.41463,4.47751 10.80856,6.70222 4.66523,20.01388 -1.12424,20.4476 -5.79162,0.43155 -30.91524,-18.7343 -30.91524,-18.7343 l -15.33571,-39.80767 8.93557,-5.75493"
         style="fill:#fcc670;fill-opacity:1;fill-rule:nonzero;stroke:none;stroke-width:2.15783"
         id="path54176" />
      <path
         d="m 771.81763,386.9837 -0.31075,12.29532 c 0,0 -2.30456,3.47843 -9.51172,3.88194 -5.36651,0.30211 -6.99566,-2.49228 -6.99566,-2.49228 l 1.56656,-10.72442 13.0592,-2.53331 2.19237,-0.42725"
         style="fill:#ef8362;fill-opacity:1;fill-rule:nonzero;stroke:none;stroke-width:2.15783"
         id="path54178" />
      <path
         d="m 769.62526,387.41095 c -0.0389,0.33448 -0.17695,0.72935 -0.38624,1.17818 -2.90445,6.07212 -10.459,7.20715 -13.56196,7.40783 l 0.889,-6.0527 13.0592,-2.53331"
         style="fill:#000000;fill-opacity:1;fill-rule:nonzero;stroke:none;stroke-width:2.15783"
         id="path54180" />
      <path
         d="m 754.52907,361.85144 c 0,0 -6.84033,15.25157 -4.50985,23.88072 2.32829,8.62702 10.18062,7.34741 14.88901,5.72904 4.70408,-1.61836 6.91156,-4.47319 6.91156,-4.47319 0,0 4.36528,1.52561 7.33446,-2.52035 2.97132,-4.04593 1.2127,-8.74137 -1.28175,-9.83754 -2.49013,-1.09833 -5.48305,0.68187 -5.48305,0.68187 l 2.37577,-4.43 c 0,0 -9.59373,-22.7155 -20.23615,-9.03055"
         style="fill:#ef8362;fill-opacity:1;fill-rule:nonzero;stroke:none;stroke-width:2.15783"
         id="path54182" />
      <path
         d="m 772.38945,375.31199 c 0,0 -6.5857,1.32708 -11.16031,-6.00093 -4.57891,-7.33014 -4.15597,-10.34031 -4.15597,-10.34031 l -4.5595,7.56749 c 0,0 -1.01849,-5.24784 1.07892,-8.59248 2.09741,-3.34463 4.27681,-2.65196 4.27681,-2.65196 l 14.52221,3.62948 3.82583,11.63934 -3.82799,4.74937"
         style="fill:#fcc670;fill-opacity:1;fill-rule:nonzero;stroke:none;stroke-width:2.15783"
         id="path54184" />
      <path
         d="m 757.8651,385.63504 c -0.43588,0 -0.71427,-0.067 -0.74879,-0.0756 -0.28699,-0.0733 -0.46392,-0.36899 -0.38842,-0.65598 0.0711,-0.28701 0.35174,-0.46179 0.65168,-0.39059 0.0951,0.021 1.97874,0.42727 3.79131,-1.69605 0.19638,-0.22658 0.53729,-0.25258 0.76172,-0.0604 0.22658,0.19429 0.25258,0.53514 0.0604,0.76172 -1.55146,1.81257 -3.1979,2.11681 -4.12792,2.11681"
         style="fill:#000000;fill-opacity:1;fill-rule:nonzero;stroke:none;stroke-width:2.15783"
         id="path54186" />
      <path
         d="m 755.04912,381.37118 c -0.23079,0 -0.44451,-0.14887 -0.51573,-0.38193 -1.00985,-3.30365 1.32275,-6.64829 1.42202,-6.78639 0.17039,-0.24391 0.50924,-0.29993 0.75308,-0.1294 0.24181,0.17249 0.29994,0.50927 0.12732,0.75309 -0.0184,0.0281 -2.12331,3.05765 -1.26881,5.84771 0.0864,0.28483 -0.0756,0.58695 -0.35819,0.67325 -0.0541,0.0158 -0.10582,0.0236 -0.15962,0.0236"
         style="fill:#000000;fill-opacity:1;fill-rule:nonzero;stroke:none;stroke-width:2.15783"
         id="path54188" />
      <path
         d="m 762.62959,374.5999 c -0.19849,0 -0.3906,-0.10996 -0.48553,-0.29992 -0.22868,-0.47256 -0.52866,-0.7531 -0.91277,-0.85667 -0.84585,-0.23314 -1.83197,0.41645 -1.84276,0.42294 -0.24811,0.1641 -0.58263,0.0951 -0.74664,-0.15333 -0.16409,-0.24811 -0.0971,-0.58047 0.15097,-0.74661 0.0539,-0.0368 1.40258,-0.9214 2.71455,-0.56536 0.6948,0.18562 1.23643,0.6646 1.60757,1.422 0.1294,0.26759 0.0184,0.59126 -0.2481,0.72288 -0.0777,0.0368 -0.15753,0.0541 -0.23734,0.0541"
         style="fill:#000000;fill-opacity:1;fill-rule:nonzero;stroke:none;stroke-width:2.15783"
         id="path54190" />
      <path
         d="m 754.03493,373.88353 c -0.22448,0 -0.43589,-0.14021 -0.51139,-0.36468 -0.1641,-0.4769 -0.57832,-1.20407 -0.95378,-1.25802 -0.24601,-0.0368 -0.56534,0.23077 -0.90844,0.71422 -0.1725,0.24601 -0.50924,0.30427 -0.75309,0.1294 -0.24181,-0.17039 -0.29993,-0.50925 -0.12733,-0.75093 0.615,-0.86746 1.27745,-1.25369 1.94422,-1.16091 1.17602,0.17276 1.75861,1.79531 1.81906,1.97871 0.0972,0.28054 -0.0539,0.58696 -0.33665,0.68189 -0.0583,0.021 -0.11657,0.0302 -0.17274,0.0302"
         style="fill:#000000;fill-opacity:1;fill-rule:nonzero;stroke:none;stroke-width:2.15783"
         id="path54192" />
      <path
         d="m 762.30374,370.1181 c -0.1402,0 -0.2762,-0.0541 -0.38193,-0.15963 -1.77374,-1.77159 -2.79872,-1.00122 -2.8397,-0.96888 -0.23314,0.18562 -0.56535,0.14887 -0.75525,-0.0777 -0.18562,-0.22657 -0.15962,-0.55457 0.0604,-0.74662 0.0756,-0.0604 1.78453,-1.48027 4.29624,1.03144 0.21161,0.20926 0.21161,0.55243 0,0.76173 -0.10349,0.10582 -0.24154,0.15963 -0.37977,0.15963"
         style="fill:#000000;fill-opacity:1;fill-rule:nonzero;stroke:none;stroke-width:2.15783"
         id="path54194" />
      <path
         d="m 752.33457,369.53333 c -0.13154,0 -0.26541,-0.0496 -0.36898,-0.14676 -0.21582,-0.20715 -0.22658,-0.54595 -0.021,-0.76389 0.23944,-0.25257 1.51264,-1.49105 2.56566,-1.25368 0.33446,0.0777 0.77898,0.32582 1.00556,1.07026 0.0864,0.28484 -0.0736,0.58696 -0.35823,0.67326 -0.28484,0.0885 -0.58477,-0.0733 -0.67325,-0.3582 -0.0343,-0.1145 -0.10996,-0.30857 -0.22001,-0.33663 -0.29345,-0.0624 -1.05518,0.44236 -1.53637,0.94729 -0.10582,0.11217 -0.24812,0.1683 -0.39272,0.1683"
         style="fill:#000000;fill-opacity:1;fill-rule:nonzero;stroke:none;stroke-width:2.15783"
         id="path54196" />
      <path
         d="m 773.0217,382.54936 c -0.13154,0 -0.26758,-0.0496 -0.36902,-0.14886 -0.21791,-0.20505 -0.22657,-0.54595 -0.021,-0.76171 l 4.17108,-4.39765 c 0.20715,-0.21582 0.54809,-0.22658 0.76386,-0.0184 0.21581,0.20296 0.22448,0.54376 0.021,0.75955 l -4.17324,4.39982 c -0.10789,0.10996 -0.24812,0.16829 -0.39272,0.16829"
         style="fill:#000000;fill-opacity:1;fill-rule:nonzero;stroke:none;stroke-width:2.15783"
         id="path54198" />
      <path
         d="m 777.42797,381.37982 c -0.0819,-0.005 -2.95838,-0.45098 -2.95838,-0.45098 -0.29347,-0.0455 -0.4963,-0.32154 -0.45098,-0.61499 0.0475,-0.29347 0.32797,-0.48983 0.61496,-0.45098 l 2.8764,0.44449 c 0.29563,0.0455 0.49846,0.32152 0.451,0.615 -0.0389,0.26541 -0.27189,0.45746 -0.533,0.45746"
         style="fill:#000000;fill-opacity:1;fill-rule:nonzero;stroke:none;stroke-width:2.15783"
         id="path54200" />
      <path
         d="m 782.85276,403.18469 -1.1415,-1.47812 c -1.06162,-1.37453 -2.82676,-2.00461 -4.51632,-1.61188 0,0 -3.6942,8.69821 -6.38287,19.83262 -2.06504,8.54717 -3.04901,11.81628 -3.04901,11.81628 l -28.99911,-1.09401 c 0,0 2.48798,-15.19761 5.48522,-22.2753 3.00155,-7.07769 3.00155,-7.07769 3.00155,-7.07769 0,0 -4.90261,2.09309 -7.07554,4.33509 -6.01603,6.21239 -18.16461,54.58449 -19.27159,76.30737 -1.10913,21.72288 44.22043,1.38749 44.22043,1.38749 l 20.48428,-35.18558 -2.75554,-44.95627"
         style="fill:#d180b8;fill-opacity:1;fill-rule:nonzero;stroke:none;stroke-width:2.15783"
         id="path54202" />
      <path
         d="m 704.2473,464.3441 c 0,0 -3.4288,-17.34895 1.59896,-15.13935 5.02342,2.20747 6.52526,12.31043 6.52526,12.31043 l -8.12422,2.82892"
         style="fill:#f48462;fill-opacity:1;fill-rule:nonzero;stroke:none;stroke-width:2.15783"
         id="path54204" />
      <path
         d="m 692.4526,404.99081 c 11.9997,5.63624 19.37731,15.2084 16.47719,21.38193 -2.89796,6.1714 -14.97749,6.60728 -26.9772,0.96888 -11.99968,-5.63626 -19.37731,-15.20841 -16.47719,-21.38194 2.89797,-6.17141 14.97749,-6.60728 26.9772,-0.96887"
         style="fill:#a6c691;fill-opacity:1;fill-rule:nonzero;stroke:none;stroke-width:2.15783"
         id="path54206" />
      <path
         d="m 739.45664,409.12521 c -3.75248,9.08662 -10.57986,14.88904 -15.25372,12.95777 -4.67387,-1.92693 -5.42048,-10.85606 -1.67233,-19.94268 3.75033,-9.08662 10.57771,-14.88686 15.25158,-12.95992 4.67385,1.93125 5.42262,10.85821 1.67447,19.94483"
         style="fill:#a6c691;fill-opacity:1;fill-rule:nonzero;stroke:none;stroke-width:2.15783"
         id="path54208" />
      <path
         d="m 694.20907,460.0759 c -9.73613,1.3465 -18.19266,-1.62053 -18.88316,-6.62884 -0.69269,-5.00832 6.63747,-10.16123 16.37576,-11.50772 9.73613,-1.34647 18.19051,1.62269 18.8832,6.63101 0.69265,5.00832 -6.63966,10.15907 -16.3758,11.50555"
         style="fill:#a6c691;fill-opacity:1;fill-rule:nonzero;stroke:none;stroke-width:2.15783"
         id="path54210" />
      <path
         d="m 727.78922,460.93905 c -0.2697,0 -0.50058,-0.19848 -0.53511,-0.47256 -3.44391,-27.77346 -39.89615,-43.64644 -40.26514,-43.80397 -0.27403,-0.11657 -0.39919,-0.43373 -0.28267,-0.70778 0.11657,-0.27619 0.43802,-0.40135 0.70992,-0.28483 0.37114,0.15962 37.38659,16.27221 40.91031,44.66493 0.0345,0.29563 -0.17486,0.5632 -0.46826,0.59987 -0.0236,0.005 -0.0475,0.005 -0.069,0.005"
         style="fill:#719b56;fill-opacity:1;fill-rule:nonzero;stroke:none;stroke-width:2.15783"
         id="path54212" />
      <path
         d="m 741.90794,418.91961 c 8.99599,-9.74045 20.35048,-13.88133 25.3588,-9.25494 5.0105,4.62639 1.77808,16.27219 -7.21793,26.01047 -8.996,9.73833 -20.3505,13.88134 -25.35883,9.25494 -5.0105,-4.62639 -1.77589,-16.27219 7.21796,-26.01047"
         style="fill:#a6c691;fill-opacity:1;fill-rule:nonzero;stroke:none;stroke-width:2.15783"
         id="path54214" />
      <path
         d="m 722.68597,459.38325 c -0.26124,0 -0.48768,-0.18772 -0.53299,-0.45315 -2.04994,-12.52406 -26.00403,-9.41893 -26.24786,-9.38656 -0.28268,0.0517 -0.56533,-0.1662 -0.60634,-0.46177 -0.0409,-0.29563 0.16619,-0.56752 0.46394,-0.60635 1.02929,-0.14021 25.23799,-3.27129 27.45622,10.27989 0.0475,0.29348 -0.15096,0.57183 -0.44666,0.6193 -0.0281,0.005 -0.0583,0.008 -0.0864,0.008"
         style="fill:#719b56;fill-opacity:1;fill-rule:nonzero;stroke:none;stroke-width:2.15783"
         id="path54216" />
      <path
         d="m 727.78922,463.93844 c -0.39701,-0.069 -0.58691,-0.35388 -0.52865,-0.64521 5.56075,-27.9288 27.71086,-44.98428 27.9331,-45.1526 0.23945,-0.17905 0.57402,-0.136 0.75525,0.10349 0.17905,0.23734 0.1339,0.57614 -0.10349,0.75525 -0.22001,0.16619 -22.04655,16.98645 -27.52528,44.50526 -0.0517,0.25677 -0.2762,0.43372 -0.53083,0.43372"
         style="fill:#719b56;fill-opacity:1;fill-rule:nonzero;stroke:none;stroke-width:2.15783"
         id="path54218" />
      <path
         d="m 725.31853,461.30155 c -0.22237,0 -0.42727,-0.136 -0.50711,-0.35605 -7.44449,-20.50369 2.36715,-50.40476 2.46641,-50.7047 0.0951,-0.2805 0.40351,-0.43373 0.68403,-0.34094 0.28052,0.0951 0.43587,0.40137 0.34094,0.68188 -0.0992,0.29778 -9.79224,29.84711 -2.47718,49.99478 0.10128,0.28053 -0.043,0.59126 -0.32367,0.69268 -0.0583,0.021 -0.12292,0.0322 -0.18353,0.0322"
         style="fill:#719b56;fill-opacity:1;fill-rule:nonzero;stroke:none;stroke-width:2.15783"
         id="path54220" />
      <path
         d="m 745.99702,500.71435 h -27.33325 c -1.48243,0 -2.72318,-1.05302 -2.86777,-2.43836 l -4.18187,-39.81845 c -0.1662,-1.59033 1.16308,-2.96918 2.86993,-2.96918 h 35.69269 c 1.70466,0 3.03606,1.37885 2.86989,2.96918 l -4.18186,39.81845 c -0.14467,1.38534 -1.38533,2.43836 -2.86776,2.43836"
         style="fill:#60253d;fill-opacity:1;fill-rule:nonzero;stroke:none;stroke-width:2.15783"
         id="path54222" />
      <path
         d="m 739.94648,500.71435 h -27.33325 c -1.4803,0 -2.72105,-1.05302 -2.86778,-2.43836 l -4.17972,-39.81845 c -0.16619,-1.59033 1.16523,-2.96918 2.86777,-2.96918 h 35.69484 c 1.70251,0 3.0339,1.37885 2.86776,2.96918 l -4.18188,39.81845 c -0.14467,1.38534 -1.38533,2.43836 -2.86774,2.43836"
         style="fill:#a32c46;fill-opacity:1;fill-rule:nonzero;stroke:none;stroke-width:2.15783"
         id="path54224" />
      <path
         d="m 748.08795,481.38233 c 0,0 14.14459,-6.4735 19.42048,-12.70962 5.27374,-6.23182 7.04315,-17.26264 7.04315,-17.26264 l 28.44022,7.19421 c 0,0 0,14.02589 -13.42817,25.12146 -11.09558,9.17076 -40.02776,12.76141 -40.02776,12.76141 l -1.44792,-15.10482"
         style="fill:#ef8362;fill-opacity:1;fill-rule:nonzero;stroke:none;stroke-width:2.15783"
         id="path54226" />
      <path
         d="m 782.85276,403.18469 c 0,0 16.78146,7.81784 21.3388,25.14521 4.55517,17.32739 1.43711,32.43219 1.43711,32.43219 l -36.00341,-1.46732 6.59218,-33.53484 c 0.88686,-4.91987 2.26789,-9.7383 4.11929,-14.37978 l 2.51603,-8.19546"
         style="fill:#3f4f4f;fill-opacity:1;fill-rule:nonzero;stroke:none;stroke-width:2.15783"
         id="path54228" />
      <path
         d="m 753.66594,478.58147 c 0,0 -6.85326,-2.34341 -10.32521,-3.12454 -3.47628,-0.78114 -14.85667,6.77127 -14.85667,6.77127 0,0 -8.14797,5.46793 -5.54562,7.55025 2.60449,2.08231 6.40013,0.0926 7.70344,0.61284 1.29903,0.52002 -0.41215,11.62421 1.93127,12.66645 3.76325,1.67232 15.88596,-0.25888 21.09279,-4.1646 5.20902,-3.90568 9.02191,-12.50031 9.02191,-12.50031 l -9.02191,-7.81136"
         style="fill:#ef8362;fill-opacity:1;fill-rule:nonzero;stroke:none;stroke-width:2.15783"
         id="path54230" />
      <path
         d="m 732.93135,480.6616 c -0.26541,0 -0.4963,-0.19427 -0.53516,-0.46392 -0.0389,-0.29563 0.16409,-0.56967 0.45964,-0.61066 l 7.24384,-1.01849 c 0.2913,-0.0368 0.5675,0.1641 0.61065,0.45962 0.0389,0.29563 -0.16409,0.56749 -0.45962,0.6085 l -7.24383,1.02065 c -0.0236,0.003 -0.0496,0.005 -0.0756,0.005"
         style="fill:#000000;fill-opacity:1;fill-rule:nonzero;stroke:none;stroke-width:2.15783"
         id="path54232" />
      <path
         d="m 730.0528,490.86169 c -0.24154,0 -0.46177,-0.16173 -0.5222,-0.40784 -0.0733,-0.28914 0.10349,-0.58047 0.39274,-0.65382 l 3.16984,-0.79193 c 0.29562,-0.0733 0.58046,0.10349 0.65166,0.39272 0.0736,0.28915 -0.10349,0.58047 -0.39056,0.65383 l -3.16986,0.79192 c -0.0455,0.0104 -0.0885,0.0158 -0.13154,0.0158"
         style="fill:#000000;fill-opacity:1;fill-rule:nonzero;stroke:none;stroke-width:2.15783"
         id="path54234" />
      <path
         d="m 701.54353,469.43874 c 0,0 -9.20963,-4.30272 -4.78822,-7.72286 4.41925,-3.42018 22.45007,0.26971 22.56659,6.05915 0.11657,5.78948 -17.77837,1.66371 -17.77837,1.66371"
         style="fill:#f48462;fill-opacity:1;fill-rule:nonzero;stroke:none;stroke-width:2.15783"
         id="path54236" />
      <path
         d="m 699.93381,477.69244 c 0,0 -9.20748,-4.3027 -4.78823,-7.72288 4.41924,-3.42017 22.45223,0.26975 22.56875,6.0592 0.11657,5.79162 -17.78052,1.66368 -17.78052,1.66368"
         style="fill:#f48462;fill-opacity:1;fill-rule:nonzero;stroke:none;stroke-width:2.15783"
         id="path54238" />
      <path
         d="m 700.65883,486.1015 c 0,0 -8.67881,-2.36282 -5.34062,-6.01172 3.33815,-3.64887 19.61683,-3.15044 20.59216,1.88165 0.97536,5.02991 -15.25154,4.13007 -15.25154,4.13007"
         style="fill:#f48462;fill-opacity:1;fill-rule:nonzero;stroke:none;stroke-width:2.15783"
         id="path54240" />
      <path
         d="m 711.71771,479.64311 c -0.0626,-0.005 -11.8465,-1.41338 -11.8465,-1.41338 -0.29778,-0.0368 -0.50707,-0.30424 -0.47256,-0.59986 0.0345,-0.29563 0.31073,-0.51142 0.59987,-0.47259 l 11.78392,1.41125 c 0.29563,0.0343 0.50709,0.30208 0.47041,0.59987 -0.0302,0.27405 -0.26541,0.47471 -0.53514,0.47471"
         style="fill:#000000;fill-opacity:1;fill-rule:nonzero;stroke:none;stroke-width:2.15783"
         id="path54242" />
      <path
         d="m 711.08331,470.96 c -0.10582,-0.0104 -10.97903,-2.18801 -10.97903,-2.18801 -0.29133,-0.0604 -0.4812,-0.3431 -0.42294,-0.63658 0.0562,-0.28914 0.32367,-0.48769 0.63439,-0.42294 l 10.87331,2.1794 c 0.29348,0.0583 0.48335,0.34095 0.42294,0.63443 -0.0496,0.25677 -0.2762,0.4337 -0.52867,0.4337"
         style="fill:#000000;fill-opacity:1;fill-rule:nonzero;stroke:none;stroke-width:2.15783"
         id="path54244" />
      <path
         d="m 744.19739,458.2288 h -11.86806 c -0.29779,0 -0.53946,-0.23944 -0.53946,-0.53945 0,-0.29779 0.24154,-0.53946 0.53946,-0.53946 h 11.86806 c 0.29779,0 0.53946,0.24181 0.53946,0.53946 0,0.29993 -0.24154,0.53945 -0.53946,0.53945"
         style="fill:#d180b8;fill-opacity:1;fill-rule:nonzero;stroke:none;stroke-width:2.15783"
         id="path54246" />
      <path
         d="m 761.45787,403.68316 c -5.32768,0 -6.8619,-2.62825 -6.93095,-2.75341 -0.14231,-0.25887 -0.0496,-0.58692 0.20924,-0.73366 0.26326,-0.1423 0.58477,-0.0517 0.73367,0.20506 0.0368,0.067 1.74997,2.76201 7.88037,2.09524 6.33323,-0.6905 8.47381,-4.41923 8.49539,-4.45591 0.14467,-0.26124 0.47256,-0.35171 0.7315,-0.21136 0.26124,0.14676 0.35389,0.47472 0.21136,0.73582 -0.0971,0.17276 -2.4405,4.25522 -9.31966,5.00402 -0.72503,0.0798 -1.39397,0.1145 -2.0111,0.1145"
         style="fill:#fcc670;fill-opacity:1;fill-rule:nonzero;stroke:none;stroke-width:2.15783"
         id="path54248" />
      <path
         d="m 735.95447,614.88302 c -0.24811,0 -0.47041,-0.17039 -0.52652,-0.42078 -0.0302,-0.13154 -2.9929,-13.34833 -4.97164,-34.75188 -2.42541,-26.23705 -1.8363,-66.58634 -1.7694,-70.49632 l -8.07245,-5.09464 c -0.25022,-0.15964 -0.32584,-0.49199 -0.1662,-0.74446 0.15753,-0.25257 0.49199,-0.32582 0.74445,-0.16829 l 8.32492,5.25648 c 0.15963,0.10129 0.25467,0.27835 0.2502,0.46825 -0.005,0.42725 -0.77033,43.28178 1.76295,70.67976 1.97011,21.32584 4.91985,34.48214 4.95007,34.6116 0.0649,0.29133 -0.11865,0.58046 -0.40784,0.64519 -0.0389,0.0104 -0.0798,0.0158 -0.11864,0.0158"
         style="fill:#ffffff;fill-opacity:1;fill-rule:nonzero;stroke:none;stroke-width:2.15783"
         id="path54250" />
      <path
         d="m 777.42797,658.05473 c -0.28484,0 -0.52651,-0.22658 -0.53945,-0.51787 -0.0236,-0.60636 -2.62177,-61.05366 -1.21052,-94.49574 1.28605,-30.44916 1.2364,-48.73892 1.21485,-51.87425 -10.66834,-1.25369 -11.23583,-13.45191 -11.24017,-13.57492 -0.0104,-0.29993 0.22239,-0.54809 0.52221,-0.55888 0.34095,-0.0409 0.54595,0.22237 0.55674,0.51789 0.0184,0.47903 0.55884,11.73859 10.74166,12.59094 0.27837,0.021 0.48983,0.25258 0.49413,0.53082 0.003,0.18562 0.19849,18.9803 -1.21052,52.41371 -1.41121,33.39677 1.18465,93.79875 1.21052,94.40511 0.0131,0.29563 -0.21791,0.5481 -0.51571,0.56319 -0.008,0 -0.0158,0 -0.0236,0"
         style="fill:#ffffff;fill-opacity:1;fill-rule:nonzero;stroke:none;stroke-width:2.15783"
         id="path54252" />
      <path
         d="m 733.22266,677.85283 h -8.02283 c -0.29563,0 -0.53945,-0.24155 -0.53945,-0.53946 0,-0.29778 0.2439,-0.53946 0.53945,-0.53946 h 8.02283 c 0.29779,0 0.53946,0.24154 0.53946,0.53946 0,0.29778 -0.24154,0.53946 -0.53946,0.53946"
         style="fill:#60253d;fill-opacity:1;fill-rule:nonzero;stroke:none;stroke-width:2.15783"
         id="path54254" />
      <path
         d="m 820.36449,639.22767 c -0.0539,0 -0.1079,-0.005 -0.15963,-0.0237 -0.28481,-0.0885 -0.44234,-0.39056 -0.35389,-0.67539 l 2.3758,-7.65601 c 0.0885,-0.28266 0.39055,-0.44449 0.67539,-0.35386 0.28269,0.0885 0.44234,0.39057 0.35389,0.67541 l -2.37793,7.65596 c -0.0711,0.23079 -0.28484,0.37763 -0.51358,0.37763"
         style="fill:#60253d;fill-opacity:1;fill-rule:nonzero;stroke:none;stroke-width:2.15783"
         id="path54256" />
    </g>
  </g>
  <g
     inkscape:groupmode="layer"
     id="layer4"
     inkscape:label="foreground">
    <path
       d="m 254.12225,697.1479 c -9.36,0 -17.83467,-6.34266 -19.68133,-15.51733 -0.548,-2.72267 -0.46134,-5.53867 0.74133,-8.20267 4.81333,-10.65733 15.12667,-10.984 15.12667,-10.984 0,0 -6.532,-17.892 11.688,-24.768 18.22,-6.876 26.81466,7.752 26.81466,7.752 0,0 -10.31333,-37.20133 21.31334,-44.99466 31.62666,-7.792 36.43999,35.71066 36.43999,35.71066 0,0 14.43867,-6.03066 24.752,6 10.312,12.03334 3.09334,27.256 3.09334,27.256 0,0 13.064,-2.892 14.78266,12.256 1.71867,15.148 -17.188,15.492 -17.188,15.492 H 254.12225"
       style="fill:#b9dba2;fill-opacity:1;fill-rule:nonzero;stroke:none;stroke-width:1.33333"
       id="path55474" />
    <path
       d="m 312.82092,697.6639 c -0.28534,0 -0.516,-0.23067 -0.516,-0.516 v -72.18533 c 0,-0.28533 0.23066,-0.516 0.516,-0.516 0.284,0 0.51466,0.23067 0.51466,0.516 v 72.18533 c 0,0.28533 -0.23066,0.516 -0.51466,0.516"
       style="fill:#939e6a;fill-opacity:1;fill-rule:nonzero;stroke:none;stroke-width:1.33333"
       id="path55482" />
    <path
       d="m 312.82092,691.7879 c -0.15867,0 -0.31467,-0.072 -0.41467,-0.20933 L 281.78892,650.2199 c -0.16934,-0.22933 -0.12134,-0.552 0.10666,-0.72133 0.228,-0.172 0.552,-0.124 0.72134,0.10667 l 30.61733,41.36 c 0.16933,0.228 0.12133,0.552 -0.10667,0.72133 -0.092,0.068 -0.2,0.10133 -0.30666,0.10133"
       style="fill:#939e6a;fill-opacity:1;fill-rule:nonzero;stroke:none;stroke-width:1.33333"
       id="path55484" />
    <path
       d="m 312.82092,655.8599 c -0.16667,0 -0.332,-0.08 -0.43067,-0.22933 -0.15733,-0.23867 -0.092,-0.55733 0.14533,-0.716 l 16.39467,-10.86267 c 0.23866,-0.15866 0.55733,-0.092 0.71466,0.144 0.15734,0.23867 0.092,0.55734 -0.14533,0.71467 l -16.39466,10.864 c -0.088,0.0587 -0.18667,0.0853 -0.284,0.0853"
       style="fill:#939e6a;fill-opacity:1;fill-rule:nonzero;stroke:none;stroke-width:1.33333"
       id="path55486" />
  </g>
</svg>
