<?xml version="1.0" encoding="UTF-8" standalone="no"?>
<!-- Created with Inkscape (http://www.inkscape.org/) -->

<svg
   width="1200"
   height="1000"
   viewBox="0 0 1200 1000"
   version="1.1"
   id="svg55524"
   inkscape:version="1.2.1 (9c6d41e, 2022-07-14)"
   sodipodi:docname="sustainable-peace.svg"
   xmlns:inkscape="http://www.inkscape.org/namespaces/inkscape"
   xmlns:sodipodi="http://sodipodi.sourceforge.net/DTD/sodipodi-0.dtd"
   xmlns="http://www.w3.org/2000/svg"
   xmlns:svg="http://www.w3.org/2000/svg">
  <sodipodi:namedview
     id="namedview55526"
     pagecolor="#ffffff"
     bordercolor="#000000"
     borderopacity="0.25"
     inkscape:showpageshadow="2"
     inkscape:pageopacity="0.0"
     inkscape:pagecheckerboard="0"
     inkscape:deskcolor="#d1d1d1"
     inkscape:document-units="mm"
     showgrid="false"
     inkscape:zoom="0.96201955"
     inkscape:cx="624.20769"
     inkscape:cy="511.42412"
     inkscape:window-width="1440"
     inkscape:window-height="872"
     inkscape:window-x="0"
     inkscape:window-y="0"
     inkscape:window-maximized="1"
     inkscape:current-layer="g118390" />
  <defs
     id="defs55521">
    <clipPath
       clipPathUnits="userSpaceOnUse"
       id="clipPath70186">
      <g
         id="g70202">
        <path
           d="m 691.17079,810.87862 h -0.53633 L 653.26565,627.22431 h 0.53633 l 37.36881,183.65431"
           style="fill:#c0d8fb;fill-opacity:1;fill-rule:nonzero;stroke:none;stroke-width:0.470461"
           id="path70188" />
        <path
           d="m 750.82068,810.86921 h -0.53632 L 712.91555,627.2149 h 0.53633 l 37.3688,183.65431"
           style="fill:#c0d8fb;fill-opacity:1;fill-rule:nonzero;stroke:none;stroke-width:0.470461"
           id="path70190" />
        <path
           d="m 810.47057,810.85981 h -0.5316 L 772.56546,627.20549 h 0.53632 l 37.36879,183.65432"
           style="fill:#c0d8fb;fill-opacity:1;fill-rule:nonzero;stroke:none;stroke-width:0.470461"
           id="path70192" />
        <path
           d="m 870.12519,810.8504 h -0.53633 L 832.21534,627.19608 h 0.53633 l 37.37352,183.65432"
           style="fill:#c0d8fb;fill-opacity:1;fill-rule:nonzero;stroke:none;stroke-width:0.470461"
           id="path70194" />
        <path
           d="m 888.80725,670.39862 -279.92029,0.0376 -0.1035,-0.50339 279.92499,-0.0376 0.0988,0.50339"
           style="fill:#c0d8fb;fill-opacity:1;fill-rule:nonzero;stroke:none;stroke-width:0.470461"
           id="path70196" />
        <path
           d="m 898.77164,719.35491 -279.9203,0.0423 -0.1035,-0.5034 279.92028,-0.0376 0.10352,0.49868"
           style="fill:#c0d8fb;fill-opacity:1;fill-rule:nonzero;stroke:none;stroke-width:0.470461"
           id="path70198" />
        <path
           d="m 908.73603,768.31591 -279.925,0.0376 -0.1035,-0.50339 279.92497,-0.0376 0.10353,0.50339"
           style="fill:#c0d8fb;fill-opacity:1;fill-rule:nonzero;stroke:none;stroke-width:0.470461"
           id="path70200" />
      </g>
    </clipPath>
  </defs>
  <g
     inkscape:groupmode="layer"
     id="layer6"
     inkscape:label="sky"
     transform="matrix(1.1037536,0,0,1.1037536,9.6150217,-54.442712)">
    <path
       d="m 545.06526,259.23965 c 94.43732,0 170.99573,76.55841 170.99573,170.99702 0,94.44098 -76.55841,170.99459 -170.99573,170.99459 -94.43977,0 -170.99831,-76.55361 -170.99831,-170.99459 0,-94.43861 76.55854,-170.99702 170.99831,-170.99702"
       style="fill:#ebb763;fill-opacity:1;fill-rule:evenodd;stroke:none;stroke-width:0.121601"
       id="path407"
       inkscape:export-filename="garden-solar.png"
       inkscape:export-xdpi="96"
       inkscape:export-ydpi="96" />
    <path
       d="m 430.2265,307.83227 c 12.01172,0 22.57151,6.22106 28.63455,15.6147 1.72063,-0.50593 3.53972,-0.77741 5.42344,-0.77741 10.61688,0 19.22256,8.60557 19.22256,19.22135 0,2.72746 -0.56878,5.31995 -1.59296,7.66931 H 373.49141 c -0.81471,-2.40768 -1.25613,-4.98686 -1.25613,-7.66931 0,-13.21678 10.71542,-23.93352 23.93337,-23.93352 2.96096,0 5.79549,0.53896 8.41353,1.52368 6.24299,-7.13911 15.41654,-11.64922 25.64432,-11.64922"
       style="fill:#ffffff;fill-opacity:1;fill-rule:evenodd;stroke:none;stroke-width:0.121601"
       id="path409" />
    <path
       d="m 617.6065,268.04177 c 8.06461,0 15.15269,4.17464 19.22385,10.48082 1.15517,-0.33903 2.37479,-0.52203 3.63953,-0.52203 7.12577,0 12.90422,5.77723 12.90422,12.90308 0,1.83126 -0.38189,3.5726 -1.0701,5.14972 h -72.78025 c -0.54943,-1.61605 -0.8451,-3.34885 -0.8451,-5.14972 0,-8.87203 7.19263,-16.06583 16.06704,-16.06583 1.9869,0 3.88879,0.36246 5.64707,1.02263 4.1916,-4.79229 10.34948,-7.81897 17.21374,-7.81897"
       style="fill:#ffffff;fill-opacity:1;fill-rule:evenodd;stroke:none;stroke-width:0.121601"
       id="path413" />
    <path
       d="m 654.22061,316.24941 c 16.08654,0 30.22617,8.32966 38.34671,20.90808 2.3043,-0.67514 4.74119,-1.03975 7.26319,-1.03975 14.21628,0 25.74282,11.52533 25.74282,25.74161 0,3.65284 -0.76214,7.12585 -2.13408,10.27162 H 578.24224 c -1.09202,-3.2248 -1.68302,-6.6796 -1.68302,-10.27162 0,-17.70138 14.35007,-32.05021 32.05031,-32.05021 3.96654,0 7.76172,0.72103 11.26746,2.03917 8.36122,-9.56016 20.64532,-15.5989 34.34362,-15.5989"
       style="fill:#ffffff;fill-opacity:1;fill-rule:evenodd;stroke:none;stroke-width:0.121601"
       id="path417" />
  </g>
  <g
     inkscape:groupmode="layer"
     id="layer2"
     inkscape:label="solar"
     transform="matrix(-1,0,0,1,1587.6607,0.96767637)">
    <g
       id="g62847"
       transform="matrix(1.1349997,0,0,1.1349997,-71.362661,-346.92061)"
       inkscape:label="panel">
      <path
         d="m 737.65245,900.7369 20.09345,-0.24935 46.92387,-195.52878 -20.09341,0.24935 -46.92391,195.52878"
         style="fill:#8cb4f4;fill-opacity:1;fill-rule:nonzero;stroke:none;stroke-width:0.470461"
         id="path58351" />
      <path
         d="m 704.46134,905.08867 h 90.09821 c 0,-5.27388 -4.27181,-9.54568 -9.54566,-9.54568 h -71.00687 c -5.27388,0 -9.54568,4.2718 -9.54568,9.54568"
         style="fill:#8cb4f4;fill-opacity:1;fill-rule:nonzero;stroke:none;stroke-width:0.470461"
         id="path58353" />
      <path
         d="m 912.59381,814.55764 -8.6565,-43.38602 -0.0141,-0.0894 -28.8017,-144.38484 -279.92029,0.0376 37.47231,187.86495 53.16693,-0.009 h 0.50339 l 59.50407,-0.009 h 0.17875 l 59.24532,-0.009 h 0.40461 l 59.11825,-0.005 h 0.53163 l 47.26734,-0.009"
         style="fill:#39476b;fill-opacity:1;fill-rule:nonzero;stroke:none;stroke-width:0.470461"
         id="path58355" />
      <path
         d="m 917.38783,810.84569 -279.9203,0.0376 -37.47231,-184.1483 279.9203,-0.0376 37.47231,184.1483"
         style="fill:#6876aa;fill-opacity:1;fill-rule:nonzero;stroke:none;stroke-width:0.470461"
         id="path58357" />
      <path
         d="m 898.98788,800.72468 -256.22963,0.0344 -34.30089,-168.56316 256.22963,-0.0344 34.30089,168.56316"
         style="fill:#c0d8fb;fill-opacity:1;fill-rule:nonzero;stroke:none;stroke-width:0.430644"
         id="path58357-9"
         clip-path="url(#clipPath70186)" />
      <path
         d="m 663.37588,675.59253 -6.86404,-5.41032 4.66228,-5.41502 6.86404,5.41031 -4.66228,5.41503"
         style="fill:#c0d8fb;fill-opacity:1;fill-rule:nonzero;stroke:none;stroke-width:0.470461"
         id="path58373" />
      <path
         d="m 673.38732,724.80287 -6.86405,-5.41502 4.66229,-5.41032 6.86404,5.41032 -4.66228,5.41502"
         style="fill:#c0d8fb;fill-opacity:1;fill-rule:nonzero;stroke:none;stroke-width:0.470461"
         id="path58375" />
      <path
         d="m 723.29394,675.58312 -6.86404,-5.41032 4.66228,-5.41502 6.86405,5.41031 -4.66229,5.41503"
         style="fill:#c0d8fb;fill-opacity:1;fill-rule:nonzero;stroke:none;stroke-width:0.470461"
         id="path58377" />
      <path
         d="m 733.30538,724.79346 -6.86404,-5.41032 4.66227,-5.41502 6.86405,5.41032 -4.66228,5.41502"
         style="fill:#c0d8fb;fill-opacity:1;fill-rule:nonzero;stroke:none;stroke-width:0.470461"
         id="path58379" />
      <path
         d="m 782.94384,675.5737 -6.86403,-5.41031 4.66227,-5.41502 6.86403,5.41032 -4.66227,5.41501"
         style="fill:#c0d8fb;fill-opacity:1;fill-rule:nonzero;stroke:none;stroke-width:0.470461"
         id="path58381" />
      <path
         d="m 842.0574,675.569 -6.86403,-5.41502 4.66227,-5.41502 6.86407,5.41502 -4.66231,5.41502"
         style="fill:#c0d8fb;fill-opacity:1;fill-rule:nonzero;stroke:none;stroke-width:0.470461"
         id="path58383" />
      <path
         d="m 683.29996,773.50982 -6.86405,-5.41503 4.66228,-5.41031 6.86405,5.41031 -4.66228,5.41503"
         style="fill:#c0d8fb;fill-opacity:1;fill-rule:nonzero;stroke:none;stroke-width:0.470461"
         id="path58385" />
      <path
         d="m 743.218,773.5004 -6.86403,-5.41031 4.66227,-5.41502 6.86407,5.41031 -4.66231,5.41502"
         style="fill:#c0d8fb;fill-opacity:1;fill-rule:nonzero;stroke:none;stroke-width:0.470461"
         id="path58387" />
      <path
         d="m 802.86793,773.49099 -6.86407,-5.41031 4.6623,-5.41502 6.86403,5.41032 -4.66226,5.41501"
         style="fill:#c0d8fb;fill-opacity:1;fill-rule:nonzero;stroke:none;stroke-width:0.470461"
         id="path58389" />
      <path
         d="m 861.98149,773.48629 -6.86403,-5.41502 4.66226,-5.41502 6.86403,5.41502 -4.66226,5.41502"
         style="fill:#c0d8fb;fill-opacity:1;fill-rule:nonzero;stroke:none;stroke-width:0.470461"
         id="path58391" />
      <path
         d="m 852.07355,724.77934 -6.86403,-5.41502 4.66227,-5.41502 6.86403,5.41502 -4.66227,5.41502"
         style="fill:#c0d8fb;fill-opacity:1;fill-rule:nonzero;stroke:none;stroke-width:0.470461"
         id="path58393" />
      <path
         d="m 792.95999,724.78405 -6.86406,-5.41032 4.65757,-5.41502 6.86407,5.41502 -4.65758,5.41032"
         style="fill:#c0d8fb;fill-opacity:1;fill-rule:nonzero;stroke:none;stroke-width:0.470461"
         id="path58395" />
    </g>
    <g
       id="g72865"
       transform="matrix(-0.61764465,0,0,0.61764465,1677.3192,124.23466)"
       inkscape:label="panel">
      <path
         d="m 737.65245,900.7369 20.09345,-0.24935 46.92387,-195.52878 -20.09341,0.24935 -46.92391,195.52878"
         style="fill:#8cb4f4;fill-opacity:1;fill-rule:nonzero;stroke:none;stroke-width:0.470461"
         id="path72831" />
      <path
         d="m 704.46134,905.08867 h 90.09821 c 0,-5.27388 -4.27181,-9.54568 -9.54566,-9.54568 h -71.00687 c -5.27388,0 -9.54568,4.2718 -9.54568,9.54568"
         style="fill:#8cb4f4;fill-opacity:1;fill-rule:nonzero;stroke:none;stroke-width:0.470461"
         id="path72833" />
      <path
         d="m 912.59381,814.55764 -8.6565,-43.38602 -0.0141,-0.0894 -28.8017,-144.38484 -279.92029,0.0376 37.47231,187.86495 53.16693,-0.009 h 0.50339 l 59.50407,-0.009 h 0.17875 l 59.24532,-0.009 h 0.40461 l 59.11825,-0.005 h 0.53163 l 47.26734,-0.009"
         style="fill:#39476b;fill-opacity:1;fill-rule:nonzero;stroke:none;stroke-width:0.470461"
         id="path72835" />
      <path
         d="m 917.38783,810.84569 -279.9203,0.0376 -37.47231,-184.1483 279.9203,-0.0376 37.47231,184.1483"
         style="fill:#6876aa;fill-opacity:1;fill-rule:nonzero;stroke:none;stroke-width:0.470461"
         id="path72837" />
      <path
         d="m 898.98788,800.72468 -256.22963,0.0344 -34.30089,-168.56316 256.22963,-0.0344 34.30089,168.56316"
         style="fill:#c0d8fb;fill-opacity:1;fill-rule:nonzero;stroke:none;stroke-width:0.430644"
         id="path72839"
         clip-path="url(#clipPath70186)" />
      <path
         d="m 663.37588,675.59253 -6.86404,-5.41032 4.66228,-5.41502 6.86404,5.41031 -4.66228,5.41503"
         style="fill:#c0d8fb;fill-opacity:1;fill-rule:nonzero;stroke:none;stroke-width:0.470461"
         id="path72841" />
      <path
         d="m 673.38732,724.80287 -6.86405,-5.41502 4.66229,-5.41032 6.86404,5.41032 -4.66228,5.41502"
         style="fill:#c0d8fb;fill-opacity:1;fill-rule:nonzero;stroke:none;stroke-width:0.470461"
         id="path72843" />
      <path
         d="m 723.29394,675.58312 -6.86404,-5.41032 4.66228,-5.41502 6.86405,5.41031 -4.66229,5.41503"
         style="fill:#c0d8fb;fill-opacity:1;fill-rule:nonzero;stroke:none;stroke-width:0.470461"
         id="path72845" />
      <path
         d="m 733.30538,724.79346 -6.86404,-5.41032 4.66227,-5.41502 6.86405,5.41032 -4.66228,5.41502"
         style="fill:#c0d8fb;fill-opacity:1;fill-rule:nonzero;stroke:none;stroke-width:0.470461"
         id="path72847" />
      <path
         d="m 782.94384,675.5737 -6.86403,-5.41031 4.66227,-5.41502 6.86403,5.41032 -4.66227,5.41501"
         style="fill:#c0d8fb;fill-opacity:1;fill-rule:nonzero;stroke:none;stroke-width:0.470461"
         id="path72849" />
      <path
         d="m 842.0574,675.569 -6.86403,-5.41502 4.66227,-5.41502 6.86407,5.41502 -4.66231,5.41502"
         style="fill:#c0d8fb;fill-opacity:1;fill-rule:nonzero;stroke:none;stroke-width:0.470461"
         id="path72851" />
      <path
         d="m 683.29996,773.50982 -6.86405,-5.41503 4.66228,-5.41031 6.86405,5.41031 -4.66228,5.41503"
         style="fill:#c0d8fb;fill-opacity:1;fill-rule:nonzero;stroke:none;stroke-width:0.470461"
         id="path72853" />
      <path
         d="m 743.218,773.5004 -6.86403,-5.41031 4.66227,-5.41502 6.86407,5.41031 -4.66231,5.41502"
         style="fill:#c0d8fb;fill-opacity:1;fill-rule:nonzero;stroke:none;stroke-width:0.470461"
         id="path72855" />
      <path
         d="m 802.86793,773.49099 -6.86407,-5.41031 4.6623,-5.41502 6.86403,5.41032 -4.66226,5.41501"
         style="fill:#c0d8fb;fill-opacity:1;fill-rule:nonzero;stroke:none;stroke-width:0.470461"
         id="path72857" />
      <path
         d="m 861.98149,773.48629 -6.86403,-5.41502 4.66226,-5.41502 6.86403,5.41502 -4.66226,5.41502"
         style="fill:#c0d8fb;fill-opacity:1;fill-rule:nonzero;stroke:none;stroke-width:0.470461"
         id="path72859" />
      <path
         d="m 852.07355,724.77934 -6.86403,-5.41502 4.66227,-5.41502 6.86403,5.41502 -4.66227,5.41502"
         style="fill:#c0d8fb;fill-opacity:1;fill-rule:nonzero;stroke:none;stroke-width:0.470461"
         id="path72861" />
      <path
         d="m 792.95999,724.78405 -6.86406,-5.41032 4.65757,-5.41502 6.86407,5.41502 -4.65758,5.41032"
         style="fill:#c0d8fb;fill-opacity:1;fill-rule:nonzero;stroke:none;stroke-width:0.470461"
         id="path72863" />
    </g>
  </g>
  <g
     inkscape:label="plants"
     inkscape:groupmode="layer"
     id="layer1">
    <path
       d="m 1008.8243,692.15954 c 0,9.73863 -179.08652,17.63447 -400.00002,17.63447 -220.91359,0 -400.00005,-7.89584 -400.00005,-17.63447 0,-9.7417 179.08646,-17.63756 400.00005,-17.63756 220.9135,0 400.00002,7.89586 400.00002,17.63756"
       style="fill:#a6c691;fill-opacity:1;fill-rule:nonzero;stroke:none;stroke-width:1.94382"
       id="path36852"
       inkscape:export-filename="team-work-collaboration.png"
       inkscape:export-xdpi="96"
       inkscape:export-ydpi="96"
       inkscape:label="ground" />
    <path
       d="m 918.80454,674.49277 v 15.58517 l -610.03571,7.02294 c 3.03598,-42.46768 26.17546,-45.26239 46.08366,-37.56358 0,0 10.79892,-12.07806 24.54419,-9.55051 13.73879,2.52756 21.54595,19.97561 21.54595,19.97561 0,0 9.01424,-15.20035 21.33178,-9.76041 12.31103,5.43119 19.90403,18.11273 19.90403,18.11273 l 40.66471,-12.68154 c 0,0 8.14462,-12.95266 20.871,-13.03137 12.72639,-0.0875 19.65094,12.30546 19.65094,12.30546 0,0 2.24546,-12.66404 9.33873,-13.40744 7.09978,-0.73465 7.67088,8.70216 7.67088,8.70216 0,0 4.6207,-14.47444 18.89813,-13.7048 14.27743,0.76963 17.21728,19.00481 17.21728,19.00481 0,0 15.41313,-28.12678 40.95673,-14.00217 25.54363,14.13335 30.08648,18.46257 30.08648,18.46257 0,0 30.49528,-15.00794 45.92137,-11.36965 15.43262,3.63828 19.51469,14.58814 19.51469,14.58814 0,0 7.17115,-33.6017 26.03036,-30.19955 18.85915,3.4109 22.75299,22.65184 22.75299,22.65184 0,0 6.69741,-20.78022 19.89754,-19.13599 13.20017,1.64423 19.48871,14.88549 19.48871,14.88549 l 63.72274,-5.33499 c 0,0 13.60252,-16.64342 33.77268,-5.28251 10.02017,5.64984 16.34112,15.36652 20.17014,23.72759"
       style="fill:#a6c691;fill-opacity:1;fill-rule:nonzero;stroke:none;stroke-width:0.753386"
       id="path54752"
       inkscape:label="background"
       sodipodi:nodetypes="cccccccccccccscccccccscccc" />
  </g>
  <g
     id="g72961"
     transform="matrix(0.87659302,0,0,0.87144781,-30.753145,86.157791)">
    <path
       d="m 776.59441,613.82572 c -2.40534,-17.53866 -9.28134,-20.964 -12.164,-30.656 -2.88267,-9.69199 9.41466,-14.02799 9.75866,-37.17733 0.34267,-23.148 -14.43866,-31.51066 -22.75733,-41.73066 -8.31867,-10.22134 3.16133,-57.01867 -24.40267,-56.816 -22.384,0.164 -18.84533,34.37733 -19.18933,43.39733 -0.344,9.01867 -12.032,19.128 -12.032,19.128 0,0 -28.39467,11.42667 -27.764,33.46667 0.63067,22.04 4.70267,33.90799 0,40.41866 -4.70267,6.51067 -15.468,27.93733 -2.73067,48.068 14.916,23.572 56.00667,5.63067 70.888,9.74267 27.33067,7.552 42.8,-10.30267 40.39334,-27.84134"
       style="fill:#97b783;fill-opacity:1;fill-rule:nonzero;stroke:none;stroke-width:1.33333"
       id="path54758" />
    <path
       d="m 728.95707,682.89639 c 0.28534,0 0.516,-0.23067 0.516,-0.516 l 0.04,-173.024 c 0,-0.28533 -0.23066,-0.51466 -0.516,-0.51466 -0.284,0 -0.516,0.22933 -0.516,0.51466 l -0.04,173.024 c 0,0.28533 0.23067,0.516 0.516,0.516"
       style="fill:#5e7c4a;fill-opacity:1;fill-rule:nonzero;stroke:none;stroke-width:1.33333"
       id="path54760" />
    <path
       d="m 728.99707,608.15772 c 0.10267,0 0.20534,-0.0307 0.296,-0.092 0.232,-0.164 0.28934,-0.48533 0.12667,-0.72 l -29.71733,-42.55066 c -0.164,-0.232 -0.48267,-0.28933 -0.71867,-0.12667 -0.23333,0.164 -0.29067,0.484 -0.12667,0.71867 l 29.71734,42.55066 c 0.1,0.14267 0.26,0.22 0.42266,0.22"
       style="fill:#5e7c4a;fill-opacity:1;fill-rule:nonzero;stroke:none;stroke-width:1.33333"
       id="path54764" />
    <path
       d="m 728.99574,552.16039 c 0.17867,0 0.35067,-0.092 0.44667,-0.25733 l 9.436,-16.2 c 0.144,-0.24667 0.06,-0.56133 -0.18534,-0.704 -0.24933,-0.14667 -0.56266,-0.06 -0.70533,0.18533 l -9.436,16.20134 c -0.144,0.24533 -0.06,0.56133 0.18533,0.704 0.0827,0.048 0.172,0.0707 0.25867,0.0707"
       style="fill:#5e7c4a;fill-opacity:1;fill-rule:nonzero;stroke:none;stroke-width:1.33333"
       id="path54766" />
    <path
       d="m 649.58907,496.84973 c 17.97867,0.005 26.47067,27.65466 28.19067,38.84666 1.44667,9.42267 23.37467,3.80667 26.924,26.61334 2.608,16.75199 -14.14667,30.50133 -5.812,37.03466 8.33333,6.53333 26.648,18.84933 9.868,45.972 -16.78133,27.12267 -46.004,5.25467 -55.63733,6.632 -9.63333,1.376 -9.83733,12.25333 -23.80133,13.61067 -13.964,1.356 -31.29467,-13.83734 -24.96667,-33.516 6.32667,-19.67734 10.52667,-20.656 11.27067,-27.02134 0.744,-6.364 -12.832,-17.64666 -9.42267,-34.52666 3.408,-16.88 13.18133,-14.15867 17.332,-17.41867 4.15067,-3.26 -2.13467,-56.236 26.05466,-56.22666"
       style="fill:#abcc96;fill-opacity:1;fill-rule:nonzero;stroke:none;stroke-width:1.33333"
       id="path54770" />
    <path
       d="m 652.68374,696.34839 c 0.28133,0 0.512,-0.22533 0.516,-0.50667 l 1.71867,-115.44666 c 0.004,-0.28534 -0.224,-0.52 -0.508,-0.524 -0.23867,-0.024 -0.52,0.22266 -0.524,0.508 l -1.71867,115.44666 c -0.004,0.28534 0.224,0.52 0.508,0.52267 0.003,0 0.005,0 0.008,0"
       style="fill:#5e7c4a;fill-opacity:1;fill-rule:nonzero;stroke:none;stroke-width:1.33333"
       id="path54772" />
    <path
       d="m 653.54374,648.28306 c 0.13067,0 0.26133,-0.0493 0.36267,-0.14934 l 35.69466,-35.31733 c 0.20267,-0.2 0.204,-0.52667 0.004,-0.73067 -0.2,-0.2 -0.528,-0.204 -0.72933,-0.004 l -35.69467,35.31867 c -0.20266,0.2 -0.20533,0.52667 -0.004,0.72933 0.1,0.10267 0.23334,0.15334 0.36667,0.15334"
       style="fill:#5e7c4a;fill-opacity:1;fill-rule:nonzero;stroke:none;stroke-width:1.33333"
       id="path54776" />
  </g>
  <g
     id="g74512"
     inkscape:label="bush"
     transform="matrix(0.86066352,0,0,0.95000864,112.87743,30.031369)">
    <path
       d="m 1007.0473,661.61807 c -2.0439,-14.95114 -22.67524,-14.5838 -22.67524,-14.5838 0,0 1.80806,-27.74206 -13.26607,-33.16444 -15.07413,-5.42406 -26.68051,4.36755 -26.68051,4.36755 0,0 -3.616,-14.01763 -14.92084,-16.48449 -11.30636,-2.46686 -14.92248,6.98776 -14.92248,6.98776 0,0 -13.2408,-11.41933 -28.49021,-6.98776 -19.07773,5.5437 -11.75626,24.17153 -11.75626,24.17153 0,0 -23.06286,-5.87901 -46.57719,15.82565 -11.22388,10.36284 -15.74982,22.06188 -17.41631,31.46258 -1.64962,9.30969 5.58246,17.82744 15.03875,17.82744 H 981.7351 c 11.07888,0 20.9682,-7.16805 24.1865,-17.77015 1.1139,-3.66996 1.6733,-7.64323 1.1257,-11.65187"
       style="fill:#b9dba2;fill-opacity:1;fill-rule:nonzero;stroke:none;stroke-width:1.68501"
       id="path55280" />
    <path
       d="m 913.10445,692.31565 c -0.36056,0 -0.6521,-0.29151 -0.6521,-0.6521 v -67.94313 c 0,-0.36059 0.29154,-0.6521 0.6521,-0.6521 0.3589,0 0.65045,0.29151 0.65045,0.6521 v 67.94313 c 0,0.36059 -0.29155,0.6521 -0.65045,0.6521"
       style="fill:#939e6a;fill-opacity:1;fill-rule:nonzero;stroke:none;stroke-width:1.68501"
       id="path55380" />
    <path
       d="m 913.10445,651.14234 c -0.14155,0 -0.28309,-0.0439 -0.40276,-0.13818 -0.28309,-0.22242 -0.33364,-0.63188 -0.11122,-0.91496 l 16.07504,-20.52852 c 0.22242,-0.28814 0.63364,-0.33364 0.91496,-0.11286 0.28308,0.22242 0.33363,0.63188 0.11121,0.91496 l -16.07503,20.53021 c -0.12802,0.16513 -0.32011,0.24939 -0.5122,0.24939"
       style="fill:#939e6a;fill-opacity:1;fill-rule:nonzero;stroke:none;stroke-width:1.68501"
       id="path55382" />
    <path
       d="m 913.10445,682.1331 c -0.15166,0 -0.30495,-0.0522 -0.42804,-0.16006 l -21.28842,-18.53516 c -0.27133,-0.23591 -0.29989,-0.64873 -0.0644,-0.92002 0.23758,-0.27297 0.64704,-0.29824 0.92001,-0.0641 l 21.28855,18.53516 c 0.27121,0.23758 0.29825,0.64872 0.0644,0.92001 -0.13143,0.14828 -0.31164,0.22411 -0.49198,0.22411"
       style="fill:#939e6a;fill-opacity:1;fill-rule:nonzero;stroke:none;stroke-width:1.68501"
       id="path55384" />
  </g>
  <g
     inkscape:groupmode="layer"
     id="layer3"
     inkscape:label="people"
     transform="matrix(1.6222897,0,0,1.6222897,-300.47466,-437.07316)" />
  <g
     inkscape:groupmode="layer"
     id="layer4"
     inkscape:label="foreground"
     transform="matrix(0.81289314,0,0,0.84316927,76.482119,107.62004)">
    <path
       d="m 291.52765,685.83418 c -8.11734,0 -15.46688,-4.71563 -17.06838,-11.53681 -0.47524,-2.02425 -0.40009,-4.11788 0.64291,-6.09851 4.1743,-7.9235 13.11841,-8.16638 13.11841,-8.16638 0,0 -5.66479,-13.30233 10.13626,-18.41449 15.80106,-5.11216 23.25467,5.76345 23.25467,5.76345 0,0 -8.9441,-27.65841 18.48371,-33.45259 27.42781,-5.79319 31.60211,26.55013 31.60211,26.55013 0,0 12.52175,-4.48367 21.46585,4.46088 8.94294,8.94653 2.68266,20.26426 2.68266,20.26426 0,0 11.32958,-2.15014 12.82006,9.11209 1.4905,11.26222 -14.90606,11.51797 -14.90606,11.51797 h -102.2322"
       style="fill:#b9dba2;fill-opacity:1;fill-rule:nonzero;stroke:none;stroke-width:1.07063"
       id="path55474" />
    <path
       d="m 342.4333,686.21782 c -0.24745,0 -0.44749,-0.1715 -0.44749,-0.38364 V 632.1659 c 0,-0.21214 0.20004,-0.38364 0.44749,-0.38364 0.2463,0 0.44634,0.1715 0.44634,0.38364 v 53.66828 c 0,0.21214 -0.20004,0.38364 -0.44634,0.38364"
       style="fill:#939e6a;fill-opacity:1;fill-rule:nonzero;stroke:none;stroke-width:1.07063"
       id="path55482" />
    <path
       d="m 342.4333,681.84914 c -0.1376,0 -0.27289,-0.0535 -0.35961,-0.15564 l -26.55248,-30.74931 c -0.14686,-0.1705 -0.10523,-0.4104 0.0925,-0.53629 0.19773,-0.12788 0.47871,-0.0922 0.62557,0.0793 l 26.55248,30.7503 c 0.14685,0.16951 0.10522,0.4104 -0.0925,0.53629 -0.0798,0.0506 -0.17345,0.0753 -0.26595,0.0753"
       style="fill:#939e6a;fill-opacity:1;fill-rule:nonzero;stroke:none;stroke-width:1.07063"
       id="path55484" />
    <path
       d="m 342.4333,655.13742 c -0.14454,0 -0.28792,-0.0595 -0.37349,-0.17051 -0.13644,-0.17744 -0.0798,-0.41436 0.12604,-0.53233 l 14.21806,-8.07616 c 0.20698,-0.11797 0.48334,-0.0684 0.61978,0.10706 0.13645,0.17744 0.0798,0.41437 -0.12604,0.53134 l -14.21805,8.07716 c -0.0763,0.0436 -0.16189,0.0634 -0.2463,0.0634"
       style="fill:#939e6a;fill-opacity:1;fill-rule:nonzero;stroke:none;stroke-width:1.07063"
       id="path55486" />
  </g>
  <path
     d="m 736.32291,501.97891 c 25.0481,0 45.35401,20.3061 45.35401,45.35465 0,25.0492 -20.30591,45.35401 -45.35401,45.35401 -25.04867,0 -45.35465,-20.30481 -45.35465,-45.35401 0,-25.04855 20.30598,-45.35465 45.35465,-45.35465"
     style="fill:#f8e7cd;fill-opacity:1;fill-rule:evenodd;stroke:none;stroke-width:0.0322527"
     id="path407-1-7"
     inkscape:label="aura" />
  <path
     d="m 494.43866,504.52447 c 25.04811,0 45.35401,20.3061 45.35401,45.35465 0,25.0492 -20.3059,45.35401 -45.35401,45.35401 -25.04867,0 -45.35465,-20.30481 -45.35465,-45.35401 0,-25.04855 20.30598,-45.35465 45.35465,-45.35465"
     style="fill:#f8e7cd;fill-opacity:1;fill-rule:evenodd;stroke:none;stroke-width:0.0322527"
     id="path407-1-7-0"
     inkscape:label="aura" />
  <g
     id="g118390"
     inkscape:label="meditate"
     transform="matrix(-1.220181,0,0,1.220181,1351.1717,-1.2588831)">
    <path
       d="m 685.85044,567.39968 h 21.1754 l 0.28376,-44.55728 h -23.92606 l 2.4669,44.55728"
       style="fill:#68b6d8;fill-opacity:1;fill-rule:nonzero;stroke:none;stroke-width:1.61051"
       id="path117117" />
    <path
       d="m 725.23569,529.39703 c 0,0 48.96749,12.44353 51.82641,30.47866 2.85892,18.03355 -29.61111,22.3838 -46.05279,23.50971 -16.44005,1.12591 -23.69971,-5.82564 -23.69971,-5.82564 l -9.27387,-54.71736 27.19996,6.55463"
       style="fill:#68b6d8;fill-opacity:1;fill-rule:nonzero;stroke:none;stroke-width:1.61051"
       id="path117119" />
    <path
       d="m 778.17418,484.77333 c 0,0 -16.91735,33.86271 -34.9271,34.94435 -18.01139,1.08321 -23.20928,-24.07583 -23.20928,-24.07583 l 21.70847,-3.55168 24.16225,-10.24389 12.26566,2.92705"
       style="fill:#b26756;fill-opacity:1;fill-rule:nonzero;stroke:none;stroke-width:1.61051"
       id="path117121" />
    <path
       d="m 618.80597,484.44125 c 0,0 19.03981,33.86429 39.31143,34.94593 20.26835,1.08321 26.1207,-24.07583 26.1207,-24.07583 l -26.1207,-5.05237 -25.50888,-8.74478 -13.80255,2.92705"
       style="fill:#b26756;fill-opacity:1;fill-rule:nonzero;stroke:none;stroke-width:1.61051"
       id="path117123" />
    <path
       d="m 665.81501,529.39703 c 0,0 -48.96748,12.44353 -51.82641,30.47866 -2.85892,18.03355 33.07856,22.3838 49.52025,23.50971 16.44004,1.12591 18.42144,-7.31684 18.42144,-7.31684 l 11.08469,-53.22616 -27.19997,6.55463"
       style="fill:#68b6d8;fill-opacity:1;fill-rule:nonzero;stroke:none;stroke-width:1.61051"
       id="path117125" />
    <path
       d="m 673.33055,527.58482 c 0,0 2.0667,-54.95773 14.40288,-59.357 13.49255,-4.812 34.73027,-0.22455 39.00143,7.23145 4.26953,7.45757 -3.72988,53.40011 -3.72988,53.40011 0,0 -26.71938,2.98714 -49.67443,-1.27456"
       style="fill:#6876aa;fill-opacity:1;fill-rule:nonzero;stroke:none;stroke-width:1.61051"
       id="path117127" />
    <path
       d="m 710.7344,459.80246 -0.21323,9.24765 c 0,0 -1.79113,2.62186 -7.41385,2.94129 -4.18751,0.23878 -5.63419,-0.70528 -5.63419,-0.70528 l 0.69054,-4.67126 0.67905,-4.55425 10.18256,-1.93239 1.70912,-0.32576"
       style="fill:#b26756;fill-opacity:1;fill-rule:nonzero;stroke:none;stroke-width:1.61051"
       id="path117129" />
    <path
       d="m 709.02528,460.12822 c -0.0295,0.25143 -0.13614,0.54872 -0.30016,0.88555 -2.25204,4.5748 -8.14375,5.44453 -10.56145,5.60109 l 0.67905,-4.55425 10.18256,-1.93239"
       style="fill:#000000;fill-opacity:1;fill-rule:nonzero;stroke:none;stroke-width:1.61051"
       id="path117131" />
    <path
       d="m 697.18937,440.93397 c 0,0 -5.30287,11.4884 -3.46417,17.97188 1.83542,6.48505 7.9584,5.50621 11.62596,4.27909 3.67084,-1.22712 5.38488,-3.38089 5.38488,-3.38089 0,0 3.41005,1.14014 5.71785,-1.91026 2.30781,-3.05039 0.92345,-6.57835 -1.02186,-7.39748 -1.94696,-0.82072 -4.27609,0.52342 -4.27609,0.52342 l 1.84198,-3.33662 c 0,0 -7.53686,-17.06419 -15.80855,-6.74914"
       style="fill:#b26756;fill-opacity:1;fill-rule:nonzero;stroke:none;stroke-width:1.61051"
       id="path117133" />
    <path
       d="m 698.03573,455.5629 c -0.12302,0 -0.2444,-0.0538 -0.32477,-0.15497 -0.79551,-1.00256 -1.10716,-2.00039 -0.92509,-2.965 0.27884,-1.47064 1.61399,-2.28977 1.66976,-2.32298 0.19846,-0.11702 0.44778,-0.0585 0.56424,0.12492 0.11973,0.18502 0.0623,0.42855 -0.12794,0.54556 -0.0115,0.006 -1.09076,0.67682 -1.30071,1.80115 -0.13613,0.73373 0.12302,1.51966 0.77091,2.33563 0.13778,0.17394 0.10334,0.42221 -0.0771,0.55505 -0.0738,0.0553 -0.16238,0.0806 -0.24931,0.0806"
       style="fill:#000000;fill-opacity:1;fill-rule:nonzero;stroke:none;stroke-width:1.61051"
       id="path117135" />
    <path
       d="m 711.66277,456.45161 c -0.10005,0 -0.20174,-0.0348 -0.28212,-0.10753 -0.16402,-0.15022 -0.17058,-0.40007 -0.0164,-0.55821 l 3.24766,-3.31606 c 0.15582,-0.15971 0.41334,-0.16762 0.579,-0.0174 0.16567,0.15022 0.17223,0.40008 0.0164,0.55821 l -3.24602,3.31764 c -0.0804,0.0822 -0.18863,0.12334 -0.29853,0.12334"
       style="fill:#000000;fill-opacity:1;fill-rule:nonzero;stroke:none;stroke-width:1.61051"
       id="path117137" />
    <path
       d="m 715.09906,455.5629 c -0.0607,-0.005 -2.30453,-0.33208 -2.30453,-0.33208 -0.22471,-0.0316 -0.37889,-0.23403 -0.34444,-0.45068 0.0328,-0.21348 0.22307,-0.3637 0.46582,-0.3305 l 2.24384,0.32734 c 0.22471,0.0332 0.37725,0.23404 0.34445,0.45068 -0.0312,0.19451 -0.20503,0.33524 -0.40514,0.33524"
       style="fill:#000000;fill-opacity:1;fill-rule:nonzero;stroke:none;stroke-width:1.61051"
       id="path117139" />
    <path
       d="m 705.12973,447.1929 c -0.14926,0 -0.29196,-0.0791 -0.36577,-0.21507 -0.53308,-1.00256 -2.00272,-0.70843 -2.01913,-0.70685 -0.21815,0.049 -0.43958,-0.0901 -0.48715,-0.30362 -0.0492,-0.21348 0.0919,-0.4238 0.31329,-0.46965 0.0886,-0.019 2.10442,-0.41748 2.92289,1.118 0.10334,0.1945 0.0246,0.43329 -0.17714,0.53291 -0.0591,0.03 -0.12302,0.0443 -0.18699,0.0443"
       style="fill:#000000;fill-opacity:1;fill-rule:nonzero;stroke:none;stroke-width:1.61051"
       id="path117141" />
    <path
       d="m 698.67378,445.86616 c -0.12958,0 -0.25916,-0.0601 -0.33789,-0.17237 -0.20175,-0.28306 -0.4363,-0.43645 -0.7135,-0.46966 -0.67578,-0.0854 -1.4188,0.53608 -1.427,0.5424 -0.17059,0.14548 -0.42646,0.12967 -0.579,-0.0348 -0.14927,-0.16287 -0.1345,-0.41273 0.0344,-0.55663 0.0426,-0.0364 1.02022,-0.86341 2.07161,-0.7369 0.51832,0.0617 0.95298,0.33366 1.28923,0.80964 0.12793,0.17869 0.0804,0.42538 -0.10498,0.54873 -0.0722,0.0474 -0.15254,0.0696 -0.23291,0.0696"
       style="fill:#000000;fill-opacity:1;fill-rule:nonzero;stroke:none;stroke-width:1.61051"
       id="path117143" />
    <path
       d="m 658.1174,490.25898 c 0,0 13.37281,8.98989 17.79652,16.64197 4.42535,7.65209 12.5609,-38.6415 12.5609,-38.6415 0,0 -18.45425,3.06146 -30.35742,21.99953"
       style="fill:#6876aa;fill-opacity:1;fill-rule:nonzero;stroke:none;stroke-width:1.61051"
       id="path117145" />
    <path
       d="m 633.67631,482.28431 c 0,0 -1.29579,-6.46766 -4.5254,-10.81159 -3.22798,-4.34393 -5.28155,-2.10792 -4.8108,-0.34473 0.47074,1.76319 2.79331,4.13835 1.16784,5.541 -1.62383,1.40422 -6.3887,-1.78217 -4.72715,-3.98497 1.65992,-2.2028 3.58719,-0.34473 3.73317,-3.25281 0.14598,-2.90649 -8.0847,-1.47064 -9.97261,0 -1.88626,1.47065 -0.71678,6.49297 -0.71678,6.49297 0,0 -10.68611,-7.44651 -12.76428,-5.25794 -2.07818,2.19015 4.75011,7.79756 4.75011,7.79756 0,0 -5.12409,-4.10514 -4.99287,-0.55821 0.13286,3.54694 12.88238,10.80843 17.89165,12.60324 5.01255,1.7964 6.08526,1.1275 6.08526,1.1275 l 8.88186,-9.35202"
       style="fill:#b26756;fill-opacity:1;fill-rule:nonzero;stroke:none;stroke-width:1.61051"
       id="path117147" />
    <path
       d="m 610.81148,482.67964 c -0.0672,0 -0.1345,-0.0158 -0.19847,-0.049 -0.18535,-0.098 -4.55165,-2.43526 -5.72769,-4.46253 -0.10826,-0.19134 -0.0377,-0.4317 0.1591,-0.53765 0.20011,-0.10595 0.44942,-0.038 0.55932,0.15181 1.05959,1.83118 5.36356,4.13361 5.4062,4.15575 0.19683,0.10595 0.269,0.34631 0.16075,0.53765 -0.0738,0.12967 -0.21487,0.20399 -0.35921,0.20399"
       style="fill:#000000;fill-opacity:1;fill-rule:nonzero;stroke:none;stroke-width:1.61051"
       id="path117149" />
    <path
       d="m 675.28899,506.29688 c -0.24111,-0.009 -0.41826,-0.19292 -0.41006,-0.41114 0.31001,-7.47972 2.71787,-19.27964 2.74083,-19.39824 0.0443,-0.21348 0.2526,-0.3558 0.48223,-0.30994 0.22143,0.0411 0.36741,0.24985 0.32148,0.46333 -0.023,0.1186 -2.4177,11.85843 -2.72442,19.27489 -0.01,0.21348 -0.19027,0.3811 -0.41006,0.3811"
       style="fill:#f7b369;fill-opacity:1;fill-rule:nonzero;stroke:none;stroke-width:1.61051"
       id="path117151" />
    <path
       d="m 701.62784,472.56858 c -3.55603,0 -5.20938,-1.41529 -5.29795,-1.49278 -0.16567,-0.14864 -0.17715,-0.39849 -0.0246,-0.55821 0.15747,-0.16129 0.41334,-0.17236 0.57736,-0.0253 0.0525,0.0427 2.58173,2.1348 8.1536,0.87922 4.78947,-1.08005 5.74901,-3.23541 5.75885,-3.25755 0.0853,-0.20083 0.32313,-0.29729 0.53144,-0.22138 0.20831,0.0806 0.31164,0.30677 0.23291,0.50919 -0.0426,0.10278 -1.07435,2.55227 -6.33786,3.73985 -1.36467,0.30836 -2.55876,0.42696 -3.59374,0.42696"
       style="fill:#f7b369;fill-opacity:1;fill-rule:nonzero;stroke:none;stroke-width:1.61051"
       id="path117153" />
    <path
       d="m 746.15849,490.58948 c 0,0 -15.20331,12.38976 -19.62701,20.04184 -4.42535,7.65209 -10.72876,-42.04138 -10.72876,-42.04138 0,0 18.45261,3.06147 30.35577,21.99954"
       style="fill:#6876aa;fill-opacity:1;fill-rule:nonzero;stroke:none;stroke-width:1.61051"
       id="path117155" />
    <path
       d="m 764.78332,482.28431 c 0,0 1.29743,-6.46766 4.52704,-10.81159 3.22798,-4.34393 5.28155,-2.10792 4.8108,-0.34473 -0.47238,1.76319 -2.79495,4.13835 -1.16948,5.541 1.62711,1.40422 6.3887,-1.78217 4.72879,-3.98497 -1.66156,-2.2028 -3.58883,-0.34473 -3.73481,-3.25281 -0.14598,-2.90649 8.08634,-1.47064 9.97261,0 1.88627,1.47065 0.71842,6.49297 0.71842,6.49297 0,0 10.68611,-7.44651 12.76429,-5.25794 2.07653,2.19015 -4.75176,7.79756 -4.75176,7.79756 0,0 5.12409,-4.10514 4.99287,-0.55821 -0.13122,3.54694 -12.8791,10.80843 -17.89165,12.60324 -5.01091,1.7964 -6.08526,1.1275 -6.08526,1.1275 l -8.88186,-9.35202"
       style="fill:#b26756;fill-opacity:1;fill-rule:nonzero;stroke:none;stroke-width:1.61051"
       id="path117157" />
    <path
       d="m 787.6498,482.67964 c -0.14434,0 -0.2854,-0.0743 -0.35757,-0.20399 -0.1099,-0.19134 -0.0377,-0.4317 0.1591,-0.53765 0.0443,-0.0221 4.34661,-2.32457 5.40784,-4.15575 0.10662,-0.18976 0.35593,-0.25776 0.55768,-0.15181 0.19683,0.10595 0.26736,0.34631 0.15746,0.53765 -1.1744,2.02727 -5.5407,4.36449 -5.72604,4.46253 -0.064,0.0332 -0.13122,0.049 -0.19847,0.049"
       style="fill:#000000;fill-opacity:1;fill-rule:nonzero;stroke:none;stroke-width:1.61051"
       id="path117159" />
    <path
       d="m 699.9466,459.2569 c -0.20011,0 -0.37398,-0.13915 -0.40678,-0.33524 -0.0344,-0.21506 0.11974,-0.41589 0.34117,-0.45068 0.018,-0.003 1.71732,-0.27515 2.42754,-1.37892 0.12138,-0.1866 0.37397,-0.24195 0.56588,-0.12809 0.19191,0.11543 0.25096,0.35896 0.13286,0.54556 -0.91197,1.41529 -2.91469,1.7284 -2.99834,1.74263 -0.0213,0.003 -0.0426,0.005 -0.0623,0.005"
       style="fill:#000000;fill-opacity:1;fill-rule:nonzero;stroke:none;stroke-width:1.61051"
       id="path117161" />
    <path
       d="m 703.7585,450.42673 c -0.88573,0 -1.65336,-0.25776 -1.70256,-0.27357 -0.21323,-0.0743 -0.32477,-0.29888 -0.24932,-0.50445 0.0755,-0.20715 0.30836,-0.31627 0.52323,-0.24194 0.0164,0.006 1.50738,0.50444 2.47675,0.0221 0.19683,-0.1012 0.44779,-0.0253 0.55276,0.16921 0.10334,0.1945 0.0246,0.43328 -0.17714,0.53291 -0.44779,0.22297 -0.95134,0.29571 -1.42372,0.29571"
       style="fill:#000000;fill-opacity:1;fill-rule:nonzero;stroke:none;stroke-width:1.61051"
       id="path117163" />
    <path
       d="m 696.49063,450.21167 c -0.43958,0 -0.9579,-0.0775 -1.47129,-0.33367 -0.20175,-0.0996 -0.28048,-0.33682 -0.17878,-0.53291 0.10497,-0.1945 0.35429,-0.26882 0.55275,-0.1692 0.95954,0.47756 1.98304,0.11228 1.98961,0.10753 0.20994,-0.0791 0.44778,0.0253 0.52979,0.22771 0.0804,0.204 -0.023,0.43171 -0.23291,0.51078 -0.0344,0.0127 -0.52488,0.18976 -1.18917,0.18976"
       style="fill:#000000;fill-opacity:1;fill-rule:nonzero;stroke:none;stroke-width:1.61051"
       id="path117165" />
    <path
       d="m 727.49593,577.15494 c 0,0 -10.41711,7.28047 -10.68939,8.2182 -0.27064,0.93773 -4.4155,20.16677 -7.42041,22.4771 -3.00654,2.31033 -5.79166,0.77327 -5.79166,0.77327 0,0 -6.74463,-42.91586 -6.14267,-44.47347 0.60361,-1.55762 19.54501,-5.17888 19.54501,-5.17888 l 10.49912,18.18378"
       style="fill:#b26756;fill-opacity:1;fill-rule:nonzero;stroke:none;stroke-width:1.61051"
       id="path117167" />
    <path
       d="m 705.18878,609.0821 -4.95186,-46.23666 -6.46744,0.96777 5.27827,40.84431 c 0.37233,2.8891 3.16073,4.89898 6.14103,4.42458"
       style="fill:#b26756;fill-opacity:1;fill-rule:nonzero;stroke:none;stroke-width:1.61051"
       id="path117169" />
    <path
       d="m 663.19556,576.74379 c 0,0 10.42039,7.27889 10.69103,8.21662 0.27228,0.93773 4.41387,20.16677 7.42041,22.4771 3.00655,2.31191 5.79166,0.77327 5.79166,0.77327 0,0 6.74627,-42.91586 6.14267,-44.47347 -0.60361,-1.55604 -19.545,-5.17887 -19.545,-5.17887 l -10.50077,18.18535"
       style="fill:#b26756;fill-opacity:1;fill-rule:nonzero;stroke:none;stroke-width:1.61051"
       id="path117171" />
    <path
       d="m 685.506,608.66779 4.94858,-46.2335 6.47071,0.96619 -5.27827,40.84589 c -0.37397,2.88752 -3.164,4.89582 -6.14102,4.42142"
       style="fill:#b26756;fill-opacity:1;fill-rule:nonzero;stroke:none;stroke-width:1.61051"
       id="path117173" />
    <path
       d="m 689.86409,555.11271 -15.9775,29.8477 -22.36456,-8.46489 9.34112,-21.38281 h 29.00094"
       style="fill:#68b6d8;fill-opacity:1;fill-rule:nonzero;stroke:none;stroke-width:1.61051"
       id="path117175" />
    <path
       d="m 700.17787,556.55014 17.47995,29.8477 20.64396,-8.46488 -9.34276,-21.38282 h -28.78115"
       style="fill:#68b6d8;fill-opacity:1;fill-rule:nonzero;stroke:none;stroke-width:1.61051"
       id="path117177" />
    <path
       d="m 646.42091,543.48989 c -0.28868,0.0158 -0.37397,0.0901 -0.42318,0.15497 -0.32805,0.40957 -0.41006,0.77644 -0.25916,1.15121 0.65938,1.64934 5.29303,2.97133 8.17328,3.5928 -2.17987,-1.92291 -5.89827,-4.89898 -7.49094,-4.89898 z m 8.82281,5.95847 c -1.00218,-0.16446 -9.1771,-1.63984 -10.27113,-4.36606 -0.17551,-0.4412 -0.25424,-1.13224 0.37397,-1.92133 0.21815,-0.27199 0.54291,-0.43012 0.93657,-0.457 0.0377,-0.003 0.0771,-0.005 0.11646,-0.005 2.58992,0 8.45867,5.44138 9.12953,6.07075 0.12958,0.12176 0.16074,0.30994 0.0787,0.46491 -0.0722,0.13283 -0.21323,0.21348 -0.36413,0.21348"
       style="fill:#a37b90;fill-opacity:1;fill-rule:nonzero;stroke:none;stroke-width:1.61051"
       id="path117179" />
    <path
       d="m 685.53224,554.72686 c -0.0361,0 -0.0722,-0.005 -0.1099,-0.0142 -0.18862,-0.0506 -19.29404,-5.11562 -45.29008,-6.62263 -0.22635,-0.0127 -0.39858,-0.19925 -0.38709,-0.41748 0.0148,-0.21664 0.21487,-0.40008 0.43466,-0.37161 26.08953,1.51176 45.27368,6.59891 45.46395,6.64951 0.21815,0.0601 0.34608,0.27674 0.2854,0.48706 -0.0525,0.17552 -0.21651,0.28938 -0.39694,0.28938"
       style="fill:#a37b90;fill-opacity:1;fill-rule:nonzero;stroke:none;stroke-width:1.61051"
       id="path117181" />
    <path
       d="m 703.59447,556.94547 c -0.1673,0 -0.32476,-0.0996 -0.38545,-0.26092 -0.0771,-0.20399 0.0328,-0.4317 0.24603,-0.50602 0.20995,-0.0728 21.3099,-7.36428 47.41419,-8.87762 0.22963,-0.0285 0.4199,0.15339 0.43466,0.37161 0.0131,0.21823 -0.16074,0.40482 -0.38546,0.41748 -25.97963,1.50701 -46.9746,8.75901 -47.18455,8.83175 -0.0459,0.0158 -0.0935,0.0237 -0.13942,0.0237"
       style="fill:#a37b90;fill-opacity:1;fill-rule:nonzero;stroke:none;stroke-width:1.61051"
       id="path117183" />
    <path
       d="m 744.61011,543.43771 c -1.58282,0 -5.27662,3.0409 -7.43681,5.00018 2.87041,-0.661 7.48438,-2.04467 8.12243,-3.70349 0.14598,-0.37636 0.0574,-0.74164 -0.2772,-1.14805 -0.0509,-0.0617 -0.13614,-0.13599 -0.34445,-0.14706 -0.0213,-0.002 -0.041,-0.002 -0.064,-0.002 z m -8.75884,6.07707 c -0.14926,0 -0.29032,-0.0791 -0.36249,-0.21032 -0.0837,-0.15339 -0.0558,-0.34157 0.0722,-0.46491 0.6643,-0.64044 6.48712,-6.19251 9.0672,-6.19251 0.0312,0 0.0623,0 0.0919,0.003 0.39529,0.0221 0.72006,0.17553 0.94313,0.44594 0.63969,0.77802 0.57244,1.47064 0.40186,1.91341 -1.05467,2.74046 -9.2099,4.32496 -10.13664,4.49732 -0.0262,0.005 -0.0508,0.008 -0.0771,0.008"
       style="fill:#a37b90;fill-opacity:1;fill-rule:nonzero;stroke:none;stroke-width:1.61051"
       id="path117185" />
    <path
       d="m 488.17462,424.63357 2.20447,0.45858 c 0,0 9.27223,-5.25161 13.25471,-9.12272 1.67468,-1.63036 2.14707,-4.60801 -1.56314,-3.32397 -2.00108,0.69263 -4.01365,0.66258 -4.01365,0.66258 0,0 2.83596,-3.24331 5.71293,-5.12194 1.84526,-1.2034 7.46142,-1.87863 7.06776,-3.6434 -0.62821,-2.80529 -6.20992,-1.91816 -6.20992,-1.91816 0,0 6.17548,0.95355 4.90266,-2.0589 -1.2679,-2.99979 -14.9868,-1.17651 -18.87415,0.67365 -3.88407,1.85017 -13.43678,15.67262 -13.43678,15.67262 l 10.95511,7.72166"
       style="fill:#f48462;fill-opacity:1;fill-rule:nonzero;stroke:none;stroke-width:1.61051"
       id="path117187" />
    <path
       d="m 497.20573,410.07738 c -0.0656,0 -0.13286,-0.0158 -0.19518,-0.0474 -0.19847,-0.10279 -0.27392,-0.34315 -0.16731,-0.5345 1.86987,-3.36033 6.3723,-5.37179 6.56257,-5.4556 0.20667,-0.087 0.44942,-0.003 0.54292,0.19608 0.0951,0.19767 0.003,0.43329 -0.20175,0.52343 -0.0443,0.019 -4.44339,1.98615 -6.1804,5.10929 -0.0738,0.13283 -0.21651,0.20874 -0.36085,0.20874"
       style="fill:#000000;fill-opacity:1;fill-rule:nonzero;stroke:none;stroke-width:1.61051"
       id="path117189" />
    <path
       d="m 501.93452,433.08106 c 0,0 -12.25909,-4.77247 -17.58984,5.38445 -5.32912,10.15375 1.39583,26.09519 1.39583,26.09519 l 12.61175,2.32615 v -13.07132 l 3.58226,-20.73447"
       style="fill:#000000;fill-opacity:1;fill-rule:nonzero;stroke:none;stroke-width:1.61051"
       id="path117191" />
    <path
       d="m 497.69124,413.3713 c -0.19683,0 -0.37069,-0.13758 -0.40349,-0.33208 l -1.39256,-8.13123 c -0.0263,-0.15971 0.0508,-0.31943 0.19355,-0.40324 l 3.8365,-2.20754 c 0.19355,-0.11386 0.44614,-0.0538 0.5626,0.13599 0.11645,0.18818 0.0525,0.43012 -0.14106,0.5424 l -3.59703,2.06997 1.34827,7.86714 c 0.0361,0.21506 -0.11482,0.41747 -0.33953,0.45384 -0.0213,0.003 -0.0443,0.005 -0.0673,0.005"
       style="fill:#000000;fill-opacity:1;fill-rule:nonzero;stroke:none;stroke-width:1.61051"
       id="path117193" />
    <path
       d="m 490.99089,417.91605 c -0.0935,0 -0.18698,-0.03 -0.26407,-0.0933 -0.17387,-0.13916 -0.19519,-0.38901 -0.0492,-0.55663 2.87205,-3.28918 6.71839,-4.6096 6.87913,-4.66336 0.21487,-0.0759 0.44779,0.0364 0.52324,0.24194 0.0738,0.20716 -0.0377,0.43171 -0.2526,0.50445 -0.0361,0.0127 -3.80042,1.30776 -6.5232,4.42616 -0.0804,0.0933 -0.19683,0.14073 -0.31329,0.14073"
       style="fill:#000000;fill-opacity:1;fill-rule:nonzero;stroke:none;stroke-width:1.61051"
       id="path117195" />
    <path
       d="m 483.33265,489.05559 c 0,0 -25.79264,-8.16444 -25.31698,-39.63143 0.31001,-20.58424 22.55975,-37.15663 22.55975,-37.15663 l 12.14264,8.95984 c 0,0 -7.88788,15.51923 -7.33184,25.25867 0.5544,9.73944 9.21483,19.64335 9.21483,19.64335 l -11.2684,22.9262"
       style="fill:#f48462;fill-opacity:1;fill-rule:nonzero;stroke:none;stroke-width:1.61051"
       id="path117197" />
    <path
       d="m 458.01567,466.08511 c 0,0 14.64891,28.61742 30.78059,27.82992 16.13005,-0.78592 12.69868,-30.91194 12.69868,-30.91194 0,0 -5.11752,-2.05258 -8.0765,-4.14152 -3.00819,-2.12531 -6.78892,-6.3965 -6.78892,-6.3965 l -28.61385,13.62004"
       style="fill:#f7b369;fill-opacity:1;fill-rule:nonzero;stroke:none;stroke-width:1.61051"
       id="path117199" />
    <path
       d="m 517.77588,567.1609 h -21.84297 l -0.29524,-45.96309 h 24.68221 l -2.544,45.96309"
       style="fill:#a37b90;fill-opacity:1;fill-rule:nonzero;stroke:none;stroke-width:1.61051"
       id="path117201" />
    <path
       d="m 539.55213,577.22892 c 0,0 -10.41711,7.28047 -10.68939,8.2182 -0.27064,0.93773 -4.4155,20.16677 -7.42041,22.4771 -3.00654,2.31033 -5.79166,0.77327 -5.79166,0.77327 0,0 -6.74463,-42.91586 -6.14267,-44.47347 0.60361,-1.55762 19.54501,-5.17888 19.54501,-5.17888 l 10.49912,18.18378"
       style="fill:#f48462;fill-opacity:1;fill-rule:nonzero;stroke:none;stroke-width:1.61051"
       id="path117167-2" />
    <path
       d="m 477.14734,527.9596 c 0,0 -50.51094,12.83728 -53.46172,31.44011 -2.94914,18.60282 30.5444,23.09065 47.50604,24.25135 16.95999,1.16229 24.44601,-6.00907 24.44601,-6.00907 l 9.56747,-56.44418 -28.0578,6.76179"
       style="fill:#a37b90;fill-opacity:1;fill-rule:nonzero;stroke:none;stroke-width:1.61051"
       id="path117203" />
    <path
       d="m 517.24498,609.15608 -4.95186,-46.23666 -6.46744,0.96777 5.27827,40.84431 c 0.37233,2.8891 3.16073,4.89898 6.14103,4.42458"
       style="fill:#f48462;fill-opacity:1;fill-rule:nonzero;stroke:none;stroke-width:1.61051"
       id="path117169-1" />
    <path
       d="m 583.14076,474.37763 c 0,0 -10.14647,40.85854 -33.92163,44.37227 -20.69973,3.05988 -30.79864,-37.2357 -30.79864,-37.2357 l 27.41812,8.49651 22.75494,-14.70167 14.54721,-0.93141"
       style="fill:#f48462;fill-opacity:1;fill-rule:nonzero;stroke:none;stroke-width:1.61051"
       id="path117205" />
    <path
       d="m 538.4428,527.9596 c 0,0 50.51259,12.83728 53.46172,31.44011 2.94914,18.60282 -34.12174,23.09065 -51.08338,24.25135 -16.95836,1.16229 -19.00209,-7.54613 -19.00209,-7.54613 l -11.43405,-54.90712 28.0578,6.76179"
       style="fill:#a37b90;fill-opacity:1;fill-rule:nonzero;stroke:none;stroke-width:1.61051"
       id="path117207" />
    <path
       d="m 475.25176,576.81777 c 0,0 10.42039,7.27889 10.69103,8.21662 0.27228,0.93773 4.41387,20.16677 7.42041,22.4771 3.00655,2.31191 5.79166,0.77327 5.79166,0.77327 0,0 6.74627,-42.91586 6.14267,-44.47347 -0.60361,-1.55604 -19.545,-5.17887 -19.545,-5.17887 l -10.50077,18.18535"
       style="fill:#f48462;fill-opacity:1;fill-rule:nonzero;stroke:none;stroke-width:1.61051"
       id="path117171-5" />
    <path
       d="m 533.41057,526.74671 c 0,0 2.29633,-55.43529 -10.10711,-60.74225 -13.56143,-5.8035 -35.73573,-2.41944 -40.63838,4.98753 -4.90102,7.40698 0.21815,55.20916 0.21815,55.20916 0,0 26.60784,3.48527 50.52734,0.54556"
       style="fill:#f7b369;fill-opacity:1;fill-rule:nonzero;stroke:none;stroke-width:1.61051"
       id="path117209" />
    <path
       d="m 500.19752,455.88075 -0.40678,9.53545 c 0,0 1.66483,2.81162 7.43189,3.49476 4.29577,0.5076 5.84907,-0.37004 5.84907,-0.37004 l -0.39366,-4.85311 -0.39201,-4.73294 -10.35151,-2.62976 -1.737,-0.44436"
       style="fill:#f48462;fill-opacity:1;fill-rule:nonzero;stroke:none;stroke-width:1.61051"
       id="path117211" />
    <path
       d="m 501.93452,456.32511 c 0.0131,0.26092 0.10334,0.57244 0.24768,0.92982 2.00928,4.85154 8.01417,6.11977 10.49584,6.43288 l -0.39201,-4.73294 -10.35151,-2.62976"
       style="fill:#000000;fill-opacity:1;fill-rule:nonzero;stroke:none;stroke-width:1.61051"
       id="path117213" />
    <path
       d="m 515.42051,437.31113 c 0,0 4.67958,12.16047 2.34881,18.71985 -2.32913,6.56096 -8.56693,5.16622 -12.26073,3.67186 -3.6938,-1.49594 -5.31271,-3.81892 -5.31271,-3.81892 0,0 -3.58883,0.95828 -5.75722,-2.32773 -2.17002,-3.28443 -0.50683,-6.83137 1.5533,-7.55088 2.05849,-0.72109 4.36794,0.80807 4.36794,0.80807 l -1.6714,-3.5501 c 0,0 8.91466,-17.09424 16.73201,-5.95215"
       style="fill:#f48462;fill-opacity:1;fill-rule:nonzero;stroke:none;stroke-width:1.61051"
       id="path117215" />
    <path
       d="m 513.99023,452.37493 c -0.0492,0 -0.0984,-0.009 -0.14598,-0.0269 -0.21159,-0.0775 -0.31821,-0.3052 -0.23784,-0.50919 0.8398,-2.12848 -0.69382,-4.58904 -0.71022,-4.61434 -0.11645,-0.18659 -0.0558,-0.42854 0.13614,-0.54239 0.19355,-0.11702 0.4445,-0.0569 0.56424,0.12966 0.0722,0.11386 1.75997,2.8132 0.77747,5.30697 -0.0623,0.15813 -0.21815,0.25617 -0.38381,0.25617"
       style="fill:#000000;fill-opacity:1;fill-rule:nonzero;stroke:none;stroke-width:1.61051"
       id="path117217" />
    <path
       d="m 499.4955,452.36228 c -0.1181,0 -0.23456,-0.049 -0.31493,-0.14232 l -3.11808,-3.61968 c -0.14434,-0.16762 -0.11973,-0.41589 0.0541,-0.55663 0.1755,-0.13599 0.43302,-0.11701 0.57736,0.0522 l 3.11644,3.61968 c 0.14598,0.16604 0.12138,0.41589 -0.0525,0.55663 -0.0771,0.0601 -0.16894,0.0901 -0.26243,0.0901"
       style="fill:#000000;fill-opacity:1;fill-rule:nonzero;stroke:none;stroke-width:1.61051"
       id="path117219" />
    <path
       d="m 496.01657,451.23163 c -0.20831,0 -0.38874,-0.15497 -0.40678,-0.36213 -0.0197,-0.21664 0.14762,-0.40798 0.37233,-0.42696 l 2.33405,-0.19609 c 0.20831,-0.0285 0.42482,0.14074 0.4445,0.35897 0.0197,0.21822 -0.14762,0.40956 -0.37397,0.42854 l -2.33405,0.19609 c -0.0115,0 -0.023,0.002 -0.0361,0.002"
       style="fill:#000000;fill-opacity:1;fill-rule:nonzero;stroke:none;stroke-width:1.61051"
       id="path117221" />
    <path
       d="m 506.8503,443.24114 c -0.0722,0 -0.14434,-0.0174 -0.20995,-0.0553 -0.19519,-0.11227 -0.25916,-0.3558 -0.1427,-0.5424 0.94313,-1.52282 2.9803,-0.98517 3.07051,-0.96145 0.21651,0.0585 0.34281,0.27674 0.28212,0.48705 -0.0607,0.21032 -0.28048,0.33683 -0.50519,0.27358 -0.0623,-0.0158 -1.52214,-0.39376 -2.14214,0.60723 -0.0771,0.12334 -0.21323,0.19134 -0.35265,0.19134"
       style="fill:#000000;fill-opacity:1;fill-rule:nonzero;stroke:none;stroke-width:1.61051"
       id="path117223" />
    <path
       d="m 516.41613,442.45522 c -0.10498,0 -0.20831,-0.038 -0.28868,-0.11544 -0.20339,-0.19292 -0.848,-0.70053 -1.44669,-0.65309 -0.29196,0.0174 -0.54455,0.16287 -0.77254,0.44277 -0.14106,0.17237 -0.40022,0.20241 -0.57573,0.068 -0.17878,-0.13283 -0.20995,-0.38268 -0.0705,-0.55347 0.37726,-0.46491 0.83816,-0.71634 1.37288,-0.74639 1.08911,-0.0838 2.03389,0.84443 2.07325,0.88397 0.1591,0.15497 0.15746,0.40482 -0.002,0.55821 -0.0804,0.0775 -0.18535,0.11544 -0.29032,0.11544"
       style="fill:#000000;fill-opacity:1;fill-rule:nonzero;stroke:none;stroke-width:1.61051"
       id="path117225" />
    <path
       d="m 549.21913,488.00716 -19.23664,28.28218 c -5.07324,7.5999 -4.98303,-49.17478 -4.98303,-49.17478 0,0 12.09179,7.26307 24.21967,20.8926"
       style="fill:#f7b369;fill-opacity:1;fill-rule:nonzero;stroke:none;stroke-width:1.61051"
       id="path117227" />
    <path
       d="m 567.76523,476.36853 c 0,0 -0.64625,-6.76653 1.25478,-11.96596 1.90103,-5.19943 4.60249,-3.55484 4.66318,-1.67622 0.059,1.87705 -1.53198,4.87368 0.49699,5.81299 2.02896,0.93773 5.79494,-3.53903 3.49369,-5.2611 -2.30289,-1.72049 -3.65772,0.65467 -4.67138,-2.18382 -1.01202,-2.84008 7.57131,-3.70349 9.87912,-2.76892 2.3078,0.93298 2.65061,6.23204 2.65061,6.23204 0,0 8.36026,-10.34193 11.07321,-8.74953 2.7113,1.59241 -2.37834,9.0405 -2.37834,9.0405 0,0 3.85127,-5.48724 4.77964,-1.93714 0.92673,3.54852 -9.53303,14.28104 -13.96002,17.45003 -4.42698,3.169 -5.68996,2.80687 -5.68996,2.80687 l -11.59152,-6.79974"
       style="fill:#f48462;fill-opacity:1;fill-rule:nonzero;stroke:none;stroke-width:1.61051"
       id="path117229" />
    <path
       d="m 590.41519,470.41797 c -0.10333,0 -0.20995,-0.0395 -0.29032,-0.11702 -0.1591,-0.15339 -0.1591,-0.40324 0,-0.55821 0.0361,-0.0348 3.61507,-3.51215 4.11862,-5.62323 0.0509,-0.2119 0.27556,-0.34157 0.49043,-0.29571 0.22143,0.0474 0.35921,0.26092 0.30837,0.4744 -0.55604,2.32931 -4.1826,5.8541 -4.33678,6.00275 -0.0804,0.0775 -0.1837,0.11702 -0.29032,0.11702"
       style="fill:#000000;fill-opacity:1;fill-rule:nonzero;stroke:none;stroke-width:1.61051"
       id="path117231" />
    <path
       d="m 511.3675,455.98828 c -0.0295,0 -0.0591,-0.003 -0.0886,-0.009 -0.0869,-0.019 -2.12082,-0.46808 -2.95898,-1.97667 -0.10661,-0.19293 -0.0312,-0.43329 0.16731,-0.53608 0.20011,-0.10436 0.44942,-0.03 0.55604,0.1613 0.65773,1.186 2.39638,1.57501 2.41442,1.57975 0.21979,0.0474 0.35921,0.25934 0.30836,0.47124 -0.041,0.18502 -0.20995,0.30994 -0.39857,0.30994"
       style="fill:#000000;fill-opacity:1;fill-rule:nonzero;stroke:none;stroke-width:1.61051"
       id="path117233" />
    <path
       d="m 508.3183,446.66631 c -0.56588,0 -1.20557,-0.0917 -1.74356,-0.40166 -0.19519,-0.11227 -0.25752,-0.35422 -0.14106,-0.5424 0.11645,-0.18817 0.36905,-0.24985 0.5626,-0.13599 0.96773,0.55663 2.54564,0.14074 2.5604,0.13441 0.22143,-0.0585 0.4445,0.0633 0.50683,0.27199 0.0623,0.21032 -0.064,0.42854 -0.28212,0.48864 -0.0443,0.0127 -0.68398,0.18501 -1.46309,0.18501"
       style="fill:#000000;fill-opacity:1;fill-rule:nonzero;stroke:none;stroke-width:1.61051"
       id="path117235" />
    <path
       d="m 515.74035,446.90193 c -0.79879,0 -1.39747,-0.26092 -1.4352,-0.27673 -0.20503,-0.0917 -0.2936,-0.32576 -0.20011,-0.52342 0.0935,-0.19609 0.33297,-0.28623 0.54292,-0.19609 0.0115,0.005 1.04647,0.44752 2.06669,0.0142 0.20831,-0.0838 0.45107,0.003 0.53964,0.20241 0.0902,0.20083 -0.003,0.43329 -0.20995,0.52184 -0.45599,0.19293 -0.90541,0.25776 -1.30399,0.25776"
       style="fill:#000000;fill-opacity:1;fill-rule:nonzero;stroke:none;stroke-width:1.61051"
       id="path117237" />
    <path
       d="m 513.6343,554.4865 16.48269,30.78859 23.06986,-8.73055 -9.638,-22.05804 H 513.6343"
       style="fill:#a37b90;fill-opacity:1;fill-rule:nonzero;stroke:none;stroke-width:1.61051"
       id="path117247" />
    <path
       d="m 497.5622,608.74177 4.94858,-46.2335 6.47071,0.96619 -5.27827,40.84589 c -0.37397,2.88752 -3.164,4.89582 -6.14102,4.42142"
       style="fill:#f48462;fill-opacity:1;fill-rule:nonzero;stroke:none;stroke-width:1.61051"
       id="path117173-0" />
    <path
       d="m 502.99575,555.96979 -18.03271,30.7886 -21.29349,-8.73055 9.63636,-22.05805 h 29.68984"
       style="fill:#a37b90;fill-opacity:1;fill-rule:nonzero;stroke:none;stroke-width:1.61051"
       id="path117249" />
    <path
       d="m 558.44871,542.48416 c -1.65499,0 -5.52594,3.10574 -7.77142,5.09032 2.96882,-0.63886 7.80259,-2.00988 8.4882,-3.72563 0.15747,-0.39217 0.0705,-0.77327 -0.27063,-1.20023 -0.0492,-0.0617 -0.14106,-0.14548 -0.36086,-0.1613 -0.0279,-0.002 -0.0558,-0.003 -0.0853,-0.003 z m -9.1,6.14823 c -0.15255,0 -0.29361,-0.0822 -0.36578,-0.21506 -0.0804,-0.15497 -0.0492,-0.34315 0.0787,-0.46491 0.70365,-0.65784 6.90373,-6.43762 9.52974,-6.25418 0.40186,0.0269 0.73155,0.18976 0.95462,0.46807 0.64461,0.80807 0.56588,1.5165 0.38381,1.96877 -1.12356,2.80528 -9.55271,4.32653 -10.50896,4.49099 -0.0246,0.003 -0.0476,0.006 -0.0722,0.006"
       style="fill:#ffffff;fill-opacity:1;fill-rule:nonzero;stroke:none;stroke-width:1.61051"
       id="path117251" />
    <path
       d="m 518.10229,554.07693 c -0.18043,0 -0.34445,-0.11386 -0.3953,-0.28938 -0.0607,-0.21032 0.0672,-0.42855 0.2854,-0.48705 0.19683,-0.0522 19.98459,-5.29906 46.89423,-6.85984 0.21979,-0.0332 0.41826,0.15339 0.43302,0.37162 0.0131,0.21822 -0.1591,0.40482 -0.38545,0.41747 -26.81779,1.55445 -46.52682,6.78076 -46.72201,6.83295 -0.0377,0.009 -0.0738,0.0142 -0.10989,0.0142"
       style="fill:#ffffff;fill-opacity:1;fill-rule:nonzero;stroke:none;stroke-width:1.61051"
       id="path117253" />
    <path
       d="m 499.47089,556.36512 c -0.0459,0 -0.0935,-0.008 -0.13942,-0.0237 -0.21487,-0.0743 -21.87413,-7.5572 -48.67716,-9.11165 -0.22471,-0.0127 -0.39693,-0.19925 -0.38381,-0.41747 0.0131,-0.21823 0.18042,-0.38901 0.43302,-0.37162 26.92605,1.56078 48.69192,9.08319 48.90843,9.15752 0.21159,0.0743 0.32313,0.30203 0.2444,0.5076 -0.0591,0.15972 -0.21815,0.25934 -0.38546,0.25934"
       style="fill:#ffffff;fill-opacity:1;fill-rule:nonzero;stroke:none;stroke-width:1.61051"
       id="path117255" />
    <path
       d="m 457.16111,542.4304 c -0.28704,0.0142 -0.38053,0.098 -0.43138,0.15813 -0.34773,0.42222 -0.43958,0.80332 -0.28704,1.19707 0.66265,1.72366 5.47345,3.15951 8.43571,3.8379 -2.22579,-2.02095 -6.0705,-5.1931 -7.71729,-5.1931 z m 9.0344,6.26841 c -1.03171,-0.18344 -9.4379,-1.81695 -10.52209,-4.63806 -0.17386,-0.45384 -0.24439,-1.16228 0.41334,-1.96243 0.22635,-0.27674 0.55932,-0.43329 0.96282,-0.45543 0.0312,-0.002 0.0623,-0.003 0.0951,-0.003 2.65389,0 8.65878,5.72443 9.34112,6.38385 0.12794,0.12334 0.15746,0.3131 0.0722,0.46491 -0.0722,0.13125 -0.21159,0.21032 -0.36249,0.21032"
       style="fill:#ffffff;fill-opacity:1;fill-rule:nonzero;stroke:none;stroke-width:1.61051"
       id="path117257" />
    <path
       d="m 500.3599,446.81338 5.56039,-3.96757 -0.88901,-3.40304 1.81738,2.23285 c 0,0 3.5757,-1.00889 5.82938,-1.13066 2.25204,-0.12334 2.25204,-0.12334 2.25204,-0.12334 l -0.4527,-3.18007 1.93875,3.02984 c 0,0 -1.98468,-10.49374 -12.83974,-8.41428 -10.85505,2.07945 -8.97534,15.14128 -8.97534,15.14128 0,0 2.7359,-1.50068 5.75885,-0.18501"
       style="fill:#000000;fill-opacity:1;fill-rule:nonzero;stroke:none;stroke-width:1.61051"
       id="path117259" />
    <path
       d="m 533.41057,511.64654 c -0.23619,-0.005 -0.41498,-0.1866 -0.41006,-0.40482 l 0.16731,-6.5578 c 0.0213,-0.14232 1.49097,-8.94561 0.98414,-12.87681 -0.95462,-7.42121 -3.78074,-11.41092 -3.80862,-11.45045 -0.12794,-0.18027 -0.0837,-0.42696 0.10333,-0.5503 0.18371,-0.12493 0.43959,-0.0822 0.56916,0.098 0.12138,0.16604 2.96882,4.17314 3.95132,11.80625 0.51996,4.04347 -0.92181,12.68073 -0.98414,13.04601 l -0.16238,6.50404 c -0.005,0.21506 -0.18699,0.38584 -0.41006,0.38584"
       style="fill:#a37b90;fill-opacity:1;fill-rule:nonzero;stroke:none;stroke-width:1.61051"
       id="path117261" />
    <path
       d="m 508.41016,469.83446 c -5.71949,0 -8.91138,-4.13362 -8.95075,-4.1858 -0.13286,-0.17711 -0.0935,-0.42538 0.0902,-0.55189 0.18207,-0.12966 0.43795,-0.0901 0.57245,0.087 0.18698,0.24669 4.6845,6.03754 12.80201,2.98872 0.21159,-0.0806 0.44942,0.0206 0.52979,0.22455 0.0836,0.20241 -0.0213,0.43171 -0.23291,0.51235 -1.75833,0.661 -3.36576,0.92509 -4.8108,0.92509"
       style="fill:#a37b90;fill-opacity:1;fill-rule:nonzero;stroke:none;stroke-width:1.61051"
       id="path117263" />
    <path
       d="m 695.92311,444.04762 c 0,0 3.19517,-5.37496 8.17984,-2.8717 4.98466,2.50483 5.59975,9.67461 5.59975,9.67461 0,0 -2.05029,2.71357 -0.67742,3.1089 1.67796,0.48231 2.13066,-2.9397 2.13066,-2.9397 0,0 1.36139,-0.86183 3.75449,-0.62463 1.11536,0.11069 1.96828,1.45483 1.96828,1.45483 0,0 1.58939,-4.27751 0.94149,-6.70486 -0.54947,-2.05732 -2.90977,-1.46432 -2.90977,-1.46432 0,0 0.52324,-5.79876 -1.62547,-7.90826 -2.14706,-2.10792 -3.51337,0 -3.51337,0 0,0 -3.89555,-6.12609 -7.11369,-4.75349 -2.51611,1.07531 -1.9978,4.88633 -1.9978,4.88633 0,0 -3.38052,-3.03142 -4.90922,-0.65942 -2.07325,3.21802 0.17223,8.80171 0.17223,8.80171"
       style="fill:#000000;fill-opacity:1;fill-rule:nonzero;stroke:none;stroke-width:1.61051"
       id="path117265" />
  </g>
</svg>
