<svg width="512" height="256" version="1.1" viewBox="0 0 512 256" xmlns="http://www.w3.org/2000/svg" xmlns:xlink="http://www.w3.org/1999/xlink">
 <defs>
  <radialGradient id="radialGradient2" cx="84.33" cy="130.3" r="61.89" gradientTransform="matrix(4.136 0 0 1.831 -92.83 -110.5)" gradientUnits="userSpaceOnUse">
   <stop stop-color="#83ffaf" offset="0"/>
   <stop stop-color="#13faab" offset="1"/>
  </radialGradient>
 </defs>
 <path d="m11.1 241.2c-5.75-16.67-20.72-36.57-1.927-50.05 28.6-33.73 54.15-71.01 89.37-98.35 18.23-16.11 44.29-16.16 65.34-5.998 20.37 7.386 34.19 24.59 51.01 37.06 20.28 8.218 30.38-18.74 44.33-28.7 13.31-13.32 31.98-31.65 52.32-23.13 14.6 11.74 28.57 24.42 43.73 35.62 13.53 15.72 41.98 20.97 56.04 3.178 30.13-30.47 58.03-63.03 85.19-96.13 7.008 14.43 11.52 30.02 15.48 45.55-30.75 37.3-62.55 74.04-97.98 107-22.92 21.29-61.06 16.88-81.75-5.323-15.07-10.66-28.62-25.42-43.51-34.71-28.03 12.42-39.93 49.33-72.16 54.15-27.13 3.076-39.45-25.39-60.46-36.33-18.62-12.12-45.09-16.39-61.04 2.512-28.48 26.07-52.2 56.78-77.15 86.1-2.082 0.4782-4.527 8.901-6.85 7.567zm285-187.6c-13.06-0.5955-45.57 4.464-33.25-18.51 11.62-17.92 34.43-9.151 51.73-10.17 20.19 0.516 40.4-0.3268 60.57 0.3057 22 16.03-13.51 34.16-30.35 28.19-16.23 0.3425-32.47 0.4412-48.7 0.1832z" fill="url(#radialGradient2)" stroke-width=".751"/>
</svg>
