<svg width="800" height="600" version="1.1" viewBox="0 0 800 600" xmlns="http://www.w3.org/2000/svg">
 <g>
  <path d="m117.2 152.9c43.07 0 77.99 34.92 77.99 77.99 0 43.08-34.92 77.99-77.99 77.99-43.08 0-78-34.92-78-77.99 0-43.07 34.92-77.99 78-77.99" fill="#f8e7cd" fill-rule="evenodd"/>
  <g transform="matrix(8.605 0 0 8.605 -652.6 -995.9)" fill-rule="evenodd">
   <path d="m135.8 115.7c12.67 0 22.94 10.27 22.94 22.94 0 12.67-10.27 22.94-22.94 22.94-12.67 0-22.94-10.27-22.94-22.94 0-12.67 10.27-22.94 22.94-22.94" fill="#ebb763"/>
   <g fill="#fff">
    <path d="m114.5 121.3c1.612 0 3.028 0.8346 3.842 2.095 0.2308-0.0679 0.4749-0.1042 0.7276-0.1042 1.424 0 2.579 1.155 2.579 2.579 0 0.3659-0.0764 0.7137-0.2137 1.029h-14.55c-0.1093-0.323-0.1685-0.669-0.1685-1.029 0-1.773 1.438-3.211 3.211-3.211 0.3972 0 0.7775 0.0723 1.129 0.2044 0.8376-0.9578 2.068-1.563 3.44-1.563"/>
    <path d="m149.4 116.6c1.082 0 2.033 0.5601 2.579 1.406 0.155-0.0455 0.3186-0.07 0.4883-0.07 0.956 0 1.731 0.7751 1.731 1.731 0 0.2457-0.0512 0.4793-0.1436 0.6909h-9.764c-0.0737-0.2168-0.1134-0.4493-0.1134-0.6909 0-1.19 0.965-2.155 2.156-2.155 0.2666 0 0.5217 0.0486 0.7576 0.1372 0.5624-0.6429 1.388-1.049 2.309-1.049"/>
    <path d="m156.5 126.9c2.158 0 4.055 1.118 5.145 2.805 0.3092-0.0905 0.6361-0.1395 0.9744-0.1395 1.907 0 3.454 1.546 3.454 3.454 0 0.4901-0.1023 0.956-0.2863 1.378h-19.48c-0.1465-0.4326-0.2258-0.8961-0.2258-1.378 0-2.375 1.925-4.3 4.3-4.3 0.5322 0 1.041 0.0967 1.512 0.2736 1.122-1.283 2.77-2.093 4.608-2.093"/>
   </g>
  </g>
  <g fill-rule="evenodd">
   <path d="m648.8 140.2c43.07 0 77.99 34.92 77.99 77.99 0 43.08-34.92 77.99-77.99 77.99-43.08 0-78-34.92-78-77.99 0-43.07 34.92-77.99 78-77.99" fill="#f8e7cd"/>
   <path d="m302.3 435.3h390.7c-14.61-116.9-70.76-216.8-125.7-221.2-48.01-42.98-108.5-40.59-139.7-13.03-19.87 0.629-36.31 6.411-51.83-1.102-73.97-52.92-210.2 38.33-242.4 235.3" fill="#b2d7bd"/>
   <path d="m355.2 435.3c-5.165-18.96 21.64-23.53 47.48-8.347-6.062-31.41 46.63-15.27 62.38 1.71 6.883-33.46 71 21.08 61.32 43.38h-193.6c-47.75-14.83-13.47-57.61 22.47-36.75" fill="#8fc098"/>
  </g>
  <g fill="#7b9b75">
   <path d="m410.6 272.2c-2.401 27.35-15.75 48.53-29.82 47.29-14.07-1.232-23.53-24.41-21.13-51.76 2.401-27.36 15.75-48.53 29.82-47.3 14.07 1.235 23.53 24.41 21.13 51.77"/>
   <path d="m322.1 301.3c24.86 11.67 40.13 31.5 34.13 44.29-6.004 12.79-31.02 13.68-55.88 2.01-24.86-11.67-40.13-31.5-34.13-44.29 6.004-12.78 31.02-13.68 55.88-2.007"/>
   <path d="m331.8 398.7c-20.13-3.039-35.18-13.89-33.62-24.25 1.563-10.35 19.15-16.28 39.28-13.25 20.13 3.039 35.18 13.89 33.62 24.25-1.563 10.35-19.15 16.29-39.28 13.25"/>
  </g>
  <g>
   <path d="m800 547.8c0 21.5-174.2 38.95-389.1 38.95-214.9 0-389.1-17.45-389.1-38.95 0-21.5 174.2-38.94 389.1-38.94 214.9 0 389.1 17.43 389.1 38.94" fill="#ddd0d0"/>
   <path d="m656.9 202.7s32.78 52.67-11.47 58.41c-44.26 5.734 11.47-58.41 11.47-58.41"/>
   <path d="m726.9 348c3.245-2.592 71.35-12.38 68.73 82.9-2.611 95.28-109.2 149.9-226.2 129.3-117-20.55-6.247-157.2-6.247-157.2l163.7-55.04" fill="#6876aa"/>
   <path d="m520.6 495.3 2.01 22.38h43v-25.35l-45.01 2.966" fill="#ff9c85"/>
   <path d="m597.3 505.7 4.341 22.45 47.32-11.22-8.269-24.53-43.4 13.31" fill="#ff9c85"/>
   <path d="m570.7 369.1s7.719-80.06 36.42-93.83c28.7-13.76 75.13 0.395 75.13 0.395l-2.085 107.1-109.5-13.65" fill="#40507f"/>
   <path d="m588.9 364.6s-62.18-15.13-79.23 11.14c-17.05 26.27 6.794 126.5 6.794 126.5h57.25l15.18-137.7" fill="#59acc9"/>
   <path d="m720.9 387.7s15.65 48.05-10.29 57.74c-25.95 9.687-79.76 9.981-79.76 9.981l24.26 42.82-78.04 23.12s-64.8-117-25.36-148.2c39.44-31.19 122.5 14.22 122.5 14.22l46.72 0.3243" fill="#68b6d8"/>
   <path d="m519.3 505.7s-14.88 17.56-18.34 19.23c-3.46 1.667-39.54 13.81-46.46 20.59-6.918 6.775-7.41 20.09-5.434 21.34 1.976 1.251 120.6 0 120.6 0l1.245-57.22-51.66-3.931" fill="#efa459"/>
   <path d="m594.6 518.7s-6.059 23.53-10.94 26c-4.884 2.477-25.88 15.65-37.29 27.62-9.565 10.03 0 15.79 0 15.79h66.12l56.84-41.75-20.3-43.43-54.42 15.78" fill="#f7b369"/>
   <path d="m507.3 517.7s16.55 18.97 12.76 20.51c-3.785 1.542-35.74-3.354-34.92-6.772 0.826-3.421 18.32-14.02 22.15-13.74" fill="#fff"/>
   <path d="m588.4 532.9s21.21 13.56 18.01 16.1c-3.197 2.541-35.25 6.827-35.42 3.312-0.1671-3.512 13.65-18.61 17.4-19.41" fill="#fff"/>
   <path d="m645.1 251.1 2.635 16.86s-2.683 5.473-13.71 8.302c-8.211 2.11-11.39 0.9804-11.39 0.9804l-0.1731-8.749-0.161-8.536 19.52-7.583 3.275-1.275" fill="#ff9c85"/>
   <path d="m641.8 252.4c0.0431 0.5283-0.0514 1.181-0.24 1.94-2.656 10.28-14 14.32-18.74 15.57l-0.4586-9.638 19.44-7.874"/>
   <path d="m610.7 217.4s-5.962 25.68 0.2581 38.32c6.22 12.65 17.99 8.29 24.78 4.356 6.794-3.931 9.341-9.019 9.341-9.019s7.222 1.041 10.59-6.12c3.366-7.164-0.777-13.9-4.966-14.84-4.189-0.941-8.284 2.717-8.284 2.717l2.334-7.574s-21.73-32.25-34.06-7.844" fill="#ff9c85"/>
  </g>
  <g>
   <path d="m617.3 247.4c-0.2608 0-0.5128-0.1429-0.6462-0.3915-2.541-4.754 0.034-10.59 0.1395-10.83 0.1697-0.37 0.6101-0.5344 0.9774-0.37 0.37 0.1671 0.5344 0.6015 0.37 0.9744-0.0264 0.0518-2.383 5.428-0.1909 9.538 0.1946 0.3579 0.0601 0.8046-0.3005 0.9956-0.1092 0.0601-0.2306 0.0877-0.3492 0.0877"/>
   <path d="m645.5 243.7c-0.1368 0-0.2729-0.0431-0.395-0.1153-0.3432-0.2185-0.4466-0.6737-0.2279-1.017l5.124-8.072c0.2219-0.3432 0.6798-0.4432 1.017-0.2272 0.3432 0.2185 0.4466 0.6738 0.2279 1.02l-5.124 8.069c-0.1429 0.2219-0.3795 0.3432-0.6221 0.3432"/>
   <path d="m647.3 240.8c-0.395 0-0.7194-0.3099-0.7348-0.7073-0.0189-0.407 0.2978-0.7495 0.7039-0.7676l4.59-0.1848c0.3674 0.0265 0.7495 0.3039 0.765 0.7073 0.0189 0.407-0.3005 0.7495-0.7073 0.7675l-4.587 0.1848h-0.034"/>
  </g>
  <path d="m611.7 355.4c-0.2245 0-0.4466-0.1032-0.5886-0.2944-0.0514-0.0688-5.555-7.419-9.926-18.27-6.745-16.74-0.3039-40.83-0.0265-41.85 0.1032-0.3915 0.4982-0.6256 0.9046-0.5163 0.395 0.1058 0.6256 0.5129 0.5189 0.9046-0.0688 0.246-6.584 24.64-0.0265 40.92 4.295 10.66 9.677 17.86 9.732 17.93 0.246 0.3243 0.1792 0.7865-0.1429 1.032-0.1334 0.0998-0.2918 0.1489-0.4432 0.1489" fill="#fff"/>
  <g>
   <path d="m628.8 227.2c-0.2185 0-0.4311-0.0971-0.5765-0.2823-1.494-1.9-4.286-0.7615-4.402-0.7073-0.382 0.1516-0.8046-0.0189-0.9683-0.3915-0.155-0.3761 0.0189-0.8071 0.388-0.9654 0.161-0.0688 3.943-1.639 6.138 1.154 0.2521 0.3216 0.1946 0.783-0.1213 1.035-0.1368 0.1058-0.2978 0.1576-0.4586 0.1576"/>
   <path d="m610 228c-0.1576 0-0.3182-0.0514-0.4526-0.155-0.3182-0.2487-0.3795-0.7099-0.1308-1.032 0.0688-0.0877 1.657-2.128 3.749-2.271 1.059-0.0911 1.973 0.316 2.814 1.144 0.2857 0.2857 0.2884 0.7529 8e-3 1.041-0.2884 0.2918-0.7495 0.2918-1.044 8e-3 -0.5283-0.5249-1.081-0.7589-1.673-0.7228-1.424 0.0937-2.674 1.685-2.686 1.703-0.1455 0.1848-0.364 0.2857-0.5826 0.2857"/>
   <path d="m641.5 232.6s-11.97-1.597-17.08-9.58c-5.106-7.984-4.83-11.79-4.83-11.79s-5.907 3.427-7.996 7.893c-2.091 4.468-2.453 6.842-2.453 6.842s-1.979-9.595-0.9623-12.54c1.014-2.938 6.593-19.41 29.56-17.4 34.83 3.051 20.66 31.32 3.752 36.57"/>
  </g>
  <g>
   <path d="m645.7 341.1s-1.062-0.4647-5.564-2.073c-4.259-1.524-19.62-0.3579-19.62-0.3579s-13.37 1.973-24.5 6.369c-11.13 4.396-9.62 9.413-9.62 9.413s-7.17 3.764-4.517 6.93c2.653 3.163 14.06 1.235 14.06 1.235s-14.53 4.095-8.988 7.759c5.54 3.661 24.06-2.301 24.06-2.301s27.45 12.69 37.51 3.797c10.06-8.885-2.817-30.77-2.817-30.77" fill="#ff9c85"/>
   <path d="m640.1 337.2-11.2 44.81s72.94 57.35 103.4 12.39c30.47-44.97-26.21-112.4-50.05-118.7-23.84-6.335-11.79 66.1-11.79 66.1l-30.37-4.596" fill="#40507f"/>
   <path d="m618 435.6c-0.7073 0-1.421 0.203-2.146 0.6101-1.126 0.6342-1.682 1.418-1.694 2.395-0.0601 4.42 10.04 11.77 15.52 15.26-1.281-4.432-4.988-15.72-10.06-17.91-0.5429-0.234-1.081-0.3519-1.621-0.3519zm12.88 20.61c-0.1308 0-0.2608-0.034-0.3795-0.1058-1.83-1.096-17.9-10.89-17.81-17.52 0.0189-1.527 0.8407-2.759 2.444-3.661 1.685-0.9441 3.394-1.053 5.073-0.3277 6.976 3.023 11.22 19.98 11.39 20.7 0.0688 0.2884-0.034 0.592-0.2729 0.7676-0.1308 0.0971-0.2857 0.1455-0.4406 0.1455" fill="#40507f"/>
  </g>
  <g fill="#fff">
   <path d="m694.6 344.2c-0.0877 0-0.1792-0.0189-0.2668-0.0518-15.49-5.992-46.68-5.006-47-4.994-0.4216 0-0.7469-0.3122-0.7589-0.7133-0.0189-0.407 0.3005-0.7469 0.7107-0.7615 1.287-0.0431 31.8-1.005 47.58 5.094 0.3795 0.1455 0.5645 0.5739 0.4216 0.9532-0.1153 0.2918-0.3915 0.4707-0.6892 0.4707"/>
   <path d="m689.5 332c-4.101 0-10.73 3.26-15.16 5.819 9.823-1.436 17.89-3.546 18-4.811 0 0-0.034-0.1308-0.3519-0.3613-0.6316-0.4492-1.488-0.6462-2.492-0.6462zm-18.53 7.756c-0.3065 0-0.5826-0.1909-0.6918-0.4853-0.1187-0.3182 0-0.6832 0.2884-0.8682 1.712-1.12 16.87-10.81 22.28-6.954 0.9895 0.7039 1.053 1.436 0.9289 1.928-0.8652 3.409-17.6 5.74-22.72 6.375-0.034 3e-3 -0.0601 8e-3 -0.0911 8e-3"/>
   <path d="m623.2 278c-0.3315 0-0.5344-8e-3 -0.6041-8e-3 -0.407-8e-3 -0.7254-0.3519-0.7133-0.759 8e-3 -0.401 0.3371-0.7168 0.7348-0.7168 0.0189 0 0.0775 3e-3 0.3881 3e-3 2.541 0 17.65-0.37 24.12-8.988 0.2426-0.3311 0.7073-0.3915 1.032-0.1489 0.3277 0.2426 0.3915 0.7073 0.1489 1.029-6.815 9.082-21.86 9.586-25.1 9.586"/>
   <path d="m586.9 369.5h-93.08l-26.59-60.13h89.42c2.231 0 4.25 1.317 5.154 3.357l25.1 56.78"/>
  </g>
  <g>
   <path d="m416.9 326c18.64-20.17 42.15-28.75 52.52-19.17 10.38 9.586 3.682 33.7-14.95 53.88-18.63 20.17-42.15 28.75-52.52 19.17-10.38-9.583-3.679-33.7 14.95-53.88" fill="#7b9b75"/>
   <path d="m578.8 369.5h-93.09l-23.73-53.67c-1.345-3.045 0.8834-6.469 4.213-6.469h86.01l26.59 60.13" fill="#7c576c"/>
   <path d="m457.4 410.9c20.08 3.339 37.75-2.328 39.47-12.66 1.718-10.33-13.17-21.41-33.25-24.75-20.08-3.339-37.75 2.331-39.47 12.66-1.718 10.33 13.17 21.41 33.25 24.75" fill="#7b9b75"/>
   <path d="m618.1 377.1h-131.4c-2.095 0-3.798-1.7-3.798-3.797 0-2.098 1.703-3.798 3.798-3.798h131.4c2.098 0 3.798 1.7 3.798 3.798 0 2.098-1.7 3.797-3.798 3.797"/>
   <path d="m393.9 417.3c-0.3254 0-0.6256-0.209-0.7254-0.5344-14.48-46.84-64.43-39.78-64.93-39.71-0.4036 0.0688-0.7985-0.2219-0.8621-0.6376-0.0601-0.4131 0.2184-0.7985 0.6342-0.8622 0.5128-0.0862 51.75-7.316 66.61 40.76 0.1247 0.401-0.0998 0.8261-0.5008 0.9501l-0.2219 0.034" fill="#fff"/>
   <path d="m586.4 355.2c-0.2547 0-0.5008-0.1308-0.6376-0.3674-0.203-0.3519-0.0862-0.8045 0.2702-1.008 0.0971-0.0514 9.717-5.561 21.89-9.031 0.4036-0.1187 0.7985 0.1187 0.9106 0.5068 0.1126 0.3915-0.1153 0.8011-0.5068 0.9107-11.99 3.415-21.46 8.837-21.56 8.891-0.1187 0.0688-0.246 0.0971-0.37 0.0971"/>
   <path d="m594.6 363c-0.2366 0-0.4707-0.1153-0.6135-0.3277-0.2279-0.3398-0.1334-0.7951 0.203-1.023 0.3337-0.2219 8.29-5.479 15.76-6.123 0.4096-0.0431 0.7615 0.2668 0.7985 0.6712 0.034 0.407-0.2668 0.7615-0.6737 0.7985-7.091 0.6075-14.99 5.828-15.07 5.88-0.1247 0.0862-0.2668 0.1247-0.4096 0.1247"/>
   <path d="m719.3 518.5c-0.2487 0-0.4948-0.1274-0.6316-0.3579-0.2124-0.3492-0.0971-0.8011 0.2521-1.011 30.78-18.42 43.06-46.11 43.18-46.39 0.1671-0.3734 0.6015-0.5464 0.9714-0.3829 0.3734 0.161 0.543 0.5946 0.3829 0.9684-0.1213 0.2823-12.57 28.39-43.78 47.07-0.1187 0.0688-0.2487 0.1032-0.3795 0.1032" fill="#d2f2fa"/>
   <path d="m647.7 208.3s12.42-33.52 26.83-20.2c14.41 13.31-13.41 34.92-13.41 34.92l-13.41-14.72"/>
   <path d="m67.74 343.2c-3.196-2.55-70.24-12.18-67.67 81.62 2.571 93.8 107.5 147.6 222.7 127.3 115.2-20.23 6.147-154.8 6.147-154.8l-161.2-54.19" fill="#6876aa"/>
   <path d="m391.6 410.9c-0.3216 0-0.6221-0.209-0.7228-0.5344-17.51-56.08-69.67-84.8-70.19-85.08-0.37-0.2003-0.5068-0.6591-0.3065-1.029 0.2007-0.37 0.6652-0.5008 1.026-0.3065 0.5309 0.2857 53.23 29.28 70.92 85.96 0.1247 0.401-0.0971 0.826-0.4982 0.9501l-0.2279 0.034" fill="#fff"/>
   <path d="m75.18 511c-0.1273 0-0.2547-0.034-0.3735-0.1032-30.72-18.38-42.97-46.06-43.1-46.34-0.1574-0.37 9e-3 -0.7951 0.3795-0.9562 0.3519-0.155 0.7925 8e-3 0.9562 0.3761 0.1188 0.2729 12.2 27.54 42.51 45.67 0.3459 0.2064 0.4552 0.6497 0.2521 0.9957-0.1368 0.2279-0.3795 0.3519-0.6256 0.3519" fill="#d2f2fa"/>
   <path d="m242.8 287.7s10.5 0.771 7.158 15.62c-3.342 14.85-12.91-3.612-12.91-3.612l5.752-12" fill="#f48462"/>
   <path d="m346.5 573.7c-2.04 1.166-120.4-4.963-123-7.407-0.9501-0.8742-0.8955-6.496-0.1334-14.51 1.372-14.58 9.614-39.48 14.17-54.84 0 0 41.42 2.784 45.11 5.136 3.719 2.377 43.61 36.05 43.61 36.05s15.22 5.795 20.68 14.8c1.597 2.641 2.407 5.452 2.69 8.078 0.6858 6.35-1.663 11.91-3.087 12.7" fill="#40507f"/>
  </g>
  <g fill="#fff">
   <path d="m346.5 573.7c-2.04 1.166-120.4-4.963-123-7.407-0.9501-0.8742-0.8955-6.496-0.1334-14.51l126.3 9.219c0.6858 6.35-1.663 11.91-3.087 12.7"/>
   <path d="m312.5 527.6c-0.0601-3e-3 -34.62-2.768-34.62-2.768-0.316-0.0264-0.5799-0.2487-0.6557-0.5524-0.0775-0.3065 0.0514-0.6282 0.3122-0.8011l16.97-11.09c0.3398-0.2245 0.7951-0.1308 1.02 0.2124 0.2245 0.3398 0.1274 0.7985-0.2124 1.02l-15.17 9.914 32.42 2.592c0.4036 0.034 0.7073 0.3889 0.6738 0.7951-0.034 0.3855-0.3519 0.6772-0.7349 0.6772"/>
   <path d="m392.2 425.1-0.6651-0.395c-27.12-49.57-9.392-164.7-9.21-165.9 0.0601-0.4156 0.4646-0.7013 0.8682-0.6316 0.413 0.0688 0.6978 0.4526 0.6316 0.8682-0.1826 1.154-17.83 115.8 9.04 164.9 0.2007 0.3674 0.0688 0.8321-0.3001 1.032l-0.364 0.0911"/>
   <path d="m277.7 395.7c-0.1368 0-0.2729-0.0431-0.395-0.1153-0.3458-0.2184-0.4466-0.6738-0.2279-1.017 0.0688-0.1153 7.461-11.72 17.38-20.18 0.3039-0.2668 0.7744-0.234 1.038 0.0775 0.2642 0.3126 0.2279 0.777-0.0862 1.041-9.744 8.314-17.02 19.73-17.09 19.85-0.1395 0.2219-0.3795 0.3432-0.6222 0.3432"/>
   <path d="m384.7 415c-0.401 0-0.7374-0.3182-0.7555-0.7228-0.0189-0.4216-1.254-42.49 59.44-84.86 0.3432-0.2366 0.8132-0.1576 1.056 0.1886 0.24 0.3432 0.155 0.8166-0.1886 1.056-59.94 41.85-58.81 83.13-58.79 83.55 0.0189 0.4156-0.3039 0.771-0.7228 0.7891l-0.034 3e-3"/>
  </g>
  <g>
   <path d="m192.3 321.9 56.41 17.02s0.5645 38.14-35.26 48.55c-35.82 10.42-39.98-33.02-39.98-33.02l18.82-32.56" fill="#f7b369"/>
   <path d="m222.7 329.2s-1.752 21.42 15.32 19.39c17.07-2.034 16.02-26.55 16.02-26.55l-31.34 7.161" fill="#f48462"/>
   <path d="m89.53 438.2s-32.88-118.7-5.194-151.4c27.68-32.67 91.95-5.449 91.95-5.449l30.75 108.9-117.5 47.88" fill="#f7b369"/>
   <path d="m201.6 387.5s65.7-46.46 122.4-32.2c56.7 14.26-26.11 152.2-26.11 152.2l-82.43 0.1848 8.032-39.51-98.95-0.1909 43.66-61.83 33.39-18.62" fill="#8e657d"/>
   <path d="m135.4 353.2s16.61-26.32 24.68-29.32c8.069-2.999 27.57 0.9532 27.57 3.288 3e-3 2.337-18.06 5.176-18.06 5.176s10.15 17.74 10.32 21.73c0.161 3.989-8.994 15.6-11.01 16.76-2.013 1.16-7.058-5.315-7.058-5.315s-5.579 6.748-13.44 8.827c-7.862 2.079-16.88-9.841-16.88-9.841l3.873-11.3" fill="#f48462"/>
   <path d="m160.1 339.4c-0.4131 0-0.777-0.2978-0.8467-0.7168-0.0862-0.4707 0.2366-0.9136 0.7039-0.9925l10.83-1.821c0.4672-0.0775 0.9106 0.2366 0.9927 0.7039 0.0775 0.4707-0.24 0.9137-0.7073 0.9896l-10.83 1.824c-0.0514 8e-3 -0.0937 8e-3 -0.1429 8e-3"/>
   <path d="m108.2 253.5 0.5163 21.17s3.97 5.995 16.38 6.7c9.246 0.5223 11.67-2.69 11.67-2.69l-0.7891-9.644-1.524-10.43-22.49-4.374-3.77-0.7374" fill="#f48462"/>
   <path d="m112.4 256c0.0688 0.5524 0.3039 1.205 0.6617 1.946 4.972 10.04 17.85 11.95 23.14 12.3l-1.533-9.999-22.27-4.244"/>
   <path d="m137.3 213.8s11.27 25.18 7.419 39.42c-3.852 14.24-16.81 12.12-24.58 9.444-7.768-2.677-11.4-7.392-11.4-7.392s-7.213 2.517-12.11-4.165c-4.899-6.684-1.991-14.43 2.125-16.24 4.113-1.809 9.052 1.129 9.052 1.129l-3.916-7.313s15.86-37.49 33.41-14.89" fill="#f48462"/>
  </g>
  <g>
   <path d="m136.4 245.9c-0.0688 0-0.1455-8e-3 -0.2158-0.034-0.389-0.1187-0.6075-0.5309-0.4888-0.9199 1.433-4.681-2.076-9.738-2.113-9.79-0.234-0.3311-0.1516-0.7925 0.1788-1.026 0.3254-0.2306 0.789-0.1576 1.026 0.1765 0.1637 0.2279 3.964 5.692 2.319 11.07-0.0998 0.3182-0.3915 0.5223-0.7073 0.5223"/>
   <path d="m106.8 247.8c-0.1969 0-0.3915-0.0775-0.5344-0.2306l-6.885-7.261c-0.2797-0.2944-0.2702-0.7615 0.0265-1.044 0.2944-0.2797 0.7675-0.2642 1.041 0.034l6.882 7.261c0.2823 0.2944 0.2702 0.7615-0.0265 1.044-0.1429 0.1334-0.3277 0.2007-0.5068 0.2007"/>
   <path d="m99.5 245.9c-0.3579 0-0.6737-0.2608-0.7288-0.6256-0.0601-0.4035 0.215-0.7804 0.6161-0.8407l4.751-0.7288c0.4251-0.0601 0.777 0.2151 0.8407 0.6135 0.0601 0.4036-0.215 0.7805-0.6161 0.8407l-4.751 0.7314c-0.034 8e-3 -0.0775 8e-3 -0.1126 8e-3"/>
   <path d="m107.8 236s2.614 1.709 4.502-1.263c1.891-2.972-2.277-11.73-2.277-11.73s7.832 1.761 12.66-0.8381c4.83-2.601 7.191-9.732 7.191-9.732s3.576 7.413 14.26 4.125c10.68-3.291 12.69-17.84 1.269-20.78-11.41-2.944-17.64 2.116-17.64 2.116s-1.469-10.55-15.56-5.306c-12.84 4.778-14.97 20.88-14.97 20.88s-7.719 0.3761-9.186 8.773c-1.463 8.396 8.369 14.45 8.369 14.45s5.567-3.285 11.38-0.6918"/>
  </g>
  <g>
   <path d="m203.6 386.7c-0.3761 0-0.6952-0.2857-0.7314-0.6643-1.527-15.49-8.988-36.96-9.064-37.18-0.1334-0.3829 0.0688-0.8045 0.4526-0.938 0.3915-0.1334 0.8071 0.0688 0.941 0.4526 0.0688 0.215 7.592 21.85 9.137 37.52 0.0431 0.407-0.2547 0.7684-0.6617 0.8071-0.0265 0-0.0514 3e-3 -0.0688 3e-3" fill="#40507f"/>
   <path d="m120.6 227.5c-0.1126 0-0.2279-0.0264-0.3371-0.0862-0.364-0.1826-0.5068-0.6256-0.3182-0.9896 1.685-3.288 5.862-2.438 6.035-2.398 0.3975 0.0862 0.6497 0.4732 0.5679 0.8711-0.0877 0.3975-0.4853 0.6617-0.8712 0.5705-0.1274-0.0265-3.251-0.6462-4.42 1.63-0.1308 0.2521-0.389 0.3975-0.6557 0.3975"/>
   <path d="m153.1 353.9 64.21 12.41c3.118 0.6006 6.132-1.439 6.736-4.556l17.7-91.6c0.6075-3.121-1.433-6.135-4.553-6.736l-64.21-12.41c-3.118-0.604-6.135 1.436-6.739 4.553l-17.7 91.6c-0.6006 3.118 1.439 6.135 4.556 6.739"/>
   <path d="m157.6 354.7 64.21 12.41c3.118 0.604 6.135-1.436 6.739-4.553l17.7-91.6c0.6014-3.118-1.439-6.135-4.556-6.736l-64.2-12.41c-3.121-0.6041-6.135 1.436-6.739 4.553l-17.7 91.6c-0.6041 3.118 1.436 6.135 4.553 6.739" fill="#40507f"/>
   <path d="m218.3 275.1c-1.035 0-2.098-0.1032-3.16-0.3099l-16.07-3.13c-6.36-1.239-10.82-5.904-9.948-10.4l1.308-6.712c0.0775-0.3975 0.4251-0.6651 0.8651-0.5825 0.3975 0.0775 0.6583 0.4647 0.58 0.8652l-1.305 6.712c-0.7168 3.697 3.218 7.589 8.779 8.673l16.07 3.127c2.75 0.5404 5.461 0.3065 7.634-0.6402 2.088-0.9046 3.421-2.362 3.758-4.101l1.308-6.715c0.0775-0.395 0.419-0.6583 0.8652-0.5826 0.3975 0.0775 0.6583 0.4673 0.5825 0.8651l-1.308 6.712c-0.4345 2.231-2.073 4.068-4.62 5.176-1.591 0.6918-3.424 1.044-5.34 1.044" fill="#fff"/>
   <path d="m134.2 224.5c-0.1429 0-0.2884-0.0431-0.4156-0.1274-0.3337-0.2306-0.4251-0.6892-0.1909-1.026 0.6858-1.011 1.572-1.591 2.632-1.724 2.176-0.2736 4.195 1.5 4.28 1.572 0.3065 0.2702 0.3337 0.7348 0.0688 1.041-0.2668 0.3005-0.7314 0.3375-1.038 0.0688-0.0189-0.0189-1.63-1.402-3.13-1.217-0.6282 0.0775-1.151 0.4371-1.597 1.093-0.1429 0.2064-0.3734 0.3216-0.6066 0.3216"/>
  </g>
  <g fill="#f48462">
   <path d="m249 315.6s14.99-1.718 10.38-8.609c-4.608-6.897-31.72-10.19-34.61-2.101-2.89 8.093 24.23 10.71 24.23 10.71"/>
   <path d="m247.4 327.9s14.99-1.718 10.38-8.612c-4.608-6.894-31.72-10.19-34.61-2.098-2.89 8.093 24.23 10.71 24.23 10.71"/>
   <path d="m238.7 338.3c3.218 1.065 6.666 1.402 9.981 0.6772 2.957-0.6462 5.546-2.134 4.056-5.485-2.981-6.706-26.12-13.67-29.86-7.049-2.79 4.936 9.429 9.732 15.83 11.86"/>
  </g>
  <path d="m250.7 313.8c-0.0518-3e-3 -17.46-1.302-17.46-1.302-0.401-0.034-0.7073-0.3855-0.6772-0.7925 0.034-0.4035 0.3194-0.7073 0.7925-0.6798l17.4 1.302c0.4036 0.034 0.7073 0.3855 0.6798 0.789-0.034 0.388-0.3553 0.6832-0.7374 0.6832"/>
  <path d="m247.9 327.5c-0.0601-3e-3 -17.46-1.305-17.46-1.305-0.4036-0.034-0.7108-0.3855-0.6798-0.789 0.034-0.407 0.3337-0.7047 0.7925-0.6798l17.4 1.302c0.4036 0.034 0.7099 0.382 0.6798 0.789-0.034 0.3855-0.3519 0.6832-0.7348 0.6832"/>
  <g fill="#534579">
   <path d="m115.5 440.6c-0.4035 0-0.771-0.2702-0.8802-0.6772l-2.926-11.03c-0.1274-0.4853 0.1576-0.9835 0.6462-1.114 0.5042-0.1247 0.9836 0.161 1.114 0.6462l2.926 11.03c0.1274 0.4853-0.161 0.9866-0.6471 1.114-0.0862 0.0189-0.1576 0.034-0.234 0.034"/>
   <path d="m202 412.9c-0.4913 0-0.8986-0.3915-0.9107-0.8864l-0.3065-11.74c-0.0189-0.5008 0.3829-0.9198 0.8864-0.9319 0.4311-0.0518 0.9199 0.382 0.932 0.8864l0.3099 11.74c0.0189 0.5008-0.382 0.9198-0.8864 0.9319h-0.0265"/>
   <path d="m192.3 420.2c-0.5008 0-0.9108-0.4036-0.9108-0.9076l-0.0265-12.45c-3e-3 -0.5008 0.407-0.9106 0.9076-0.9106 0.5043 0 0.9137 0.407 0.9137 0.9106l0.0265 12.45c3e-3 0.5042-0.407 0.9106-0.9076 0.9106h-3e-3"/>
  </g>
  <path d="m130.4 253c-3.045 0-5.245-2.24-6.071-3.628-0.209-0.3492-0.0937-0.7985 0.2582-1.008 0.3371-0.209 0.7985-0.0971 1.008 0.2521 0.0937 0.155 2.304 3.74 6.095 2.738 0.3881-0.0998 0.7951 0.1308 0.8985 0.5249 0.1032 0.395-0.1308 0.7985-0.5249 0.9016-0.5765 0.1516-1.135 0.2184-1.663 0.2184"/>
  <path d="m453.7 528.5c-0.9502 2.149-99.93 67.3-103.5 66.91-1.284-0.1368-4.572-4.702-8.706-11.61-7.528-12.56-15.64-37.51-21.06-52.59 0 0 35.02-22.29 39.39-22.58 4.411-0.2884 56.49 3.215 56.49 3.215s15.7-4.35 25.43-0.3243c2.847 1.181 5.17 2.966 6.952 4.915 4.314 4.714 5.713 10.58 5.03 12.06" fill="#40507f"/>
  <g fill="#fff">
   <path d="m453.7 528.5c-0.9502 2.149-99.93 67.3-103.5 66.91-1.284-0.1368-4.572-4.702-8.706-11.61l107.2-67.36c4.314 4.714 5.713 10.58 5.03 12.06"/>
   <path d="m372.3 530c-0.167 0-0.3311-0.0518-0.4673-0.167-0.2426-0.2007-0.3337-0.5309-0.2219-0.8261l7.103-18.99c0.1455-0.3829 0.5645-0.5739 0.9501-0.4345 0.3829 0.1455 0.574 0.5679 0.4311 0.9501l-6.347 16.97 27.65-17.11c0.3432-0.209 0.7985-0.1058 1.014 0.24 0.2151 0.3458 0.1092 0.8011-0.2366 1.014l-29.49 18.24c-0.1187 0.0775-0.2547 0.1092-0.3889 0.1092"/>
   <path d="m390.6 415-0.2797-0.0514c-0.3889-0.1516-0.58-0.5946-0.4251-0.9835 5.941-14.97 14.94-24.62 26.76-28.67 21.03-7.21 43.94 6.068 44.17 6.205 0.3613 0.2124 0.4827 0.6772 0.2668 1.041-0.209 0.3579-0.6738 0.4767-1.038 0.2668-0.2211-0.1308-22.56-13.07-42.92-6.074-11.38 3.904-20.07 13.26-25.84 27.79-0.1187 0.2978-0.4036 0.4793-0.7073 0.4793"/>
  </g>
  <g>
   <path d="m351.7 496.5h56.61c3.069 0 5.637-2.186 5.941-5.051l8.66-82.47c0.3458-3.297-2.413-6.153-5.941-6.153h-73.93c-3.527 0-6.287 2.856-5.941 6.153l8.66 82.47c0.3001 2.866 2.869 5.051 5.941 5.051" fill="#a88"/>
   <path d="m364.3 496.5h56.61c3.069 0 5.637-2.186 5.941-5.051l8.658-82.47c0.3492-3.297-2.41-6.153-5.938-6.153h-73.93c-3.53 0-6.287 2.856-5.941 6.153l8.661 82.47c0.3005 2.866 2.869 5.051 5.941 5.051" fill="#b79a9a"/>
   <path d="m89.53 438.2s141.7-72.04 172.9-61.77c41 13.48 115.3 124.7 115.3 124.7l-65.12 63.03s-67.44-91.02-78.24-89.81c-12.49 1.39-82.73 30.94-107.7 22.9-25-8.035-37.09-59-37.09-59" fill="#a37b90"/>
   <path d="m245.2 453.8c-1.487 0-2.741 0.5223-3.819 1.588-3.846 3.8-4.144 13.22-4.089 17.12 5.203-5.619 11.91-14.36 10.74-17.48-0.1032-0.2642-0.407-1.068-2.313-1.214-0.1765-0.0189-0.3458-0.0189-0.5163-0.0189zm-8.588 21.24c-0.0862 0-0.1731-8e-3 -0.2547-0.0431-0.2729-0.0998-0.4612-0.3519-0.4793-0.6462-0.0431-0.5946-0.8955-14.7 4.465-20.01 1.506-1.487 3.379-2.152 5.485-1.991 1.885 0.1455 3.09 0.8742 3.579 2.164 2.022 5.333-10.8 18.78-12.26 20.3-0.1429 0.1455-0.3371 0.2219-0.5309 0.2219" fill="#fff"/>
   <path d="m98.53 276.1s-97.82 42.32-80.83 115.4c16.19 69.6 127.8 8.809 127.8 8.809l-5.522-54.63-52.1 5.564 10.61-75.11" fill="#f7b369"/>
  </g>
  <g fill="#40507f">
   <path d="m70.43 349.4c-0.3433 0-0.6497-0.24-0.7194-0.5886-0.086-0.3975 0.1704-0.7865 0.5705-0.8712 28.78-5.944 61.35-3.977 61.68-3.952 0.4036 0.0265 0.7134 0.3761 0.6858 0.7805-0.0265 0.407-0.2789 0.7409-0.783 0.6892-0.3182-0.0189-32.7-1.976-61.28 3.928-0.0516 8e-3 -0.0998 0.0189-0.1489 0.0189"/>
   <path d="m80.42 337.2c-0.3123 0-0.6161 0.0189-0.9076 0.0601-1.135 0.161-1.976 0.6282-2.58 1.436-0.6282 0.8347-0.413 1.257-0.3339 1.415 1.22 2.413 11.16 3.394 18.46 3.53-3.245-2.225-10.01-6.438-14.64-6.438zm16.5 7.929c-3.458 0-19.55-0.2245-21.64-4.356-0.3218-0.6342-0.5008-1.667 0.4672-2.963 0.8381-1.123 2.037-1.8 3.558-2.013 6.748-0.9229 18.04 7.641 18.52 8.008 0.2487 0.1909 0.3519 0.5188 0.2521 0.82-0.1005 0.2978-0.3795 0.5008-0.6918 0.5008-0.1092 3e-3 -0.2668 3e-3 -0.4647 3e-3"/>
   <path d="m94.08 420.1c-0.2978 0-0.5739-0.1792-0.6892-0.4733-0.1429-0.3795 0.0431-0.8046 0.4251-0.9501 0.3432-0.1308 34.49-13.28 51.32-24.33 0.3432-0.2211 0.7951-0.1274 1.02 0.2124 0.2219 0.3398 0.1274 0.7951-0.2124 1.02-16.96 11.14-51.26 24.34-51.6 24.47-0.0862 0.034-0.1765 0.0514-0.2642 0.0514"/>
   <path d="m134.4 281.7c4.053 1.333 9.158 2.547 10.86 1.682 0.0877-0.0431 0.1187-0.0862 0.1308-0.1792 0.2124-1.566-3.952-6.308-7.607-9.863l0.2668 2.884c0.2245 2.459-1.324 4.742-3.646 5.476zm-24.79-6.208c0.401 6.742 1.897 16.11 4.714 17.07 2.808 0.9865 10.34-5.258 15.28-10.19-1.487 0.0518-2.987-0.0431-4.523-0.2676-8.005-1.172-13.18-4.702-15.47-6.618zm5.294 18.63c-0.3761 0-0.7314-0.0514-1.053-0.161-5.045-1.718-5.737-18.31-5.798-20.2-8e-3 -0.3061 0.1731-0.5886 0.4552-0.7039 0.2763-0.1153 0.6101-0.0431 0.8226 0.1826 0.0514 0.0601 5.561 5.892 15.97 7.416 2.037 0.2978 4.028 0.3371 5.947 0.1308 0.1213-0.0518 0.2547-0.0688 0.401-0.0518 0.6858-0.0877 1.363-0.209 2.028-0.364 1.827-0.4216 3.075-2.149 2.899-4.01l-0.4432-4.833c-0.0265-0.3039 0.1368-0.592 0.4096-0.7288 0.2729-0.1334 0.598-0.0862 0.8226 0.1187 1.66 1.53 9.917 9.316 9.483 12.49-0.0775 0.5679-0.407 1.029-0.9229 1.293-3.078 1.578-11.88-1.512-14.2-2.371-2.204 2.274-11.72 11.8-16.82 11.8"/>
  </g>
  <g>
   <path d="m629.8 232.3c0.1746-0.2959 0.5232-0.3666 0.7753-0.1584 0.2502 0.2075 0.3099 0.617 0.1342 0.9136-0.5963 0.9984-2.132 1.619-3.838 1.661-1.489 0.034-3.141-0.3511-4.409-1.299-0.2581-0.192-0.3364-0.598-0.172-0.9044 0.1636-0.3054 0.506-0.3975 0.7658-0.2041 1.075 0.8011 2.499 1.13 3.795 1.098 1.372-0.034 2.556-0.4474 2.95-1.107"/>
   <path d="m631 233.1c0.3001 0.0775 0.4922 0.4242 0.4285 0.7779-0.0688 0.3545-0.3587 0.5817-0.6591 0.506-0.2279-0.0601-0.4578-0.1349-0.6841-0.2324-0.2256-0.0964-0.4483-0.2116-0.6617-0.3424-0.2721-0.1659-0.3795-0.561-0.24-0.8829 0.1402-0.3216 0.4758-0.4483 0.7495-0.2823 0.1746 0.1066 0.3511 0.198 0.5318 0.2755 0.172 0.0775 0.3511 0.1349 0.5369 0.1807"/>
   <path d="m630 234.1c0.2695 0.1731 0.3693 0.5705 0.2219 0.888-0.147 0.3175-0.4836 0.4354-0.7538 0.2615-0.209-0.1361-0.4113-0.2872-0.5997-0.4526-0.1946-0.172-0.3776-0.3564-0.5507-0.5558-0.2211-0.2521-0.2256-0.6678-8e-3 -0.9279 0.215-0.2581 0.5662-0.2649 0.7856-8e-3 0.1387 0.161 0.2872 0.3088 0.4405 0.4423 0.1523 0.1327 0.308 0.2521 0.469 0.3564"/>
   <path d="m609.2 233c-0.1799-0.2925-0.1255-0.7022 0.1213-0.9146 0.2487-0.2124 0.5946-0.1482 0.7753 0.1448 0.4216 0.6849 1.64 1.169 3.049 1.25 1.277 0.0688 2.678-0.2075 3.767-0.9943 0.2623-0.1894 0.604-0.0922 0.7632 0.2177 0.161 0.3088 0.0775 0.7134-0.186 0.9014-1.292 0.934-2.924 1.268-4.398 1.184-1.725-0.0983-3.279-0.7908-3.894-1.788"/>
   <path d="m609.1 234.4c-0.3012 0.0775-0.5955-0.1516-0.6592-0.506-0.0688-0.3545 0.1281-0.703 0.4294-0.7779 0.1833-0.0431 0.3632-0.1077 0.5361-0.1807 0.1799-0.0775 0.3572-0.1697 0.5326-0.2755 0.2721-0.1652 0.6067-0.0431 0.7469 0.2831 0.141 0.3216 0.034 0.7176-0.24 0.8829-0.2124 0.1308-0.4354 0.246-0.6617 0.3424-0.2272 0.0971-0.4543 0.1746-0.6849 0.2324"/>
   <path d="m610.4 235.2c-0.2702 0.1731-0.6066 0.0518-0.7529-0.2616-0.1463-0.3175-0.0518-0.7168 0.2219-0.8891 0.161-0.1039 0.3167-0.2237 0.4698-0.356 0.1516-0.1342 0.2993-0.2823 0.4388-0.4423 0.2196-0.2521 0.5714-0.246 0.7856 0.0189 0.2136 0.26 0.2083 0.6746-8e-3 0.9268-0.1738 0.1996-0.3572 0.3855-0.5533 0.5558-0.1886 0.1652-0.389 0.3175-0.5998 0.4535"/>
   <path d="m623.5 252.5c-0.3243 0-0.6221-0.209-0.7228-0.5369-0.1213-0.401 0.1032-0.8226 0.5008-0.9472 0.1247-0.0431 3.029-0.9774 3.628-4.338 0.0688-0.4096 0.4672-0.6772 0.8803-0.6135 0.413 0.0688 0.6892 0.4673 0.6135 0.8804-0.7615 4.298-4.52 5.473-4.681 5.522l-0.2185 0.034"/>
  </g>
  <g fill-rule="evenodd">
   <path d="m612.4 237.2c-1.809-0.3141-3.531 0.897-3.844 2.706-0.316 1.808 0.8955 3.53 2.703 3.844 1.811 0.3141 3.533-0.8955 3.847-2.706 0.3141-1.808-0.8971-3.53-2.706-3.844" fill="#ff7f62"/>
   <path d="m629.8 236.7c-1.808-0.316-3.53 0.8956-3.844 2.705-0.3141 1.809 0.897 3.53 2.706 3.844 1.808 0.316 3.53-0.8955 3.844-2.705 0.3141-1.808-0.897-3.53-2.706-3.844" fill="#ff7f62"/>
   <path d="m140.5 234.8c1.809-0.3141 3.531 0.897 3.844 2.706 0.316 1.808-0.8955 3.53-2.703 3.844-1.811 0.3141-3.533-0.8955-3.847-2.706-0.3141-1.808 0.897-3.53 2.706-3.844" fill="#f26b42"/>
   <path d="m123.1 234.4c1.808-0.316 3.53 0.8956 3.844 2.705 0.3141 1.809-0.8971 3.53-2.706 3.844-1.808 0.316-3.53-0.8955-3.844-2.705-0.3141-1.808 0.8971-3.53 2.706-3.844" fill="#f26b42"/>
  </g>
  <path d="m122.2 230.5c-0.1746-0.2959-0.5232-0.3666-0.7753-0.1584-0.2502 0.2075-0.3099 0.617-0.1342 0.9136 0.5963 0.9984 2.132 1.619 3.838 1.661 1.489 0.034 3.141-0.3511 4.409-1.299 0.2581-0.192 0.3364-0.5981 0.172-0.9044-0.1637-0.3054-0.5059-0.3975-0.7658-0.2041-1.075 0.8012-2.499 1.13-3.795 1.099-1.372-0.034-2.556-0.4475-2.95-1.107"/>
  <path d="m142.8 231.3c0.1799-0.2925 0.1255-0.7022-0.1213-0.9146-0.2487-0.2124-0.5946-0.1482-0.7753 0.1444-0.4216 0.685-1.64 1.169-3.049 1.25-1.277 0.0688-2.678-0.2075-3.767-0.9943-0.2623-0.1894-0.604-0.0922-0.7632 0.2177-0.161 0.3088-0.0775 0.7133 0.186 0.9014 1.292 0.934 2.924 1.268 4.398 1.184 1.725-0.0979 3.279-0.7908 3.893-1.788"/>
 </g>
</svg>
