<?xml version="1.0" encoding="UTF-8" standalone="no"?>
<!-- Created with Inkscape (http://www.inkscape.org/) -->

<svg
   width="800"
   height="600"
   viewBox="0 0 800 600"
   version="1.1"
   id="svg21804"
   inkscape:version="1.2.1 (9c6d41e, 2022-07-14)"
   sodipodi:docname="sitting-working-group-eyes-closed.svg"
   inkscape:export-filename="sitting-working-group-eyes-closed.out.png"
   inkscape:export-xdpi="96"
   inkscape:export-ydpi="96"
   xmlns:inkscape="http://www.inkscape.org/namespaces/inkscape"
   xmlns:sodipodi="http://sodipodi.sourceforge.net/DTD/sodipodi-0.dtd"
   xmlns="http://www.w3.org/2000/svg"
   xmlns:svg="http://www.w3.org/2000/svg">
  <sodipodi:namedview
     id="namedview21806"
     pagecolor="#ffffff"
     bordercolor="#000000"
     borderopacity="0.25"
     inkscape:showpageshadow="2"
     inkscape:pageopacity="0.0"
     inkscape:pagecheckerboard="0"
     inkscape:deskcolor="#d1d1d1"
     inkscape:document-units="mm"
     showgrid="false"
     inkscape:zoom="0.51600748"
     inkscape:cx="195.7336"
     inkscape:cy="281.00368"
     inkscape:window-width="1309"
     inkscape:window-height="706"
     inkscape:window-x="0"
     inkscape:window-y="0"
     inkscape:window-maximized="0"
     inkscape:current-layer="layer1" />
  <defs
     id="defs21801" />
  <g
     inkscape:label="Layer 1"
     inkscape:groupmode="layer"
     id="layer1">
    <path
       d="m 117.22687,152.89858 c 43.07441,0 77.99388,34.91959 77.99388,77.99448 0,43.07607 -34.91947,77.99339 -77.99388,77.99339 -43.075456,0 -77.995026,-34.91732 -77.995026,-77.99339 0,-43.07489 34.91957,-77.99448 77.995026,-77.99448"
       style="fill:#f8e7cd;fill-opacity:1;fill-rule:evenodd;stroke:none;stroke-width:0.0554638"
       id="path407-1-7-5" />
    <g
       id="g30978"
       transform="matrix(8.6047983,0,0,8.6047983,-652.56676,-995.92727)">
      <path
         d="m 135.75327,115.74092 c 12.66983,0 22.941,10.27118 22.941,22.94117 0,12.67033 -10.27117,22.94085 -22.941,22.94085 -12.67016,0 -22.94134,-10.27052 -22.94134,-22.94085 0,-12.66999 10.27118,-22.94117 22.94134,-22.94117"
         style="fill:#ebb763;fill-opacity:1;fill-rule:evenodd;stroke:none;stroke-width:0.016314"
         id="path407-1" />
      <path
         d="m 114.47401,121.31022 c 1.6115,0 3.02821,0.83463 3.84164,2.09489 0.23084,-0.0679 0.4749,-0.10425 0.7276,-0.10425 1.42438,0 2.57893,1.15455 2.57893,2.57877 0,0.36592 -0.0764,0.71374 -0.21372,1.02892 h -14.54611 c -0.1093,-0.32302 -0.16852,-0.66904 -0.16852,-1.02892 0,-1.77318 1.4376,-3.21094 3.21093,-3.21094 0.39725,0 0.77753,0.0723 1.12878,0.20442 0.83756,-0.9578 2.06829,-1.56289 3.44047,-1.56289"
         style="fill:#ffffff;fill-opacity:1;fill-rule:evenodd;stroke:none;stroke-width:0.016314"
         id="path409-4" />
      <path
         d="m 149.38106,116.64358 c 1.08195,0 2.0329,0.56006 2.57909,1.40611 0.15499,-0.0455 0.31862,-0.07 0.48828,-0.07 0.95601,0 1.73125,0.77509 1.73125,1.73109 0,0.24569 -0.0512,0.47931 -0.14356,0.6909 h -9.7643 c -0.0737,-0.21681 -0.11338,-0.44929 -0.11338,-0.6909 0,-1.19028 0.96498,-2.15541 2.15557,-2.15541 0.26658,0 0.52173,0.0486 0.75763,0.13719 0.56235,-0.64293 1.38849,-1.04899 2.30942,-1.04899"
         style="fill:#ffffff;fill-opacity:1;fill-rule:evenodd;stroke:none;stroke-width:0.016314"
         id="path413-9" />
      <path
         d="m 156.51928,126.86761 c 2.15819,0 4.05519,1.11751 5.14464,2.80504 0.30916,-0.0905 0.63609,-0.13949 0.97445,-0.13949 1.90727,0 3.45368,1.54625 3.45368,3.45353 0,0.49007 -0.10228,0.956 -0.28631,1.37805 h -19.47981 c -0.1465,-0.43265 -0.22579,-0.89613 -0.22579,-1.37805 0,-2.37484 1.92522,-4.2999 4.2999,-4.2999 0.53217,0 1.04132,0.0967 1.51166,0.27359 1.12176,-1.28262 2.7698,-2.09277 4.60758,-2.09277"
         style="fill:#ffffff;fill-opacity:1;fill-rule:evenodd;stroke:none;stroke-width:0.016314"
         id="path417-5" />
    </g>
    <path
       d="m 648.80741,140.16978 c 43.07445,0 77.99392,34.91954 77.99392,77.99448 0,43.07607 -34.91947,77.99338 -77.99392,77.99338 -43.07543,0 -77.99501,-34.91731 -77.99501,-77.99338 0,-43.07494 34.91958,-77.99448 77.99501,-77.99448"
       style="fill:#f8e7cd;fill-opacity:1;fill-rule:evenodd;stroke:none;stroke-width:0.0554638"
       id="path407-1-7" />
    <path
       d="M 302.286,435.29302 H 693.00555 C 678.39733,318.37892 622.24984,218.50785 567.29306,214.09374 519.28731,171.11719 458.74328,173.50449 427.62443,201.06095 c -19.87321,0.62899 -36.30603,6.41125 -51.83089,-1.10169 -73.97012,-52.92227 -210.18675,38.33419 -242.35042,235.33376"
       style="fill:#b2d7bd;fill-opacity:1;fill-rule:evenodd;stroke:none;stroke-width:0.100842"
       id="path786" />
    <path
       d="m 355.17618,435.32707 c -5.16461,-18.96136 21.64399,-23.52937 47.48111,-8.34724 -6.06244,-31.407 46.63445,-15.27027 62.38004,1.7102 6.88309,-33.45664 70.99733,21.0785 61.31539,43.38486 H 332.70371 c -47.74632,-14.82554 -13.47058,-57.61369 22.47247,-36.74782"
       style="fill:#8fc098;fill-opacity:1;fill-rule:evenodd;stroke:none;stroke-width:0.122504"
       id="path487" />
    <path
       d="m 410.57793,272.23622 c -2.4011,27.35361 -15.75164,48.52985 -29.82157,47.29436 -14.0699,-1.23246 -23.53183,-24.40913 -21.13376,-51.76274 2.40117,-27.35664 15.75171,-48.52989 29.82157,-47.29739 14.06997,1.23545 23.53191,24.40906 21.13376,51.76577"
       style="fill:#7b9b75;fill-opacity:1;fill-rule:nonzero;stroke:none;stroke-width:3.03558"
       id="path4796" />
    <path
       d="m 322.13022,301.31095 c 24.85531,11.67493 40.13337,31.50029 34.12906,44.28617 -6.00446,12.78587 -31.02066,13.68438 -55.87597,2.00957 -24.85538,-11.67492 -40.13344,-31.50331 -34.12902,-44.28918 6.00431,-12.78286 31.02055,-13.68439 55.87593,-2.00656"
       style="fill:#7b9b75;fill-opacity:1;fill-rule:nonzero;stroke:none;stroke-width:3.03558"
       id="path4876" />
    <path
       d="m 331.77123,398.72888 c -20.12897,-3.03859 -35.18245,-13.89388 -33.62215,-24.25122 1.56332,-10.35141 19.15154,-16.28285 39.28048,-13.24736 20.13195,3.03863 35.18233,13.89392 33.62203,24.24824 -1.56332,10.35439 -19.14845,16.28587 -39.28036,13.25034"
       style="fill:#7b9b75;fill-opacity:1;fill-rule:nonzero;stroke:none;stroke-width:3.03558"
       id="path4878" />
    <path
       d="m 800.00001,547.77225 c 0,21.50196 -174.22719,38.9492 -389.14338,38.9492 -214.91611,0 -389.140252,-17.44724 -389.140252,-38.9492 0,-21.50192 174.224142,-38.93635 389.140252,-38.93635 214.91626,0 389.14338,17.43443 389.14338,38.93635"
       style="fill:#ddd0d0;fill-opacity:1;fill-rule:nonzero;stroke:none;stroke-width:6.1638"
       id="path4798" />
    <path
       d="m 656.92621,202.74239 c 0,0 32.78128,52.67342 -11.47147,58.40764 -44.25577,5.73415 11.47147,-58.40764 11.47147,-58.40764"
       style="fill:#000000;fill-opacity:1;fill-rule:nonzero;stroke:none;stroke-width:3.03558"
       id="path20813" />
    <path
       d="m 726.86902,347.9555 c 3.24506,-2.59237 71.34531,-12.37912 68.73471,82.89873 -2.61059,95.28083 -109.20204,149.89092 -226.19641,129.33698 -116.99735,-20.54782 -6.24714,-157.1915 -6.24714,-157.1915 L 726.86902,347.9555"
       style="fill:#6876aa;fill-opacity:1;fill-rule:nonzero;stroke:none;stroke-width:3.03558"
       id="path20815" />
    <path
       d="m 520.63165,495.33909 2.00954,22.38436 h 42.99598 v -25.35016 l -45.00552,2.9658"
       style="fill:#ff9c85;fill-opacity:1;fill-rule:nonzero;stroke:none;stroke-width:3.03558"
       id="path20817" />
    <path
       d="m 597.31951,505.68127 4.34094,22.44511 47.32468,-11.22255 -8.26889,-24.53054 -43.39673,13.30798"
       style="fill:#ff9c85;fill-opacity:1;fill-rule:nonzero;stroke:none;stroke-width:3.03558"
       id="path20819" />
    <path
       d="m 570.67018,369.11349 c 0,0 7.71945,-80.06344 36.42092,-93.8298 28.69837,-13.7633 75.13066,0.39496 75.13066,0.39496 l -2.08547,107.08317 -109.46611,-13.64799"
       style="fill:#40507f;fill-opacity:1;fill-rule:nonzero;stroke:none;stroke-width:3.03558"
       id="path20821" />
    <path
       d="m 588.85333,364.62386 c 0,0 -62.17784,-15.13232 -79.22868,11.14065 -17.05093,26.27293 6.79358,126.53208 6.79358,126.53208 h 57.25108 l 15.18402,-137.67273"
       style="fill:#59acc9;fill-opacity:1;fill-rule:nonzero;stroke:none;stroke-width:3.03558"
       id="path20823" />
    <path
       d="m 720.91022,387.72766 c 0,0 15.65144,48.05023 -10.29366,57.73682 -25.9451,9.68651 -79.75684,9.98098 -79.75684,9.98098 l 24.26336,42.81989 -78.0418,23.11899 c 0,0 -64.8036,-117.01863 -25.3592,-148.2062 39.44429,-31.18756 122.47053,14.22478 122.47053,14.22478 l 46.71761,0.32429"
       style="fill:#68b6d8;fill-opacity:1;fill-rule:nonzero;stroke:none;stroke-width:3.03558"
       id="path20825" />
    <path
       d="m 519.31724,505.68127 c 0,0 -14.88041,17.55784 -18.34102,19.22744 -3.4605,1.66651 -39.53534,13.8149 -46.45652,20.58724 -6.91809,6.77541 -7.40988,20.08955 -5.43368,21.34016 1.97617,1.25072 120.64918,0 120.64918,0 l 1.2446,-57.22371 -51.66256,-3.93113"
       style="fill:#efa459;fill-opacity:1;fill-rule:nonzero;stroke:none;stroke-width:3.03558"
       id="path20827" />
    <path
       d="m 594.56019,518.6827 c 0,0 -6.05907,23.52578 -10.93719,25.99975 -4.88429,2.47706 -25.88134,15.65446 -37.28909,27.61769 -9.56508,10.02958 0,15.79113 0,15.79113 h 66.118 l 56.83517,-41.75445 -20.30195,-43.43308 -54.42494,15.77896"
       style="fill:#f7b369;fill-opacity:1;fill-rule:nonzero;stroke:none;stroke-width:3.03558"
       id="path20829" />
    <path
       d="m 507.30239,517.72954 c 0,0 16.55002,18.9693 12.7646,20.51146 -3.78531,1.54204 -35.74398,-3.35433 -34.91826,-6.77242 0.82605,-3.42112 18.32281,-14.02133 22.15366,-13.73904"
       style="fill:#ffffff;fill-opacity:1;fill-rule:nonzero;stroke:none;stroke-width:3.03558"
       id="path20831" />
    <path
       d="m 588.38282,532.9226 c 0,0 21.21264,13.55686 18.01311,16.10071 -3.19653,2.54082 -35.24613,6.82704 -35.41613,3.31181 -0.16706,-3.51213 13.65097,-18.60503 17.40302,-19.41252"
       style="fill:#ffffff;fill-opacity:1;fill-rule:nonzero;stroke:none;stroke-width:3.03558"
       id="path20833" />
    <path
       d="m 645.09652,251.06883 2.63486,16.85964 c 0,0 -2.68339,5.47317 -13.70861,8.30233 -8.21125,2.10974 -11.38949,0.98045 -11.38949,0.98045 l -0.17311,-8.74851 -0.161,-8.53603 19.5219,-7.5829 3.2753,-1.27498"
       style="fill:#ff9c85;fill-opacity:1;fill-rule:nonzero;stroke:none;stroke-width:3.03558"
       id="path20835" />
    <path
       d="m 641.83331,252.39544 c 0.0431,0.52834 -0.0514,1.18084 -0.24,1.93969 -2.65613,10.27544 -14.00318,14.32494 -18.74468,15.57252 l -0.45864,-9.63794 19.44287,-7.87427"
       style="fill:#000000;fill-opacity:1;fill-rule:nonzero;stroke:none;stroke-width:3.03558"
       id="path20837" />
    <path
       d="m 610.72164,217.41032 c 0,0 -5.9619,25.67799 0.25814,38.32422 6.21997,12.64928 17.98583,8.2902 24.77949,4.35609 6.79367,-3.93112 9.34054,-9.01871 9.34054,-9.01871 0,0 7.22158,1.04119 10.59413,-6.11973 3.36646,-7.16398 -0.77704,-13.89993 -4.96619,-14.84103 -4.18915,-0.94103 -8.28408,2.71687 -8.28408,2.71687 l 2.33431,-7.57376 c 0,0 -21.73168,-32.247 -34.05615,-7.84395"
       style="fill:#ff9c85;fill-opacity:1;fill-rule:nonzero;stroke:none;stroke-width:3.03558"
       id="path20839" />
    <path
       d="m 617.2815,247.36542 c -0.26078,0 -0.51284,-0.14287 -0.64622,-0.39152 -2.54083,-4.7537 0.034,-10.58812 0.13946,-10.83402 0.1697,-0.37002 0.6101,-0.53439 0.97743,-0.37002 0.37001,0.16706 0.53438,0.60148 0.37001,0.9744 -0.0264,0.0518 -2.38291,5.42767 -0.19086,9.53783 0.19464,0.35792 0.0601,0.80455 -0.30048,0.99564 -0.10922,0.0601 -0.23055,0.0877 -0.34922,0.0877"
       style="fill:#000000;fill-opacity:1;fill-rule:nonzero;stroke:none;stroke-width:3.03558"
       id="path20841" />
    <path
       d="m 645.45474,243.741 c -0.13681,0 -0.27288,-0.0431 -0.39496,-0.11527 -0.34318,-0.21846 -0.44659,-0.67374 -0.2279,-1.01692 l 5.12405,-8.07164 c 0.22186,-0.34318 0.67979,-0.44315 1.01692,-0.22715 0.34319,0.21846 0.44659,0.67378 0.22791,1.01995 l -5.12406,8.06853 c -0.14286,0.22186 -0.37946,0.34318 -0.62214,0.34318"
       style="fill:#000000;fill-opacity:1;fill-rule:nonzero;stroke:none;stroke-width:3.03558"
       id="path20843" />
    <path
       d="m 647.33377,240.78129 c -0.39496,0 -0.71935,-0.30992 -0.73485,-0.7073 -0.0189,-0.40702 0.29783,-0.74948 0.70386,-0.76758 l 4.58978,-0.18482 c 0.36737,0.0265 0.74952,0.30387 0.76502,0.7073 0.0189,0.40698 -0.30047,0.74948 -0.70734,0.76754 l -4.5868,0.18482 c -0.008,0 -0.0189,0 -0.034,0"
       style="fill:#000000;fill-opacity:1;fill-rule:nonzero;stroke:none;stroke-width:3.03558"
       id="path20845" />
    <path
       d="m 611.70519,355.37147 c -0.22451,0 -0.44659,-0.10319 -0.58859,-0.29443 -0.0514,-0.0688 -5.55507,-7.41899 -9.92632,-18.26513 -6.74514,-16.73515 -0.30388,-40.83462 -0.0265,-41.85464 0.10318,-0.39152 0.49822,-0.62555 0.90463,-0.51629 0.39496,0.10583 0.62559,0.51288 0.51889,0.90463 -0.0688,0.24605 -6.58416,24.64286 -0.0265,40.9166 4.29535,10.66401 9.6774,17.85528 9.73201,17.92819 0.24605,0.32428 0.17915,0.78648 -0.14286,1.03204 -0.13342,0.0998 -0.29178,0.14891 -0.44315,0.14891"
       style="fill:#ffffff;fill-opacity:1;fill-rule:nonzero;stroke:none;stroke-width:3.03558"
       id="path20847" />
    <path
       d="m 628.80763,227.17881 c -0.21846,0 -0.4311,-0.0971 -0.57653,-0.28233 -1.49352,-1.90027 -4.28621,-0.76154 -4.4016,-0.70734 -0.38204,0.15156 -0.80455,-0.0189 -0.96828,-0.39152 -0.15496,-0.37606 0.0189,-0.80712 0.38804,-0.96537 0.16101,-0.0688 3.94326,-1.63922 6.13799,1.15355 0.2521,0.32164 0.19465,0.78304 -0.12132,1.03518 -0.13682,0.10582 -0.29783,0.1576 -0.45864,0.1576"
       style="fill:#000000;fill-opacity:1;fill-rule:nonzero;stroke:none;stroke-width:3.03558"
       id="path20851" />
    <path
       d="m 610.01132,227.97115 c -0.15761,0 -0.31824,-0.0514 -0.4526,-0.15496 -0.31824,-0.24869 -0.3795,-0.70991 -0.13077,-1.03208 0.0688,-0.0877 1.65747,-2.12795 3.74902,-2.27062 1.05933,-0.0911 1.97307,0.31596 2.81394,1.14444 0.28573,0.28573 0.28838,0.75292 0.008,1.04118 -0.28838,0.29178 -0.74948,0.29178 -1.04429,0.008 -0.52834,-0.5249 -1.08068,-0.75893 -1.67259,-0.7228 -1.42367,0.0937 -2.67435,1.68473 -2.68649,1.70298 -0.14551,0.18482 -0.36397,0.28574 -0.58257,0.28574"
       style="fill:#000000;fill-opacity:1;fill-rule:nonzero;stroke:none;stroke-width:3.03558"
       id="path20853" />
    <path
       d="m 641.5449,232.63985 c 0,0 -11.96927,-1.5967 -17.07511,-9.58031 -5.10584,-7.98353 -4.82964,-11.7902 -4.82964,-11.7902 0,0 -5.90725,3.4272 -7.99574,7.89256 -2.09147,4.46831 -2.45268,6.84219 -2.45268,6.84219 0,0 -1.97919,-9.59546 -0.96231,-12.53703 1.0139,-2.93835 6.59327,-19.4064 29.5635,-17.3969 34.83338,3.05083 20.66325,31.3242 3.75198,36.56969"
       style="fill:#000000;fill-opacity:1;fill-rule:nonzero;stroke:none;stroke-width:3.03558"
       id="path20859" />
    <path
       d="m 645.73095,341.08595 c 0,0 -1.06242,-0.46466 -5.56418,-2.07322 -4.25889,-1.52391 -19.62199,-0.35793 -19.62199,-0.35793 0,0 -13.36875,1.97314 -24.50328,6.36866 -11.13142,4.39551 -9.61973,9.41329 -9.61973,9.41329 0,0 -7.17003,3.76418 -4.51691,6.93022 2.65311,3.16312 14.06083,1.23549 14.06083,1.23549 0,0 -14.52832,4.095 -8.9884,7.75895 5.53995,3.66093 24.05696,-2.30094 24.05696,-2.30094 0,0 27.45388,12.68572 37.51373,3.79748 10.063,-8.88514 -2.81703,-30.7717 -2.81703,-30.7717"
       style="fill:#ff9c85;fill-opacity:1;fill-rule:nonzero;stroke:none;stroke-width:3.03558"
       id="path20861" />
    <path
       d="m 640.06056,337.1792 -11.20131,44.80819 c 0,0 72.94194,57.35123 103.41007,12.38525 30.46813,-44.96912 -26.21219,-112.36207 -50.04756,-118.69433 -23.83548,-6.33528 -11.7933,66.0968 -11.7933,66.0968 l -30.3679,-4.59591"
       style="fill:#40507f;fill-opacity:1;fill-rule:nonzero;stroke:none;stroke-width:3.03558"
       id="path20863" />
    <path
       d="m 617.97969,435.57153 c -0.7073,0 -1.42064,0.20296 -2.14612,0.61009 -1.12619,0.63417 -1.68171,1.41763 -1.69384,2.39512 -0.0601,4.41978 10.0416,11.76889 15.51787,15.25686 -1.28107,-4.43199 -4.9875,-15.7152 -10.05694,-17.90993 -0.54293,-0.23396 -1.08064,-0.35188 -1.62097,-0.35188 z m 12.88003,20.61162 c -0.13077,0 -0.26079,-0.034 -0.3795,-0.10583 -1.8305,-1.0958 -17.90079,-10.89472 -17.81276,-17.51834 0.0189,-1.52693 0.84068,-2.75939 2.44357,-3.66089 1.68484,-0.94412 3.39383,-1.05343 5.07255,-0.32768 6.97572,3.02347 11.21642,19.98017 11.38949,20.6996 0.0688,0.28838 -0.034,0.59203 -0.27288,0.76755 -0.13078,0.0971 -0.28574,0.14551 -0.44055,0.14551"
       style="fill:#40507f;fill-opacity:1;fill-rule:nonzero;stroke:none;stroke-width:3.03558"
       id="path20865" />
    <path
       d="m 694.62205,344.17016 c -0.0877,0 -0.17915,-0.0189 -0.26683,-0.0518 -15.49062,-5.99222 -46.68121,-5.00565 -46.99692,-4.99355 -0.42164,0 -0.74691,-0.31219 -0.75893,-0.71331 -0.0189,-0.40702 0.30048,-0.74691 0.71074,-0.76154 1.28712,-0.0431 31.80378,-1.00479 47.57972,5.09371 0.37947,0.14551 0.56447,0.57392 0.42165,0.95323 -0.11528,0.29178 -0.39153,0.47066 -0.68924,0.47066"
       style="fill:#ffffff;fill-opacity:1;fill-rule:nonzero;stroke:none;stroke-width:3.03558"
       id="path20867" />
    <path
       d="m 689.51016,331.99444 c -4.10112,0 -10.73385,3.26023 -15.15976,5.81919 9.82319,-1.4358 17.89482,-3.54553 18.00409,-4.81137 0,0 -0.034,-0.13078 -0.35188,-0.36133 -0.63159,-0.44916 -1.48751,-0.64622 -2.49222,-0.64622 z m -18.53219,7.75586 c -0.30652,0 -0.58258,-0.19087 -0.69184,-0.48529 -0.11868,-0.31824 0,-0.68323 0.28837,-0.86823 1.71202,-1.12011 16.87476,-10.80669 22.28119,-6.95449 0.98952,0.70386 1.05328,1.43581 0.92886,1.92756 -0.86521,3.40899 -17.60334,5.74035 -22.71527,6.37478 -0.034,0.003 -0.0601,0.008 -0.0911,0.008"
       style="fill:#ffffff;fill-opacity:1;fill-rule:nonzero;stroke:none;stroke-width:3.03558"
       id="path20869" />
    <path
       d="m 623.21608,277.95502 c -0.33147,0 -0.53435,-0.008 -0.60408,-0.008 -0.40698,-0.008 -0.72537,-0.35187 -0.71331,-0.75896 0.008,-0.40097 0.33713,-0.71675 0.73481,-0.71675 0.0189,0 0.0775,0.003 0.38808,0.003 2.54083,0 17.65199,-0.37001 24.1177,-8.98832 0.24265,-0.33108 0.70734,-0.39152 1.03215,-0.14891 0.32769,0.24264 0.39152,0.70734 0.14891,1.02905 -6.81482,9.08247 -21.85617,9.58643 -25.10422,9.58643"
       style="fill:#ffffff;fill-opacity:1;fill-rule:nonzero;stroke:none;stroke-width:3.03558"
       id="path20871" />
    <path
       d="m 586.88926,369.52939 h -93.08307 l -26.58868,-60.1349 h 89.41611 c 2.2312,0 4.24981,1.31747 5.15444,3.3574 l 25.1012,56.7775"
       style="fill:#ffffff;fill-opacity:1;fill-rule:nonzero;stroke:none;stroke-width:3.03558"
       id="path20873" />
    <path
       d="m 416.89806,326.04494 c 18.63541,-20.16843 42.14902,-28.75 52.52462,-19.16667 10.3756,9.58636 3.68217,33.70406 -14.95325,53.87551 -18.63239,20.17145 -42.14906,28.75302 -52.52474,19.16666 -10.37555,-9.58333 -3.67906,-33.70412 14.95337,-53.8755"
       style="fill:#7b9b75;fill-opacity:1;fill-rule:nonzero;stroke:none;stroke-width:3.03558"
       id="path4880" />
    <path
       d="m 578.8055,369.52939 h -93.0861 l -23.72912,-53.66608 c -1.34476,-3.04464 0.88339,-6.46882 4.21334,-6.46882 h 86.01324 l 26.58864,60.1349"
       style="fill:#7c576c;fill-opacity:1;fill-rule:nonzero;stroke:none;stroke-width:3.03558"
       id="path20875" />
    <path
       d="m 457.35015,410.8651 c 20.0804,3.33917 37.75355,-2.3283 39.47169,-12.65832 1.71809,-10.33009 -13.17139,-21.40997 -33.25482,-24.74914 -20.08343,-3.3391 -37.75355,2.3314 -39.47165,12.66142 -1.71813,10.33009 13.17135,21.40996 33.25478,24.74604"
       style="fill:#7b9b75;fill-opacity:1;fill-rule:nonzero;stroke:none;stroke-width:3.03558"
       id="path4882" />
    <path
       d="M 618.09198,377.12439 H 486.66655 c -2.09462,0 -3.7976,-1.69989 -3.7976,-3.79745 0,-2.0976 1.70298,-3.79755 3.7976,-3.79755 h 131.42543 c 2.0976,0 3.79756,1.69995 3.79756,3.79755 0,2.09756 -1.69996,3.79745 -3.79756,3.79745"
       style="fill:#000000;fill-opacity:1;fill-rule:nonzero;stroke:none;stroke-width:3.03558"
       id="path20877" />
    <path
       d="m 393.86705,417.26414 c -0.32542,0 -0.62559,-0.20901 -0.7254,-0.53435 -14.48274,-46.84203 -64.43324,-39.78437 -64.9341,-39.70537 -0.40358,0.0688 -0.79854,-0.22186 -0.86211,-0.63761 -0.0601,-0.41306 0.21845,-0.79854 0.63416,-0.86215 0.51285,-0.0862 51.74752,-7.31569 66.60972,40.75578 0.12472,0.40101 -0.0998,0.82606 -0.50079,0.95014 l -0.22186,0.034"
       style="fill:#ffffff;fill-opacity:1;fill-rule:nonzero;stroke:none;stroke-width:3.03558"
       id="path4906" />
    <path
       d="m 586.42177,355.17107 c -0.25474,0 -0.50078,-0.13077 -0.6376,-0.36737 -0.20296,-0.35187 -0.0862,-0.80454 0.27023,-1.00788 0.0971,-0.0514 9.71687,-5.56109 21.89258,-9.03081 0.40357,-0.11867 0.79854,0.11868 0.91064,0.5068 0.11263,0.39152 -0.11528,0.80111 -0.50684,0.91068 -11.99361,3.41495 -21.46458,8.83653 -21.55869,8.89115 -0.11868,0.0688 -0.24605,0.0971 -0.37001,0.0971"
       style="fill:#000000;fill-opacity:1;fill-rule:nonzero;stroke:none;stroke-width:3.03558"
       id="path20879" />
    <path
       d="m 594.59357,362.97553 c -0.2366,0 -0.47067,-0.11527 -0.6135,-0.32768 -0.2279,-0.33978 -0.13341,-0.7951 0.20296,-1.02293 0.33374,-0.22186 8.29021,-5.47929 15.76381,-6.12276 0.40959,-0.0431 0.76154,0.26684 0.7985,0.67117 0.034,0.40702 -0.26684,0.76154 -0.67374,0.79854 -7.09111,0.60748 -14.98964,5.82826 -15.06864,5.87989 -0.12472,0.0862 -0.26683,0.12472 -0.40958,0.12472"
       style="fill:#000000;fill-opacity:1;fill-rule:nonzero;stroke:none;stroke-width:3.03558"
       id="path20881" />
    <path
       d="m 719.31654,518.45804 c -0.24869,0 -0.49482,-0.12737 -0.6316,-0.35792 -0.21241,-0.34923 -0.0971,-0.80111 0.2521,-1.01079 30.78383,-18.41999 43.05978,-46.11047 43.18121,-46.38978 0.16706,-0.37341 0.60148,-0.5464 0.97138,-0.38294 0.37342,0.16101 0.54297,0.59464 0.3829,0.96839 -0.12132,0.28233 -12.57036,28.39484 -43.77611,47.06975 -0.11868,0.0688 -0.24869,0.10318 -0.37946,0.10318"
       style="fill:#d2f2fa;fill-opacity:1;fill-rule:nonzero;stroke:none;stroke-width:3.03558"
       id="path20883" />
    <path
       d="m 647.73138,208.28234 c 0,0 12.41563,-33.51587 26.82546,-20.20482 14.40994,13.311 -13.41418,34.92434 -13.41418,34.92434 l -13.41128,-14.71952"
       style="fill:#000000;fill-opacity:1;fill-rule:nonzero;stroke:none;stroke-width:3.03558"
       id="path20885" />
    <path
       d="M 67.741084,343.18355 C 64.544664,340.63369 -2.496182,330.99873 0.07191999,424.80127 2.643035,518.60382 107.5831,572.37002 222.76821,552.13481 c 115.18209,-20.23212 6.1471,-154.75696 6.1471,-154.75696 L 67.741084,343.18355"
       style="fill:#6876aa;fill-opacity:1;fill-rule:nonzero;stroke:none;stroke-width:3.03558"
       id="path20887" />
    <path
       d="m 391.56914,410.92583 c -0.32164,0 -0.62211,-0.209 -0.7228,-0.53435 -17.51233,-56.07934 -69.66962,-84.79589 -70.19486,-85.07822 -0.37002,-0.20031 -0.50684,-0.65911 -0.30652,-1.02905 0.20069,-0.37002 0.66516,-0.50079 1.02603,-0.30652 0.53094,0.28573 53.22595,29.27826 70.92332,85.96169 0.12473,0.40097 -0.0971,0.82605 -0.49821,0.95006 l -0.22791,0.034"
       style="fill:#ffffff;fill-opacity:1;fill-rule:nonzero;stroke:none;stroke-width:3.03558"
       id="path4908" />
    <path
       d="m 75.175284,511.04817 c -0.12733,0 -0.2547,-0.034 -0.37346,-0.10319 -30.72007,-18.38347 -42.97468,-46.06193 -43.0961,-46.33821 -0.15745,-0.37002 0.009,-0.7951 0.37948,-0.95619 0.35191,-0.15496 0.7925,0.008 0.95616,0.37607 0.11875,0.27288 12.20307,27.53881 42.50727,45.6734 0.3459,0.20636 0.4552,0.6497 0.25213,0.99568 -0.13682,0.2279 -0.37948,0.35187 -0.62557,0.35187"
       style="fill:#d2f2fa;fill-opacity:1;fill-rule:nonzero;stroke:none;stroke-width:3.03558"
       id="path20889" />
    <path
       d="m 242.83649,287.65371 c 0,0 10.50009,0.77095 7.15789,15.615 -3.3422,14.84708 -12.91037,-3.61236 -12.91037,-3.61236 l 5.75248,-12.00264"
       style="fill:#f48462;fill-opacity:1;fill-rule:nonzero;stroke:none;stroke-width:3.03558"
       id="path20893" />
    <path
       d="m 346.45605,573.72993 c -2.03992,1.16568 -120.38207,-4.96316 -123.0412,-7.40685 -0.95013,-0.87425 -0.89548,-6.4961 -0.13341,-14.5101 1.37212,-14.58289 9.61372,-39.48378 14.17315,-54.8408 0,0 41.41746,2.78366 45.11176,5.13623 3.71864,2.37691 43.60921,36.04755 43.60921,36.04755 0,0 15.22345,5.79492 20.67836,14.79844 1.5967,2.64098 2.40718,5.45193 2.68951,8.07768 0.6858,6.35044 -1.66348,11.90551 -3.08715,12.69785"
       style="fill:#40507f;fill-opacity:1;fill-rule:nonzero;stroke:none;stroke-width:3.03558"
       id="path20895" />
    <path
       d="m 346.45605,573.72993 c -2.03992,1.16568 -120.38207,-4.96316 -123.0412,-7.40685 -0.95013,-0.87425 -0.89548,-6.4961 -0.13341,-14.5101 l 126.26199,9.2191 c 0.6858,6.35044 -1.66348,11.90551 -3.08715,12.69785"
       style="fill:#ffffff;fill-opacity:1;fill-rule:nonzero;stroke:none;stroke-width:3.03558"
       id="path20897" />
    <path
       d="m 312.5061,527.61338 c -0.0601,-0.003 -34.62383,-2.76843 -34.62383,-2.76843 -0.31597,-0.0264 -0.57993,-0.24869 -0.65567,-0.55241 -0.0775,-0.30652 0.0514,-0.62816 0.31218,-0.80111 l 16.97194,-11.08902 c 0.33978,-0.22451 0.79509,-0.13077 1.02001,0.21241 0.22451,0.33978 0.12737,0.79854 -0.2124,1.01994 l -15.1688,9.91419 32.41701,2.59238 c 0.40358,0.034 0.70734,0.38891 0.67378,0.79506 -0.034,0.38551 -0.35188,0.67722 -0.73486,0.67722"
       style="fill:#ffffff;fill-opacity:1;fill-rule:nonzero;stroke:none;stroke-width:3.03558"
       id="path20899" />
    <path
       d="m 392.19744,425.13236 -0.66512,-0.39496 c -27.11682,-49.57104 -9.39205,-164.73188 -9.20991,-165.88846 0.0601,-0.41559 0.46465,-0.70129 0.86816,-0.63159 0.41302,0.0688 0.69785,0.45263 0.63159,0.86816 -0.18255,1.15355 -17.82795,115.80438 9.03991,164.92316 0.2007,0.36737 0.0688,0.8321 -0.30009,1.03207 l -0.36397,0.0911"
       style="fill:#ffffff;fill-opacity:1;fill-rule:nonzero;stroke:none;stroke-width:3.03558"
       id="path4910" />
    <path
       d="m 277.6516,395.65662 c -0.13682,0 -0.27288,-0.0431 -0.39496,-0.11528 -0.34582,-0.21845 -0.44659,-0.67377 -0.2279,-1.01692 0.0688,-0.11527 7.46139,-11.71733 17.37868,-20.17746 0.30388,-0.26683 0.77443,-0.23395 1.0382,0.0775 0.26419,0.31257 0.22791,0.77704 -0.0862,1.0413 -9.74415,8.31439 -17.02046,19.73121 -17.09023,19.8466 -0.13947,0.22186 -0.37947,0.34318 -0.62215,0.34318"
       style="fill:#ffffff;fill-opacity:1;fill-rule:nonzero;stroke:none;stroke-width:3.03558"
       id="path20903" />
    <path
       d="m 384.66919,415.01475 c -0.40097,0 -0.73742,-0.31823 -0.75549,-0.72279 -0.0189,-0.42165 -1.25363,-42.49206 59.4367,-84.85966 0.34318,-0.2366 0.81317,-0.1576 1.05642,0.1886 0.24,0.34318 0.15496,0.81661 -0.1886,1.05642 -59.94361,41.84545 -58.80828,83.13241 -58.79014,83.54517 0.0189,0.41563 -0.30387,0.77099 -0.72279,0.78909 l -0.034,0.003"
       style="fill:#ffffff;fill-opacity:1;fill-rule:nonzero;stroke:none;stroke-width:3.03558"
       id="path4912" />
    <path
       d="m 192.2607,321.94665 56.41017,17.02053 c 0,0 0.56451,38.13596 -35.25521,48.55106 -35.81987,10.41505 -39.97863,-33.01501 -39.97863,-33.01501 l 18.82367,-32.55658"
       style="fill:#f7b369;fill-opacity:1;fill-rule:nonzero;stroke:none;stroke-width:3.03558"
       id="path20905" />
    <path
       d="m 222.72879,329.15005 c 0,0 -1.75158,21.42217 15.32058,19.38523 17.06911,-2.0338 16.01878,-26.54611 16.01878,-26.54611 l -31.33936,7.16088"
       style="fill:#f48462;fill-opacity:1;fill-rule:nonzero;stroke:none;stroke-width:3.03558"
       id="path20907" />
    <path
       d="m 89.530504,438.22154 c 0,0 -32.87834,-118.69421 -5.19386,-151.35707 27.681476,-32.66589 91.947806,-5.44891 91.947806,-5.44891 l 30.75345,108.9258 -117.507396,47.88018"
       style="fill:#f7b369;fill-opacity:1;fill-rule:nonzero;stroke:none;stroke-width:3.03558"
       id="path20909" />
    <path
       d="m 201.6467,387.51824 c 0,0 65.69602,-46.46257 122.40068,-32.19538 56.70467,14.26416 -26.10602,152.15857 -26.10602,152.15857 l -82.42511,0.18481 8.03213,-39.50812 -98.95082,-0.19086 43.66386,-61.8257 33.38528,-18.62328"
       style="fill:#8e657d;fill-opacity:1;fill-rule:nonzero;stroke:none;stroke-width:3.03558"
       id="path20901" />
    <path
       d="m 135.3556,353.18274 c 0,0 16.61382,-26.32448 24.68236,-29.32369 8.06853,-2.99909 27.56617,0.95316 27.57218,3.28755 0.003,2.33741 -18.05862,5.17572 -18.05862,5.17572 0,0 10.154,17.74292 10.31792,21.72865 0.16101,3.98877 -8.99444,15.59982 -11.007,16.75937 -2.01268,1.15971 -7.05774,-5.31522 -7.05774,-5.31522 0,0 -5.57945,6.74812 -13.43853,8.82746 -7.86213,2.07935 -16.8839,-9.84139 -16.8839,-9.84139 l 3.87333,-11.29845"
       style="fill:#f48462;fill-opacity:1;fill-rule:nonzero;stroke:none;stroke-width:3.03558"
       id="path20911" />
    <path
       d="m 160.10777,339.3982 c -0.41307,0 -0.77704,-0.29783 -0.84673,-0.71679 -0.0862,-0.47066 0.2366,-0.91362 0.70386,-0.99254 l 10.83405,-1.82139 c 0.46723,-0.0775 0.91064,0.2366 0.99266,0.7039 0.0775,0.47066 -0.24,0.91374 -0.7073,0.98963 l -10.83398,1.82438 c -0.0514,0.008 -0.0937,0.008 -0.14287,0.008"
       style="fill:#000000;fill-opacity:1;fill-rule:nonzero;stroke:none;stroke-width:3.03558"
       id="path20913" />
    <path
       d="m 108.24792,253.46089 0.51629,21.17321 c 0,0 3.9705,5.99524 16.38002,6.69952 9.24635,0.52233 11.67481,-2.68951 11.67481,-2.68951 l -0.78906,-9.64407 -1.52383,-10.42723 -22.48762,-4.37423 -3.77019,-0.73743"
       style="fill:#f48462;fill-opacity:1;fill-rule:nonzero;stroke:none;stroke-width:3.03558"
       id="path20915" />
    <path
       d="m 112.37324,256.00171 c 0.0688,0.55242 0.30387,1.20511 0.66168,1.94582 4.97231,10.03861 17.8523,11.95101 23.14024,12.29711 l -1.53298,-9.99924 -22.26905,-4.24369"
       style="fill:#000000;fill-opacity:1;fill-rule:nonzero;stroke:none;stroke-width:3.03558"
       id="path20917" />
    <path
       d="m 137.31967,213.82528 c 0,0 11.27418,25.18322 7.41895,39.42316 -3.85209,14.24292 -16.8141,12.12106 -24.57906,9.44368 -7.7681,-2.67738 -11.40473,-7.3917 -11.40473,-7.3917 0,0 -7.21254,2.51656 -12.108925,-4.16481 -4.899401,-6.68428 -1.99132,-14.43413 2.12492,-16.24037 4.113195,-1.80914 9.052095,1.12933 9.052095,1.12933 l -3.91586,-7.31282 c 0,0 15.86086,-37.48634 33.41261,-14.88647"
       style="fill:#f48462;fill-opacity:1;fill-rule:nonzero;stroke:none;stroke-width:3.03558"
       id="path20919" />
    <path
       d="m 136.43938,245.89322 c -0.0688,0 -0.14551,-0.008 -0.21581,-0.034 -0.38895,-0.11868 -0.60752,-0.53091 -0.48877,-0.91986 1.43278,-4.68083 -2.07632,-9.73814 -2.11272,-9.78966 -0.23395,-0.33108 -0.15155,-0.79253 0.17878,-1.02603 0.32541,-0.23055 0.78905,-0.1576 1.02602,0.17651 0.16366,0.2279 3.9645,5.6917 2.3192,11.07076 -0.0998,0.31824 -0.39152,0.5223 -0.70734,0.5223"
       style="fill:#000000;fill-opacity:1;fill-rule:nonzero;stroke:none;stroke-width:3.03558"
       id="path20921" />
    <path
       d="m 106.77262,247.81779 c -0.19691,0 -0.39152,-0.0775 -0.53435,-0.23055 l -6.884715,-7.26116 c -0.27968,-0.29442 -0.27023,-0.76153 0.0265,-1.0442 0.29442,-0.27969 0.767545,-0.26419 1.041185,0.034 l 6.88169,7.26119 c 0.28233,0.29443 0.27024,0.7615 -0.0265,1.04417 -0.14286,0.13342 -0.32768,0.2007 -0.50679,0.2007"
       style="fill:#000000;fill-opacity:1;fill-rule:nonzero;stroke:none;stroke-width:3.03558"
       id="path20923" />
    <path
       d="m 99.496305,245.88411 c -0.35792,0 -0.67373,-0.26079 -0.7288,-0.62559 -0.0601,-0.40354 0.21505,-0.78044 0.6161,-0.84068 l 4.750715,-0.72881 c 0.42509,-0.0601 0.777,0.21506 0.84068,0.6135 0.0601,0.40357 -0.21505,0.78047 -0.6161,0.84071 l -4.750715,0.73138 c -0.034,0.008 -0.0775,0.008 -0.11263,0.008"
       style="fill:#000000;fill-opacity:1;fill-rule:nonzero;stroke:none;stroke-width:3.03558"
       id="path20925" />
    <path
       d="m 107.82292,236.02457 c 0,0 2.61361,1.70899 4.50179,-1.26286 1.89116,-2.97184 -2.27667,-11.73256 -2.27667,-11.73256 0,0 7.83175,1.76073 12.66448,-0.83811 4.82951,-2.60148 7.19127,-9.73209 7.19127,-9.73209 0,0 3.57588,7.41294 14.25505,4.12539 10.68227,-3.29057 12.68572,-17.84016 1.26886,-20.78162 -11.41375,-2.94448 -17.63675,2.11582 -17.63675,2.11582 0,0 -1.46917,-10.55172 -15.56341,-5.30623 -12.837515,4.778 -14.971475,20.88177 -14.971475,20.88177 0,0 -7.719461,0.37607 -9.185631,8.77286 -1.46316,8.3964 8.369031,14.44936 8.369031,14.44936 0,0 5.567325,-3.28456 11.383455,-0.69185"
       style="fill:#000000;fill-opacity:1;fill-rule:nonzero;stroke:none;stroke-width:3.03558"
       id="path20927" />
    <path
       d="m 203.55302,386.65609 c -0.37606,0 -0.69524,-0.28573 -0.73141,-0.66429 -1.5269,-15.49058 -8.98829,-36.96129 -9.06422,-37.17676 -0.13342,-0.3829 0.0688,-0.80454 0.45264,-0.938 0.39152,-0.13342 0.80712,0.0688 0.94103,0.4526 0.0688,0.21505 7.59201,21.85017 9.13708,37.51676 0.0431,0.40702 -0.25474,0.76842 -0.66172,0.80712 -0.0265,0 -0.0514,0.003 -0.0688,0.003"
       style="fill:#40507f;fill-opacity:1;fill-rule:nonzero;stroke:none;stroke-width:3.03558"
       id="path20931" />
    <path
       d="m 120.55116,227.46416 c -0.11263,0 -0.22791,-0.0264 -0.33714,-0.0862 -0.36397,-0.18255 -0.50683,-0.62559 -0.31823,-0.98963 1.68476,-3.28755 5.8617,-2.43757 6.03473,-2.39807 0.39753,0.0862 0.64966,0.47323 0.56791,0.87114 -0.0877,0.39753 -0.48529,0.66168 -0.87122,0.57048 -0.12737,-0.0265 -3.25107,-0.64622 -4.41978,1.63011 -0.13077,0.2521 -0.38895,0.39753 -0.65567,0.39753"
       style="fill:#000000;fill-opacity:1;fill-rule:nonzero;stroke:none;stroke-width:3.03558"
       id="path20935" />
    <path
       d="m 153.126,353.85667 64.20552,12.40951 c 3.11754,0.60061 6.13186,-1.4389 6.73594,-4.55641 l 17.70048,-91.5987 c 0.60752,-3.12061 -1.43278,-6.13493 -4.55339,-6.73599 L 173.009,250.96564 c -3.11751,-0.60404 -6.13486,1.43581 -6.73902,4.55335 l -17.70039,91.59867 c -0.60065,3.11762 1.43879,6.13496 4.55641,6.73901"
       style="fill:#000000;fill-opacity:1;fill-rule:nonzero;stroke:none;stroke-width:3.03558"
       id="path20937" />
    <path
       d="m 157.58826,354.71878 64.20555,12.40641 c 3.11751,0.60405 6.13493,-1.4358 6.73902,-4.55331 l 17.70051,-91.59866 c 0.60143,-3.11762 -1.43891,-6.13497 -4.55641,-6.73603 l -64.20254,-12.4094 c -3.1206,-0.60408 -6.13496,1.43577 -6.73901,4.55331 l -17.70051,91.59867 c -0.60408,3.11762 1.43588,6.13496 4.55339,6.73901"
       style="fill:#40507f;fill-opacity:1;fill-rule:nonzero;stroke:none;stroke-width:3.03558"
       id="path20939" />
    <path
       d="m 218.3363,275.08939 c -1.03513,0 -2.0976,-0.10319 -3.16002,-0.30993 l -16.07037,-3.12963 c -6.35954,-1.23859 -10.82184,-5.90431 -9.9476,-10.39994 l 1.30836,-6.71169 c 0.0775,-0.39753 0.42508,-0.66512 0.86513,-0.58253 0.39754,0.0775 0.65828,0.46469 0.57997,0.86521 l -1.30533,6.71168 c -0.71679,3.69729 3.21774,7.58891 8.77893,8.67258 l 16.07033,3.12665 c 2.75025,0.5404 5.461,0.30652 7.63449,-0.64021 2.08849,-0.90459 3.42112,-2.36164 3.75806,-4.10102 l 1.30829,-6.71474 c 0.0775,-0.395 0.41903,-0.65828 0.86521,-0.58258 0.39753,0.0775 0.65828,0.46726 0.58253,0.86513 l -1.30836,6.71165 c -0.43453,2.23113 -2.07333,4.06768 -4.62017,5.17573 -1.59061,0.6918 -3.4241,1.04417 -5.33952,1.04417"
       style="fill:#ffffff;fill-opacity:1;fill-rule:nonzero;stroke:none;stroke-width:3.03558"
       id="path20941" />
    <path
       d="m 134.20213,224.52569 c -0.14287,0 -0.28838,-0.0431 -0.4156,-0.12737 -0.33373,-0.23055 -0.42508,-0.68923 -0.19086,-1.02606 0.68579,-1.01087 1.57243,-1.59065 2.63187,-1.72422 2.17648,-0.27364 4.19516,1.49956 4.28016,1.57247 0.30652,0.27024 0.33374,0.73485 0.0688,1.04115 -0.26683,0.30047 -0.73141,0.33751 -1.03816,0.0688 -0.0189,-0.0189 -1.63011,-1.40243 -3.12968,-1.21723 -0.62815,0.0775 -1.15052,0.4371 -1.59677,1.09281 -0.14287,0.20636 -0.37342,0.32164 -0.60665,0.32164"
       style="fill:#000000;fill-opacity:1;fill-rule:nonzero;stroke:none;stroke-width:3.03558"
       id="path20943" />
    <path
       d="m 248.97746,315.55981 c 0,0 14.98666,-1.71821 10.37862,-8.60893 -4.60796,-6.89684 -31.72176,-10.1935 -34.6117,-2.10059 -2.88983,8.0928 24.23308,10.70952 24.23308,10.70952"
       style="fill:#f48462;fill-opacity:1;fill-rule:nonzero;stroke:none;stroke-width:3.03558"
       id="path20945" />
    <path
       d="m 247.35642,327.93584 c 0,0 14.98674,-1.7181 10.37567,-8.61192 -4.60803,-6.89382 -31.71885,-10.1904 -34.60868,-2.0976 -2.88994,8.09287 24.23301,10.70952 24.23301,10.70952"
       style="fill:#f48462;fill-opacity:1;fill-rule:nonzero;stroke:none;stroke-width:3.03558"
       id="path20947" />
    <path
       d="m 238.68985,338.29027 c 3.21774,1.06545 6.66611,1.40239 9.98102,0.67718 2.95665,-0.64623 5.54596,-2.13408 4.05554,-5.48531 -2.98095,-6.70564 -26.12424,-13.66923 -29.86405,-7.04859 -2.7897,4.9358 9.42853,9.73202 15.82749,11.85695"
       style="fill:#f48462;fill-opacity:1;fill-rule:nonzero;stroke:none;stroke-width:3.03558"
       id="path20949" />
    <path
       d="m 250.7411,313.78699 c -0.0518,-0.003 -17.46066,-1.30228 -17.46066,-1.30228 -0.40101,-0.034 -0.70734,-0.38547 -0.67721,-0.79249 0.034,-0.40354 0.31937,-0.7073 0.79249,-0.67978 l 17.40294,1.30227 c 0.40358,0.034 0.70734,0.38547 0.67979,0.78905 -0.034,0.38805 -0.35527,0.68323 -0.73742,0.68323"
       style="fill:#000000;fill-opacity:1;fill-rule:nonzero;stroke:none;stroke-width:3.03558"
       id="path20951" />
    <path
       d="m 247.92717,327.48959 c -0.0601,-0.003 -17.46066,-1.30526 -17.46066,-1.30526 -0.40358,-0.034 -0.71078,-0.38548 -0.67979,-0.78905 0.034,-0.40702 0.33373,-0.70473 0.79249,-0.67979 l 17.40303,1.30235 c 0.40357,0.034 0.70991,0.38203 0.67978,0.78905 -0.034,0.38551 -0.35187,0.68323 -0.73485,0.68323"
       style="fill:#000000;fill-opacity:1;fill-rule:nonzero;stroke:none;stroke-width:3.03558"
       id="path20953" />
    <path
       d="m 115.50598,440.60148 c -0.40354,0 -0.77099,-0.27024 -0.88025,-0.67722 l -2.92634,-11.02522 c -0.12737,-0.48529 0.1576,-0.98351 0.64622,-1.11406 0.50423,-0.12472 0.98355,0.16101 1.11406,0.64623 l 2.92633,11.02522 c 0.12737,0.48533 -0.16101,0.98657 -0.64709,1.11405 -0.0862,0.0189 -0.15761,0.034 -0.23395,0.034"
       style="fill:#534579;fill-opacity:1;fill-rule:nonzero;stroke:none;stroke-width:3.03558"
       id="path20955" />
    <path
       d="m 201.9533,412.92305 c -0.4913,0 -0.89859,-0.39152 -0.91072,-0.88641 l -0.30652,-11.74167 c -0.0189,-0.50079 0.38291,-0.91975 0.88638,-0.93188 0.43109,-0.0518 0.91986,0.38203 0.93199,0.88637 l 0.30992,11.74167 c 0.0189,0.50079 -0.38203,0.91975 -0.88637,0.93192 -0.008,0 -0.0189,0 -0.0265,0"
       style="fill:#534579;fill-opacity:1;fill-rule:nonzero;stroke:none;stroke-width:3.03558"
       id="path20957" />
    <path
       d="m 192.2607,420.22661 c -0.50079,0 -0.91075,-0.40358 -0.91075,-0.90765 l -0.0265,-12.4489 c -0.003,-0.50079 0.40698,-0.91064 0.90762,-0.91064 0.50426,0 0.91373,0.40702 0.91373,0.91064 l 0.0265,12.44591 c 0.003,0.50423 -0.40702,0.91064 -0.90762,0.91064 -0.003,0 -0.003,0 -0.003,0"
       style="fill:#534579;fill-opacity:1;fill-rule:nonzero;stroke:none;stroke-width:3.03558"
       id="path20959" />
    <path
       d="m 130.42895,253.02987 c -3.04475,0 -5.24549,-2.24024 -6.07121,-3.62751 -0.209,-0.34923 -0.0937,-0.79854 0.25815,-1.00782 0.33713,-0.209 0.7985,-0.0971 1.00781,0.2521 0.0937,0.15496 2.304,3.7398 6.09543,2.73804 0.38808,-0.0998 0.7951,0.13077 0.89851,0.5249 0.10318,0.39496 -0.13077,0.7985 -0.52487,0.90161 -0.57652,0.15156 -1.13533,0.21845 -1.66348,0.21845"
       style="fill:#000000;fill-opacity:1;fill-rule:nonzero;stroke:none;stroke-width:3.03558"
       id="path20961" />
    <path
       d="m 453.66069,528.48762 c -0.95017,2.14919 -99.93139,67.3019 -103.51945,66.9072 -1.28409,-0.13681 -4.57156,-4.70211 -8.70606,-11.60802 -7.52826,-12.56122 -15.63629,-37.50765 -21.06085,-52.5854 0,0 35.01841,-22.28719 39.38664,-22.57863 4.41075,-0.28838 56.49222,3.21464 56.49222,3.21464 0,0 15.69699,-4.34997 25.42598,-0.32429 2.84742,1.18084 5.1696,2.96572 6.9515,4.91456 4.31357,4.71432 5.71298,10.57897 5.03002,12.0604"
       style="fill:#40507f;fill-opacity:1;fill-rule:nonzero;stroke:none;stroke-width:3.03558"
       id="path20963" />
    <path
       d="m 453.66069,528.48762 c -0.95017,2.14919 -99.93139,67.3019 -103.51945,66.9072 -1.28409,-0.13681 -4.57156,-4.70211 -8.70606,-11.60802 l 107.19549,-67.35957 c 4.31357,4.71428 5.71298,10.57897 5.03002,12.06039"
       style="fill:#ffffff;fill-opacity:1;fill-rule:nonzero;stroke:none;stroke-width:3.03558"
       id="path20965" />
    <path
       d="m 372.3344,530.01455 c -0.16705,0 -0.33109,-0.0518 -0.46726,-0.16705 -0.24265,-0.20069 -0.33373,-0.53091 -0.22186,-0.82606 l 7.10324,-18.99065 c 0.14552,-0.3829 0.56448,-0.57392 0.95014,-0.43453 0.38294,0.14551 0.57396,0.56791 0.43113,0.95014 l -6.34745,16.97193 27.6542,-17.11147 c 0.34318,-0.20901 0.79854,-0.10583 1.01389,0.24 0.21506,0.34582 0.10923,0.8011 -0.2366,1.01382 l -29.4907,18.24389 c -0.11868,0.0775 -0.25474,0.10923 -0.38892,0.10923"
       style="fill:#ffffff;fill-opacity:1;fill-rule:nonzero;stroke:none;stroke-width:3.03558"
       id="path20967" />
    <path
       d="m 390.60985,415.01475 -0.27968,-0.0514 c -0.38891,-0.15156 -0.57997,-0.59459 -0.42508,-0.98354 5.94069,-14.97449 14.94421,-24.62159 26.76472,-28.67411 21.02748,-7.20952 43.94306,6.06811 44.17376,6.20478 0.36132,0.21241 0.48272,0.67717 0.26683,1.04118 -0.20901,0.35792 -0.67377,0.47668 -1.03816,0.26684 -0.2211,-0.13078 -22.56041,-13.06519 -42.91706,-6.0742 -11.38035,3.90373 -20.07118,13.25639 -25.83882,27.79374 -0.11868,0.29783 -0.40358,0.47928 -0.7073,0.47928"
       style="fill:#ffffff;fill-opacity:1;fill-rule:nonzero;stroke:none;stroke-width:3.03558"
       id="path4914" />
    <path
       d="m 351.74837,496.54136 h 56.61052 c 3.06902,0 5.63709,-2.18563 5.94066,-5.05119 l 8.66049,-82.47372 c 0.34583,-3.29665 -2.4133,-6.1531 -5.94059,-6.1531 h -73.93164 c -3.52728,0 -6.28667,2.85645 -5.94058,6.1531 l 8.66048,82.47372 c 0.3001,2.86556 2.86866,5.05119 5.94066,5.05119"
       style="fill:#aa8888;fill-opacity:1;fill-rule:nonzero;stroke:none;stroke-width:3.03558"
       id="path4916" />
    <path
       d="m 364.27928,496.54136 h 56.61052 c 3.06902,0 5.63709,-2.18563 5.94059,-5.05119 l 8.65754,-82.47372 c 0.34922,-3.29665 -2.41028,-6.1531 -5.93764,-6.1531 h -73.93157 c -3.53038,0 -6.28667,2.85645 -5.94066,6.1531 l 8.66056,82.47372 c 0.30047,2.86556 2.86859,5.05119 5.94066,5.05119"
       style="fill:#b79a9a;fill-opacity:1;fill-rule:nonzero;stroke:none;stroke-width:3.03558"
       id="path4918" />
    <path
       d="m 89.530504,438.22154 c 0,0 141.658456,-72.04338 172.888506,-61.77407 40.99854,13.47802 115.29143,124.65615 115.29143,124.65615 l -65.11933,63.02782 c 0,0 -67.43845,-91.01888 -78.23604,-89.81378 -12.48536,1.39026 -82.73476,30.93562 -107.72972,22.90348 -24.99806,-8.03516 -37.094846,-58.9996 -37.094846,-58.9996"
       style="fill:#a37b90;fill-opacity:1;fill-rule:nonzero;stroke:none;stroke-width:3.03558"
       id="path20969" />
    <path
       d="m 245.22855,453.80926 c -1.48743,0 -2.74114,0.52229 -3.81884,1.58767 -3.84608,3.80046 -4.14353,13.21685 -4.08892,17.12371 5.20302,-5.61894 11.91466,-14.36443 10.73692,-17.47593 -0.10318,-0.26419 -0.40701,-1.06843 -2.31314,-1.21421 -0.17651,-0.0189 -0.34583,-0.0189 -0.51629,-0.0189 z m -8.58769,21.23698 c -0.0862,0 -0.17311,-0.008 -0.25474,-0.0431 -0.27289,-0.0998 -0.46122,-0.35187 -0.47929,-0.64622 -0.0431,-0.5946 -0.89552,-14.70441 4.46529,-20.00754 1.50569,-1.48743 3.3786,-2.15221 5.4853,-1.99132 1.88516,0.14552 3.09026,0.87425 3.57899,2.16439 2.02171,5.33348 -10.79754,18.78417 -12.26381,20.30188 -0.14287,0.14551 -0.33714,0.22186 -0.53091,0.22186"
       style="fill:#ffffff;fill-opacity:1;fill-rule:nonzero;stroke:none;stroke-width:3.03558"
       id="path20971" />
    <path
       d="m 98.534045,276.10328 c 0,0 -97.81857301,42.31911 -80.8284,115.3612 16.191739,69.59679 127.837445,8.80932 127.837445,8.80932 l -5.52177,-54.62834 -52.096646,5.56422 10.609371,-75.1064"
       style="fill:#f7b369;fill-opacity:1;fill-rule:nonzero;stroke:none;stroke-width:3.03558"
       id="path20973" />
    <path
       d="m 70.427584,349.40956 c -0.34333,0 -0.64966,-0.24 -0.71936,-0.58858 -0.086,-0.39753 0.17038,-0.78648 0.5705,-0.87115 28.783391,-5.94368 61.349126,-3.97663 61.676966,-3.95236 0.40358,0.0265 0.71335,0.37606 0.6858,0.78047 -0.0265,0.40702 -0.27893,0.74086 -0.78305,0.68924 -0.31823,-0.0189 -32.696165,-1.97621 -61.282246,3.9281 -0.0516,0.008 -0.0998,0.0189 -0.14888,0.0189"
       style="fill:#40507f;fill-opacity:1;fill-rule:nonzero;stroke:none;stroke-width:3.03558"
       id="path20975" />
    <path
       d="m 80.423784,337.20347 c -0.31234,0 -0.61611,0.0189 -0.90763,0.0601 -1.13533,0.16101 -1.97618,0.62816 -2.58024,1.43588 -0.62815,0.83467 -0.41303,1.25673 -0.33388,1.41456 1.22034,2.41327 11.15578,3.39379 18.459381,3.53035 -3.245071,-2.22501 -10.014371,-6.43843 -14.637561,-6.43843 z m 16.501421,7.92899 c -3.457581,0 -19.549151,-0.2245 -21.637631,-4.35609 -0.32183,-0.63417 -0.50079,-1.66651 0.46725,-2.96274 0.8381,-1.12316 2.03684,-1.80011 3.55765,-2.01256 6.74814,-0.92288 18.040461,7.64054 18.517101,8.00788 0.24869,0.19086 0.35187,0.51885 0.25209,0.82004 -0.10053,0.29783 -0.37946,0.50079 -0.6918,0.50079 -0.10923,0.003 -0.26683,0.003 -0.46466,0.003"
       style="fill:#40507f;fill-opacity:1;fill-rule:nonzero;stroke:none;stroke-width:3.03558"
       id="path20977" />
    <path
       d="m 94.080885,420.05366 c -0.297821,0 -0.573921,-0.17915 -0.689231,-0.47327 -0.14287,-0.37947 0.0431,-0.80455 0.42508,-0.95014 0.343181,-0.13077 34.490276,-13.27763 51.322626,-24.32716 0.34318,-0.2211 0.79506,-0.12737 1.01991,0.21241 0.22186,0.33978 0.12737,0.79506 -0.21241,1.01991 -16.9629,11.13755 -51.258865,24.33929 -51.601855,24.46983 -0.0862,0.034 -0.17651,0.0514 -0.26419,0.0514"
       style="fill:#40507f;fill-opacity:1;fill-rule:nonzero;stroke:none;stroke-width:3.03558"
       id="path20979" />
    <path
       d="m 134.35391,281.65235 c 4.05253,1.33262 9.15837,2.54687 10.85522,1.68174 0.0877,-0.0431 0.11868,-0.0862 0.13078,-0.17915 0.2124,-1.56632 -3.95237,-6.30792 -7.60717,-9.86257 l 0.26683,2.88382 c 0.22451,2.45881 -1.32351,4.74161 -3.64569,5.47619 z m -24.78859,-6.20776 c 0.40097,6.74203 1.89728,16.11284 4.71431,17.07208 2.80793,0.98654 10.33917,-5.25758 15.28109,-10.18737 -1.48744,0.0518 -2.987,-0.0431 -4.52304,-0.26759 -8.00477,-1.17173 -13.1805,-4.70211 -15.47236,-6.61754 z m 5.29409,18.6294 c -0.37606,0 -0.73141,-0.0514 -1.05331,-0.16101 -5.04514,-1.71809 -5.73725,-18.31366 -5.79799,-20.2018 -0.008,-0.30614 0.1731,-0.58858 0.45517,-0.7039 0.27628,-0.11527 0.61009,-0.0431 0.82265,0.18255 0.0514,0.0601 5.56116,5.89214 15.96715,7.41597 2.03682,0.29782 4.02825,0.33713 5.94667,0.13077 0.12132,-0.0518 0.25474,-0.0688 0.40101,-0.0518 0.68579,-0.0877 1.36297,-0.20901 2.02771,-0.36397 1.82748,-0.42165 3.07506,-2.14915 2.89901,-4.01 l -0.44315,-4.83266 c -0.0265,-0.30387 0.13682,-0.59199 0.40963,-0.72881 0.27288,-0.13341 0.59803,-0.0862 0.82261,0.11868 1.66046,1.52992 9.91722,9.31623 9.48318,12.48537 -0.0775,0.56791 -0.40702,1.02905 -0.92289,1.29313 -3.07801,1.57848 -11.88124,-1.5117 -14.19738,-2.37079 -2.20388,2.27365 -11.71733,11.79632 -16.82014,11.79632"
       style="fill:#40507f;fill-opacity:1;fill-rule:nonzero;stroke:none;stroke-width:3.03558"
       id="path20981" />
    <path
       d="m 629.75451,232.25762 c 0.17461,-0.29593 0.52316,-0.36661 0.7753,-0.15836 0.2502,0.2075 0.30992,0.61697 0.13417,0.91359 -0.59634,0.9984 -2.13222,1.6187 -3.83819,1.66054 -1.48864,0.034 -3.14094,-0.35112 -4.40874,-1.2988 -0.25814,-0.192 -0.33638,-0.59804 -0.17197,-0.90437 0.16365,-0.30538 0.50597,-0.39753 0.76585,-0.20409 1.07489,0.80111 2.49932,1.13015 3.79487,1.09848 1.3717,-0.034 2.55632,-0.44742 2.95041,-1.10664"
       style="fill:#000000;fill-opacity:1;fill-rule:nonzero;stroke:none;stroke-width:0.0940717"
       id="path6761" />
    <path
       d="m 631.04223,233.14668 c 0.3001,0.0775 0.49217,0.42422 0.42849,0.77787 -0.0688,0.35452 -0.35868,0.58167 -0.65911,0.50596 -0.22791,-0.0601 -0.45778,-0.13493 -0.6841,-0.23244 -0.22564,-0.0964 -0.44829,-0.21165 -0.66168,-0.34242 -0.27213,-0.16592 -0.37946,-0.56104 -0.24,-0.88294 0.14022,-0.32164 0.47584,-0.44833 0.74948,-0.28233 0.17461,0.10658 0.35112,0.19805 0.53178,0.27553 0.17197,0.0775 0.35112,0.13493 0.53692,0.18066"
       style="fill:#000000;fill-opacity:1;fill-rule:nonzero;stroke:none;stroke-width:0.0940717"
       id="path6763" />
    <path
       d="m 630.04716,234.10113 c 0.26948,0.1731 0.36926,0.57048 0.22186,0.888 -0.14703,0.31748 -0.48359,0.4354 -0.75379,0.26154 -0.20901,-0.13606 -0.41133,-0.28724 -0.59974,-0.4526 -0.19464,-0.17197 -0.37757,-0.35641 -0.55071,-0.55585 -0.2211,-0.2521 -0.22564,-0.66777 -0.008,-0.92788 0.21505,-0.25814 0.56617,-0.26494 0.78561,-0.008 0.13871,0.16101 0.28725,0.30879 0.44054,0.44228 0.15232,0.13267 0.30804,0.2521 0.46897,0.35641"
       style="fill:#000000;fill-opacity:1;fill-rule:nonzero;stroke:none;stroke-width:0.0940717"
       id="path6765" />
    <path
       d="m 609.17423,233.03938 c -0.17991,-0.29253 -0.12548,-0.70216 0.12132,-0.91461 0.24869,-0.2124 0.5946,-0.14815 0.77529,0.14476 0.42165,0.68493 1.64017,1.16905 3.04921,1.24974 1.2773,0.0688 2.67765,-0.2075 3.7671,-0.99428 0.2623,-0.18936 0.60404,-0.0922 0.76323,0.2177 0.16101,0.30879 0.0775,0.71335 -0.18595,0.90138 -1.29192,0.93396 -2.92358,1.26814 -4.39835,1.18435 -1.72509,-0.0983 -3.2787,-0.79079 -3.89352,-1.78836"
       style="fill:#000000;fill-opacity:1;fill-rule:nonzero;stroke:none;stroke-width:0.0940717"
       id="path6767" />
    <path
       d="m 609.11961,234.36479 c -0.30123,0.0775 -0.59546,-0.15156 -0.65915,-0.50601 -0.0688,-0.35452 0.12813,-0.70299 0.4294,-0.77786 0.1833,-0.0431 0.36321,-0.10772 0.53608,-0.18066 0.17991,-0.0775 0.35717,-0.1697 0.53261,-0.27553 0.27213,-0.16516 0.60666,-0.0431 0.74691,0.28309 0.14098,0.32163 0.034,0.71765 -0.24,0.88293 -0.2124,0.13077 -0.4354,0.24605 -0.66171,0.34243 -0.22715,0.0971 -0.45434,0.17461 -0.68493,0.23244"
       style="fill:#000000;fill-opacity:1;fill-rule:nonzero;stroke:none;stroke-width:0.0940717"
       id="path6769" />
    <path
       d="m 610.4073,235.19349 c -0.27024,0.1731 -0.60662,0.0518 -0.75292,-0.26155 -0.14627,-0.31748 -0.0518,-0.71678 0.22186,-0.88906 0.161,-0.10393 0.31672,-0.22374 0.46983,-0.35603 0.15156,-0.13417 0.29934,-0.28233 0.43884,-0.44228 0.21959,-0.25209 0.57135,-0.24604 0.78561,0.0189 0.21355,0.26003 0.20826,0.67461 -0.008,0.92682 -0.17385,0.19956 -0.35716,0.38551 -0.55328,0.55585 -0.1886,0.16517 -0.38895,0.31748 -0.59977,0.45351"
       style="fill:#000000;fill-opacity:1;fill-rule:nonzero;stroke:none;stroke-width:0.0940717"
       id="path6771" />
    <path
       d="m 623.54932,252.46729 c -0.32428,0 -0.62211,-0.20901 -0.7228,-0.53692 -0.12132,-0.40101 0.10318,-0.82265 0.50083,-0.94715 0.12472,-0.0431 3.02948,-0.97742 3.62751,-4.33776 0.0688,-0.40959 0.46723,-0.67718 0.88026,-0.61354 0.41302,0.0688 0.68923,0.46727 0.61353,0.88037 -0.76154,4.29834 -4.52002,5.47317 -4.68091,5.5217 l -0.21846,0.034"
       style="fill:#000000;fill-opacity:1;fill-rule:nonzero;stroke:none;stroke-width:3.03558"
       id="path4930" />
    <path
       d="m 612.37057,237.16236 c -1.80941,-0.31408 -3.53132,0.89699 -3.84419,2.7064 -0.31597,1.80786 0.89552,3.52978 2.70331,3.84408 1.81096,0.31408 3.53295,-0.89548 3.84729,-2.70636 0.31408,-1.80779 -0.89707,-3.52978 -2.70641,-3.84412"
       style="fill:#ff7f62;fill-opacity:1;fill-rule:evenodd;stroke:none;stroke-width:0.153336"
       id="path6749" />
    <path
       d="m 629.8157,236.71834 c -1.80786,-0.31597 -3.52989,0.89559 -3.84419,2.70493 -0.31408,1.80941 0.89703,3.52985 2.70636,3.84419 1.80787,0.31597 3.52986,-0.89548 3.8442,-2.70481 0.31408,-1.8079 -0.89703,-3.52989 -2.70637,-3.84431"
       style="fill:#ff7f62;fill-opacity:1;fill-rule:evenodd;stroke:none;stroke-width:0.153336"
       id="path6751" />
    <path
       d="m 140.53288,234.80949 c 1.80941,-0.31408 3.53132,0.89695 3.84419,2.70636 0.31597,1.80787 -0.89548,3.52978 -2.70327,3.84409 -1.81096,0.31408 -3.53299,-0.89549 -3.84729,-2.70637 -0.31408,-1.80779 0.89703,-3.52978 2.70637,-3.84408"
       style="fill:#f26b42;fill-opacity:1;fill-rule:evenodd;stroke:none;stroke-width:0.153336"
       id="path6749-8" />
    <path
       d="m 123.08779,234.36547 c 1.80786,-0.31597 3.52985,0.89559 3.84419,2.70493 0.31408,1.80941 -0.89707,3.52985 -2.70641,3.84416 -1.80786,0.31597 -3.52985,-0.89549 -3.84419,-2.70482 -0.31408,-1.80786 0.89707,-3.52985 2.70641,-3.84427"
       style="fill:#f26b42;fill-opacity:1;fill-rule:evenodd;stroke:none;stroke-width:0.153336"
       id="path6751-5" />
    <path
       d="m 122.17802,230.49013 c -0.17462,-0.29594 -0.5232,-0.36662 -0.7753,-0.15836 -0.2502,0.20749 -0.30992,0.61697 -0.13417,0.91358 0.59633,0.99844 2.13218,1.61874 3.83818,1.66058 1.48861,0.034 3.1409,-0.35112 4.40875,-1.2988 0.25814,-0.192 0.33637,-0.59807 0.17197,-0.9044 -0.16366,-0.30539 -0.50593,-0.39753 -0.76581,-0.2041 -1.0749,0.80115 -2.49937,1.13019 -3.79488,1.09852 -1.3717,-0.034 -2.55632,-0.44746 -2.95045,-1.10668"
       style="fill:#000000;fill-opacity:1;fill-rule:nonzero;stroke:none;stroke-width:0.0940717"
       id="path6761-4" />
    <path
       d="m 142.75826,231.27189 c 0.17991,-0.29254 0.12548,-0.70216 -0.12132,-0.91461 -0.24869,-0.21241 -0.5946,-0.14816 -0.7753,0.14438 -0.4216,0.68496 -1.64016,1.16908 -3.04917,1.24977 -1.27733,0.0688 -2.67764,-0.20749 -3.76713,-0.99428 -0.2623,-0.18935 -0.60404,-0.0922 -0.76324,0.2177 -0.161,0.30879 -0.0775,0.71331 0.18596,0.90135 1.29191,0.93395 2.92357,1.26818 4.39835,1.18435 1.72509,-0.0979 3.27866,-0.79075 3.89348,-1.78832"
       style="fill:#000000;fill-opacity:1;fill-rule:nonzero;stroke:none;stroke-width:0.0940717"
       id="path6767-1" />
  </g>
</svg>
